<svg width="90" height="90" viewBox="0 0 90 90" fill="none" xmlns="http://www.w3.org/2000/svg">
<g opacity="0.2" filter="url(#filter0_f_2303_2823)">
<rect x="13" y="13" width="64" height="64" rx="16" fill="url(#paint0_radial_2303_2823)"/>
</g>
<path d="M56.0169 30.9032C55.8617 30.9032 55.6893 30.8514 55.5325 30.7572C51.9461 28.88 48.8221 28.0839 45.0661 28.0839C41.3456 28.0839 37.8154 28.9805 34.5741 30.7488C34.4432 30.827 34.28 30.8623 34.0749 30.8623C33.6867 30.8623 33.3299 30.6478 33.12 30.2887C32.8631 29.8023 33.0466 29.1796 33.5466 28.8856C37.0923 26.9734 40.9589 26 45.0254 26C49.1034 26 52.6368 26.893 56.4818 28.8957C56.8074 29.0414 56.951 29.3285 57.0113 29.5007C57.0684 29.7786 57.034 30.0802 56.9179 30.3117C56.7699 30.6652 56.3956 30.9032 56.0169 30.9032Z" fill="#222222"/>
<path d="M40.8169 63.6322C40.5487 63.6322 40.2626 63.5089 40.1058 63.3256C38.4818 61.7001 37.5975 60.6485 36.27 58.2837C34.9676 55.9554 34.2792 53.0998 34.2792 50.0257C34.2792 44.3481 39.1182 39.729 45.0661 39.729C51.0144 39.729 55.8533 44.3481 55.8533 50.0257C55.8533 50.6214 55.3869 51.0881 54.7911 51.0881C54.1954 51.0881 53.7285 50.6214 53.7285 50.0257C53.7285 45.4971 49.8245 41.8129 45.0254 41.8129C42.6376 41.8129 40.3317 42.7584 38.6984 44.4068C37.1726 45.947 36.343 47.9585 36.3629 50.0703C36.3629 52.7857 36.9603 55.2852 38.0911 57.2949C39.3265 59.4684 40.1393 60.3459 41.5862 61.8332C41.9621 62.2382 41.9669 62.8807 41.5934 63.2982C41.338 63.5167 41.0699 63.6322 40.8169 63.6322Z" fill="#222222"/>
<path d="M50.5008 64.0001C50.4046 64.0001 50.3216 64.0001 50.2622 63.9801C47.2021 63.134 45.2125 62.0169 43.146 59.9901C40.5232 57.4074 39.0189 53.7902 39.0189 50.0667C39.0189 46.9575 41.6768 44.4281 44.9436 44.4281C48.2104 44.4281 50.8683 46.9575 50.8683 50.0667C50.8683 52.0269 52.5913 53.6216 54.7093 53.6216C56.827 53.6216 58.55 52.0269 58.55 50.0667C58.55 42.9922 52.4461 37.2366 44.9436 37.2366C39.6262 37.2366 34.7505 40.1978 32.5223 44.7804C31.7897 46.332 31.419 48.0955 31.419 50.0258C31.419 51.5136 31.5487 53.8375 32.6708 56.8296C32.7629 57.075 32.751 57.3717 32.6388 57.623C32.5187 57.8635 32.3068 58.0568 32.0658 58.1372C31.9533 58.1641 31.8192 58.1978 31.7051 58.1978C31.2646 58.1978 30.8863 57.9355 30.7411 57.5293C29.8197 55.165 29.3349 52.5742 29.3349 50.0258C29.3349 47.7559 29.775 45.6844 30.6437 43.8688C33.1843 38.549 38.7974 35.1118 44.9436 35.1118C53.5953 35.1118 60.6341 41.8023 60.6341 50.0258C60.6341 53.135 57.9762 55.6646 54.7093 55.6646C51.4425 55.6646 48.7846 53.135 48.7846 50.0258C48.7846 48.0658 47.0616 46.4711 44.9436 46.4711C42.826 46.4711 41.103 48.0658 41.103 50.0258C41.103 53.2178 42.3499 56.2227 44.614 58.4867C46.428 60.2588 48.1506 61.2268 50.7602 61.9425C51.0339 62.0145 51.2574 62.1829 51.3934 62.4175C51.5299 62.6526 51.5658 62.9309 51.4948 63.2014C51.3767 63.6737 50.9685 64.0001 50.5008 64.0001Z" fill="#222222"/>
<path d="M54.2596 60.0772C51.9333 60.0772 50.0044 59.5262 48.3628 58.3927C45.5301 56.4647 43.8403 53.3375 43.8403 50.0256C43.8403 49.43 44.3071 48.9634 44.9029 48.9634C45.4986 48.9634 45.9651 49.43 45.9651 50.0256C45.9651 52.6841 47.317 55.164 49.5811 56.6592C50.905 57.556 52.4632 57.9933 54.3414 57.9933C54.7464 57.9933 55.4982 57.9492 56.2851 57.8249L56.3477 57.815L56.4048 57.7864C56.4164 57.7864 56.4415 57.789 56.4662 57.789C56.9491 57.789 57.3796 58.1563 57.4067 58.5909C57.4399 58.8905 57.3756 59.1671 57.2232 59.4111C57.0835 59.6343 56.8573 59.7786 56.5496 59.84C55.8382 59.998 55.0704 60.0772 54.2596 60.0772Z" fill="#222222"/>
<path d="M28.9674 40.7917C28.5927 40.7917 28.2308 40.5955 27.9702 40.252C27.8066 39.9004 27.8437 39.507 28.072 39.1934C29.9925 36.4965 32.3898 34.4086 35.1994 32.9841C38.1629 31.462 41.5603 30.6582 45.0254 30.6582C48.5552 30.6582 51.9377 31.4477 54.8067 32.9412C57.651 34.3833 60.0479 36.4576 61.9357 39.1082C62.0929 39.3611 62.1651 39.6594 62.1145 39.8857C62.0478 40.1859 61.887 40.4409 61.6839 40.5676C61.4924 40.7035 61.2737 40.7763 61.0778 40.7763C61.0251 40.7763 60.9744 40.7709 60.927 40.7605C60.6269 40.6937 60.3719 40.5327 60.245 40.3298C58.5947 38.0015 56.3968 36.0925 53.8754 34.7899C51.225 33.4235 48.1649 32.7012 45.0254 32.7012C41.8444 32.7012 38.7834 33.4238 36.1734 34.7909C33.6687 36.0638 31.516 37.9346 29.7798 40.3487L29.7659 40.3681L29.7543 40.3888C29.6118 40.6448 29.3253 40.7917 28.9674 40.7917Z" fill="#222222"/>
<defs>
<filter id="filter0_f_2303_2823" x="0.3" y="0.3" width="89.4" height="89.4" filterUnits="userSpaceOnUse" color-interpolation-filters="sRGB">
<feFlood flood-opacity="0" result="BackgroundImageFix"/>
<feBlend mode="normal" in="SourceGraphic" in2="BackgroundImageFix" result="shape"/>
<feGaussianBlur stdDeviation="6.35" result="effect1_foregroundBlur_2303_2823"/>
</filter>
<radialGradient id="paint0_radial_2303_2823" cx="0" cy="0" r="1" gradientUnits="userSpaceOnUse" gradientTransform="translate(13.2263 43.5934) rotate(-2.26679) scale(63.2392)">
<stop stop-color="#EF4BCB"/>
<stop offset="1" stop-color="#34897B"/>
</radialGradient>
</defs>
</svg>
