<svg width="91" height="90" viewBox="0 0 91 90" fill="none" xmlns="http://www.w3.org/2000/svg">
<g opacity="0.2" filter="url(#filter0_f_2303_2815)">
<rect x="13.5" y="13" width="64" height="64" rx="16" fill="url(#paint0_radial_2303_2815)"/>
</g>
<path d="M41.75 31.25H34.25C33.587 31.25 32.9511 31.5134 32.4822 31.9822C32.0134 32.4511 31.75 33.087 31.75 33.75V41.25C31.75 41.913 32.0134 42.5489 32.4822 43.0178C32.9511 43.4866 33.587 43.75 34.25 43.75H41.75C42.413 43.75 43.0489 43.4866 43.5178 43.0178C43.9866 42.5489 44.25 41.913 44.25 41.25V33.75C44.25 33.087 43.9866 32.4511 43.5178 31.9822C43.0489 31.5134 42.413 31.25 41.75 31.25ZM41.75 41.25H34.25V33.75H41.75V41.25ZM56.75 31.25H49.25C48.587 31.25 47.9511 31.5134 47.4822 31.9822C47.0134 32.4511 46.75 33.087 46.75 33.75V41.25C46.75 41.913 47.0134 42.5489 47.4822 43.0178C47.9511 43.4866 48.587 43.75 49.25 43.75H56.75C57.413 43.75 58.0489 43.4866 58.5178 43.0178C58.9866 42.5489 59.25 41.913 59.25 41.25V33.75C59.25 33.087 58.9866 32.4511 58.5178 31.9822C58.0489 31.5134 57.413 31.25 56.75 31.25ZM56.75 41.25H49.25V33.75H56.75V41.25ZM41.75 46.25H34.25C33.587 46.25 32.9511 46.5134 32.4822 46.9822C32.0134 47.4511 31.75 48.087 31.75 48.75V56.25C31.75 56.913 32.0134 57.5489 32.4822 58.0178C32.9511 58.4866 33.587 58.75 34.25 58.75H41.75C42.413 58.75 43.0489 58.4866 43.5178 58.0178C43.9866 57.5489 44.25 56.913 44.25 56.25V48.75C44.25 48.087 43.9866 47.4511 43.5178 46.9822C43.0489 46.5134 42.413 46.25 41.75 46.25ZM41.75 56.25H34.25V48.75H41.75V56.25ZM56.75 46.25H49.25C48.587 46.25 47.9511 46.5134 47.4822 46.9822C47.0134 47.4511 46.75 48.087 46.75 48.75V56.25C46.75 56.913 47.0134 57.5489 47.4822 58.0178C47.9511 58.4866 48.587 58.75 49.25 58.75H56.75C57.413 58.75 58.0489 58.4866 58.5178 58.0178C58.9866 57.5489 59.25 56.913 59.25 56.25V48.75C59.25 48.087 58.9866 47.4511 58.5178 46.9822C58.0489 46.5134 57.413 46.25 56.75 46.25ZM56.75 56.25H49.25V48.75H56.75V56.25Z" fill="#222222"/>
<defs>
<filter id="filter0_f_2303_2815" x="0.8" y="0.3" width="89.4" height="89.4" filterUnits="userSpaceOnUse" color-interpolation-filters="sRGB">
<feFlood flood-opacity="0" result="BackgroundImageFix"/>
<feBlend mode="normal" in="SourceGraphic" in2="BackgroundImageFix" result="shape"/>
<feGaussianBlur stdDeviation="6.35" result="effect1_foregroundBlur_2303_2815"/>
</filter>
<radialGradient id="paint0_radial_2303_2815" cx="0" cy="0" r="1" gradientUnits="userSpaceOnUse" gradientTransform="translate(13.7263 43.5934) rotate(-2.26679) scale(63.2392)">
<stop stop-color="#EF4BCB"/>
<stop offset="1" stop-color="#34897B"/>
</radialGradient>
</defs>
</svg>
