<svg width="91" height="90" viewBox="0 0 91 90" fill="none" xmlns="http://www.w3.org/2000/svg">
<g opacity="0.2" filter="url(#filter0_f_2303_2872)">
<rect x="13.5" y="13" width="64" height="64" rx="16" fill="url(#paint0_radial_2303_2872)"/>
</g>
<path d="M36.7705 30.4542C36.5277 29.9726 36.7212 29.3854 37.2027 29.1425C37.7178 28.8827 38.2519 28.6444 38.7899 28.4344C39.2923 28.2383 39.8587 28.4864 40.0548 28.9888C40.251 29.4912 40.0027 30.0575 39.5003 30.2537C39.0195 30.4415 38.5423 30.6543 38.0822 30.8864C37.9412 30.9575 37.791 30.9912 37.6432 30.9912C37.2862 30.9912 36.9422 30.7947 36.7705 30.4541L36.7705 30.4542ZM28.5592 41.4017C28.6546 41.431 28.751 41.4449 28.8459 41.4449C29.2637 41.4449 29.6503 41.1747 29.7791 40.7544C29.9817 40.0941 30.2287 39.4391 30.5133 38.808C30.735 38.3163 30.5162 37.738 30.0245 37.5162C29.533 37.2946 28.9547 37.5132 28.7329 38.005C28.4146 38.7107 28.1384 39.4431 27.9119 40.1817C27.7537 40.6974 28.0437 41.2436 28.5592 41.4017ZM31.7281 34.8565C31.913 35.0173 32.1413 35.0961 32.3685 35.0961C32.6413 35.0961 32.9127 34.9823 33.1059 34.7603C33.4959 34.3116 33.9146 33.88 34.3501 33.4773C34.7461 33.1111 34.7702 32.4932 34.4041 32.0973C34.0378 31.7013 33.42 31.6771 33.0241 32.0434C32.5367 32.494 32.0684 32.9769 31.632 33.4788C31.2781 33.8858 31.3212 34.5026 31.7281 34.8565ZM52.3848 28.5001L53.7763 27.9367C54.2761 27.7343 54.5173 27.165 54.3149 26.6651C54.1126 26.1652 53.5432 25.9239 53.0434 26.1263L49.1409 27.7063C48.8694 27.8162 48.6616 28.0422 48.5748 28.3219C48.4879 28.6016 48.5311 28.9055 48.6926 29.1498L51.0134 32.6625C51.3107 33.1124 51.9165 33.2362 52.3665 32.939C52.8165 32.6416 52.9402 32.0359 52.643 31.5859L51.8555 30.3941C57.9323 32.936 61.9356 38.8842 61.9356 45.5569C61.9356 54.6195 54.5627 61.9925 45.5001 61.9925C36.4375 61.9925 29.0645 54.6195 29.0645 45.5569C29.0645 45.0177 28.6272 44.5804 28.0879 44.5804C27.5486 44.5804 27.1113 45.0177 27.1113 45.5569C27.1113 50.4687 29.0241 55.0866 32.4972 58.5598C35.9704 62.0329 40.5881 63.9456 45.5 63.9456C50.4119 63.9456 55.0296 62.0329 58.5028 58.5598C61.9759 55.0866 63.8887 50.4688 63.8887 45.5569C63.8887 38.0094 59.3102 31.2902 52.3848 28.5001ZM34.8663 37.1719L37.1149 34.9233C37.643 34.395 38.477 34.3137 39.0973 34.7296L40.1159 35.4127L42.1341 34.5766L42.3713 33.3736C42.5158 32.6406 43.1629 32.1087 43.91 32.1087H47.0899C47.837 32.1087 48.4842 32.6407 48.6287 33.3736L48.8659 34.5766L50.884 35.4127L51.9025 34.7297C52.5228 34.3134 53.3567 34.3949 53.8851 34.9234L56.1336 37.1718C56.6618 37.7001 56.7433 38.5338 56.3273 39.1542L55.6441 40.1729L56.4802 42.191L57.6831 42.4282C58.4162 42.5727 58.9481 43.2198 58.9481 43.9669V47.1469C58.9481 47.8941 58.416 48.5413 57.683 48.6858L56.4802 48.923L55.6441 50.941L56.3272 51.9595C56.7433 52.5799 56.6619 53.4137 56.1336 53.942L53.8849 56.1907C53.3566 56.7191 52.5227 56.8004 51.9023 56.3841L50.8838 55.7012L48.8658 56.5373L48.6286 57.7403C48.4841 58.4733 47.837 59.0053 47.0898 59.0053H43.9099C43.1628 59.0053 42.5156 58.4733 42.3712 57.7402L42.134 56.5373L40.1159 55.7012L39.0973 56.3843C38.4767 56.8004 37.6429 56.7191 37.1148 56.1907L34.8663 53.9422C34.338 53.4137 34.2566 52.58 34.6727 51.9596L35.3557 50.9411L34.5196 48.923L33.3166 48.6858C32.5837 48.5413 32.0516 47.8942 32.0516 47.1469V43.9669C32.0516 43.2198 32.5837 42.5726 33.3168 42.4282L34.5196 42.191L35.3557 40.1729L34.6727 39.1543C34.2566 38.5341 34.338 37.7002 34.8663 37.1719ZM35.4107 44.006L34.0048 44.2832V46.8305L35.4107 47.1077C35.7312 47.1709 35.9989 47.3902 36.124 47.692L37.3604 50.6766C37.4855 50.9784 37.4513 51.3228 37.2693 51.5942L36.4711 52.7845L38.2723 54.5858L39.4627 53.7876C39.734 53.6055 40.0784 53.5713 40.3803 53.6964L43.3648 54.9328C43.6666 55.0579 43.8859 55.3255 43.9491 55.6461L44.2262 57.0519H46.7737L47.0509 55.6461C47.1141 55.3255 47.3334 55.0578 47.6352 54.9328L50.6196 53.6963C50.9214 53.5712 51.2659 53.6054 51.5373 53.7874L52.7276 54.5856L54.5289 52.7844L53.7306 51.5941C53.5487 51.3227 53.5144 50.9783 53.6395 50.6764L54.876 47.6919C55.0011 47.39 55.2688 47.1707 55.5893 47.1076L56.9951 46.8304V44.283L55.5893 44.0059C55.2688 43.9426 55.0011 43.7234 54.876 43.4216L53.6395 40.437C53.5144 40.1351 53.5487 39.7907 53.7306 39.5193L54.5289 38.3291L52.7276 36.5278L51.5373 37.3259C51.2659 37.5079 50.9215 37.5421 50.6197 37.4171L47.6352 36.1806C47.3334 36.0555 47.114 35.7879 47.0509 35.4673L46.7737 34.0616H44.2262L43.9491 35.4673C43.8859 35.7879 43.6666 36.0555 43.3648 36.1806L40.3802 37.4171C40.0783 37.542 39.7339 37.5079 39.4626 37.3259L38.2723 36.5278L36.4711 38.3291L37.2693 39.5194C37.4513 39.7908 37.4855 40.1351 37.3604 40.437L36.124 43.4216C35.9989 43.7234 35.7313 43.9427 35.4107 44.0059V44.006ZM38.4687 45.5569C38.4687 41.6798 41.623 38.5255 45.5001 38.5255C49.3772 38.5255 52.5316 41.6798 52.5316 45.5569C52.5316 49.4341 49.3773 52.5884 45.5001 52.5884C41.6229 52.5884 38.4687 49.4341 38.4687 45.5569ZM40.4218 45.5569C40.4218 48.3571 42.6999 50.6352 45.5001 50.6352C48.3002 50.6352 50.5784 48.3571 50.5784 45.5569C50.5784 42.7568 48.3003 40.4787 45.5001 40.4787C42.6998 40.4787 40.4218 42.7568 40.4218 45.5569Z" fill="#222222"/>
<defs>
<filter id="filter0_f_2303_2872" x="0.8" y="0.3" width="89.4" height="89.4" filterUnits="userSpaceOnUse" color-interpolation-filters="sRGB">
<feFlood flood-opacity="0" result="BackgroundImageFix"/>
<feBlend mode="normal" in="SourceGraphic" in2="BackgroundImageFix" result="shape"/>
<feGaussianBlur stdDeviation="6.35" result="effect1_foregroundBlur_2303_2872"/>
</filter>
<radialGradient id="paint0_radial_2303_2872" cx="0" cy="0" r="1" gradientUnits="userSpaceOnUse" gradientTransform="translate(13.7263 43.5934) rotate(-2.26679) scale(63.2392)">
<stop stop-color="#EF4BCB"/>
<stop offset="1" stop-color="#34897B"/>
</radialGradient>
</defs>
</svg>
