<svg width="90" height="90" viewBox="0 0 90 90" fill="none" xmlns="http://www.w3.org/2000/svg">
<g opacity="0.2" filter="url(#filter0_f_2303_2860)">
<rect x="13" y="13" width="64" height="64" rx="16" fill="url(#paint0_radial_2303_2860)"/>
</g>
<path d="M60 25.3125H30C28.1042 25.3125 26.5625 26.8542 26.5625 28.75V43.75C26.5625 45.6458 28.1042 47.1875 30 47.1875H39.0625V53.3618L36.6335 55.7909C35.3278 55.0731 33.6749 55.2142 32.5696 56.3196C31.2292 57.6599 31.2292 59.8401 32.5696 61.1804C33.2397 61.8506 34.1199 62.1851 35 62.1851C35.8801 62.1851 36.7603 61.8506 37.4304 61.1804C38.5358 60.0751 38.6769 58.4222 37.9591 57.1165L40.6628 54.4128C40.8325 54.2432 40.9375 54.0088 40.9375 53.75V47.1875H44.0625V57.9588C42.6242 58.3699 41.5625 59.6814 41.5625 61.25C41.5625 63.1458 43.1042 64.6875 45 64.6875C46.8958 64.6875 48.4375 63.1458 48.4375 61.25C48.4375 59.6814 47.3758 58.3699 45.9375 57.9588V47.1875H49.0625V51.25C49.0625 51.5088 49.1675 51.7432 49.3372 51.9128L52.0409 54.6165C51.3231 55.9222 51.4642 57.5751 52.5696 58.6804C53.2397 59.3506 54.1199 59.6851 55 59.6851C55.8801 59.6851 56.7603 59.3506 57.4304 58.6804C58.7708 57.3401 58.7708 55.1599 57.4304 53.8196C56.3251 52.7142 54.6722 52.5731 53.3665 53.2909L50.9375 50.8618V47.1875H60C61.8958 47.1875 63.4375 45.6458 63.4375 43.75V28.75C63.4375 26.8542 61.8958 25.3125 60 25.3125ZM36.1047 59.8547C35.4944 60.4626 34.5056 60.4626 33.8953 59.8547C33.2861 59.2456 33.2861 58.2544 33.8953 57.6453C34.2004 57.3413 34.5996 57.1887 35 57.1887C35.4004 57.1887 35.7996 57.3413 36.1047 57.6453C36.7139 58.2544 36.7139 59.2456 36.1047 59.8547ZM46.5625 61.25C46.5625 62.1118 45.8618 62.8125 45 62.8125C44.1382 62.8125 43.4375 62.1118 43.4375 61.25C43.4375 60.3882 44.1382 59.6875 45 59.6875C45.8618 59.6875 46.5625 60.3882 46.5625 61.25ZM56.1047 55.1453C56.7139 55.7544 56.7139 56.7456 56.1047 57.3547C55.4944 57.9626 54.5056 57.9626 53.8953 57.3547C53.2861 56.7456 53.2861 55.7544 53.8953 55.1453C54.2004 54.8413 54.5996 54.6887 55 54.6887C55.4004 54.6887 55.7996 54.8413 56.1047 55.1453ZM60 45.3125H30C29.1382 45.3125 28.4375 44.6118 28.4375 43.75V28.75C28.4375 27.8882 29.1382 27.1875 30 27.1875H60C60.8618 27.1875 61.5625 27.8882 61.5625 28.75V43.75C61.5625 44.6118 60.8618 45.3125 60 45.3125Z" fill="#222222"/>
<path d="M39.6447 30.9705C39.5227 30.5786 39.1601 30.3125 38.7499 30.3125H37.4999C37.0898 30.3125 36.7272 30.5786 36.6052 30.9705L33.4802 40.9705C33.3251 41.4648 33.601 41.991 34.0954 42.1448C34.5837 42.2974 35.1135 42.0227 35.2697 41.5295L35.8453 39.6875H40.4046L40.9802 41.5295C41.1059 41.9312 41.4758 42.1875 41.8749 42.1875C41.9677 42.1875 42.0617 42.1741 42.1545 42.1448C42.6489 41.991 42.9248 41.4648 42.7697 40.9705L39.6447 30.9705ZM36.4312 37.8125L38.1249 32.3926L39.8187 37.8125H36.4312Z" fill="#222222"/>
<path d="M48.75 30.3125H45C44.4824 30.3125 44.0625 30.7324 44.0625 31.25V41.25C44.0625 41.7676 44.4824 42.1875 45 42.1875C45.5176 42.1875 45.9375 41.7676 45.9375 41.25V37.1875H48.75C50.6458 37.1875 52.1875 35.6458 52.1875 33.75C52.1875 31.8542 50.6458 30.3125 48.75 30.3125ZM48.75 35.3125H45.9375V32.1875H48.75C49.6118 32.1875 50.3125 32.8882 50.3125 33.75C50.3125 34.6118 49.6118 35.3125 48.75 35.3125Z" fill="#222222"/>
<path d="M55 30.3125C54.4824 30.3125 54.0625 30.7324 54.0625 31.25V41.25C54.0625 41.7676 54.4824 42.1875 55 42.1875C55.5176 42.1875 55.9375 41.7676 55.9375 41.25V31.25C55.9375 30.7324 55.5176 30.3125 55 30.3125Z" fill="#222222"/>
<defs>
<filter id="filter0_f_2303_2860" x="0.3" y="0.3" width="89.4" height="89.4" filterUnits="userSpaceOnUse" color-interpolation-filters="sRGB">
<feFlood flood-opacity="0" result="BackgroundImageFix"/>
<feBlend mode="normal" in="SourceGraphic" in2="BackgroundImageFix" result="shape"/>
<feGaussianBlur stdDeviation="6.35" result="effect1_foregroundBlur_2303_2860"/>
</filter>
<radialGradient id="paint0_radial_2303_2860" cx="0" cy="0" r="1" gradientUnits="userSpaceOnUse" gradientTransform="translate(13.2263 43.5934) rotate(-2.26679) scale(63.2392)">
<stop stop-color="#EF4BCB"/>
<stop offset="1" stop-color="#34897B"/>
</radialGradient>
</defs>
</svg>
