<svg width="39" height="56" viewBox="0 0 39 56" fill="none" xmlns="http://www.w3.org/2000/svg">
<path d="M19.1622 55.988C16.4262 55.988 13.8169 55.4433 11.3342 54.354C8.85154 53.2393 6.68554 51.6813 4.8362 49.68C3.0122 47.6787 1.70754 45.3227 0.922202 42.612L10.9542 39.952C11.4862 41.9533 12.5249 43.5113 14.0702 44.626C15.6409 45.7153 17.3382 46.26 19.1622 46.26C20.7329 46.26 22.1642 45.88 23.4562 45.12C24.7735 44.36 25.8122 43.334 26.5722 42.042C27.3575 40.75 27.7502 39.3187 27.7502 37.748C27.7502 35.392 26.9395 33.378 25.3182 31.706C23.7222 30.0087 21.6702 29.16 19.1622 29.16C18.4022 29.16 17.6675 29.274 16.9582 29.502C16.2489 29.7047 15.5649 29.996 14.9062 30.376L10.2702 22.244L27.6742 7.804L28.4342 10.008H3.0502V0.279998H37.2502V10.008L23.7222 23.08L23.6462 20.192C26.7875 20.6733 29.4349 21.7753 31.5882 23.498C33.7669 25.1953 35.4135 27.298 36.5282 29.806C37.6682 32.2887 38.2382 34.936 38.2382 37.748C38.2382 41.1933 37.3642 44.2967 35.6162 47.058C33.8682 49.794 31.5502 51.9727 28.6622 53.594C25.7742 55.19 22.6075 55.988 19.1622 55.988Z" fill="url(#paint0_radial_2867_899)"/>
<defs>
<radialGradient id="paint0_radial_2867_899" cx="0" cy="0" r="1" gradientUnits="userSpaceOnUse" gradientTransform="translate(-11.4403 23.5001) rotate(-3.22138) scale(63.2897 89.8464)">
<stop stop-color="#EF4BCB"/>
<stop offset="1" stop-color="#34897B"/>
</radialGradient>
</defs>
</svg>
