<svg width="39" height="56" viewBox="0 0 39 56" fill="none" xmlns="http://www.w3.org/2000/svg">
<path d="M0.533032 55.924V46.956L23.485 26.588C25.2077 25.068 26.4237 23.6367 27.133 22.294C27.8424 20.9513 28.197 19.6973 28.197 18.532C28.197 16.86 27.855 15.378 27.171 14.086C26.487 12.7687 25.5244 11.7427 24.283 11.008C23.0417 10.248 21.585 9.868 19.913 9.868C18.165 9.868 16.6197 10.2733 15.277 11.084C13.9597 11.8693 12.9337 12.9207 12.199 14.238C11.4644 15.53 11.1224 16.936 11.173 18.456H0.533032C0.533032 14.7067 1.35637 11.464 3.00303 8.728C4.6497 5.992 6.94237 3.87666 9.88103 2.382C12.8197 0.887332 16.2397 0.139999 20.141 0.139999C23.713 0.139999 26.905 0.925331 29.717 2.496C32.5544 4.04133 34.7837 6.20733 36.405 8.994C38.0264 11.7807 38.837 15.0107 38.837 18.684C38.837 21.3947 38.457 23.6493 37.697 25.448C36.937 27.2213 35.8097 28.868 34.315 30.388C32.8204 31.8827 30.9837 33.58 28.805 35.48L13.985 48.476L13.149 46.196H38.837V55.924H0.533032Z" fill="url(#paint0_radial_2867_4)"/>
<defs>
<radialGradient id="paint0_radial_2867_4" cx="0" cy="0" r="1" gradientUnits="userSpaceOnUse" gradientTransform="translate(-12.107 24.5001) rotate(-3.22138) scale(63.2897 89.8464)">
<stop stop-color="#EF4BCB"/>
<stop offset="1" stop-color="#34897B"/>
</radialGradient>
</defs>
</svg>
