<svg width="137" height="28" viewBox="0 0 137 28" fill="none" xmlns="http://www.w3.org/2000/svg">
<path d="M24.346 6.48089L21.9398 6.58311L21.5446 6.6067L21.584 3.42793C21.5958 2.02038 20.7563 0.764208 19.4451 0.243259C18.5998 -0.0909344 17.6857 -0.0811053 16.862 0.274713C16.4197 0.4654 16.0344 0.740618 15.7061 1.10037L13.5554 3.43383L13.2822 3.14681L11.5994 1.42473C11.161 0.982417 10.6204 0.691472 10.0386 0.579419C9.45666 0.4654 8.84725 0.520443 8.27322 0.770106C7.12517 1.2655 6.41746 2.39193 6.47447 3.64221L6.5767 6.04643L6.59832 6.44157L3.42545 6.41208C2.93792 6.40618 2.47398 6.49858 2.03363 6.68927C1.20994 7.04508 0.574972 7.70364 0.240778 8.55092C-0.280171 9.86214 0.0618859 11.3346 1.09592 12.29L3.43921 14.4367L3.15023 14.7099L1.43011 16.3927C0.531723 17.2655 0.278129 18.5708 0.773522 19.7189C1.27088 20.8669 2.39731 21.5746 3.64562 21.5196L6.05182 21.4174L6.45088 21.4017L6.4096 24.5706C6.39584 25.9801 7.23526 27.2363 8.54647 27.7553C9.39375 28.0914 10.3079 28.0816 11.1316 27.7238C11.5719 27.5331 11.9572 27.2579 12.2855 26.9001L14.4342 24.5568L14.7153 24.8419L16.3981 26.564C17.265 27.4525 18.5743 27.716 19.7243 27.2186C20.8723 26.7212 21.58 25.5948 21.523 24.3465L21.4208 21.9403L21.3992 21.5452L24.576 21.5845C25.0635 21.5904 25.5274 21.498 25.9678 21.3073C26.7915 20.9515 27.4245 20.291 27.7606 19.4456C28.2796 18.1344 27.9513 16.6659 26.9035 15.7066L24.5622 13.5579L24.8492 13.2866L26.5713 11.6039C27.4677 10.731 27.7233 9.42572 27.2259 8.27767C26.7227 7.13355 25.5963 6.42388 24.346 6.48089ZM8.37348 6.07002L8.26929 3.5675C8.23391 2.80082 8.81973 2.48825 8.99469 2.41355C9.17751 2.33492 9.79872 2.12457 10.3315 2.67501L12.085 4.46393L12.3563 4.75291L11.4893 5.69062C11.2515 5.94225 10.9802 6.13686 10.6637 6.27447C10.3492 6.41012 10.011 6.47695 9.66701 6.47892L8.38724 6.46909L8.37348 6.07002ZM3.57092 19.7228C2.80621 19.7582 2.49757 19.1803 2.41697 18.9974C2.33834 18.8146 2.12996 18.1934 2.67843 17.6607L4.46931 15.9071L4.75633 15.6358L6.23268 16.9923C6.39781 17.1476 6.4961 17.3717 6.4961 17.5997L6.47251 19.6049L6.07541 19.6186L3.57092 19.7228ZM19.624 21.9187L19.7282 24.4212C19.7636 25.1859 19.1856 25.4945 19.0028 25.5751C18.8278 25.6498 18.1988 25.8622 17.6641 25.3137L15.9125 23.5228L15.6392 23.2358L16.5081 22.2981C16.746 22.0465 17.0252 21.8459 17.3417 21.7103C17.6562 21.5727 17.9943 21.5058 18.3305 21.5098L19.6122 21.5275L19.624 21.9187ZM25.7339 18.6436C25.6827 18.7733 25.5039 19.137 25.1048 19.31C24.9633 19.3709 24.8021 19.4122 24.6035 19.4083L21.3087 19.3709L21.293 18.9738L21.2714 18.5787L21.2478 18.1128C21.2065 17.3107 21.523 16.5323 22.097 15.9681L22.4332 15.6457L21.1495 14.4622L21.1181 14.4347L20.8566 14.6981C19.9169 15.6083 19.4117 16.8822 19.4726 18.1895L19.4844 18.561L19.5002 18.9581L19.5218 19.3532L18.3619 19.3414C17.7034 19.3297 17.0625 19.4692 16.4806 19.7209C15.8889 19.9764 15.3621 20.3539 14.9158 20.8316L14.1295 21.6867L12.9205 22.9999L10.6892 25.4257C10.5556 25.5732 10.4081 25.6656 10.2764 25.7245C9.87539 25.8975 9.50188 25.7816 9.35837 25.7265C9.17948 25.6557 8.58972 25.3668 8.60152 24.5922L8.6369 21.2955L9.43504 21.268L10.6283 21.2149C10.9645 21.1972 11.2987 21.3309 11.5424 21.5707L12.3759 22.4259L13.5594 21.1422L13.5849 21.1127L12.8202 20.3263C12.2324 19.7209 11.4068 19.3867 10.5556 19.4299L9.46059 19.4771L9.06153 19.4928L8.66639 19.5144L8.68998 17.6272C8.69981 16.7839 8.34793 15.9681 7.72279 15.3901L6.33097 14.1143L5.01778 12.9053L2.57424 10.6819C2.00611 10.1668 2.19679 9.53188 2.26756 9.35299C2.31868 9.22128 2.49757 8.85759 2.88877 8.68853C3.03031 8.62759 3.19348 8.59614 3.39203 8.60007L6.68875 8.63545L6.70251 9.03452L6.7261 9.42966L6.74773 9.89359C6.78901 10.6957 6.47447 11.4741 5.89848 12.0403L5.56429 12.3627L6.84602 13.5461L6.87747 13.5717L7.13893 13.3102C8.0786 12.4 8.58383 11.1242 8.52288 9.81889L8.51109 9.44735L8.4875 9.05221L8.47374 8.65315L9.63359 8.66494C10.2882 8.66887 10.933 8.53913 11.5149 8.2875C12.1066 8.03194 12.6354 7.6545 13.0797 7.17483L13.8661 6.32165L15.075 5.00847L17.3063 2.58262C17.44 2.43518 17.5835 2.33295 17.7171 2.27594C18.1162 2.10295 18.4956 2.22483 18.6352 2.27398C18.8141 2.34475 19.4019 2.63373 19.392 3.40827L19.3547 6.70303L18.9556 6.71875L18.5605 6.74038L17.3692 6.79149C17.0311 6.80918 16.6969 6.67747 16.4629 6.43371L15.6294 5.57856L14.444 6.86226L14.4185 6.89175L15.1832 7.67809C15.771 8.28357 16.5966 8.61776 17.4478 8.57451L18.5428 8.52733L18.9419 8.51161L19.337 8.48998L19.3134 10.3772C19.3036 11.2205 19.6555 12.0364 20.2826 12.6143L21.6724 13.8902L22.9856 15.0992L25.4134 17.3304C25.9855 17.8317 25.8007 18.4549 25.7339 18.6436ZM25.3151 10.3202L23.5243 12.0718L23.249 12.3489L21.7727 10.9925C21.6076 10.8372 21.5132 10.621 21.5093 10.3851L21.5329 8.37989L21.928 8.3563L24.4305 8.25211C25.1952 8.21673 25.5039 8.79469 25.5845 8.97751C25.6631 9.16033 25.8636 9.78547 25.3151 10.3202Z" fill="#222222"/>
<path d="M34.0122 18.5V7.3H39.6282C40.3642 7.3 41.0095 7.44933 41.5642 7.748C42.1295 8.04667 42.5722 8.46267 42.8922 8.996C43.2122 9.51867 43.3722 10.1267 43.3722 10.82C43.3722 11.4813 43.2122 12.0733 42.8922 12.596C42.5722 13.1187 42.1295 13.5293 41.5642 13.828C40.9988 14.1267 40.3535 14.276 39.6282 14.276H36.3322V18.5H34.0122ZM36.3322 12.356H39.3722C39.8735 12.356 40.2735 12.2173 40.5722 11.94C40.8815 11.6627 41.0362 11.2947 41.0362 10.836C41.0362 10.3667 40.8815 9.99333 40.5722 9.716C40.2735 9.43867 39.8735 9.3 39.3722 9.3H36.3322V12.356ZM45.0632 18.5V10.164H47.2552V11.092C47.5218 10.7293 47.8418 10.452 48.2152 10.26C48.5885 10.068 49.0098 9.972 49.4792 9.972C49.8845 9.98267 50.1885 10.0467 50.3912 10.164V12.084C50.2312 12.0093 50.0552 11.956 49.8632 11.924C49.6712 11.8813 49.4738 11.86 49.2712 11.86C48.8445 11.86 48.4552 11.9667 48.1032 12.18C47.7512 12.3933 47.4685 12.6973 47.2552 13.092V18.5H45.0632ZM51.9144 18.5V10.164H54.1064V18.5H51.9144ZM53.0024 9.172C52.6611 9.172 52.3677 9.04933 52.1224 8.804C51.8771 8.55867 51.7544 8.26533 51.7544 7.924C51.7544 7.572 51.8771 7.27867 52.1224 7.044C52.3677 6.79867 52.6611 6.676 53.0024 6.676C53.3544 6.676 53.6477 6.79867 53.8824 7.044C54.1277 7.27867 54.2504 7.572 54.2504 7.924C54.2504 8.26533 54.1277 8.55867 53.8824 8.804C53.6477 9.04933 53.3544 9.172 53.0024 9.172ZM56.1406 18.5V10.164H58.3326V10.804C58.93 10.2707 59.6553 10.004 60.5086 10.004C61.0526 10.004 61.538 10.116 61.9646 10.34C62.3913 10.5533 62.7433 10.8573 63.0206 11.252C63.362 10.8467 63.762 10.5373 64.2206 10.324C64.69 10.1107 65.2073 10.004 65.7726 10.004C66.402 10.004 66.9513 10.148 67.4207 10.436C67.9007 10.7133 68.274 11.1027 68.5407 11.604C68.818 12.0947 68.9566 12.6707 68.9566 13.332V18.5H66.7807V13.652C66.7807 13.108 66.6367 12.6813 66.3486 12.372C66.0606 12.052 65.6766 11.892 65.1966 11.892C64.866 11.892 64.562 11.9613 64.2846 12.1C64.018 12.2387 63.7887 12.4467 63.5967 12.724C63.6073 12.82 63.618 12.916 63.6286 13.012C63.6393 13.108 63.6446 13.2147 63.6446 13.332V18.5H61.4526V13.652C61.4526 13.108 61.3086 12.6813 61.0206 12.372C60.7433 12.052 60.3646 11.892 59.8846 11.892C59.554 11.892 59.2553 11.956 58.9886 12.084C58.7326 12.212 58.514 12.404 58.3326 12.66V18.5H56.1406ZM75.025 18.66C74.193 18.66 73.4357 18.468 72.753 18.084C72.081 17.7 71.5477 17.1827 71.153 16.532C70.7584 15.8813 70.561 15.1507 70.561 14.34C70.561 13.5293 70.7477 12.7987 71.121 12.148C71.505 11.4973 72.0224 10.98 72.673 10.596C73.3237 10.212 74.049 10.02 74.849 10.02C75.649 10.02 76.3584 10.2173 76.977 10.612C77.5957 11.0067 78.081 11.54 78.433 12.212C78.7957 12.884 78.977 13.6467 78.977 14.5V15.076H72.801C72.897 15.4067 73.0517 15.7053 73.265 15.972C73.489 16.2387 73.761 16.4467 74.081 16.596C74.4117 16.7453 74.7637 16.82 75.137 16.82C75.5104 16.82 75.8517 16.7613 76.161 16.644C76.481 16.5267 76.753 16.3613 76.977 16.148L78.417 17.46C77.905 17.876 77.377 18.18 76.833 18.372C76.2997 18.564 75.697 18.66 75.025 18.66ZM72.769 13.508H76.817C76.7424 13.1773 76.6037 12.8893 76.401 12.644C76.209 12.388 75.9744 12.1907 75.697 12.052C75.4304 11.9027 75.1317 11.828 74.801 11.828C74.4597 11.828 74.1504 11.8973 73.873 12.036C73.5957 12.1747 73.361 12.372 73.169 12.628C72.9877 12.8733 72.8544 13.1667 72.769 13.508ZM84.3228 18.5V7.3H87.2988L90.3708 13.348L93.4428 7.3H96.4188V18.5H94.2268V10.26L90.3388 17.7L86.4668 10.228V18.5H84.3228ZM102.672 18.66C101.84 18.66 101.088 18.468 100.416 18.084C99.7441 17.7 99.2108 17.1827 98.8161 16.532C98.4215 15.8813 98.2241 15.1507 98.2241 14.34C98.2241 13.5293 98.4161 12.7987 98.8001 12.148C99.1948 11.4867 99.7281 10.964 100.4 10.58C101.083 10.196 101.84 10.004 102.672 10.004C103.504 10.004 104.256 10.196 104.928 10.58C105.611 10.964 106.144 11.4867 106.528 12.148C106.923 12.7987 107.12 13.5293 107.12 14.34C107.12 15.1507 106.923 15.8813 106.528 16.532C106.144 17.1827 105.616 17.7 104.944 18.084C104.272 18.468 103.515 18.66 102.672 18.66ZM102.672 16.756C103.109 16.756 103.499 16.6493 103.84 16.436C104.192 16.2227 104.469 15.9347 104.672 15.572C104.885 15.1987 104.992 14.788 104.992 14.34C104.992 13.8813 104.885 13.4707 104.672 13.108C104.469 12.7453 104.192 12.4573 103.84 12.244C103.499 12.02 103.109 11.908 102.672 11.908C102.245 11.908 101.856 12.02 101.504 12.244C101.152 12.4573 100.875 12.7453 100.672 13.108C100.469 13.4707 100.368 13.8813 100.368 14.34C100.368 14.788 100.469 15.1987 100.672 15.572C100.875 15.9347 101.152 16.2227 101.504 16.436C101.856 16.6493 102.245 16.756 102.672 16.756ZM108.788 18.5V10.164H110.98V10.852C111.609 10.2867 112.388 10.004 113.316 10.004C113.966 10.004 114.537 10.148 115.028 10.436C115.529 10.7133 115.918 11.1027 116.196 11.604C116.473 12.0947 116.612 12.6707 116.612 13.332V18.5H114.42V13.652C114.42 13.108 114.265 12.6813 113.956 12.372C113.646 12.052 113.225 11.892 112.692 11.892C112.318 11.892 111.988 11.9667 111.7 12.116C111.412 12.2547 111.172 12.4573 110.98 12.724V18.5H108.788ZM122.672 18.66C121.84 18.66 121.083 18.468 120.4 18.084C119.728 17.7 119.195 17.1827 118.8 16.532C118.405 15.8813 118.208 15.1507 118.208 14.34C118.208 13.5293 118.395 12.7987 118.768 12.148C119.152 11.4973 119.669 10.98 120.32 10.596C120.971 10.212 121.696 10.02 122.496 10.02C123.296 10.02 124.005 10.2173 124.624 10.612C125.243 11.0067 125.728 11.54 126.08 12.212C126.443 12.884 126.624 13.6467 126.624 14.5V15.076H120.448C120.544 15.4067 120.699 15.7053 120.912 15.972C121.136 16.2387 121.408 16.4467 121.728 16.596C122.059 16.7453 122.411 16.82 122.784 16.82C123.157 16.82 123.499 16.7613 123.808 16.644C124.128 16.5267 124.4 16.3613 124.624 16.148L126.064 17.46C125.552 17.876 125.024 18.18 124.48 18.372C123.947 18.564 123.344 18.66 122.672 18.66ZM120.416 13.508H124.464C124.389 13.1773 124.251 12.8893 124.048 12.644C123.856 12.388 123.621 12.1907 123.344 12.052C123.077 11.9027 122.779 11.828 122.448 11.828C122.107 11.828 121.797 11.8973 121.52 12.036C121.243 12.1747 121.008 12.372 120.816 12.628C120.635 12.8733 120.501 13.1667 120.416 13.508ZM128.869 21.94C128.677 21.94 128.49 21.9293 128.309 21.908C128.138 21.8973 127.994 21.8813 127.877 21.86V19.972C128.09 20.0147 128.346 20.036 128.645 20.036C129.445 20.036 129.999 19.6573 130.309 18.9L130.437 18.58L127.189 10.164H129.605L131.685 15.844L134.037 10.164H136.405L132.565 19.172C132.277 19.844 131.962 20.3827 131.621 20.788C131.279 21.1933 130.885 21.4867 130.437 21.668C129.999 21.8493 129.477 21.94 128.869 21.94Z" fill="#222222"/>
</svg>
