<svg width="157" height="32" viewBox="0 0 157 32" fill="none" xmlns="http://www.w3.org/2000/svg">
<path d="M27.824 7.40673L25.074 7.52356L24.6225 7.55052L24.6674 3.91763C24.6809 2.30901 23.7215 0.873381 22.223 0.27801C21.2569 -0.103925 20.2122 -0.0926918 19.2709 0.313957C18.7654 0.531886 18.325 0.84642 17.9498 1.25756L15.4919 3.92437L15.1797 3.59636L13.2565 1.62827C12.7555 1.12276 12.1376 0.790253 11.4726 0.662193C10.8076 0.531886 10.1111 0.594792 9.45511 0.880121C8.14305 1.44628 7.33425 2.73363 7.3994 4.16252L7.51623 6.91021L7.54094 7.36179L3.9148 7.32809C3.35762 7.32135 2.8274 7.42695 2.32415 7.64488C1.38279 8.05153 0.657111 8.80416 0.275175 9.77248C-0.320195 11.271 0.0707267 12.9538 1.25248 14.0457L3.93052 16.499L3.60026 16.8113L1.63442 18.7345C0.607684 19.732 0.317862 21.2238 0.884025 22.5359C1.45244 23.8479 2.73978 24.6567 4.16643 24.5938L6.91636 24.477L7.37244 24.459L7.32526 28.0807C7.30953 29.6916 8.26886 31.1272 9.7674 31.7203C10.7357 32.1045 11.7804 32.0933 12.7218 31.6844C13.225 31.4664 13.6654 31.1519 14.0406 30.743L16.4962 28.065L16.8175 28.3907L18.7406 30.3588C19.7314 31.3743 21.2277 31.6754 22.542 31.107C23.8541 30.5386 24.6629 29.2512 24.5977 27.8246L24.4809 25.0746L24.4562 24.623L28.0868 24.668C28.644 24.6747 29.1742 24.5691 29.6775 24.3512C30.6188 23.9445 31.3423 23.1897 31.7265 22.2236C32.3196 20.7251 31.9444 19.0468 30.7469 17.9504L28.0711 15.4948L28.3991 15.1847L30.3672 13.2616C31.3917 12.2641 31.6838 10.7723 31.1154 9.46019C30.5402 8.15263 29.2529 7.34157 27.824 7.40673ZM9.56969 6.93717L9.45062 4.07715C9.41018 3.20094 10.0797 2.84372 10.2796 2.75835C10.4886 2.66848 11.1985 2.42808 11.8074 3.05715L13.8114 5.10163L14.1215 5.4319L13.1307 6.50356C12.8588 6.79114 12.5488 7.01356 12.1871 7.17083C11.8276 7.32585 11.4412 7.40224 11.048 7.40448L9.58542 7.39325L9.56969 6.93717ZM4.08105 22.5404C3.20709 22.5808 2.85436 21.9203 2.76225 21.7113C2.67238 21.5024 2.43424 20.7925 3.06106 20.1836L5.10779 18.1796L5.4358 17.8695L7.12306 19.4197C7.31178 19.5972 7.42411 19.8533 7.42411 20.114L7.39715 22.4056L6.94332 22.4213L4.08105 22.5404ZM22.4274 25.0499L22.5465 27.9099C22.587 28.7839 21.9264 29.1366 21.7175 29.2287C21.5175 29.3141 20.7986 29.5568 20.1875 28.9299L18.1857 26.8832L17.8734 26.5552L18.8665 25.4835C19.1383 25.1959 19.4573 24.9668 19.819 24.8118C20.1785 24.6545 20.5649 24.5781 20.9491 24.5826L22.414 24.6028L22.4274 25.0499ZM29.4101 21.3069C29.3517 21.4552 29.1473 21.8709 28.6912 22.0686C28.5294 22.1382 28.3452 22.1854 28.1183 22.1809L24.3529 22.1382L24.3349 21.6844L24.3102 21.2328L24.2832 20.7003C24.236 19.7837 24.5977 18.894 25.2538 18.2492L25.638 17.8808L24.1709 16.5283L24.1349 16.4968L23.8361 16.7979C22.7622 17.8381 22.1848 19.2939 22.2545 20.788L22.2679 21.2126L22.2859 21.6664L22.3106 22.118L20.9851 22.1045C20.2324 22.091 19.5 22.2505 18.835 22.5381C18.1588 22.8302 17.5566 23.2616 17.0466 23.8075L16.148 24.7848L14.7663 26.2856L12.2163 29.058C12.0635 29.2265 11.895 29.3321 11.7445 29.3995C11.2862 29.5972 10.8593 29.4646 10.6953 29.4017C10.4908 29.3209 9.81683 28.9906 9.83031 28.1054L9.87075 24.3377L10.7829 24.3063L12.1466 24.2456C12.5308 24.2254 12.9128 24.3782 13.1913 24.6523L14.1439 25.6296L15.4964 24.1625L15.5256 24.1288L14.6517 23.2301C13.9799 22.5381 13.0363 22.1562 12.0635 22.2056L10.8121 22.2595L10.356 22.2775L9.90445 22.3022L9.93141 20.1454C9.94264 19.1816 9.54049 18.2492 8.82604 17.5887L7.23539 16.1306L5.73461 14.7489L2.94198 12.2079C2.29269 11.6193 2.51062 10.8936 2.5915 10.6891C2.64992 10.5386 2.85436 10.123 3.30145 9.92975C3.46321 9.8601 3.64969 9.82416 3.8766 9.82865L7.64429 9.86909L7.66001 10.3252L7.68697 10.7767L7.71169 11.307C7.75887 12.2236 7.3994 13.1133 6.74112 13.7603L6.35919 14.1288L7.82402 15.4813L7.85997 15.5105L8.15878 15.2117C9.23269 14.1715 9.81009 12.7134 9.74044 11.2216L9.72696 10.797L9.7 10.3454L9.68427 9.88931L11.0098 9.90279C11.758 9.90728 12.4949 9.759 13.1599 9.47143C13.8361 9.17936 14.4405 8.748 14.9482 8.19981L15.8469 7.22475L17.2286 5.72396L19.7786 2.95156C19.9314 2.78306 20.0954 2.66623 20.2482 2.60108C20.7042 2.40337 21.1379 2.54266 21.2974 2.59883C21.5018 2.67971 22.1736 3.00997 22.1623 3.89517L22.1196 7.6606L21.6636 7.67858L21.212 7.70329L19.8505 7.7617C19.4641 7.78192 19.0821 7.6314 18.8148 7.35281L17.8622 6.3755L16.5074 7.84258L16.4782 7.87628L17.3522 8.77496C18.024 9.46693 18.9676 9.84887 19.9404 9.79944L21.1918 9.74552L21.6478 9.72755L22.0994 9.70284L22.0725 11.8596C22.0612 12.8235 22.4634 13.7558 23.1801 14.4164L24.7685 15.8745L26.2693 17.2562L29.0439 19.8062C29.6977 20.3791 29.4865 21.0913 29.4101 21.3069ZM28.9316 11.7945L26.8849 13.7963L26.5703 14.1131L24.8831 12.5629C24.6943 12.3854 24.5865 12.1382 24.582 11.8686L24.609 9.57702L25.0606 9.55006L27.9206 9.43099C28.7945 9.39055 29.1473 10.0511 29.2394 10.26C29.3292 10.469 29.5584 11.1834 28.9316 11.7945Z" fill="url(#paint0_radial_2815_1126)"/>
<path d="M38.871 20.5713V7.77129H45.2893C46.1304 7.77129 46.8679 7.94196 47.5019 8.28329C48.1479 8.62462 48.6539 9.10005 49.0196 9.70957C49.3853 10.3069 49.5681 11.0018 49.5681 11.7941C49.5681 12.55 49.3853 13.2265 49.0196 13.8239C48.6539 14.4212 48.1479 14.8905 47.5019 15.2319C46.8558 15.5732 46.1182 15.7439 45.2893 15.7439H41.5224V20.5713H38.871ZM41.5224 13.5496H44.9967C45.5697 13.5496 46.0268 13.3911 46.3681 13.0741C46.7217 12.7572 46.8984 12.3366 46.8984 11.8124C46.8984 11.2761 46.7217 10.8494 46.3681 10.5324C46.0268 10.2155 45.5697 10.057 44.9967 10.057H41.5224V13.5496ZM51.5007 20.5713V11.0444H54.0059V12.105C54.3106 11.6905 54.6763 11.3736 55.103 11.1541C55.5297 10.9347 56.0112 10.825 56.5476 10.825C57.0108 10.8372 57.3582 10.9103 57.5899 11.0444V13.2387C57.407 13.1534 57.2059 13.0924 56.9864 13.0559C56.767 13.0071 56.5415 12.9827 56.3099 12.9827C55.8222 12.9827 55.3773 13.1046 54.975 13.3484C54.5727 13.5922 54.2497 13.9397 54.0059 14.3907V20.5713H51.5007ZM59.3307 20.5713V11.0444H61.8359V20.5713H59.3307ZM60.5741 9.91072C60.184 9.91072 59.8488 9.77053 59.5684 9.49015C59.288 9.20977 59.1479 8.87453 59.1479 8.48443C59.1479 8.08215 59.288 7.74691 59.5684 7.47872C59.8488 7.19834 60.184 7.05815 60.5741 7.05815C60.9764 7.05815 61.3117 7.19834 61.5799 7.47872C61.8602 7.74691 62.0004 8.08215 62.0004 8.48443C62.0004 8.87453 61.8602 9.20977 61.5799 9.49015C61.3117 9.77053 60.9764 9.91072 60.5741 9.91072ZM64.1607 20.5713V11.0444H66.6659V11.7759C67.3485 11.1663 68.1775 10.8616 69.1527 10.8616C69.7744 10.8616 70.3291 10.9896 70.8167 11.2456C71.3043 11.4894 71.7066 11.8368 72.0236 12.2879C72.4137 11.8246 72.8708 11.4711 73.395 11.2273C73.9314 10.9835 74.5226 10.8616 75.1687 10.8616C75.8879 10.8616 76.5158 11.0261 77.0521 11.3553C77.6007 11.6722 78.0274 12.1172 78.3321 12.6901C78.6491 13.2509 78.8076 13.9092 78.8076 14.665V20.5713H76.3207V15.0307C76.3207 14.409 76.1561 13.9214 75.827 13.5679C75.4978 13.2021 75.059 13.0193 74.5104 13.0193C74.1325 13.0193 73.7851 13.0985 73.4681 13.257C73.1634 13.4155 72.9013 13.6532 72.6819 13.9701C72.694 14.0799 72.7062 14.1896 72.7184 14.2993C72.7306 14.409 72.7367 14.5309 72.7367 14.665V20.5713H70.2316V15.0307C70.2316 14.409 70.067 13.9214 69.7379 13.5679C69.4209 13.2021 68.9881 13.0193 68.4396 13.0193C68.0617 13.0193 67.7203 13.0924 67.4156 13.2387C67.123 13.385 66.8731 13.6044 66.6659 13.897V20.5713H64.1607ZM85.7428 20.7541C84.792 20.7541 83.9265 20.5347 83.1463 20.0959C82.3783 19.657 81.7688 19.0658 81.3177 18.3221C80.8667 17.5785 80.6411 16.7435 80.6411 15.817C80.6411 14.8905 80.8545 14.0555 81.2811 13.3119C81.72 12.5682 82.3112 11.977 83.0548 11.5381C83.7985 11.0993 84.6274 10.8799 85.5417 10.8799C86.456 10.8799 87.2667 11.1054 87.9737 11.5564C88.6808 12.0075 89.2354 12.617 89.6377 13.385C90.0522 14.153 90.2594 15.0246 90.2594 15.9999V16.6581H83.2011C83.3108 17.0361 83.4876 17.3774 83.7314 17.6821C83.9874 17.9869 84.2983 18.2246 84.664 18.3953C85.0419 18.566 85.4442 18.6513 85.8708 18.6513C86.2975 18.6513 86.6876 18.5842 87.0411 18.4501C87.4068 18.3161 87.7177 18.1271 87.9737 17.8833L89.6194 19.3827C89.0343 19.8581 88.4308 20.2056 87.8091 20.425C87.1996 20.6444 86.5108 20.7541 85.7428 20.7541ZM83.1646 14.8661H87.7908C87.7055 14.4882 87.547 14.1591 87.3154 13.8787C87.096 13.5861 86.8278 13.3606 86.5108 13.2021C86.2061 13.0315 85.8648 12.9461 85.4868 12.9461C85.0968 12.9461 84.7432 13.0254 84.4263 13.1839C84.1093 13.3423 83.8411 13.5679 83.6217 13.8604C83.4145 14.1408 83.2621 14.4761 83.1646 14.8661ZM96.3688 20.5713V7.77129H99.77L103.281 14.6833L106.792 7.77129H110.193V20.5713H107.688V11.1541L103.244 19.657L98.8191 11.1176V20.5713H96.3688ZM117.34 20.7541C116.389 20.7541 115.529 20.5347 114.761 20.0959C113.993 19.657 113.384 19.0658 112.933 18.3221C112.482 17.5785 112.256 16.7435 112.256 15.817C112.256 14.8905 112.476 14.0555 112.914 13.3119C113.365 12.5561 113.975 11.9587 114.743 11.5199C115.523 11.081 116.389 10.8616 117.34 10.8616C118.29 10.8616 119.15 11.081 119.918 11.5199C120.698 11.9587 121.308 12.5561 121.746 13.3119C122.197 14.0555 122.423 14.8905 122.423 15.817C122.423 16.7435 122.197 17.5785 121.746 18.3221C121.308 19.0658 120.704 19.657 119.936 20.0959C119.168 20.5347 118.303 20.7541 117.34 20.7541ZM117.34 18.5781C117.839 18.5781 118.284 18.4562 118.674 18.2124C119.077 17.9686 119.394 17.6395 119.625 17.225C119.869 16.7983 119.991 16.329 119.991 15.817C119.991 15.2928 119.869 14.8235 119.625 14.409C119.394 13.9945 119.077 13.6654 118.674 13.4216C118.284 13.1656 117.839 13.0376 117.34 13.0376C116.852 13.0376 116.407 13.1656 116.005 13.4216C115.602 13.6654 115.285 13.9945 115.054 14.409C114.822 14.8235 114.706 15.2928 114.706 15.817C114.706 16.329 114.822 16.7983 115.054 17.225C115.285 17.6395 115.602 17.9686 116.005 18.2124C116.407 18.4562 116.852 18.5781 117.34 18.5781ZM124.329 20.5713V11.0444H126.834V11.8307C127.553 11.1846 128.443 10.8616 129.503 10.8616C130.247 10.8616 130.899 11.0261 131.46 11.3553C132.033 11.6722 132.478 12.1172 132.795 12.6901C133.112 13.2509 133.27 13.9092 133.27 14.665V20.5713H130.765V15.0307C130.765 14.409 130.588 13.9214 130.235 13.5679C129.881 13.2021 129.4 13.0193 128.79 13.0193C128.364 13.0193 127.986 13.1046 127.657 13.2753C127.327 13.4338 127.053 13.6654 126.834 13.9701V20.5713H124.329ZM140.196 20.7541C139.246 20.7541 138.38 20.5347 137.6 20.0959C136.832 19.657 136.222 19.0658 135.771 18.3221C135.32 17.5785 135.095 16.7435 135.095 15.817C135.095 14.8905 135.308 14.0555 135.735 13.3119C136.174 12.5682 136.765 11.977 137.508 11.5381C138.252 11.0993 139.081 10.8799 139.995 10.8799C140.91 10.8799 141.72 11.1054 142.427 11.5564C143.134 12.0075 143.689 12.617 144.091 13.385C144.506 14.153 144.713 15.0246 144.713 15.9999V16.6581H137.655C137.764 17.0361 137.941 17.3774 138.185 17.6821C138.441 17.9869 138.752 18.2246 139.118 18.3953C139.495 18.566 139.898 18.6513 140.324 18.6513C140.751 18.6513 141.141 18.5842 141.495 18.4501C141.86 18.3161 142.171 18.1271 142.427 17.8833L144.073 19.3827C143.488 19.8581 142.884 20.2056 142.263 20.425C141.653 20.6444 140.964 20.7541 140.196 20.7541ZM137.618 14.8661H142.244C142.159 14.4882 142.001 14.1591 141.769 13.8787C141.55 13.5861 141.281 13.3606 140.964 13.2021C140.66 13.0315 140.318 12.9461 139.94 12.9461C139.55 12.9461 139.197 13.0254 138.88 13.1839C138.563 13.3423 138.295 13.5679 138.075 13.8604C137.868 14.1408 137.716 14.4761 137.618 14.8661ZM147.278 24.5027C147.059 24.5027 146.846 24.4905 146.638 24.4661C146.443 24.454 146.279 24.4357 146.145 24.4113V22.2536C146.388 22.3023 146.681 22.3267 147.022 22.3267C147.937 22.3267 148.57 21.894 148.924 21.0284L149.07 20.6627L145.358 11.0444H148.119L150.497 17.5359L153.185 11.0444H155.891L151.502 21.3393C151.173 22.1073 150.814 22.7229 150.423 23.1861C150.033 23.6494 149.582 23.9846 149.07 24.1919C148.57 24.3991 147.973 24.5027 147.278 24.5027Z" fill="url(#paint1_radial_2815_1126)"/>
<defs>
<radialGradient id="paint0_radial_2815_1126" cx="0" cy="0" r="1" gradientUnits="userSpaceOnUse" gradientTransform="translate(0.113181 15.2967) rotate(-2.26656) scale(31.6228 31.6196)">
<stop stop-color="#EF4BCB"/>
<stop offset="1" stop-color="#34897B"/>
</radialGradient>
<radialGradient id="paint1_radial_2815_1126" cx="0" cy="0" r="1" gradientUnits="userSpaceOnUse" gradientTransform="translate(38.1393 15.3217) rotate(-0.588781) scale(117.358 30.5126)">
<stop stop-color="#EF4BCB"/>
<stop offset="1" stop-color="#34897B"/>
</radialGradient>
</defs>
</svg>
