<svg width="100" height="100" viewBox="0 0 100 100" fill="none" xmlns="http://www.w3.org/2000/svg">
<path d="M98.9583 81.6666H64.1667V70.625H57.7083L74.7917 54.5833C77.5 56.4583 80.4167 57.2916 83.5417 57.2916C87.2917 57.2916 91.0417 55.8333 94.1667 53.125C97.0833 50.2083 98.75 46.4583 98.9583 42.5C99.1667 38.3333 97.5 34.5833 94.7917 31.4583C88.9583 25.4166 79.1667 25 73.125 30.8333C67.7083 35.8333 66.875 43.9583 70.625 50L53.125 66.6666V31.4583C60 30 65.4167 23.75 65.4167 16.4583C65.4167 7.91663 58.5417 1.04163 50 1.04163C41.4583 1.04163 34.5833 7.91663 34.5833 16.4583C34.5833 23.75 39.7917 30 46.875 31.4583V66.4583L29.375 49.7916C33.125 43.75 32.2917 35.625 26.875 30.625C20.8333 24.7916 11.0417 25 5.20834 31.0416C2.29168 33.9583 0.833344 37.9166 1.04168 42.0833C1.25001 46.25 2.91668 50 5.83334 52.7083C8.75001 55.4166 12.5 56.875 16.4583 56.875C19.5833 56.875 22.5 56.0416 25.2083 54.1666L42.2917 70.2083H35.8333V81.25H1.04168V87.5H35.8333V98.5416H64.375V87.5H99.1667V81.6666H98.9583ZM77.2917 35C78.9583 33.3333 81.25 32.5 83.5417 32.5H83.75C86.25 32.5 88.3333 33.5416 90 35.4166C93.5417 38.9583 93.3333 44.7916 89.5833 48.3333C86.0417 51.875 80.2083 51.6666 76.6667 47.9166C73.125 44.1666 73.75 38.5416 77.2917 35ZM40.8333 16.4583C40.8333 11.4583 45 7.29163 50 7.29163C55 7.29163 59.1667 11.4583 59.1667 16.4583C59.1667 21.4583 55 25.625 50 25.625C45 25.625 40.8333 21.4583 40.8333 16.4583ZM10.2083 48.3333C6.45834 44.7916 6.25001 38.9583 9.79168 35.4166C11.4583 33.75 13.75 32.7083 16.0417 32.5C18.5417 32.5 20.8333 33.3333 22.5 35C26.0417 38.5416 26.25 44.1666 22.9167 47.9166C19.5833 51.6666 13.75 51.6666 10.2083 48.3333ZM57.9167 92.7083H41.875V87.9166V81.6666V76.875H57.9167V81.6666V87.9166V92.7083Z" fill="url(#paint0_radial_2303_2745)"/>
<defs>
<radialGradient id="paint0_radial_2303_2745" cx="0" cy="0" r="1" gradientUnits="userSpaceOnUse" gradientTransform="translate(1.36919 47.6488) rotate(-2.25192) scale(96.9768 96.3419)">
<stop stop-color="#EF4BCB"/>
<stop offset="1" stop-color="#34897B"/>
</radialGradient>
</defs>
</svg>
