<svg width="100" height="100" viewBox="0 0 100 100" fill="none" xmlns="http://www.w3.org/2000/svg">
<path fill-rule="evenodd" clip-rule="evenodd" d="M48.1044 1.20731L0.248452 96.7778C-0.762841 98.7974 1.51936 100.869 3.38281 99.6226L20.9098 87.9022L75.17 52.147C76.1018 51.533 76.4281 50.3048 75.9267 49.2981L51.9833 1.21179C51.1796 -0.401873 48.9115 -0.404492 48.1044 1.20731ZM59.867 71.5459L77.7552 59.1174C78.8322 58.3692 80.3111 58.7459 80.913 59.9218L99.7426 96.7289C100.774 98.7452 98.4955 100.838 96.6226 99.5952L59.9048 75.2163C58.6085 74.3559 58.5889 72.4341 59.867 71.5459ZM50.0485 28.7253L35.9085 54.6941L41.0381 55.9967L46.1681 57.2989L59.563 46.2367L50.0485 28.7253Z" fill="url(#paint0_radial_2303_2759)"/>
<defs>
<radialGradient id="paint0_radial_2303_2759" cx="0" cy="0" r="1" gradientUnits="userSpaceOnUse" gradientTransform="translate(0.353656 47.8023) rotate(-2.26679) scale(98.8112 98.8112)">
<stop stop-color="#EF4BCB"/>
<stop offset="1" stop-color="#34897B"/>
</radialGradient>
</defs>
</svg>
