<svg width="300" height="434" viewBox="0 0 300 434" fill="none" xmlns="http://www.w3.org/2000/svg">
<rect x="251" width="48" height="48" rx="24" fill="white"/>
<path d="M284 16V29C284 29.2652 283.895 29.5196 283.707 29.7071C283.52 29.8946 283.265 30 283 30C282.735 30 282.48 29.8946 282.293 29.7071C282.105 29.5196 282 29.2652 282 29V18.4137L267.708 32.7075C267.52 32.8951 267.265 33.0006 267 33.0006C266.735 33.0006 266.48 32.8951 266.293 32.7075C266.105 32.5199 265.999 32.2654 265.999 32C265.999 31.7346 266.105 31.4801 266.293 31.2925L280.586 17H270C269.735 17 269.48 16.8946 269.293 16.7071C269.105 16.5196 269 16.2652 269 16C269 15.7348 269.105 15.4804 269.293 15.2929C269.48 15.1054 269.735 15 270 15H283C283.265 15 283.52 15.1054 283.707 15.2929C283.895 15.4804 284 15.7348 284 16Z" fill="url(#paint0_radial_2303_2704)"/>
<mask id="mask0_2303_2704" style="mask-type:alpha" maskUnits="userSpaceOnUse" x="1" y="0" width="299" height="434">
<path d="M215.5 0C226.546 0 235.5 8.9543 235.5 20V24.5C235.5 45.4868 252.513 62.5 273.5 62.5H279.445C290.491 62.5 299.445 71.4543 299.445 82.5V414C299.445 425.046 290.491 434 279.445 434H21C9.95431 434 1 425.046 1 414V20C1.00001 8.95431 9.95431 0 21 0H215.5Z" fill="#D9D9D9"/>
</mask>
<g mask="url(#mask0_2303_2704)">
<rect width="298" height="434" transform="translate(1)" fill="white"/>
<g clip-path="url(#clip0_2303_2704)">
<mask id="mask1_2303_2704" style="mask-type:luminance" maskUnits="userSpaceOnUse" x="100" y="110" width="100" height="100">
<path d="M100 110H200V210H100V110Z" fill="white"/>
</mask>
<g mask="url(#mask1_2303_2704)">
<path d="M102.93 207.07H197.07" stroke="url(#paint1_radial_2303_2704)" stroke-width="5.85937" stroke-miterlimit="10" stroke-linecap="round" stroke-linejoin="round"/>
<path d="M118.75 183.633H110.938C109.859 183.633 108.984 184.507 108.984 185.586V207.07H120.703V185.586C120.703 184.507 119.829 183.633 118.75 183.633Z" stroke="url(#paint2_radial_2303_2704)" stroke-width="5.85937" stroke-miterlimit="10" stroke-linecap="round" stroke-linejoin="round"/>
<path d="M142.188 176.602H134.375C133.296 176.602 132.422 177.476 132.422 178.555V207.07H144.141V178.555C144.141 177.476 143.266 176.602 142.188 176.602Z" stroke="url(#paint3_radial_2303_2704)" stroke-width="5.85937" stroke-miterlimit="10" stroke-linecap="round" stroke-linejoin="round"/>
<path d="M165.625 165.859H157.812C156.734 165.859 155.859 166.734 155.859 167.813V207.07H167.578V167.813C167.578 166.734 166.704 165.859 165.625 165.859Z" stroke="url(#paint4_radial_2303_2704)" stroke-width="5.85937" stroke-miterlimit="10" stroke-linecap="round" stroke-linejoin="round"/>
<path d="M189.062 146.328H181.25C180.171 146.328 179.297 147.203 179.297 148.281V207.07H191.016V148.281C191.016 147.203 190.141 146.328 189.062 146.328Z" stroke="url(#paint5_radial_2303_2704)" stroke-width="5.85937" stroke-miterlimit="10" stroke-linecap="round" stroke-linejoin="round"/>
<path d="M102.93 170.02C141.41 170.02 179.891 140.602 192.273 112.931" stroke="url(#paint6_radial_2303_2704)" stroke-width="5.85937" stroke-miterlimit="10" stroke-linecap="round" stroke-linejoin="round"/>
<path d="M174.369 117.727L192.273 112.93L197.07 130.834" stroke="url(#paint7_radial_2303_2704)" stroke-width="5.85937" stroke-miterlimit="10" stroke-linecap="round" stroke-linejoin="round"/>
</g>
</g>
</g>
<path d="M26.68 288V270.72H37.24V273.984H29.944V277.728H35.8V280.992H29.944V288H26.68ZM39.6466 273.24V270.36H42.9106V273.24H39.6466ZM39.6466 288V275.04H42.9106V288H39.6466ZM55.3401 288V281.88C55.3401 281.584 55.3241 281.208 55.2921 280.752C55.2601 280.288 55.1601 279.824 54.9921 279.36C54.8241 278.896 54.5481 278.508 54.1641 278.196C53.7881 277.884 53.2521 277.728 52.5561 277.728C52.2761 277.728 51.9761 277.772 51.6561 277.86C51.3361 277.948 51.0361 278.12 50.7561 278.376C50.4761 278.624 50.2441 278.992 50.0601 279.48C49.8841 279.968 49.7961 280.616 49.7961 281.424L47.9241 280.536C47.9241 279.512 48.1321 278.552 48.5481 277.656C48.9641 276.76 49.5881 276.036 50.4201 275.484C51.2601 274.932 52.3161 274.656 53.5881 274.656C54.6041 274.656 55.4321 274.828 56.0721 275.172C56.7121 275.516 57.2081 275.952 57.5601 276.48C57.9201 277.008 58.1761 277.56 58.3281 278.136C58.4801 278.704 58.5721 279.224 58.6041 279.696C58.6361 280.168 58.6521 280.512 58.6521 280.728V288H55.3401ZM46.4841 288V275.04H49.3881V279.336H49.7961V288H46.4841ZM65.3659 288.36C64.4379 288.36 63.6499 288.184 63.0019 287.832C62.3619 287.472 61.8739 286.996 61.5379 286.404C61.2099 285.804 61.0459 285.144 61.0459 284.424C61.0459 283.824 61.1379 283.276 61.3219 282.78C61.5059 282.284 61.8019 281.848 62.2099 281.472C62.6259 281.088 63.1819 280.768 63.8779 280.512C64.3579 280.336 64.9299 280.18 65.5939 280.044C66.2579 279.908 67.0099 279.78 67.8499 279.66C68.6899 279.532 69.6139 279.392 70.6219 279.24L69.4459 279.888C69.4459 279.12 69.2619 278.556 68.8939 278.196C68.5259 277.836 67.9099 277.656 67.0459 277.656C66.5659 277.656 66.0659 277.772 65.5459 278.004C65.0259 278.236 64.6619 278.648 64.4539 279.24L61.5019 278.304C61.8299 277.232 62.4459 276.36 63.3499 275.688C64.2539 275.016 65.4859 274.68 67.0459 274.68C68.1899 274.68 69.2059 274.856 70.0939 275.208C70.9819 275.56 71.6539 276.168 72.1099 277.032C72.3659 277.512 72.5179 277.992 72.5659 278.472C72.6139 278.952 72.6379 279.488 72.6379 280.08V288H69.7819V285.336L70.1899 285.888C69.5579 286.76 68.8739 287.392 68.1379 287.784C67.4099 288.168 66.4859 288.36 65.3659 288.36ZM66.0619 285.792C66.6619 285.792 67.1659 285.688 67.5739 285.48C67.9899 285.264 68.3179 285.02 68.5579 284.748C68.8059 284.476 68.9739 284.248 69.0619 284.064C69.2299 283.712 69.3259 283.304 69.3499 282.84C69.3819 282.368 69.3979 281.976 69.3979 281.664L70.3579 281.904C69.3899 282.064 68.6059 282.2 68.0059 282.312C67.4059 282.416 66.9219 282.512 66.5539 282.6C66.1859 282.688 65.8619 282.784 65.5819 282.888C65.2619 283.016 65.0019 283.156 64.8019 283.308C64.6099 283.452 64.4659 283.612 64.3699 283.788C64.2819 283.964 64.2379 284.16 64.2379 284.376C64.2379 284.672 64.3099 284.928 64.4539 285.144C64.6059 285.352 64.8179 285.512 65.0899 285.624C65.3619 285.736 65.6859 285.792 66.0619 285.792ZM84.5901 288V281.88C84.5901 281.584 84.5741 281.208 84.5421 280.752C84.5101 280.288 84.4101 279.824 84.2421 279.36C84.0741 278.896 83.7981 278.508 83.4141 278.196C83.0381 277.884 82.5021 277.728 81.8061 277.728C81.5261 277.728 81.2261 277.772 80.9061 277.86C80.5861 277.948 80.2861 278.12 80.0061 278.376C79.7261 278.624 79.4941 278.992 79.3101 279.48C79.1341 279.968 79.0461 280.616 79.0461 281.424L77.1741 280.536C77.1741 279.512 77.3821 278.552 77.7981 277.656C78.2141 276.76 78.8381 276.036 79.6701 275.484C80.5101 274.932 81.5661 274.656 82.8381 274.656C83.8541 274.656 84.6821 274.828 85.3221 275.172C85.9621 275.516 86.4581 275.952 86.8101 276.48C87.1701 277.008 87.4261 277.56 87.5781 278.136C87.7301 278.704 87.8221 279.224 87.8541 279.696C87.8861 280.168 87.9021 280.512 87.9021 280.728V288H84.5901ZM75.7341 288V275.04H78.6381V279.336H79.0461V288H75.7341ZM96.4936 288.36C95.1496 288.36 93.9976 288.06 93.0376 287.46C92.0776 286.86 91.3416 286.044 90.8296 285.012C90.3176 283.98 90.0616 282.816 90.0616 281.52C90.0616 280.208 90.3256 279.036 90.8536 278.004C91.3896 276.972 92.1416 276.16 93.1096 275.568C94.0776 274.976 95.2216 274.68 96.5416 274.68C98.0696 274.68 99.3496 275.068 100.382 275.844C101.422 276.612 102.086 277.664 102.374 279L99.1096 279.864C98.9176 279.192 98.5816 278.668 98.1016 278.292C97.6296 277.916 97.0936 277.728 96.4936 277.728C95.8056 277.728 95.2416 277.896 94.8016 278.232C94.3616 278.56 94.0376 279.012 93.8296 279.588C93.6216 280.156 93.5176 280.8 93.5176 281.52C93.5176 282.648 93.7656 283.564 94.2616 284.268C94.7656 284.964 95.5096 285.312 96.4936 285.312C97.2296 285.312 97.7896 285.144 98.1736 284.808C98.5576 284.472 98.8456 283.992 99.0376 283.368L102.374 284.064C102.006 285.44 101.31 286.5 100.286 287.244C99.2616 287.988 97.9976 288.36 96.4936 288.36ZM104.662 273.24V270.36H107.926V273.24H104.662ZM104.662 288V275.04H107.926V288H104.662ZM115.124 288.36C114.196 288.36 113.408 288.184 112.76 287.832C112.12 287.472 111.632 286.996 111.296 286.404C110.968 285.804 110.804 285.144 110.804 284.424C110.804 283.824 110.896 283.276 111.08 282.78C111.264 282.284 111.56 281.848 111.968 281.472C112.384 281.088 112.94 280.768 113.636 280.512C114.116 280.336 114.688 280.18 115.352 280.044C116.016 279.908 116.768 279.78 117.608 279.66C118.448 279.532 119.372 279.392 120.38 279.24L119.204 279.888C119.204 279.12 119.02 278.556 118.652 278.196C118.284 277.836 117.668 277.656 116.804 277.656C116.324 277.656 115.824 277.772 115.304 278.004C114.784 278.236 114.42 278.648 114.212 279.24L111.26 278.304C111.588 277.232 112.204 276.36 113.108 275.688C114.012 275.016 115.244 274.68 116.804 274.68C117.948 274.68 118.964 274.856 119.852 275.208C120.74 275.56 121.412 276.168 121.868 277.032C122.124 277.512 122.276 277.992 122.324 278.472C122.372 278.952 122.396 279.488 122.396 280.08V288H119.54V285.336L119.948 285.888C119.316 286.76 118.632 287.392 117.896 287.784C117.168 288.168 116.244 288.36 115.124 288.36ZM115.82 285.792C116.42 285.792 116.924 285.688 117.332 285.48C117.748 285.264 118.076 285.02 118.316 284.748C118.564 284.476 118.732 284.248 118.82 284.064C118.988 283.712 119.084 283.304 119.108 282.84C119.14 282.368 119.156 281.976 119.156 281.664L120.116 281.904C119.148 282.064 118.364 282.2 117.764 282.312C117.164 282.416 116.68 282.512 116.312 282.6C115.944 282.688 115.62 282.784 115.34 282.888C115.02 283.016 114.76 283.156 114.56 283.308C114.368 283.452 114.224 283.612 114.128 283.788C114.04 283.964 113.996 284.16 113.996 284.376C113.996 284.672 114.068 284.928 114.212 285.144C114.364 285.352 114.576 285.512 114.848 285.624C115.12 285.736 115.444 285.792 115.82 285.792ZM125.756 288V270.36H129.02V288H125.756ZM137.422 288V270.72H143.014C143.15 270.72 143.43 270.724 143.854 270.732C144.278 270.74 144.686 270.768 145.078 270.816C146.47 270.984 147.65 271.468 148.618 272.268C149.586 273.068 150.322 274.084 150.826 275.316C151.33 276.548 151.582 277.896 151.582 279.36C151.582 280.824 151.33 282.172 150.826 283.404C150.322 284.636 149.586 285.652 148.618 286.452C147.65 287.252 146.47 287.736 145.078 287.904C144.686 287.952 144.278 287.98 143.854 287.988C143.43 287.996 143.15 288 143.014 288H137.422ZM140.734 284.928H143.014C143.23 284.928 143.522 284.924 143.89 284.916C144.258 284.9 144.59 284.864 144.886 284.808C145.638 284.656 146.25 284.304 146.722 283.752C147.202 283.2 147.554 282.536 147.778 281.76C148.01 280.984 148.126 280.184 148.126 279.36C148.126 278.496 148.006 277.676 147.766 276.9C147.534 276.124 147.178 275.468 146.698 274.932C146.218 274.396 145.614 274.056 144.886 273.912C144.59 273.848 144.258 273.812 143.89 273.804C143.522 273.796 143.23 273.792 143.014 273.792H140.734V284.928ZM158.061 288.36C157.133 288.36 156.345 288.184 155.697 287.832C155.057 287.472 154.569 286.996 154.233 286.404C153.905 285.804 153.741 285.144 153.741 284.424C153.741 283.824 153.833 283.276 154.017 282.78C154.201 282.284 154.497 281.848 154.905 281.472C155.321 281.088 155.877 280.768 156.573 280.512C157.053 280.336 157.625 280.18 158.289 280.044C158.953 279.908 159.705 279.78 160.545 279.66C161.385 279.532 162.309 279.392 163.317 279.24L162.141 279.888C162.141 279.12 161.957 278.556 161.589 278.196C161.221 277.836 160.605 277.656 159.741 277.656C159.261 277.656 158.761 277.772 158.241 278.004C157.721 278.236 157.357 278.648 157.149 279.24L154.197 278.304C154.525 277.232 155.141 276.36 156.045 275.688C156.949 275.016 158.181 274.68 159.741 274.68C160.885 274.68 161.901 274.856 162.789 275.208C163.677 275.56 164.349 276.168 164.805 277.032C165.061 277.512 165.213 277.992 165.261 278.472C165.309 278.952 165.333 279.488 165.333 280.08V288H162.477V285.336L162.885 285.888C162.253 286.76 161.569 287.392 160.833 287.784C160.105 288.168 159.181 288.36 158.061 288.36ZM158.757 285.792C159.357 285.792 159.861 285.688 160.269 285.48C160.685 285.264 161.013 285.02 161.253 284.748C161.501 284.476 161.669 284.248 161.757 284.064C161.925 283.712 162.021 283.304 162.045 282.84C162.077 282.368 162.093 281.976 162.093 281.664L163.053 281.904C162.085 282.064 161.301 282.2 160.701 282.312C160.101 282.416 159.617 282.512 159.249 282.6C158.881 282.688 158.557 282.784 158.277 282.888C157.957 283.016 157.697 283.156 157.497 283.308C157.305 283.452 157.161 283.612 157.065 283.788C156.977 283.964 156.933 284.16 156.933 284.376C156.933 284.672 157.005 284.928 157.149 285.144C157.301 285.352 157.513 285.512 157.785 285.624C158.057 285.736 158.381 285.792 158.757 285.792ZM176.229 288C175.333 288.168 174.453 288.24 173.589 288.216C172.733 288.2 171.965 288.052 171.285 287.772C170.613 287.484 170.101 287.024 169.749 286.392C169.429 285.8 169.261 285.2 169.245 284.592C169.229 283.976 169.221 283.28 169.221 282.504V271.44H172.485V282.312C172.485 282.816 172.489 283.272 172.497 283.68C172.513 284.08 172.597 284.4 172.749 284.64C173.037 285.096 173.497 285.344 174.129 285.384C174.761 285.424 175.461 285.392 176.229 285.288V288ZM167.013 277.56V275.04H176.229V277.56H167.013ZM182.718 288.36C181.79 288.36 181.002 288.184 180.354 287.832C179.714 287.472 179.226 286.996 178.89 286.404C178.562 285.804 178.398 285.144 178.398 284.424C178.398 283.824 178.49 283.276 178.674 282.78C178.858 282.284 179.154 281.848 179.562 281.472C179.978 281.088 180.534 280.768 181.23 280.512C181.71 280.336 182.282 280.18 182.946 280.044C183.61 279.908 184.362 279.78 185.202 279.66C186.042 279.532 186.966 279.392 187.974 279.24L186.798 279.888C186.798 279.12 186.614 278.556 186.246 278.196C185.878 277.836 185.262 277.656 184.398 277.656C183.918 277.656 183.418 277.772 182.898 278.004C182.378 278.236 182.014 278.648 181.806 279.24L178.854 278.304C179.182 277.232 179.798 276.36 180.702 275.688C181.606 275.016 182.838 274.68 184.398 274.68C185.542 274.68 186.558 274.856 187.446 275.208C188.334 275.56 189.006 276.168 189.462 277.032C189.718 277.512 189.87 277.992 189.918 278.472C189.966 278.952 189.99 279.488 189.99 280.08V288H187.134V285.336L187.542 285.888C186.91 286.76 186.226 287.392 185.49 287.784C184.762 288.168 183.838 288.36 182.718 288.36ZM183.414 285.792C184.014 285.792 184.518 285.688 184.926 285.48C185.342 285.264 185.67 285.02 185.91 284.748C186.158 284.476 186.326 284.248 186.414 284.064C186.582 283.712 186.678 283.304 186.702 282.84C186.734 282.368 186.75 281.976 186.75 281.664L187.71 281.904C186.742 282.064 185.958 282.2 185.358 282.312C184.758 282.416 184.274 282.512 183.906 282.6C183.538 282.688 183.214 282.784 182.934 282.888C182.614 283.016 182.354 283.156 182.154 283.308C181.962 283.452 181.818 283.612 181.722 283.788C181.634 283.964 181.59 284.16 181.59 284.376C181.59 284.672 181.662 284.928 181.806 285.144C181.958 285.352 182.17 285.512 182.442 285.624C182.714 285.736 183.038 285.792 183.414 285.792ZM26.92 317V299.72H30.184V317H26.92ZM42.6136 317V310.88C42.6136 310.584 42.5976 310.208 42.5656 309.752C42.5336 309.288 42.4336 308.824 42.2656 308.36C42.0976 307.896 41.8216 307.508 41.4376 307.196C41.0616 306.884 40.5256 306.728 39.8296 306.728C39.5496 306.728 39.2496 306.772 38.9296 306.86C38.6096 306.948 38.3096 307.12 38.0296 307.376C37.7496 307.624 37.5176 307.992 37.3336 308.48C37.1576 308.968 37.0696 309.616 37.0696 310.424L35.1976 309.536C35.1976 308.512 35.4056 307.552 35.8216 306.656C36.2376 305.76 36.8616 305.036 37.6936 304.484C38.5336 303.932 39.5896 303.656 40.8616 303.656C41.8776 303.656 42.7056 303.828 43.3456 304.172C43.9856 304.516 44.4816 304.952 44.8336 305.48C45.1936 306.008 45.4496 306.56 45.6016 307.136C45.7536 307.704 45.8456 308.224 45.8776 308.696C45.9096 309.168 45.9256 309.512 45.9256 309.728V317H42.6136ZM33.7576 317V304.04H36.6616V308.336H37.0696V317H33.7576ZM56.8154 317C55.9194 317.168 55.0394 317.24 54.1754 317.216C53.3194 317.2 52.5514 317.052 51.8714 316.772C51.1994 316.484 50.6874 316.024 50.3354 315.392C50.0154 314.8 49.8474 314.2 49.8314 313.592C49.8154 312.976 49.8074 312.28 49.8074 311.504V300.44H53.0714V311.312C53.0714 311.816 53.0754 312.272 53.0834 312.68C53.0994 313.08 53.1834 313.4 53.3354 313.64C53.6234 314.096 54.0834 314.344 54.7154 314.384C55.3474 314.424 56.0474 314.392 56.8154 314.288V317ZM47.5994 306.56V304.04H56.8154V306.56H47.5994ZM65.0243 317.36C63.6963 317.36 62.5243 317.076 61.5083 316.508C60.5003 315.932 59.7083 315.144 59.1323 314.144C58.5643 313.136 58.2803 311.984 58.2803 310.688C58.2803 309.272 58.5603 308.04 59.1203 306.992C59.6803 305.944 60.4523 305.132 61.4363 304.556C62.4203 303.972 63.5523 303.68 64.8323 303.68C66.1923 303.68 67.3483 304 68.3003 304.64C69.2523 305.28 69.9563 306.18 70.4123 307.34C70.8683 308.5 71.0283 309.864 70.8923 311.432H67.6643V310.232C67.6643 308.912 67.4523 307.964 67.0283 307.388C66.6123 306.804 65.9283 306.512 64.9763 306.512C63.8643 306.512 63.0443 306.852 62.5163 307.532C61.9963 308.204 61.7363 309.2 61.7363 310.52C61.7363 311.728 61.9963 312.664 62.5163 313.328C63.0443 313.984 63.8163 314.312 64.8323 314.312C65.4723 314.312 66.0203 314.172 66.4763 313.892C66.9323 313.612 67.2803 313.208 67.5203 312.68L70.7843 313.616C70.2963 314.8 69.5243 315.72 68.4683 316.376C67.4203 317.032 66.2723 317.36 65.0243 317.36ZM60.7283 311.432V309.008H69.3203V311.432H60.7283ZM73.8419 317V299.36H77.1059V317H73.8419ZM80.9434 317V299.36H84.2074V317H80.9434ZM88.045 302.24V299.36H91.309V302.24H88.045ZM88.045 317V304.04H91.309V317H88.045ZM100.451 323.12C99.7146 323.12 99.0146 323 98.3506 322.76C97.6866 322.528 97.0906 322.2 96.5626 321.776C96.0426 321.36 95.6186 320.872 95.2906 320.312L98.3146 318.848C98.5226 319.232 98.8186 319.524 99.2026 319.724C99.5946 319.924 100.019 320.024 100.475 320.024C100.963 320.024 101.423 319.94 101.855 319.772C102.287 319.612 102.631 319.368 102.887 319.04C103.151 318.72 103.275 318.32 103.259 317.84V314.072H103.667V304.04H106.523V317.888C106.523 318.208 106.507 318.508 106.475 318.788C106.451 319.076 106.403 319.36 106.331 319.64C106.123 320.432 105.735 321.084 105.167 321.596C104.607 322.108 103.919 322.488 103.103 322.736C102.287 322.992 101.403 323.12 100.451 323.12ZM100.163 317.36C98.9706 317.36 97.9266 317.06 97.0306 316.46C96.1346 315.86 95.4346 315.044 94.9306 314.012C94.4346 312.98 94.1866 311.816 94.1866 310.52C94.1866 309.2 94.4386 308.028 94.9426 307.004C95.4546 305.972 96.1706 305.16 97.0906 304.568C98.0106 303.976 99.0906 303.68 100.331 303.68C101.563 303.68 102.599 303.98 103.439 304.58C104.279 305.18 104.915 305.996 105.347 307.028C105.779 308.06 105.995 309.224 105.995 310.52C105.995 311.816 105.775 312.98 105.335 314.012C104.903 315.044 104.255 315.86 103.391 316.46C102.527 317.06 101.451 317.36 100.163 317.36ZM100.691 314.456C101.419 314.456 101.999 314.292 102.431 313.964C102.871 313.636 103.187 313.176 103.379 312.584C103.571 311.992 103.667 311.304 103.667 310.52C103.667 309.736 103.571 309.048 103.379 308.456C103.187 307.864 102.879 307.404 102.455 307.076C102.039 306.748 101.491 306.584 100.811 306.584C100.083 306.584 99.4826 306.764 99.0106 307.124C98.5466 307.476 98.2026 307.952 97.9786 308.552C97.7546 309.144 97.6426 309.8 97.6426 310.52C97.6426 311.248 97.7506 311.912 97.9666 312.512C98.1826 313.104 98.5146 313.576 98.9626 313.928C99.4106 314.28 99.9866 314.456 100.691 314.456ZM115.907 317.36C114.579 317.36 113.407 317.076 112.391 316.508C111.383 315.932 110.591 315.144 110.015 314.144C109.447 313.136 109.163 311.984 109.163 310.688C109.163 309.272 109.443 308.04 110.003 306.992C110.563 305.944 111.335 305.132 112.319 304.556C113.303 303.972 114.435 303.68 115.715 303.68C117.075 303.68 118.231 304 119.183 304.64C120.135 305.28 120.839 306.18 121.295 307.34C121.751 308.5 121.911 309.864 121.775 311.432H118.547V310.232C118.547 308.912 118.335 307.964 117.911 307.388C117.495 306.804 116.811 306.512 115.859 306.512C114.747 306.512 113.927 306.852 113.399 307.532C112.879 308.204 112.619 309.2 112.619 310.52C112.619 311.728 112.879 312.664 113.399 313.328C113.927 313.984 114.699 314.312 115.715 314.312C116.355 314.312 116.903 314.172 117.359 313.892C117.815 313.612 118.163 313.208 118.403 312.68L121.667 313.616C121.179 314.8 120.407 315.72 119.351 316.376C118.303 317.032 117.155 317.36 115.907 317.36ZM111.611 311.432V309.008H120.203V311.432H111.611ZM132.965 317V310.88C132.965 310.584 132.949 310.208 132.917 309.752C132.885 309.288 132.785 308.824 132.617 308.36C132.449 307.896 132.173 307.508 131.789 307.196C131.413 306.884 130.877 306.728 130.181 306.728C129.901 306.728 129.601 306.772 129.281 306.86C128.961 306.948 128.661 307.12 128.381 307.376C128.101 307.624 127.869 307.992 127.685 308.48C127.509 308.968 127.421 309.616 127.421 310.424L125.549 309.536C125.549 308.512 125.757 307.552 126.173 306.656C126.589 305.76 127.213 305.036 128.045 304.484C128.885 303.932 129.941 303.656 131.213 303.656C132.229 303.656 133.057 303.828 133.697 304.172C134.337 304.516 134.833 304.952 135.185 305.48C135.545 306.008 135.801 306.56 135.953 307.136C136.105 307.704 136.197 308.224 136.229 308.696C136.261 309.168 136.277 309.512 136.277 309.728V317H132.965ZM124.109 317V304.04H127.013V308.336H127.421V317H124.109ZM144.869 317.36C143.525 317.36 142.373 317.06 141.413 316.46C140.453 315.86 139.717 315.044 139.205 314.012C138.693 312.98 138.437 311.816 138.437 310.52C138.437 309.208 138.701 308.036 139.229 307.004C139.765 305.972 140.517 305.16 141.485 304.568C142.453 303.976 143.597 303.68 144.917 303.68C146.445 303.68 147.725 304.068 148.757 304.844C149.797 305.612 150.461 306.664 150.749 308L147.485 308.864C147.293 308.192 146.957 307.668 146.477 307.292C146.005 306.916 145.469 306.728 144.869 306.728C144.181 306.728 143.617 306.896 143.177 307.232C142.737 307.56 142.413 308.012 142.205 308.588C141.997 309.156 141.893 309.8 141.893 310.52C141.893 311.648 142.141 312.564 142.637 313.268C143.141 313.964 143.885 314.312 144.869 314.312C145.605 314.312 146.165 314.144 146.549 313.808C146.933 313.472 147.221 312.992 147.413 312.368L150.749 313.064C150.381 314.44 149.685 315.5 148.661 316.244C147.637 316.988 146.373 317.36 144.869 317.36ZM158.821 317.36C157.493 317.36 156.321 317.076 155.305 316.508C154.297 315.932 153.505 315.144 152.929 314.144C152.361 313.136 152.077 311.984 152.077 310.688C152.077 309.272 152.357 308.04 152.917 306.992C153.477 305.944 154.249 305.132 155.233 304.556C156.217 303.972 157.349 303.68 158.629 303.68C159.989 303.68 161.145 304 162.097 304.64C163.049 305.28 163.753 306.18 164.209 307.34C164.665 308.5 164.825 309.864 164.689 311.432H161.461V310.232C161.461 308.912 161.249 307.964 160.825 307.388C160.409 306.804 159.725 306.512 158.773 306.512C157.661 306.512 156.841 306.852 156.313 307.532C155.793 308.204 155.533 309.2 155.533 310.52C155.533 311.728 155.793 312.664 156.313 313.328C156.841 313.984 157.613 314.312 158.629 314.312C159.269 314.312 159.817 314.172 160.273 313.892C160.729 313.612 161.077 313.208 161.317 312.68L164.581 313.616C164.093 314.8 163.321 315.72 162.265 316.376C161.217 317.032 160.069 317.36 158.821 317.36ZM154.525 311.432V309.008H163.117V311.432H154.525Z" fill="url(#paint8_radial_2303_2704)"/>
<path d="M26.392 355V343.688H27.784V348.808H33.848V343.688H35.24V355H33.848V350.088H27.784V355H26.392ZM40.241 355.096C39.857 355.096 39.4837 355.048 39.121 354.952C38.769 354.845 38.449 354.691 38.161 354.488C37.8837 354.275 37.6597 354.013 37.489 353.704C37.329 353.384 37.249 353.016 37.249 352.6C37.249 352.12 37.3343 351.715 37.505 351.384C37.6863 351.053 37.9263 350.792 38.225 350.6C38.5237 350.408 38.8703 350.269 39.265 350.184C39.6597 350.099 40.0703 350.056 40.497 350.056H42.977C42.977 349.576 42.9077 349.16 42.769 348.808C42.641 348.456 42.4277 348.184 42.129 347.992C41.8303 347.789 41.4357 347.688 40.945 347.688C40.6463 347.688 40.369 347.72 40.113 347.784C39.857 347.848 39.6383 347.949 39.457 348.088C39.2757 348.227 39.1423 348.413 39.057 348.648H37.601C37.6757 348.264 37.8197 347.939 38.033 347.672C38.257 347.395 38.5237 347.171 38.833 347C39.153 346.819 39.4943 346.685 39.857 346.6C40.2197 346.515 40.5823 346.472 40.945 346.472C42.161 346.472 43.025 346.829 43.537 347.544C44.049 348.259 44.305 349.224 44.305 350.44V355H43.169L43.089 353.928C42.8543 354.248 42.5717 354.493 42.241 354.664C41.9103 354.835 41.569 354.947 41.217 355C40.8757 355.064 40.5503 355.096 40.241 355.096ZM40.369 353.896C40.9023 353.896 41.361 353.811 41.745 353.64C42.1397 353.459 42.4437 353.197 42.657 352.856C42.8703 352.515 42.977 352.099 42.977 351.608V351.192H41.489C41.137 351.192 40.7903 351.197 40.449 351.208C40.1077 351.219 39.7983 351.261 39.521 351.336C39.2437 351.411 39.0197 351.539 38.849 351.72C38.689 351.901 38.609 352.163 38.609 352.504C38.609 352.824 38.689 353.085 38.849 353.288C39.0197 353.491 39.2383 353.645 39.505 353.752C39.7823 353.848 40.0703 353.896 40.369 353.896ZM46.252 355V346.568H47.564L47.628 347.88C47.8413 347.549 48.0867 347.283 48.364 347.08C48.652 346.877 48.9667 346.728 49.308 346.632C49.66 346.525 50.0387 346.472 50.444 346.472C50.5187 346.472 50.588 346.472 50.652 346.472C50.7267 346.472 50.8013 346.472 50.876 346.472V347.752H50.38C49.7187 347.752 49.18 347.896 48.764 348.184C48.3587 348.461 48.0653 348.84 47.884 349.32C47.7027 349.789 47.612 350.312 47.612 350.888V355H46.252ZM52.0608 355V346.568H53.3728L53.4368 347.848C53.6288 347.539 53.8741 347.283 54.1728 347.08C54.4714 346.877 54.7968 346.728 55.1488 346.632C55.5114 346.525 55.8634 346.472 56.2048 346.472C57.0261 346.472 57.6661 346.643 58.1248 346.984C58.5941 347.325 58.9248 347.789 59.1168 348.376C59.3194 348.952 59.4208 349.608 59.4208 350.344V355H58.0608V350.712C58.0608 350.317 58.0341 349.939 57.9808 349.576C57.9381 349.213 57.8421 348.888 57.6928 348.6C57.5541 348.312 57.3514 348.088 57.0848 347.928C56.8181 347.757 56.4608 347.672 56.0128 347.672C55.4581 347.672 54.9834 347.827 54.5888 348.136C54.2048 348.445 53.9114 348.861 53.7088 349.384C53.5168 349.907 53.4208 350.493 53.4208 351.144V355H52.0608ZM65.0019 355.096C64.1059 355.096 63.3645 354.915 62.7779 354.552C62.1912 354.179 61.7539 353.667 61.4659 353.016C61.1779 352.365 61.0339 351.624 61.0339 350.792C61.0339 349.949 61.1832 349.208 61.4819 348.568C61.7912 347.917 62.2392 347.405 62.8259 347.032C63.4125 346.659 64.1325 346.472 64.9859 346.472C65.6472 346.472 66.2125 346.6 66.6819 346.856C67.1619 347.101 67.5565 347.432 67.8659 347.848C68.1752 348.264 68.3992 348.723 68.5379 349.224C68.6765 349.715 68.7352 350.211 68.7139 350.712C68.7032 350.808 68.6925 350.904 68.6819 351C68.6819 351.096 68.6765 351.192 68.6659 351.288H62.4099C62.4525 351.779 62.5752 352.221 62.7779 352.616C62.9805 353.011 63.2685 353.325 63.6419 353.56C64.0152 353.784 64.4792 353.896 65.0339 353.896C65.3112 353.896 65.5885 353.864 65.8659 353.8C66.1539 353.725 66.4099 353.603 66.6339 353.432C66.8685 353.261 67.0339 353.032 67.1299 352.744H68.5219C68.3939 353.288 68.1539 353.736 67.8019 354.088C67.4499 354.429 67.0285 354.685 66.5379 354.856C66.0472 355.016 65.5352 355.096 65.0019 355.096ZM62.4419 350.104H67.3219C67.3112 349.624 67.2045 349.203 67.0019 348.84C66.7992 348.477 66.5219 348.195 66.1699 347.992C65.8285 347.789 65.4179 347.688 64.9379 347.688C64.4152 347.688 63.9725 347.8 63.6099 348.024C63.2579 348.248 62.9859 348.541 62.7939 348.904C62.6019 349.267 62.4845 349.667 62.4419 350.104ZM73.4378 355.096C73.0538 355.096 72.6644 355.059 72.2698 354.984C71.8858 354.909 71.5231 354.781 71.1818 354.6C70.8511 354.419 70.5738 354.173 70.3498 353.864C70.1258 353.555 69.9818 353.171 69.9178 352.712H71.2938C71.4004 353 71.5711 353.235 71.8058 353.416C72.0511 353.587 72.3231 353.709 72.6218 353.784C72.9311 353.859 73.2244 353.896 73.5018 353.896C73.6724 353.896 73.8698 353.885 74.0938 353.864C74.3178 353.843 74.5311 353.795 74.7338 353.72C74.9471 353.635 75.1178 353.512 75.2458 353.352C75.3844 353.192 75.4538 352.968 75.4538 352.68C75.4538 352.467 75.4058 352.291 75.3098 352.152C75.2138 352.013 75.0804 351.901 74.9098 351.816C74.7391 351.72 74.5311 351.651 74.2858 351.608C73.7844 351.501 73.2458 351.4 72.6698 351.304C72.1044 351.208 71.6031 351.027 71.1658 350.76C71.0164 350.664 70.8778 350.557 70.7498 350.44C70.6324 350.312 70.5311 350.173 70.4458 350.024C70.3604 349.864 70.2911 349.693 70.2378 349.512C70.1951 349.32 70.1738 349.112 70.1738 348.888C70.1738 348.472 70.2538 348.115 70.4138 347.816C70.5844 347.507 70.8191 347.256 71.1178 347.064C71.4164 346.861 71.7578 346.712 72.1418 346.616C72.5364 346.52 72.9578 346.472 73.4058 346.472C73.9604 346.472 74.4564 346.563 74.8938 346.744C75.3418 346.915 75.7098 347.171 75.9978 347.512C76.2858 347.843 76.4564 348.253 76.5098 348.744H75.2458C75.1711 348.435 74.9684 348.184 74.6378 347.992C74.3071 347.789 73.8858 347.688 73.3738 347.688C73.2031 347.688 73.0111 347.704 72.7978 347.736C72.5844 347.757 72.3818 347.811 72.1898 347.896C71.9978 347.971 71.8378 348.088 71.7098 348.248C71.5818 348.397 71.5178 348.6 71.5178 348.856C71.5178 349.091 71.5764 349.288 71.6938 349.448C71.8218 349.608 71.9978 349.736 72.2218 349.832C72.4458 349.928 72.7018 350.008 72.9898 350.072C73.3631 350.147 73.7738 350.227 74.2218 350.312C74.6698 350.387 75.0218 350.467 75.2778 350.552C75.6191 350.659 75.9018 350.808 76.1258 351C76.3604 351.192 76.5311 351.421 76.6378 351.688C76.7551 351.955 76.8138 352.264 76.8138 352.616C76.8138 353.117 76.7124 353.528 76.5098 353.848C76.3178 354.168 76.0564 354.419 75.7258 354.6C75.3951 354.781 75.0271 354.909 74.6218 354.984C74.2271 355.059 73.8324 355.096 73.4378 355.096ZM81.4184 355.096C81.0344 355.096 80.645 355.059 80.2504 354.984C79.8664 354.909 79.5037 354.781 79.1624 354.6C78.8317 354.419 78.5544 354.173 78.3304 353.864C78.1064 353.555 77.9624 353.171 77.8984 352.712H79.2744C79.381 353 79.5517 353.235 79.7864 353.416C80.0317 353.587 80.3037 353.709 80.6024 353.784C80.9117 353.859 81.205 353.896 81.4824 353.896C81.653 353.896 81.8504 353.885 82.0744 353.864C82.2984 353.843 82.5117 353.795 82.7144 353.72C82.9277 353.635 83.0984 353.512 83.2264 353.352C83.365 353.192 83.4344 352.968 83.4344 352.68C83.4344 352.467 83.3864 352.291 83.2904 352.152C83.1944 352.013 83.061 351.901 82.8904 351.816C82.7197 351.72 82.5117 351.651 82.2664 351.608C81.765 351.501 81.2264 351.4 80.6504 351.304C80.085 351.208 79.5837 351.027 79.1464 350.76C78.997 350.664 78.8584 350.557 78.7304 350.44C78.613 350.312 78.5117 350.173 78.4264 350.024C78.341 349.864 78.2717 349.693 78.2184 349.512C78.1757 349.32 78.1544 349.112 78.1544 348.888C78.1544 348.472 78.2344 348.115 78.3944 347.816C78.565 347.507 78.7997 347.256 79.0984 347.064C79.397 346.861 79.7384 346.712 80.1224 346.616C80.517 346.52 80.9384 346.472 81.3864 346.472C81.941 346.472 82.437 346.563 82.8744 346.744C83.3224 346.915 83.6904 347.171 83.9784 347.512C84.2664 347.843 84.437 348.253 84.4904 348.744H83.2264C83.1517 348.435 82.949 348.184 82.6184 347.992C82.2877 347.789 81.8664 347.688 81.3544 347.688C81.1837 347.688 80.9917 347.704 80.7784 347.736C80.565 347.757 80.3624 347.811 80.1704 347.896C79.9784 347.971 79.8184 348.088 79.6904 348.248C79.5624 348.397 79.4984 348.6 79.4984 348.856C79.4984 349.091 79.557 349.288 79.6744 349.448C79.8024 349.608 79.9784 349.736 80.2024 349.832C80.4264 349.928 80.6824 350.008 80.9704 350.072C81.3437 350.147 81.7544 350.227 82.2024 350.312C82.6504 350.387 83.0024 350.467 83.2584 350.552C83.5997 350.659 83.8824 350.808 84.1064 351C84.341 351.192 84.5117 351.421 84.6184 351.688C84.7357 351.955 84.7944 352.264 84.7944 352.616C84.7944 353.117 84.693 353.528 84.4904 353.848C84.2984 354.168 84.037 354.419 83.7064 354.6C83.3757 354.781 83.0077 354.909 82.6024 354.984C82.2077 355.059 81.813 355.096 81.4184 355.096ZM94.1275 355.096C93.2315 355.096 92.4902 354.915 91.9035 354.552C91.3168 354.179 90.8795 353.667 90.5915 353.016C90.3035 352.365 90.1595 351.624 90.1595 350.792C90.1595 349.949 90.3088 349.208 90.6075 348.568C90.9168 347.917 91.3648 347.405 91.9515 347.032C92.5382 346.659 93.2582 346.472 94.1115 346.472C94.7728 346.472 95.3382 346.6 95.8075 346.856C96.2875 347.101 96.6822 347.432 96.9915 347.848C97.3008 348.264 97.5248 348.723 97.6635 349.224C97.8022 349.715 97.8608 350.211 97.8395 350.712C97.8288 350.808 97.8182 350.904 97.8075 351C97.8075 351.096 97.8022 351.192 97.7915 351.288H91.5355C91.5782 351.779 91.7008 352.221 91.9035 352.616C92.1062 353.011 92.3942 353.325 92.7675 353.56C93.1408 353.784 93.6048 353.896 94.1595 353.896C94.4368 353.896 94.7142 353.864 94.9915 353.8C95.2795 353.725 95.5355 353.603 95.7595 353.432C95.9942 353.261 96.1595 353.032 96.2555 352.744H97.6475C97.5195 353.288 97.2795 353.736 96.9275 354.088C96.5755 354.429 96.1542 354.685 95.6635 354.856C95.1728 355.016 94.6608 355.096 94.1275 355.096ZM91.5675 350.104H96.4475C96.4368 349.624 96.3302 349.203 96.1275 348.84C95.9248 348.477 95.6475 348.195 95.2955 347.992C94.9542 347.789 94.5435 347.688 94.0635 347.688C93.5408 347.688 93.0982 347.8 92.7355 348.024C92.3835 348.248 92.1115 348.541 91.9195 348.904C91.7275 349.267 91.6102 349.667 91.5675 350.104ZM99.4914 355V346.568H100.803L100.867 347.848C101.059 347.539 101.305 347.283 101.603 347.08C101.902 346.877 102.227 346.728 102.579 346.632C102.942 346.525 103.294 346.472 103.635 346.472C104.457 346.472 105.097 346.643 105.555 346.984C106.025 347.325 106.355 347.789 106.547 348.376C106.75 348.952 106.851 349.608 106.851 350.344V355H105.491V350.712C105.491 350.317 105.465 349.939 105.411 349.576C105.369 349.213 105.273 348.888 105.123 348.6C104.985 348.312 104.782 348.088 104.515 347.928C104.249 347.757 103.891 347.672 103.443 347.672C102.889 347.672 102.414 347.827 102.019 348.136C101.635 348.445 101.342 348.861 101.139 349.384C100.947 349.907 100.851 350.493 100.851 351.144V355H99.4914ZM108.785 355V346.568H110.097L110.161 347.88C110.374 347.549 110.619 347.283 110.897 347.08C111.185 346.877 111.499 346.728 111.841 346.632C112.193 346.525 112.571 346.472 112.977 346.472C113.051 346.472 113.121 346.472 113.185 346.472C113.259 346.472 113.334 346.472 113.409 346.472V347.752H112.913C112.251 347.752 111.713 347.896 111.297 348.184C110.891 348.461 110.598 348.84 110.417 349.32C110.235 349.789 110.145 350.312 110.145 350.888V355H108.785ZM114.593 355V346.568H115.953V355H114.593ZM115.265 345.32C114.988 345.32 114.764 345.235 114.593 345.064C114.433 344.893 114.353 344.675 114.353 344.408C114.353 344.141 114.439 343.928 114.609 343.768C114.78 343.597 114.999 343.512 115.265 343.512C115.511 343.512 115.724 343.597 115.905 343.768C116.097 343.939 116.193 344.152 116.193 344.408C116.193 344.675 116.103 344.893 115.921 345.064C115.74 345.235 115.521 345.32 115.265 345.32ZM121.533 355.096C120.648 355.096 119.912 354.915 119.325 354.552C118.749 354.179 118.317 353.667 118.029 353.016C117.752 352.365 117.613 351.629 117.613 350.808C117.613 350.008 117.757 349.283 118.045 348.632C118.344 347.971 118.792 347.448 119.389 347.064C119.997 346.669 120.765 346.472 121.693 346.472C122.269 346.472 122.781 346.568 123.229 346.76C123.688 346.952 124.067 347.235 124.365 347.608C124.664 347.971 124.872 348.429 124.989 348.984H123.597C123.437 348.515 123.181 348.184 122.829 347.992C122.488 347.789 122.083 347.688 121.613 347.688C120.973 347.688 120.461 347.837 120.077 348.136C119.693 348.435 119.411 348.824 119.229 349.304C119.059 349.773 118.973 350.275 118.973 350.808C118.973 351.363 119.064 351.875 119.245 352.344C119.427 352.813 119.709 353.192 120.093 353.48C120.477 353.757 120.973 353.896 121.581 353.896C122.029 353.896 122.451 353.8 122.845 353.608C123.251 353.416 123.517 353.075 123.645 352.584H125.053C124.947 353.16 124.717 353.635 124.365 354.008C124.024 354.381 123.603 354.659 123.101 354.84C122.611 355.011 122.088 355.096 121.533 355.096ZM126.617 355V343.688H127.977V347.864C128.18 347.565 128.425 347.315 128.713 347.112C129.012 346.899 129.337 346.739 129.689 346.632C130.041 346.525 130.404 346.472 130.777 346.472C131.598 346.472 132.238 346.643 132.697 346.984C133.166 347.325 133.497 347.789 133.689 348.376C133.881 348.952 133.977 349.613 133.977 350.36V355H132.617V350.776C132.617 350.403 132.59 350.035 132.537 349.672C132.494 349.299 132.404 348.963 132.265 348.664C132.126 348.365 131.913 348.125 131.625 347.944C131.348 347.763 130.969 347.672 130.489 347.672C130.03 347.672 129.636 347.773 129.305 347.976C128.985 348.179 128.729 348.451 128.537 348.792C128.345 349.123 128.201 349.491 128.105 349.896C128.02 350.291 127.977 350.68 127.977 351.064V355H126.617ZM139.558 355.096C138.662 355.096 137.921 354.915 137.334 354.552C136.747 354.179 136.31 353.667 136.022 353.016C135.734 352.365 135.59 351.624 135.59 350.792C135.59 349.949 135.739 349.208 136.038 348.568C136.347 347.917 136.795 347.405 137.382 347.032C137.969 346.659 138.689 346.472 139.542 346.472C140.203 346.472 140.769 346.6 141.238 346.856C141.718 347.101 142.113 347.432 142.422 347.848C142.731 348.264 142.955 348.723 143.094 349.224C143.233 349.715 143.291 350.211 143.27 350.712C143.259 350.808 143.249 350.904 143.238 351C143.238 351.096 143.233 351.192 143.222 351.288H136.966C137.009 351.779 137.131 352.221 137.334 352.616C137.537 353.011 137.825 353.325 138.198 353.56C138.571 353.784 139.035 353.896 139.59 353.896C139.867 353.896 140.145 353.864 140.422 353.8C140.71 353.725 140.966 353.603 141.19 353.432C141.425 353.261 141.59 353.032 141.686 352.744H143.078C142.95 353.288 142.71 353.736 142.358 354.088C142.006 354.429 141.585 354.685 141.094 354.856C140.603 355.016 140.091 355.096 139.558 355.096ZM136.998 350.104H141.878C141.867 349.624 141.761 349.203 141.558 348.84C141.355 348.477 141.078 348.195 140.726 347.992C140.385 347.789 139.974 347.688 139.494 347.688C138.971 347.688 138.529 347.8 138.166 348.024C137.814 348.248 137.542 348.541 137.35 348.904C137.158 349.267 137.041 349.667 136.998 350.104ZM148.298 355.096C147.455 355.096 146.762 354.909 146.218 354.536C145.674 354.152 145.269 353.64 145.002 353C144.735 352.349 144.602 351.619 144.602 350.808C144.602 349.997 144.735 349.267 145.002 348.616C145.269 347.955 145.679 347.432 146.234 347.048C146.789 346.664 147.498 346.472 148.362 346.472C148.693 346.472 149.023 346.515 149.354 346.6C149.695 346.675 150.015 346.797 150.314 346.968C150.613 347.128 150.869 347.347 151.082 347.624V343.688H152.442V355H151.146L151.082 353.736C150.89 354.056 150.645 354.317 150.346 354.52C150.058 354.712 149.738 354.856 149.386 354.952C149.034 355.048 148.671 355.096 148.298 355.096ZM148.49 353.896C149.055 353.896 149.53 353.752 149.914 353.464C150.298 353.176 150.591 352.792 150.794 352.312C150.997 351.832 151.098 351.309 151.098 350.744C151.098 350.157 150.997 349.635 150.794 349.176C150.602 348.717 150.314 348.355 149.93 348.088C149.546 347.821 149.061 347.688 148.474 347.688C147.866 347.688 147.375 347.827 147.002 348.104C146.639 348.381 146.373 348.76 146.202 349.24C146.042 349.709 145.962 350.237 145.962 350.824C145.962 351.251 146.005 351.651 146.09 352.024C146.186 352.387 146.33 352.712 146.522 353C146.725 353.277 146.986 353.496 147.306 353.656C147.626 353.816 148.021 353.896 148.49 353.896ZM159.387 355V347.768H158.011V346.568H159.387V345.672C159.387 345.043 159.472 344.531 159.643 344.136C159.824 343.731 160.107 343.432 160.491 343.24C160.885 343.048 161.403 342.952 162.043 342.952H163.003V344.152H162.187C161.803 344.152 161.504 344.216 161.291 344.344C161.088 344.472 160.944 344.664 160.859 344.92C160.784 345.165 160.747 345.469 160.747 345.832V346.568H163.003V347.768H160.747V355H159.387ZM164.27 355V346.568H165.63V355H164.27ZM164.942 345.32C164.665 345.32 164.441 345.235 164.27 345.064C164.11 344.893 164.03 344.675 164.03 344.408C164.03 344.141 164.115 343.928 164.286 343.768C164.457 343.597 164.675 343.512 164.942 343.512C165.187 343.512 165.401 343.597 165.582 343.768C165.774 343.939 165.87 344.152 165.87 344.408C165.87 344.675 165.779 344.893 165.598 345.064C165.417 345.235 165.198 345.32 164.942 345.32ZM167.61 355V346.568H168.922L168.986 347.848C169.178 347.539 169.423 347.283 169.722 347.08C170.021 346.877 170.346 346.728 170.698 346.632C171.061 346.525 171.413 346.472 171.754 346.472C172.575 346.472 173.215 346.643 173.674 346.984C174.143 347.325 174.474 347.789 174.666 348.376C174.869 348.952 174.97 349.608 174.97 350.344V355H173.61V350.712C173.61 350.317 173.583 349.939 173.53 349.576C173.487 349.213 173.391 348.888 173.242 348.6C173.103 348.312 172.901 348.088 172.634 347.928C172.367 347.757 172.01 347.672 171.562 347.672C171.007 347.672 170.533 347.827 170.138 348.136C169.754 348.445 169.461 348.861 169.258 349.384C169.066 349.907 168.97 350.493 168.97 351.144V355H167.61ZM179.607 355.096C179.223 355.096 178.85 355.048 178.487 354.952C178.135 354.845 177.815 354.691 177.527 354.488C177.25 354.275 177.026 354.013 176.855 353.704C176.695 353.384 176.615 353.016 176.615 352.6C176.615 352.12 176.701 351.715 176.871 351.384C177.053 351.053 177.293 350.792 177.591 350.6C177.89 350.408 178.237 350.269 178.631 350.184C179.026 350.099 179.437 350.056 179.863 350.056H182.343C182.343 349.576 182.274 349.16 182.135 348.808C182.007 348.456 181.794 348.184 181.495 347.992C181.197 347.789 180.802 347.688 180.311 347.688C180.013 347.688 179.735 347.72 179.479 347.784C179.223 347.848 179.005 347.949 178.823 348.088C178.642 348.227 178.509 348.413 178.423 348.648H176.967C177.042 348.264 177.186 347.939 177.399 347.672C177.623 347.395 177.89 347.171 178.199 347C178.519 346.819 178.861 346.685 179.223 346.6C179.586 346.515 179.949 346.472 180.311 346.472C181.527 346.472 182.391 346.829 182.903 347.544C183.415 348.259 183.671 349.224 183.671 350.44V355H182.535L182.455 353.928C182.221 354.248 181.938 354.493 181.607 354.664C181.277 354.835 180.935 354.947 180.583 355C180.242 355.064 179.917 355.096 179.607 355.096ZM179.735 353.896C180.269 353.896 180.727 353.811 181.111 353.64C181.506 353.459 181.81 353.197 182.023 352.856C182.237 352.515 182.343 352.099 182.343 351.608V351.192H180.855C180.503 351.192 180.157 351.197 179.815 351.208C179.474 351.219 179.165 351.261 178.887 351.336C178.61 351.411 178.386 351.539 178.215 351.72C178.055 351.901 177.975 352.163 177.975 352.504C177.975 352.824 178.055 353.085 178.215 353.288C178.386 353.491 178.605 353.645 178.871 353.752C179.149 353.848 179.437 353.896 179.735 353.896ZM185.618 355V346.568H186.93L186.994 347.848C187.186 347.539 187.432 347.283 187.73 347.08C188.029 346.877 188.354 346.728 188.706 346.632C189.069 346.525 189.421 346.472 189.762 346.472C190.584 346.472 191.224 346.643 191.682 346.984C192.152 347.325 192.482 347.789 192.674 348.376C192.877 348.952 192.978 349.608 192.978 350.344V355H191.618V350.712C191.618 350.317 191.592 349.939 191.538 349.576C191.496 349.213 191.4 348.888 191.25 348.6C191.112 348.312 190.909 348.088 190.642 347.928C190.376 347.757 190.018 347.672 189.57 347.672C189.016 347.672 188.541 347.827 188.146 348.136C187.762 348.445 187.469 348.861 187.266 349.384C187.074 349.907 186.978 350.493 186.978 351.144V355H185.618ZM198.511 355.096C197.626 355.096 196.89 354.915 196.303 354.552C195.727 354.179 195.295 353.667 195.007 353.016C194.73 352.365 194.591 351.629 194.591 350.808C194.591 350.008 194.735 349.283 195.023 348.632C195.322 347.971 195.77 347.448 196.367 347.064C196.975 346.669 197.743 346.472 198.671 346.472C199.247 346.472 199.759 346.568 200.207 346.76C200.666 346.952 201.045 347.235 201.343 347.608C201.642 347.971 201.85 348.429 201.967 348.984H200.575C200.415 348.515 200.159 348.184 199.807 347.992C199.466 347.789 199.061 347.688 198.591 347.688C197.951 347.688 197.439 347.837 197.055 348.136C196.671 348.435 196.389 348.824 196.207 349.304C196.037 349.773 195.951 350.275 195.951 350.808C195.951 351.363 196.042 351.875 196.223 352.344C196.405 352.813 196.687 353.192 197.071 353.48C197.455 353.757 197.951 353.896 198.559 353.896C199.007 353.896 199.429 353.8 199.823 353.608C200.229 353.416 200.495 353.075 200.623 352.584H202.031C201.925 353.16 201.695 353.635 201.343 354.008C201.002 354.381 200.581 354.659 200.079 354.84C199.589 355.011 199.066 355.096 198.511 355.096ZM203.595 355V346.568H204.955V355H203.595ZM204.267 345.32C203.99 345.32 203.766 345.235 203.595 345.064C203.435 344.893 203.355 344.675 203.355 344.408C203.355 344.141 203.44 343.928 203.611 343.768C203.782 343.597 204 343.512 204.267 343.512C204.512 343.512 204.726 343.597 204.907 343.768C205.099 343.939 205.195 344.152 205.195 344.408C205.195 344.675 205.104 344.893 204.923 345.064C204.742 345.235 204.523 345.32 204.267 345.32ZM209.639 355.096C209.255 355.096 208.882 355.048 208.519 354.952C208.167 354.845 207.847 354.691 207.559 354.488C207.282 354.275 207.058 354.013 206.887 353.704C206.727 353.384 206.647 353.016 206.647 352.6C206.647 352.12 206.732 351.715 206.903 351.384C207.084 351.053 207.324 350.792 207.623 350.6C207.922 350.408 208.268 350.269 208.663 350.184C209.058 350.099 209.468 350.056 209.895 350.056H212.375C212.375 349.576 212.306 349.16 212.167 348.808C212.039 348.456 211.826 348.184 211.527 347.992C211.228 347.789 210.834 347.688 210.343 347.688C210.044 347.688 209.767 347.72 209.511 347.784C209.255 347.848 209.036 347.949 208.855 348.088C208.674 348.227 208.54 348.413 208.455 348.648H206.999C207.074 348.264 207.218 347.939 207.431 347.672C207.655 347.395 207.922 347.171 208.231 347C208.551 346.819 208.892 346.685 209.255 346.6C209.618 346.515 209.98 346.472 210.343 346.472C211.559 346.472 212.423 346.829 212.935 347.544C213.447 348.259 213.703 349.224 213.703 350.44V355H212.567L212.487 353.928C212.252 354.248 211.97 354.493 211.639 354.664C211.308 354.835 210.967 354.947 210.615 355C210.274 355.064 209.948 355.096 209.639 355.096ZM209.767 353.896C210.3 353.896 210.759 353.811 211.143 353.64C211.538 353.459 211.842 353.197 212.055 352.856C212.268 352.515 212.375 352.099 212.375 351.608V351.192H210.887C210.535 351.192 210.188 351.197 209.847 351.208C209.506 351.219 209.196 351.261 208.919 351.336C208.642 351.411 208.418 351.539 208.247 351.72C208.087 351.901 208.007 352.163 208.007 352.504C208.007 352.824 208.087 353.085 208.247 353.288C208.418 353.491 208.636 353.645 208.903 353.752C209.18 353.848 209.468 353.896 209.767 353.896ZM215.65 355V343.688H217.01V355H215.65ZM226.519 355.096C225.676 355.096 224.983 354.909 224.439 354.536C223.895 354.152 223.489 353.64 223.223 353C222.956 352.349 222.823 351.619 222.823 350.808C222.823 349.997 222.956 349.267 223.223 348.616C223.489 347.955 223.9 347.432 224.455 347.048C225.009 346.664 225.719 346.472 226.583 346.472C226.913 346.472 227.244 346.515 227.575 346.6C227.916 346.675 228.236 346.797 228.535 346.968C228.833 347.128 229.089 347.347 229.303 347.624V343.688H230.663V355H229.367L229.303 353.736C229.111 354.056 228.865 354.317 228.567 354.52C228.279 354.712 227.959 354.856 227.607 354.952C227.255 355.048 226.892 355.096 226.519 355.096ZM226.711 353.896C227.276 353.896 227.751 353.752 228.135 353.464C228.519 353.176 228.812 352.792 229.015 352.312C229.217 351.832 229.319 351.309 229.319 350.744C229.319 350.157 229.217 349.635 229.015 349.176C228.823 348.717 228.535 348.355 228.151 348.088C227.767 347.821 227.281 347.688 226.695 347.688C226.087 347.688 225.596 347.827 225.223 348.104C224.86 348.381 224.593 348.76 224.423 349.24C224.263 349.709 224.183 350.237 224.183 350.824C224.183 351.251 224.225 351.651 224.311 352.024C224.407 352.387 224.551 352.712 224.743 353C224.945 353.277 225.207 353.496 225.527 353.656C225.847 353.816 226.241 353.896 226.711 353.896ZM235.343 355.096C234.959 355.096 234.586 355.048 234.223 354.952C233.871 354.845 233.551 354.691 233.263 354.488C232.986 354.275 232.762 354.013 232.591 353.704C232.431 353.384 232.351 353.016 232.351 352.6C232.351 352.12 232.436 351.715 232.607 351.384C232.788 351.053 233.028 350.792 233.327 350.6C233.626 350.408 233.972 350.269 234.367 350.184C234.762 350.099 235.172 350.056 235.599 350.056H238.079C238.079 349.576 238.01 349.16 237.871 348.808C237.743 348.456 237.53 348.184 237.231 347.992C236.932 347.789 236.538 347.688 236.047 347.688C235.748 347.688 235.471 347.72 235.215 347.784C234.959 347.848 234.74 347.949 234.559 348.088C234.378 348.227 234.244 348.413 234.159 348.648H232.703C232.778 348.264 232.922 347.939 233.135 347.672C233.359 347.395 233.626 347.171 233.935 347C234.255 346.819 234.596 346.685 234.959 346.6C235.322 346.515 235.684 346.472 236.047 346.472C237.263 346.472 238.127 346.829 238.639 347.544C239.151 348.259 239.407 349.224 239.407 350.44V355H238.271L238.191 353.928C237.956 354.248 237.674 354.493 237.343 354.664C237.012 354.835 236.671 354.947 236.319 355C235.978 355.064 235.652 355.096 235.343 355.096ZM235.471 353.896C236.004 353.896 236.463 353.811 236.847 353.64C237.242 353.459 237.546 353.197 237.759 352.856C237.972 352.515 238.079 352.099 238.079 351.608V351.192H236.591C236.239 351.192 235.892 351.197 235.551 351.208C235.21 351.219 234.9 351.261 234.623 351.336C234.346 351.411 234.122 351.539 233.951 351.72C233.791 351.901 233.711 352.163 233.711 352.504C233.711 352.824 233.791 353.085 233.951 353.288C234.122 353.491 234.34 353.645 234.607 353.752C234.884 353.848 235.172 353.896 235.471 353.896ZM244.522 355.096C243.637 355.096 243.013 354.856 242.65 354.376C242.298 353.896 242.122 353.213 242.122 352.328V347.768H240.746V346.568H242.122V344.04H243.482V346.568H246.074V347.768H243.482V352.152C243.482 352.472 243.509 352.765 243.562 353.032C243.615 353.288 243.727 353.496 243.898 353.656C244.069 353.805 244.325 353.885 244.666 353.896C244.911 353.896 245.125 353.853 245.306 353.768C245.498 353.683 245.658 353.581 245.786 353.464L246.378 354.456C246.197 354.605 246.005 354.728 245.802 354.824C245.61 354.92 245.407 354.989 245.194 355.032C244.991 355.075 244.767 355.096 244.522 355.096ZM250.242 355.096C249.858 355.096 249.484 355.048 249.122 354.952C248.77 354.845 248.45 354.691 248.162 354.488C247.884 354.275 247.66 354.013 247.49 353.704C247.33 353.384 247.25 353.016 247.25 352.6C247.25 352.12 247.335 351.715 247.506 351.384C247.687 351.053 247.927 350.792 248.226 350.6C248.524 350.408 248.871 350.269 249.266 350.184C249.66 350.099 250.071 350.056 250.498 350.056H252.978C252.978 349.576 252.908 349.16 252.77 348.808C252.642 348.456 252.428 348.184 252.13 347.992C251.831 347.789 251.436 347.688 250.946 347.688C250.647 347.688 250.37 347.72 250.114 347.784C249.858 347.848 249.639 347.949 249.458 348.088C249.276 348.227 249.143 348.413 249.058 348.648H247.602C247.676 348.264 247.82 347.939 248.034 347.672C248.258 347.395 248.524 347.171 248.834 347C249.154 346.819 249.495 346.685 249.858 346.6C250.22 346.515 250.583 346.472 250.946 346.472C252.162 346.472 253.026 346.829 253.538 347.544C254.05 348.259 254.306 349.224 254.306 350.44V355H253.17L253.09 353.928C252.855 354.248 252.572 354.493 252.242 354.664C251.911 354.835 251.57 354.947 251.218 355C250.876 355.064 250.551 355.096 250.242 355.096ZM250.37 353.896C250.903 353.896 251.362 353.811 251.746 353.64C252.14 353.459 252.444 353.197 252.658 352.856C252.871 352.515 252.978 352.099 252.978 351.608V351.192H251.49C251.138 351.192 250.791 351.197 250.45 351.208C250.108 351.219 249.799 351.261 249.522 351.336C249.244 351.411 249.02 351.539 248.85 351.72C248.69 351.901 248.61 352.163 248.61 352.504C248.61 352.824 248.69 353.085 248.85 353.288C249.02 353.491 249.239 353.645 249.506 353.752C249.783 353.848 250.071 353.896 250.37 353.896ZM263.573 355.096C262.688 355.096 262.064 354.856 261.701 354.376C261.349 353.896 261.173 353.213 261.173 352.328V347.768H259.797V346.568H261.173V344.04H262.533V346.568H265.125V347.768H262.533V352.152C262.533 352.472 262.56 352.765 262.613 353.032C262.666 353.288 262.778 353.496 262.949 353.656C263.12 353.805 263.376 353.885 263.717 353.896C263.962 353.896 264.176 353.853 264.357 353.768C264.549 353.683 264.709 353.581 264.837 353.464L265.429 354.456C265.248 354.605 265.056 354.728 264.853 354.824C264.661 354.92 264.458 354.989 264.245 355.032C264.042 355.075 263.818 355.096 263.573 355.096ZM270.269 355.096C269.384 355.096 268.642 354.915 268.045 354.552C267.448 354.179 267 353.667 266.701 353.016C266.413 352.365 266.269 351.624 266.269 350.792C266.269 349.949 266.418 349.208 266.717 348.568C267.016 347.917 267.464 347.405 268.061 347.032C268.658 346.659 269.405 346.472 270.301 346.472C271.186 346.472 271.922 346.659 272.509 347.032C273.106 347.405 273.549 347.917 273.837 348.568C274.136 349.208 274.285 349.949 274.285 350.792C274.285 351.624 274.136 352.365 273.837 353.016C273.538 353.667 273.09 354.179 272.493 354.552C271.906 354.915 271.165 355.096 270.269 355.096ZM270.269 353.896C270.888 353.896 271.389 353.757 271.773 353.48C272.168 353.203 272.456 352.829 272.637 352.36C272.829 351.891 272.925 351.368 272.925 350.792C272.925 350.216 272.829 349.693 272.637 349.224C272.456 348.755 272.168 348.381 271.773 348.104C271.389 347.827 270.888 347.688 270.269 347.688C269.661 347.688 269.16 347.827 268.765 348.104C268.381 348.381 268.093 348.755 267.901 349.224C267.72 349.693 267.629 350.216 267.629 350.792C267.629 351.368 267.72 351.891 267.901 352.36C268.093 352.829 268.381 353.203 268.765 353.48C269.16 353.757 269.661 353.896 270.269 353.896ZM29.448 379.096C28.6053 379.096 27.912 378.909 27.368 378.536C26.824 378.152 26.4187 377.64 26.152 377C25.8853 376.349 25.752 375.619 25.752 374.808C25.752 373.997 25.8853 373.267 26.152 372.616C26.4187 371.955 26.8293 371.432 27.384 371.048C27.9387 370.664 28.648 370.472 29.512 370.472C29.8427 370.472 30.1733 370.515 30.504 370.6C30.8453 370.675 31.1653 370.797 31.464 370.968C31.7627 371.128 32.0187 371.347 32.232 371.624V367.688H33.592V379H32.296L32.232 377.736C32.04 378.056 31.7947 378.317 31.496 378.52C31.208 378.712 30.888 378.856 30.536 378.952C30.184 379.048 29.8213 379.096 29.448 379.096ZM29.64 377.896C30.2053 377.896 30.68 377.752 31.064 377.464C31.448 377.176 31.7413 376.792 31.944 376.312C32.1467 375.832 32.248 375.309 32.248 374.744C32.248 374.157 32.1467 373.635 31.944 373.176C31.752 372.717 31.464 372.355 31.08 372.088C30.696 371.821 30.2107 371.688 29.624 371.688C29.016 371.688 28.5253 371.827 28.152 372.104C27.7893 372.381 27.5227 372.76 27.352 373.24C27.192 373.709 27.112 374.237 27.112 374.824C27.112 375.251 27.1547 375.651 27.24 376.024C27.336 376.387 27.48 376.712 27.672 377C27.8747 377.277 28.136 377.496 28.456 377.656C28.776 377.816 29.1707 377.896 29.64 377.896ZM35.5683 379V370.568H36.8803L36.9443 371.88C37.1576 371.549 37.4029 371.283 37.6803 371.08C37.9683 370.877 38.2829 370.728 38.6243 370.632C38.9763 370.525 39.3549 370.472 39.7603 370.472C39.8349 370.472 39.9043 370.472 39.9683 370.472C40.0429 370.472 40.1176 370.472 40.1923 370.472V371.752H39.6963C39.0349 371.752 38.4963 371.896 38.0803 372.184C37.6749 372.461 37.3816 372.84 37.2003 373.32C37.0189 373.789 36.9283 374.312 36.9283 374.888V379H35.5683ZM41.377 379V370.568H42.737V379H41.377ZM42.049 369.32C41.7717 369.32 41.5477 369.235 41.377 369.064C41.217 368.893 41.137 368.675 41.137 368.408C41.137 368.141 41.2223 367.928 41.393 367.768C41.5637 367.597 41.7823 367.512 42.049 367.512C42.2943 367.512 42.5077 367.597 42.689 367.768C42.881 367.939 42.977 368.152 42.977 368.408C42.977 368.675 42.8863 368.893 42.705 369.064C42.5237 369.235 42.305 369.32 42.049 369.32ZM47.005 379L43.757 370.568H45.293L47.949 377.688L50.557 370.568H52.109L48.861 379H47.005ZM56.7831 379.096C55.8871 379.096 55.1458 378.915 54.5591 378.552C53.9725 378.179 53.5351 377.667 53.2471 377.016C52.9591 376.365 52.8151 375.624 52.8151 374.792C52.8151 373.949 52.9645 373.208 53.2631 372.568C53.5725 371.917 54.0205 371.405 54.6071 371.032C55.1938 370.659 55.9138 370.472 56.7671 370.472C57.4285 370.472 57.9938 370.6 58.4631 370.856C58.9431 371.101 59.3378 371.432 59.6471 371.848C59.9565 372.264 60.1805 372.723 60.3191 373.224C60.4578 373.715 60.5165 374.211 60.4951 374.712C60.4845 374.808 60.4738 374.904 60.4631 375C60.4631 375.096 60.4578 375.192 60.4471 375.288H54.1911C54.2338 375.779 54.3565 376.221 54.5591 376.616C54.7618 377.011 55.0498 377.325 55.4231 377.56C55.7965 377.784 56.2605 377.896 56.8151 377.896C57.0925 377.896 57.3698 377.864 57.6471 377.8C57.9351 377.725 58.1911 377.603 58.4151 377.432C58.6498 377.261 58.8151 377.032 58.9111 376.744H60.3031C60.1751 377.288 59.9351 377.736 59.5831 378.088C59.2311 378.429 58.8098 378.685 58.3191 378.856C57.8285 379.016 57.3165 379.096 56.7831 379.096ZM54.2231 374.104H59.1031C59.0925 373.624 58.9858 373.203 58.7831 372.84C58.5805 372.477 58.3031 372.195 57.9511 371.992C57.6098 371.789 57.1991 371.688 56.7191 371.688C56.1965 371.688 55.7538 371.8 55.3911 372.024C55.0391 372.248 54.7671 372.541 54.5751 372.904C54.3831 373.267 54.2658 373.667 54.2231 374.104ZM66.2995 382.04V370.568H67.5955L67.6595 371.832C67.9475 371.395 68.3368 371.059 68.8275 370.824C69.3288 370.589 69.8675 370.472 70.4435 370.472C71.2968 370.472 71.9955 370.664 72.5395 371.048C73.0835 371.421 73.4835 371.933 73.7395 372.584C74.0062 373.235 74.1395 373.971 74.1395 374.792C74.1395 375.613 74.0062 376.349 73.7395 377C73.4728 377.651 73.0622 378.163 72.5075 378.536C71.9528 378.909 71.2435 379.096 70.3795 379.096C69.9528 379.096 69.5688 379.053 69.2275 378.968C68.8862 378.872 68.5875 378.739 68.3315 378.568C68.0755 378.387 67.8515 378.179 67.6595 377.944V382.04H66.2995ZM70.2675 377.896C70.8862 377.896 71.3768 377.757 71.7395 377.48C72.1022 377.192 72.3635 376.813 72.5235 376.344C72.6942 375.875 72.7795 375.357 72.7795 374.792C72.7795 374.216 72.6942 373.693 72.5235 373.224C72.3635 372.755 72.0968 372.381 71.7235 372.104C71.3502 371.827 70.8542 371.688 70.2355 371.688C69.6808 371.688 69.2062 371.832 68.8115 372.12C68.4275 372.397 68.1342 372.776 67.9315 373.256C67.7288 373.725 67.6275 374.243 67.6275 374.808C67.6275 375.395 67.7235 375.923 67.9155 376.392C68.1075 376.861 68.4008 377.229 68.7955 377.496C69.1902 377.763 69.6808 377.896 70.2675 377.896ZM75.7958 379V370.568H77.1078L77.1718 371.88C77.3851 371.549 77.6304 371.283 77.9078 371.08C78.1958 370.877 78.5104 370.728 78.8518 370.632C79.2038 370.525 79.5824 370.472 79.9878 370.472C80.0624 370.472 80.1318 370.472 80.1958 370.472C80.2704 370.472 80.3451 370.472 80.4198 370.472V371.752H79.9238C79.2624 371.752 78.7238 371.896 78.3078 372.184C77.9024 372.461 77.6091 372.84 77.4278 373.32C77.2464 373.789 77.1558 374.312 77.1558 374.888V379H75.7958ZM85.0963 379.096C84.2003 379.096 83.4589 378.915 82.8723 378.552C82.2856 378.179 81.8483 377.667 81.5603 377.016C81.2723 376.365 81.1283 375.624 81.1283 374.792C81.1283 373.949 81.2776 373.208 81.5763 372.568C81.8856 371.917 82.3336 371.405 82.9203 371.032C83.5069 370.659 84.2269 370.472 85.0803 370.472C85.7416 370.472 86.3069 370.6 86.7763 370.856C87.2563 371.101 87.6509 371.432 87.9603 371.848C88.2696 372.264 88.4936 372.723 88.6323 373.224C88.7709 373.715 88.8296 374.211 88.8083 374.712C88.7976 374.808 88.7869 374.904 88.7763 375C88.7763 375.096 88.7709 375.192 88.7603 375.288H82.5043C82.5469 375.779 82.6696 376.221 82.8723 376.616C83.0749 377.011 83.3629 377.325 83.7363 377.56C84.1096 377.784 84.5736 377.896 85.1283 377.896C85.4056 377.896 85.6829 377.864 85.9603 377.8C86.2483 377.725 86.5043 377.603 86.7283 377.432C86.9629 377.261 87.1283 377.032 87.2243 376.744H88.6163C88.4883 377.288 88.2483 377.736 87.8963 378.088C87.5443 378.429 87.1229 378.685 86.6323 378.856C86.1416 379.016 85.6296 379.096 85.0963 379.096ZM82.5363 374.104H87.4163C87.4056 373.624 87.2989 373.203 87.0963 372.84C86.8936 372.477 86.6163 372.195 86.2643 371.992C85.9229 371.789 85.5123 371.688 85.0323 371.688C84.5096 371.688 84.0669 371.8 83.7043 372.024C83.3523 372.248 83.0803 372.541 82.8883 372.904C82.6963 373.267 82.5789 373.667 82.5363 374.104ZM94.2164 379.096C93.331 379.096 92.595 378.915 92.0084 378.552C91.4324 378.179 91.0004 377.667 90.7124 377.016C90.435 376.365 90.2964 375.629 90.2964 374.808C90.2964 374.008 90.4404 373.283 90.7284 372.632C91.027 371.971 91.475 371.448 92.0724 371.064C92.6804 370.669 93.4484 370.472 94.3764 370.472C94.9524 370.472 95.4644 370.568 95.9124 370.76C96.371 370.952 96.7497 371.235 97.0484 371.608C97.347 371.971 97.555 372.429 97.6724 372.984H96.2804C96.1204 372.515 95.8644 372.184 95.5124 371.992C95.171 371.789 94.7657 371.688 94.2964 371.688C93.6564 371.688 93.1444 371.837 92.7604 372.136C92.3764 372.435 92.0937 372.824 91.9124 373.304C91.7417 373.773 91.6564 374.275 91.6564 374.808C91.6564 375.363 91.747 375.875 91.9284 376.344C92.1097 376.813 92.3924 377.192 92.7764 377.48C93.1604 377.757 93.6564 377.896 94.2644 377.896C94.7124 377.896 95.1337 377.8 95.5284 377.608C95.9337 377.416 96.2004 377.075 96.3284 376.584H97.7364C97.6297 377.16 97.4004 377.635 97.0484 378.008C96.707 378.381 96.2857 378.659 95.7844 378.84C95.2937 379.011 94.771 379.096 94.2164 379.096ZM99.3001 379V370.568H100.66V379H99.3001ZM99.9721 369.32C99.6948 369.32 99.4708 369.235 99.3001 369.064C99.1401 368.893 99.0601 368.675 99.0601 368.408C99.0601 368.141 99.1455 367.928 99.3161 367.768C99.4868 367.597 99.7055 367.512 99.9721 367.512C100.217 367.512 100.431 367.597 100.612 367.768C100.804 367.939 100.9 368.152 100.9 368.408C100.9 368.675 100.809 368.893 100.628 369.064C100.447 369.235 100.228 369.32 99.9721 369.32ZM105.712 379.096C105.328 379.096 104.939 379.059 104.544 378.984C104.16 378.909 103.797 378.781 103.456 378.6C103.125 378.419 102.848 378.173 102.624 377.864C102.4 377.555 102.256 377.171 102.192 376.712H103.568C103.675 377 103.845 377.235 104.08 377.416C104.325 377.587 104.597 377.709 104.896 377.784C105.205 377.859 105.499 377.896 105.776 377.896C105.947 377.896 106.144 377.885 106.368 377.864C106.592 377.843 106.805 377.795 107.008 377.72C107.221 377.635 107.392 377.512 107.52 377.352C107.659 377.192 107.728 376.968 107.728 376.68C107.728 376.467 107.68 376.291 107.584 376.152C107.488 376.013 107.355 375.901 107.184 375.816C107.013 375.72 106.805 375.651 106.56 375.608C106.059 375.501 105.52 375.4 104.944 375.304C104.379 375.208 103.877 375.027 103.44 374.76C103.291 374.664 103.152 374.557 103.024 374.44C102.907 374.312 102.805 374.173 102.72 374.024C102.635 373.864 102.565 373.693 102.512 373.512C102.469 373.32 102.448 373.112 102.448 372.888C102.448 372.472 102.528 372.115 102.688 371.816C102.859 371.507 103.093 371.256 103.392 371.064C103.691 370.861 104.032 370.712 104.416 370.616C104.811 370.52 105.232 370.472 105.68 370.472C106.235 370.472 106.731 370.563 107.168 370.744C107.616 370.915 107.984 371.171 108.272 371.512C108.56 371.843 108.731 372.253 108.784 372.744H107.52C107.445 372.435 107.243 372.184 106.912 371.992C106.581 371.789 106.16 371.688 105.648 371.688C105.477 371.688 105.285 371.704 105.072 371.736C104.859 371.757 104.656 371.811 104.464 371.896C104.272 371.971 104.112 372.088 103.984 372.248C103.856 372.397 103.792 372.6 103.792 372.856C103.792 373.091 103.851 373.288 103.968 373.448C104.096 373.608 104.272 373.736 104.496 373.832C104.72 373.928 104.976 374.008 105.264 374.072C105.637 374.147 106.048 374.227 106.496 374.312C106.944 374.387 107.296 374.467 107.552 374.552C107.893 374.659 108.176 374.808 108.4 375C108.635 375.192 108.805 375.421 108.912 375.688C109.029 375.955 109.088 376.264 109.088 376.616C109.088 377.117 108.987 377.528 108.784 377.848C108.592 378.168 108.331 378.419 108 378.6C107.669 378.781 107.301 378.909 106.896 378.984C106.501 379.059 106.107 379.096 105.712 379.096ZM110.621 379V370.568H111.981V379H110.621ZM111.293 369.32C111.015 369.32 110.791 369.235 110.621 369.064C110.461 368.893 110.381 368.675 110.381 368.408C110.381 368.141 110.466 367.928 110.637 367.768C110.807 367.597 111.026 367.512 111.293 367.512C111.538 367.512 111.751 367.597 111.933 367.768C112.125 367.939 112.221 368.152 112.221 368.408C112.221 368.675 112.13 368.893 111.949 369.064C111.767 369.235 111.549 369.32 111.293 369.32ZM117.641 379.096C116.755 379.096 116.014 378.915 115.417 378.552C114.819 378.179 114.371 377.667 114.073 377.016C113.785 376.365 113.641 375.624 113.641 374.792C113.641 373.949 113.79 373.208 114.089 372.568C114.387 371.917 114.835 371.405 115.433 371.032C116.03 370.659 116.777 370.472 117.673 370.472C118.558 370.472 119.294 370.659 119.881 371.032C120.478 371.405 120.921 371.917 121.209 372.568C121.507 373.208 121.657 373.949 121.657 374.792C121.657 375.624 121.507 376.365 121.209 377.016C120.91 377.667 120.462 378.179 119.865 378.552C119.278 378.915 118.537 379.096 117.641 379.096ZM117.641 377.896C118.259 377.896 118.761 377.757 119.145 377.48C119.539 377.203 119.827 376.829 120.009 376.36C120.201 375.891 120.297 375.368 120.297 374.792C120.297 374.216 120.201 373.693 120.009 373.224C119.827 372.755 119.539 372.381 119.145 372.104C118.761 371.827 118.259 371.688 117.641 371.688C117.033 371.688 116.531 371.827 116.137 372.104C115.753 372.381 115.465 372.755 115.273 373.224C115.091 373.693 115.001 374.216 115.001 374.792C115.001 375.368 115.091 375.891 115.273 376.36C115.465 376.829 115.753 377.203 116.137 377.48C116.531 377.757 117.033 377.896 117.641 377.896ZM123.316 379V370.568H124.628L124.692 371.848C124.884 371.539 125.13 371.283 125.428 371.08C125.727 370.877 126.052 370.728 126.404 370.632C126.767 370.525 127.119 370.472 127.46 370.472C128.282 370.472 128.922 370.643 129.38 370.984C129.85 371.325 130.18 371.789 130.372 372.376C130.575 372.952 130.676 373.608 130.676 374.344V379H129.316V374.712C129.316 374.317 129.29 373.939 129.236 373.576C129.194 373.213 129.098 372.888 128.948 372.6C128.81 372.312 128.607 372.088 128.34 371.928C128.074 371.757 127.716 371.672 127.268 371.672C126.714 371.672 126.239 371.827 125.844 372.136C125.46 372.445 125.167 372.861 124.964 373.384C124.772 373.907 124.676 374.493 124.676 375.144V379H123.316ZM132.993 380.936L132.609 380.408C132.759 380.301 132.897 380.173 133.025 380.024C133.153 379.875 133.265 379.715 133.361 379.544C133.468 379.373 133.543 379.203 133.585 379.032C133.308 379.011 133.084 378.92 132.913 378.76C132.743 378.6 132.657 378.387 132.657 378.12C132.668 377.843 132.764 377.624 132.945 377.464C133.137 377.293 133.356 377.208 133.601 377.208C133.911 377.208 134.156 377.32 134.337 377.544C134.529 377.768 134.625 378.083 134.625 378.488C134.625 378.808 134.545 379.139 134.385 379.48C134.236 379.821 134.039 380.12 133.793 380.376C133.548 380.643 133.281 380.829 132.993 380.936ZM140.289 382.04V370.568H141.585L141.649 371.832C141.937 371.395 142.327 371.059 142.817 370.824C143.319 370.589 143.857 370.472 144.433 370.472C145.287 370.472 145.985 370.664 146.529 371.048C147.073 371.421 147.473 371.933 147.729 372.584C147.996 373.235 148.129 373.971 148.129 374.792C148.129 375.613 147.996 376.349 147.729 377C147.463 377.651 147.052 378.163 146.497 378.536C145.943 378.909 145.233 379.096 144.369 379.096C143.943 379.096 143.559 379.053 143.217 378.968C142.876 378.872 142.577 378.739 142.321 378.568C142.065 378.387 141.841 378.179 141.649 377.944V382.04H140.289ZM144.257 377.896C144.876 377.896 145.367 377.757 145.729 377.48C146.092 377.192 146.353 376.813 146.513 376.344C146.684 375.875 146.769 375.357 146.769 374.792C146.769 374.216 146.684 373.693 146.513 373.224C146.353 372.755 146.087 372.381 145.713 372.104C145.34 371.827 144.844 371.688 144.225 371.688C143.671 371.688 143.196 371.832 142.801 372.12C142.417 372.397 142.124 372.776 141.921 373.256C141.719 373.725 141.617 374.243 141.617 374.808C141.617 375.395 141.713 375.923 141.905 376.392C142.097 376.861 142.391 377.229 142.785 377.496C143.18 377.763 143.671 377.896 144.257 377.896ZM153.434 379.096C152.538 379.096 151.796 378.915 151.21 378.552C150.623 378.179 150.186 377.667 149.898 377.016C149.61 376.365 149.466 375.624 149.466 374.792C149.466 373.949 149.615 373.208 149.914 372.568C150.223 371.917 150.671 371.405 151.258 371.032C151.844 370.659 152.564 370.472 153.418 370.472C154.079 370.472 154.644 370.6 155.114 370.856C155.594 371.101 155.988 371.432 156.298 371.848C156.607 372.264 156.831 372.723 156.97 373.224C157.108 373.715 157.167 374.211 157.146 374.712C157.135 374.808 157.124 374.904 157.114 375C157.114 375.096 157.108 375.192 157.098 375.288H150.842C150.884 375.779 151.007 376.221 151.21 376.616C151.412 377.011 151.7 377.325 152.074 377.56C152.447 377.784 152.911 377.896 153.466 377.896C153.743 377.896 154.02 377.864 154.298 377.8C154.586 377.725 154.842 377.603 155.066 377.432C155.3 377.261 155.466 377.032 155.562 376.744H156.954C156.826 377.288 156.586 377.736 156.234 378.088C155.882 378.429 155.46 378.685 154.97 378.856C154.479 379.016 153.967 379.096 153.434 379.096ZM150.874 374.104H155.754C155.743 373.624 155.636 373.203 155.434 372.84C155.231 372.477 154.954 372.195 154.602 371.992C154.26 371.789 153.85 371.688 153.37 371.688C152.847 371.688 152.404 371.8 152.042 372.024C151.69 372.248 151.418 372.541 151.226 372.904C151.034 373.267 150.916 373.667 150.874 374.104ZM158.798 379V370.568H160.11L160.174 371.88C160.387 371.549 160.632 371.283 160.91 371.08C161.198 370.877 161.512 370.728 161.854 370.632C162.206 370.525 162.584 370.472 162.99 370.472C163.064 370.472 163.134 370.472 163.198 370.472C163.272 370.472 163.347 370.472 163.422 370.472V371.752H162.926C162.264 371.752 161.726 371.896 161.31 372.184C160.904 372.461 160.611 372.84 160.43 373.32C160.248 373.789 160.158 374.312 160.158 374.888V379H158.798ZM167.522 379.096C167.138 379.096 166.749 379.059 166.354 378.984C165.97 378.909 165.607 378.781 165.266 378.6C164.935 378.419 164.658 378.173 164.434 377.864C164.21 377.555 164.066 377.171 164.002 376.712H165.378C165.485 377 165.655 377.235 165.89 377.416C166.135 377.587 166.407 377.709 166.706 377.784C167.015 377.859 167.309 377.896 167.586 377.896C167.757 377.896 167.954 377.885 168.178 377.864C168.402 377.843 168.615 377.795 168.818 377.72C169.031 377.635 169.202 377.512 169.33 377.352C169.469 377.192 169.538 376.968 169.538 376.68C169.538 376.467 169.49 376.291 169.394 376.152C169.298 376.013 169.165 375.901 168.994 375.816C168.823 375.72 168.615 375.651 168.37 375.608C167.869 375.501 167.33 375.4 166.754 375.304C166.189 375.208 165.687 375.027 165.25 374.76C165.101 374.664 164.962 374.557 164.834 374.44C164.717 374.312 164.615 374.173 164.53 374.024C164.445 373.864 164.375 373.693 164.322 373.512C164.279 373.32 164.258 373.112 164.258 372.888C164.258 372.472 164.338 372.115 164.498 371.816C164.669 371.507 164.903 371.256 165.202 371.064C165.501 370.861 165.842 370.712 166.226 370.616C166.621 370.52 167.042 370.472 167.49 370.472C168.045 370.472 168.541 370.563 168.978 370.744C169.426 370.915 169.794 371.171 170.082 371.512C170.37 371.843 170.541 372.253 170.594 372.744H169.33C169.255 372.435 169.053 372.184 168.722 371.992C168.391 371.789 167.97 371.688 167.458 371.688C167.287 371.688 167.095 371.704 166.882 371.736C166.669 371.757 166.466 371.811 166.274 371.896C166.082 371.971 165.922 372.088 165.794 372.248C165.666 372.397 165.602 372.6 165.602 372.856C165.602 373.091 165.661 373.288 165.778 373.448C165.906 373.608 166.082 373.736 166.306 373.832C166.53 373.928 166.786 374.008 167.074 374.072C167.447 374.147 167.858 374.227 168.306 374.312C168.754 374.387 169.106 374.467 169.362 374.552C169.703 374.659 169.986 374.808 170.21 375C170.445 375.192 170.615 375.421 170.722 375.688C170.839 375.955 170.898 376.264 170.898 376.616C170.898 377.117 170.797 377.528 170.594 377.848C170.402 378.168 170.141 378.419 169.81 378.6C169.479 378.781 169.111 378.909 168.706 378.984C168.311 379.059 167.917 379.096 167.522 379.096ZM176.111 379.096C175.225 379.096 174.484 378.915 173.887 378.552C173.289 378.179 172.841 377.667 172.543 377.016C172.255 376.365 172.111 375.624 172.111 374.792C172.111 373.949 172.26 373.208 172.559 372.568C172.857 371.917 173.305 371.405 173.903 371.032C174.5 370.659 175.247 370.472 176.143 370.472C177.028 370.472 177.764 370.659 178.351 371.032C178.948 371.405 179.391 371.917 179.679 372.568C179.977 373.208 180.127 373.949 180.127 374.792C180.127 375.624 179.977 376.365 179.679 377.016C179.38 377.667 178.932 378.179 178.335 378.552C177.748 378.915 177.007 379.096 176.111 379.096ZM176.111 377.896C176.729 377.896 177.231 377.757 177.615 377.48C178.009 377.203 178.297 376.829 178.479 376.36C178.671 375.891 178.767 375.368 178.767 374.792C178.767 374.216 178.671 373.693 178.479 373.224C178.297 372.755 178.009 372.381 177.615 372.104C177.231 371.827 176.729 371.688 176.111 371.688C175.503 371.688 175.001 371.827 174.607 372.104C174.223 372.381 173.935 372.755 173.743 373.224C173.561 373.693 173.471 374.216 173.471 374.792C173.471 375.368 173.561 375.891 173.743 376.36C173.935 376.829 174.223 377.203 174.607 377.48C175.001 377.757 175.503 377.896 176.111 377.896ZM181.786 379V370.568H183.098L183.162 371.848C183.354 371.539 183.6 371.283 183.898 371.08C184.197 370.877 184.522 370.728 184.874 370.632C185.237 370.525 185.589 370.472 185.93 370.472C186.752 370.472 187.392 370.643 187.85 370.984C188.32 371.325 188.65 371.789 188.842 372.376C189.045 372.952 189.146 373.608 189.146 374.344V379H187.786V374.712C187.786 374.317 187.76 373.939 187.706 373.576C187.664 373.213 187.568 372.888 187.418 372.6C187.28 372.312 187.077 372.088 186.81 371.928C186.544 371.757 186.186 371.672 185.738 371.672C185.184 371.672 184.709 371.827 184.314 372.136C183.93 372.445 183.637 372.861 183.434 373.384C183.242 373.907 183.146 374.493 183.146 375.144V379H181.786ZM193.784 379.096C193.4 379.096 193.026 379.048 192.664 378.952C192.312 378.845 191.992 378.691 191.704 378.488C191.426 378.275 191.202 378.013 191.032 377.704C190.872 377.384 190.792 377.016 190.792 376.6C190.792 376.12 190.877 375.715 191.048 375.384C191.229 375.053 191.469 374.792 191.768 374.6C192.066 374.408 192.413 374.269 192.808 374.184C193.202 374.099 193.613 374.056 194.04 374.056H196.52C196.52 373.576 196.45 373.16 196.312 372.808C196.184 372.456 195.97 372.184 195.672 371.992C195.373 371.789 194.978 371.688 194.488 371.688C194.189 371.688 193.912 371.72 193.656 371.784C193.4 371.848 193.181 371.949 193 372.088C192.818 372.227 192.685 372.413 192.6 372.648H191.144C191.218 372.264 191.362 371.939 191.576 371.672C191.8 371.395 192.066 371.171 192.376 371C192.696 370.819 193.037 370.685 193.4 370.6C193.762 370.515 194.125 370.472 194.488 370.472C195.704 370.472 196.568 370.829 197.08 371.544C197.592 372.259 197.848 373.224 197.848 374.44V379H196.712L196.632 377.928C196.397 378.248 196.114 378.493 195.784 378.664C195.453 378.835 195.112 378.947 194.76 379C194.418 379.064 194.093 379.096 193.784 379.096ZM193.912 377.896C194.445 377.896 194.904 377.811 195.288 377.64C195.682 377.459 195.986 377.197 196.2 376.856C196.413 376.515 196.52 376.099 196.52 375.608V375.192H195.032C194.68 375.192 194.333 375.197 193.992 375.208C193.65 375.219 193.341 375.261 193.064 375.336C192.786 375.411 192.562 375.539 192.392 375.72C192.232 375.901 192.152 376.163 192.152 376.504C192.152 376.824 192.232 377.085 192.392 377.288C192.562 377.491 192.781 377.645 193.048 377.752C193.325 377.848 193.613 377.896 193.912 377.896ZM199.795 379V367.688H201.155V379H199.795ZM203.135 379V370.568H204.495V379H203.135ZM203.807 369.32C203.529 369.32 203.305 369.235 203.135 369.064C202.975 368.893 202.895 368.675 202.895 368.408C202.895 368.141 202.98 367.928 203.151 367.768C203.321 367.597 203.54 367.512 203.807 367.512C204.052 367.512 204.265 367.597 204.447 367.768C204.639 367.939 204.735 368.152 204.735 368.408C204.735 368.675 204.644 368.893 204.463 369.064C204.281 369.235 204.063 369.32 203.807 369.32ZM209.546 379.096C209.162 379.096 208.773 379.059 208.378 378.984C207.994 378.909 207.632 378.781 207.29 378.6C206.96 378.419 206.682 378.173 206.458 377.864C206.234 377.555 206.09 377.171 206.026 376.712H207.402C207.509 377 207.68 377.235 207.914 377.416C208.16 377.587 208.432 377.709 208.73 377.784C209.04 377.859 209.333 377.896 209.61 377.896C209.781 377.896 209.978 377.885 210.202 377.864C210.426 377.843 210.64 377.795 210.842 377.72C211.056 377.635 211.226 377.512 211.354 377.352C211.493 377.192 211.562 376.968 211.562 376.68C211.562 376.467 211.514 376.291 211.418 376.152C211.322 376.013 211.189 375.901 211.018 375.816C210.848 375.72 210.64 375.651 210.394 375.608C209.893 375.501 209.354 375.4 208.778 375.304C208.213 375.208 207.712 375.027 207.274 374.76C207.125 374.664 206.986 374.557 206.858 374.44C206.741 374.312 206.64 374.173 206.554 374.024C206.469 373.864 206.4 373.693 206.346 373.512C206.304 373.32 206.282 373.112 206.282 372.888C206.282 372.472 206.362 372.115 206.522 371.816C206.693 371.507 206.928 371.256 207.226 371.064C207.525 370.861 207.866 370.712 208.25 370.616C208.645 370.52 209.066 370.472 209.514 370.472C210.069 370.472 210.565 370.563 211.002 370.744C211.45 370.915 211.818 371.171 212.106 371.512C212.394 371.843 212.565 372.253 212.618 372.744H211.354C211.28 372.435 211.077 372.184 210.746 371.992C210.416 371.789 209.994 371.688 209.482 371.688C209.312 371.688 209.12 371.704 208.906 371.736C208.693 371.757 208.49 371.811 208.298 371.896C208.106 371.971 207.946 372.088 207.818 372.248C207.69 372.397 207.626 372.6 207.626 372.856C207.626 373.091 207.685 373.288 207.802 373.448C207.93 373.608 208.106 373.736 208.33 373.832C208.554 373.928 208.81 374.008 209.098 374.072C209.472 374.147 209.882 374.227 210.33 374.312C210.778 374.387 211.13 374.467 211.386 374.552C211.728 374.659 212.01 374.808 212.234 375C212.469 375.192 212.64 375.421 212.746 375.688C212.864 375.955 212.922 376.264 212.922 376.616C212.922 377.117 212.821 377.528 212.618 377.848C212.426 378.168 212.165 378.419 211.834 378.6C211.504 378.781 211.136 378.909 210.73 378.984C210.336 379.059 209.941 379.096 209.546 379.096ZM217.159 379.096C216.775 379.096 216.402 379.048 216.039 378.952C215.687 378.845 215.367 378.691 215.079 378.488C214.802 378.275 214.578 378.013 214.407 377.704C214.247 377.384 214.167 377.016 214.167 376.6C214.167 376.12 214.252 375.715 214.423 375.384C214.604 375.053 214.844 374.792 215.143 374.6C215.442 374.408 215.788 374.269 216.183 374.184C216.578 374.099 216.988 374.056 217.415 374.056H219.895C219.895 373.576 219.826 373.16 219.687 372.808C219.559 372.456 219.346 372.184 219.047 371.992C218.748 371.789 218.354 371.688 217.863 371.688C217.564 371.688 217.287 371.72 217.031 371.784C216.775 371.848 216.556 371.949 216.375 372.088C216.194 372.227 216.06 372.413 215.975 372.648H214.519C214.594 372.264 214.738 371.939 214.951 371.672C215.175 371.395 215.442 371.171 215.751 371C216.071 370.819 216.412 370.685 216.775 370.6C217.138 370.515 217.5 370.472 217.863 370.472C219.079 370.472 219.943 370.829 220.455 371.544C220.967 372.259 221.223 373.224 221.223 374.44V379H220.087L220.007 377.928C219.772 378.248 219.49 378.493 219.159 378.664C218.828 378.835 218.487 378.947 218.135 379C217.794 379.064 217.468 379.096 217.159 379.096ZM217.287 377.896C217.82 377.896 218.279 377.811 218.663 377.64C219.058 377.459 219.362 377.197 219.575 376.856C219.788 376.515 219.895 376.099 219.895 375.608V375.192H218.407C218.055 375.192 217.708 375.197 217.367 375.208C217.026 375.219 216.716 375.261 216.439 375.336C216.162 375.411 215.938 375.539 215.767 375.72C215.607 375.901 215.527 376.163 215.527 376.504C215.527 376.824 215.607 377.085 215.767 377.288C215.938 377.491 216.156 377.645 216.423 377.752C216.7 377.848 216.988 377.896 217.287 377.896ZM226.594 379C225.954 379 225.437 378.904 225.042 378.712C224.658 378.52 224.375 378.221 224.194 377.816C224.023 377.411 223.938 376.899 223.938 376.28V371.768H222.562V370.568H223.938V368.056H225.298V370.568H227.554V371.768H225.298V376.136C225.298 376.712 225.399 377.139 225.602 377.416C225.815 377.683 226.242 377.816 226.882 377.816H227.506V379H226.594ZM228.932 379V370.568H230.292V379H228.932ZM229.604 369.32C229.327 369.32 229.103 369.235 228.932 369.064C228.772 368.893 228.692 368.675 228.692 368.408C228.692 368.141 228.777 367.928 228.948 367.768C229.119 367.597 229.337 367.512 229.604 367.512C229.849 367.512 230.063 367.597 230.244 367.768C230.436 367.939 230.532 368.152 230.532 368.408C230.532 368.675 230.441 368.893 230.26 369.064C230.079 369.235 229.86 369.32 229.604 369.32ZM235.952 379.096C235.067 379.096 234.325 378.915 233.728 378.552C233.131 378.179 232.683 377.667 232.384 377.016C232.096 376.365 231.952 375.624 231.952 374.792C231.952 373.949 232.101 373.208 232.4 372.568C232.699 371.917 233.147 371.405 233.744 371.032C234.341 370.659 235.088 370.472 235.984 370.472C236.869 370.472 237.605 370.659 238.192 371.032C238.789 371.405 239.232 371.917 239.52 372.568C239.819 373.208 239.968 373.949 239.968 374.792C239.968 375.624 239.819 376.365 239.52 377.016C239.221 377.667 238.773 378.179 238.176 378.552C237.589 378.915 236.848 379.096 235.952 379.096ZM235.952 377.896C236.571 377.896 237.072 377.757 237.456 377.48C237.851 377.203 238.139 376.829 238.32 376.36C238.512 375.891 238.608 375.368 238.608 374.792C238.608 374.216 238.512 373.693 238.32 373.224C238.139 372.755 237.851 372.381 237.456 372.104C237.072 371.827 236.571 371.688 235.952 371.688C235.344 371.688 234.843 371.827 234.448 372.104C234.064 372.381 233.776 372.755 233.584 373.224C233.403 373.693 233.312 374.216 233.312 374.792C233.312 375.368 233.403 375.891 233.584 376.36C233.776 376.829 234.064 377.203 234.448 377.48C234.843 377.757 235.344 377.896 235.952 377.896ZM241.628 379V370.568H242.94L243.004 371.848C243.196 371.539 243.441 371.283 243.74 371.08C244.038 370.877 244.364 370.728 244.716 370.632C245.078 370.525 245.43 370.472 245.772 370.472C246.593 370.472 247.233 370.643 247.692 370.984C248.161 371.325 248.492 371.789 248.684 372.376C248.886 372.952 248.988 373.608 248.988 374.344V379H247.628V374.712C247.628 374.317 247.601 373.939 247.548 373.576C247.505 373.213 247.409 372.888 247.26 372.6C247.121 372.312 246.918 372.088 246.652 371.928C246.385 371.757 246.028 371.672 245.58 371.672C245.025 371.672 244.55 371.827 244.156 372.136C243.772 372.445 243.478 372.861 243.276 373.384C243.084 373.907 242.988 374.493 242.988 375.144V379H241.628ZM251.305 380.936L250.921 380.408C251.07 380.301 251.209 380.173 251.337 380.024C251.465 379.875 251.577 379.715 251.673 379.544C251.779 379.373 251.854 379.203 251.897 379.032C251.619 379.011 251.395 378.92 251.225 378.76C251.054 378.6 250.969 378.387 250.969 378.12C250.979 377.843 251.075 377.624 251.257 377.464C251.449 377.293 251.667 377.208 251.913 377.208C252.222 377.208 252.467 377.32 252.649 377.544C252.841 377.768 252.937 378.083 252.937 378.488C252.937 378.808 252.857 379.139 252.697 379.48C252.547 379.821 252.35 380.12 252.105 380.376C251.859 380.643 251.593 380.829 251.305 380.936ZM28.776 403.096C28.392 403.096 28.0187 403.048 27.656 402.952C27.304 402.845 26.984 402.691 26.696 402.488C26.4187 402.275 26.1947 402.013 26.024 401.704C25.864 401.384 25.784 401.016 25.784 400.6C25.784 400.12 25.8693 399.715 26.04 399.384C26.2213 399.053 26.4613 398.792 26.76 398.6C27.0587 398.408 27.4053 398.269 27.8 398.184C28.1947 398.099 28.6053 398.056 29.032 398.056H31.512C31.512 397.576 31.4427 397.16 31.304 396.808C31.176 396.456 30.9627 396.184 30.664 395.992C30.3653 395.789 29.9707 395.688 29.48 395.688C29.1813 395.688 28.904 395.72 28.648 395.784C28.392 395.848 28.1733 395.949 27.992 396.088C27.8107 396.227 27.6773 396.413 27.592 396.648H26.136C26.2107 396.264 26.3547 395.939 26.568 395.672C26.792 395.395 27.0587 395.171 27.368 395C27.688 394.819 28.0293 394.685 28.392 394.6C28.7547 394.515 29.1173 394.472 29.48 394.472C30.696 394.472 31.56 394.829 32.072 395.544C32.584 396.259 32.84 397.224 32.84 398.44V403H31.704L31.624 401.928C31.3893 402.248 31.1067 402.493 30.776 402.664C30.4453 402.835 30.104 402.947 29.752 403C29.4107 403.064 29.0853 403.096 28.776 403.096ZM28.904 401.896C29.4373 401.896 29.896 401.811 30.28 401.64C30.6747 401.459 30.9787 401.197 31.192 400.856C31.4053 400.515 31.512 400.099 31.512 399.608V399.192H30.024C29.672 399.192 29.3253 399.197 28.984 399.208C28.6427 399.219 28.3333 399.261 28.056 399.336C27.7787 399.411 27.5547 399.539 27.384 399.72C27.224 399.901 27.144 400.163 27.144 400.504C27.144 400.824 27.224 401.085 27.384 401.288C27.5547 401.491 27.7733 401.645 28.04 401.752C28.3173 401.848 28.6053 401.896 28.904 401.896ZM34.787 403V394.568H36.099L36.163 395.848C36.355 395.539 36.6003 395.283 36.899 395.08C37.1977 394.877 37.523 394.728 37.875 394.632C38.2377 394.525 38.5897 394.472 38.931 394.472C39.7523 394.472 40.3923 394.643 40.851 394.984C41.3203 395.325 41.651 395.789 41.843 396.376C42.0457 396.952 42.147 397.608 42.147 398.344V403H40.787V398.712C40.787 398.317 40.7603 397.939 40.707 397.576C40.6643 397.213 40.5683 396.888 40.419 396.6C40.2803 396.312 40.0777 396.088 39.811 395.928C39.5443 395.757 39.187 395.672 38.739 395.672C38.1843 395.672 37.7097 395.827 37.315 396.136C36.931 396.445 36.6377 396.861 36.435 397.384C36.243 397.907 36.147 398.493 36.147 399.144V403H34.787ZM47.4561 403.096C46.6135 403.096 45.9201 402.909 45.3761 402.536C44.8321 402.152 44.4268 401.64 44.1601 401C43.8935 400.349 43.7601 399.619 43.7601 398.808C43.7601 397.997 43.8935 397.267 44.1601 396.616C44.4268 395.955 44.8375 395.432 45.3921 395.048C45.9468 394.664 46.6561 394.472 47.5201 394.472C47.8508 394.472 48.1815 394.515 48.5121 394.6C48.8535 394.675 49.1735 394.797 49.4721 394.968C49.7708 395.128 50.0268 395.347 50.2401 395.624V391.688H51.6001V403H50.3041L50.2401 401.736C50.0481 402.056 49.8028 402.317 49.5041 402.52C49.2161 402.712 48.8961 402.856 48.5441 402.952C48.1921 403.048 47.8295 403.096 47.4561 403.096ZM47.6481 401.896C48.2135 401.896 48.6881 401.752 49.0721 401.464C49.4561 401.176 49.7495 400.792 49.9521 400.312C50.1548 399.832 50.2561 399.309 50.2561 398.744C50.2561 398.157 50.1548 397.635 49.9521 397.176C49.7601 396.717 49.4721 396.355 49.0881 396.088C48.7041 395.821 48.2188 395.688 47.6321 395.688C47.0241 395.688 46.5335 395.827 46.1601 396.104C45.7975 396.381 45.5308 396.76 45.3601 397.24C45.2001 397.709 45.1201 398.237 45.1201 398.824C45.1201 399.251 45.1628 399.651 45.2481 400.024C45.3441 400.387 45.4881 400.712 45.6801 401C45.8828 401.277 46.1441 401.496 46.4641 401.656C46.7841 401.816 47.1788 401.896 47.6481 401.896ZM57.7289 406.04V394.568H59.0249L59.0889 395.832C59.3769 395.395 59.7662 395.059 60.2569 394.824C60.7582 394.589 61.2969 394.472 61.8729 394.472C62.7262 394.472 63.4249 394.664 63.9689 395.048C64.5129 395.421 64.9129 395.933 65.1689 396.584C65.4355 397.235 65.5689 397.971 65.5689 398.792C65.5689 399.613 65.4355 400.349 65.1689 401C64.9022 401.651 64.4915 402.163 63.9369 402.536C63.3822 402.909 62.6729 403.096 61.8089 403.096C61.3822 403.096 60.9982 403.053 60.6569 402.968C60.3155 402.872 60.0169 402.739 59.7609 402.568C59.5049 402.387 59.2809 402.179 59.0889 401.944V406.04H57.7289ZM61.6969 401.896C62.3155 401.896 62.8062 401.757 63.1689 401.48C63.5315 401.192 63.7929 400.813 63.9529 400.344C64.1235 399.875 64.2089 399.357 64.2089 398.792C64.2089 398.216 64.1235 397.693 63.9529 397.224C63.7929 396.755 63.5262 396.381 63.1529 396.104C62.7795 395.827 62.2835 395.688 61.6649 395.688C61.1102 395.688 60.6355 395.832 60.2409 396.12C59.8569 396.397 59.5635 396.776 59.3609 397.256C59.1582 397.725 59.0569 398.243 59.0569 398.808C59.0569 399.395 59.1529 399.923 59.3449 400.392C59.5369 400.861 59.8302 401.229 60.2249 401.496C60.6195 401.763 61.1102 401.896 61.6969 401.896ZM70.8731 403.096C69.9771 403.096 69.2358 402.915 68.6491 402.552C68.0625 402.179 67.6251 401.667 67.3371 401.016C67.0491 400.365 66.9051 399.624 66.9051 398.792C66.9051 397.949 67.0545 397.208 67.3531 396.568C67.6625 395.917 68.1105 395.405 68.6971 395.032C69.2838 394.659 70.0038 394.472 70.8571 394.472C71.5185 394.472 72.0838 394.6 72.5531 394.856C73.0331 395.101 73.4278 395.432 73.7371 395.848C74.0465 396.264 74.2705 396.723 74.4091 397.224C74.5478 397.715 74.6065 398.211 74.5851 398.712C74.5745 398.808 74.5638 398.904 74.5531 399C74.5531 399.096 74.5478 399.192 74.5371 399.288H68.2811C68.3238 399.779 68.4465 400.221 68.6491 400.616C68.8518 401.011 69.1398 401.325 69.5131 401.56C69.8865 401.784 70.3505 401.896 70.9051 401.896C71.1825 401.896 71.4598 401.864 71.7371 401.8C72.0251 401.725 72.2811 401.603 72.5051 401.432C72.7398 401.261 72.9051 401.032 73.0011 400.744H74.3931C74.2651 401.288 74.0251 401.736 73.6731 402.088C73.3211 402.429 72.8998 402.685 72.4091 402.856C71.9185 403.016 71.4065 403.096 70.8731 403.096ZM68.3131 398.104H73.1931C73.1825 397.624 73.0758 397.203 72.8731 396.84C72.6705 396.477 72.3931 396.195 72.0411 395.992C71.6998 395.789 71.2891 395.688 70.8091 395.688C70.2865 395.688 69.8438 395.8 69.4811 396.024C69.1291 396.248 68.8571 396.541 68.6651 396.904C68.4731 397.267 68.3558 397.667 68.3131 398.104ZM76.237 403V394.568H77.549L77.613 395.88C77.8263 395.549 78.0717 395.283 78.349 395.08C78.637 394.877 78.9517 394.728 79.293 394.632C79.645 394.525 80.0237 394.472 80.429 394.472C80.5037 394.472 80.573 394.472 80.637 394.472C80.7117 394.472 80.7863 394.472 80.861 394.472V395.752H80.365C79.7037 395.752 79.165 395.896 78.749 396.184C78.3437 396.461 78.0503 396.84 77.869 397.32C77.6877 397.789 77.597 398.312 77.597 398.888V403H76.237ZM82.8618 403V395.768H81.4858V394.568H82.8618V393.672C82.8618 393.043 82.9471 392.531 83.1178 392.136C83.2991 391.731 83.5818 391.432 83.9658 391.24C84.3604 391.048 84.8778 390.952 85.5178 390.952H86.4778V392.152H85.6618C85.2778 392.152 84.9791 392.216 84.7658 392.344C84.5631 392.472 84.4191 392.664 84.3338 392.92C84.2591 393.165 84.2218 393.469 84.2218 393.832V394.568H86.4778V395.768H84.2218V403H82.8618ZM91.2689 403.096C90.3835 403.096 89.6422 402.915 89.0449 402.552C88.4475 402.179 87.9995 401.667 87.7009 401.016C87.4129 400.365 87.2689 399.624 87.2689 398.792C87.2689 397.949 87.4182 397.208 87.7169 396.568C88.0155 395.917 88.4635 395.405 89.0609 395.032C89.6582 394.659 90.4049 394.472 91.3009 394.472C92.1862 394.472 92.9222 394.659 93.5089 395.032C94.1062 395.405 94.5489 395.917 94.8369 396.568C95.1355 397.208 95.2849 397.949 95.2849 398.792C95.2849 399.624 95.1355 400.365 94.8369 401.016C94.5382 401.667 94.0902 402.179 93.4929 402.552C92.9062 402.915 92.1649 403.096 91.2689 403.096ZM91.2689 401.896C91.8875 401.896 92.3889 401.757 92.7729 401.48C93.1675 401.203 93.4555 400.829 93.6369 400.36C93.8289 399.891 93.9249 399.368 93.9249 398.792C93.9249 398.216 93.8289 397.693 93.6369 397.224C93.4555 396.755 93.1675 396.381 92.7729 396.104C92.3889 395.827 91.8875 395.688 91.2689 395.688C90.6609 395.688 90.1595 395.827 89.7649 396.104C89.3809 396.381 89.0929 396.755 88.9009 397.224C88.7195 397.693 88.6289 398.216 88.6289 398.792C88.6289 399.368 88.7195 399.891 88.9009 400.36C89.0929 400.829 89.3809 401.203 89.7649 401.48C90.1595 401.757 90.6609 401.896 91.2689 401.896ZM96.9445 403V394.568H98.2565L98.3205 395.88C98.5338 395.549 98.7792 395.283 99.0565 395.08C99.3445 394.877 99.6592 394.728 100 394.632C100.352 394.525 100.731 394.472 101.136 394.472C101.211 394.472 101.28 394.472 101.344 394.472C101.419 394.472 101.494 394.472 101.568 394.472V395.752H101.072C100.411 395.752 99.8725 395.896 99.4565 396.184C99.0512 396.461 98.7578 396.84 98.5765 397.32C98.3952 397.789 98.3045 398.312 98.3045 398.888V403H96.9445ZM102.753 403V394.568H104.065L104.129 395.576C104.311 395.32 104.513 395.112 104.737 394.952C104.972 394.792 105.228 394.675 105.505 394.6C105.793 394.515 106.097 394.472 106.417 394.472C107.004 394.472 107.479 394.6 107.841 394.856C108.204 395.101 108.476 395.427 108.657 395.832C108.849 395.544 109.068 395.299 109.313 395.096C109.569 394.893 109.852 394.739 110.161 394.632C110.481 394.525 110.833 394.472 111.217 394.472C111.836 394.472 112.332 394.605 112.705 394.872C113.089 395.139 113.367 395.501 113.537 395.96C113.708 396.408 113.793 396.915 113.793 397.48V403H112.433V398.168C112.433 397.891 112.417 397.608 112.385 397.32C112.364 397.032 112.3 396.765 112.193 396.52C112.087 396.264 111.927 396.061 111.713 395.912C111.511 395.752 111.223 395.672 110.849 395.672C110.497 395.672 110.199 395.757 109.953 395.928C109.719 396.088 109.527 396.307 109.377 396.584C109.228 396.861 109.121 397.16 109.057 397.48C108.993 397.789 108.961 398.099 108.961 398.408V403H107.601V398.152C107.601 397.885 107.585 397.608 107.553 397.32C107.532 397.032 107.473 396.765 107.377 396.52C107.292 396.264 107.143 396.061 106.929 395.912C106.727 395.752 106.444 395.672 106.081 395.672C105.569 395.672 105.169 395.821 104.881 396.12C104.593 396.408 104.391 396.765 104.273 397.192C104.167 397.608 104.113 398.019 104.113 398.424V403H102.753ZM118.407 403.096C118.023 403.096 117.649 403.048 117.287 402.952C116.935 402.845 116.615 402.691 116.327 402.488C116.049 402.275 115.825 402.013 115.655 401.704C115.495 401.384 115.415 401.016 115.415 400.6C115.415 400.12 115.5 399.715 115.671 399.384C115.852 399.053 116.092 398.792 116.391 398.6C116.689 398.408 117.036 398.269 117.431 398.184C117.825 398.099 118.236 398.056 118.663 398.056H121.143C121.143 397.576 121.073 397.16 120.935 396.808C120.807 396.456 120.593 396.184 120.295 395.992C119.996 395.789 119.601 395.688 119.111 395.688C118.812 395.688 118.535 395.72 118.279 395.784C118.023 395.848 117.804 395.949 117.623 396.088C117.441 396.227 117.308 396.413 117.223 396.648H115.767C115.841 396.264 115.985 395.939 116.199 395.672C116.423 395.395 116.689 395.171 116.999 395C117.319 394.819 117.66 394.685 118.023 394.6C118.385 394.515 118.748 394.472 119.111 394.472C120.327 394.472 121.191 394.829 121.703 395.544C122.215 396.259 122.471 397.224 122.471 398.44V403H121.335L121.255 401.928C121.02 402.248 120.737 402.493 120.407 402.664C120.076 402.835 119.735 402.947 119.383 403C119.041 403.064 118.716 403.096 118.407 403.096ZM118.535 401.896C119.068 401.896 119.527 401.811 119.911 401.64C120.305 401.459 120.609 401.197 120.823 400.856C121.036 400.515 121.143 400.099 121.143 399.608V399.192H119.655C119.303 399.192 118.956 399.197 118.615 399.208C118.273 399.219 117.964 399.261 117.687 399.336C117.409 399.411 117.185 399.539 117.015 399.72C116.855 399.901 116.775 400.163 116.775 400.504C116.775 400.824 116.855 401.085 117.015 401.288C117.185 401.491 117.404 401.645 117.671 401.752C117.948 401.848 118.236 401.896 118.535 401.896ZM124.418 403V394.568H125.73L125.794 395.848C125.986 395.539 126.231 395.283 126.53 395.08C126.828 394.877 127.154 394.728 127.506 394.632C127.868 394.525 128.22 394.472 128.562 394.472C129.383 394.472 130.023 394.643 130.482 394.984C130.951 395.325 131.282 395.789 131.474 396.376C131.676 396.952 131.778 397.608 131.778 398.344V403H130.418V398.712C130.418 398.317 130.391 397.939 130.338 397.576C130.295 397.213 130.199 396.888 130.05 396.6C129.911 396.312 129.708 396.088 129.442 395.928C129.175 395.757 128.818 395.672 128.37 395.672C127.815 395.672 127.34 395.827 126.946 396.136C126.562 396.445 126.268 396.861 126.066 397.384C125.874 397.907 125.778 398.493 125.778 399.144V403H124.418ZM137.311 403.096C136.425 403.096 135.689 402.915 135.103 402.552C134.527 402.179 134.095 401.667 133.807 401.016C133.529 400.365 133.391 399.629 133.391 398.808C133.391 398.008 133.535 397.283 133.823 396.632C134.121 395.971 134.569 395.448 135.167 395.064C135.775 394.669 136.543 394.472 137.471 394.472C138.047 394.472 138.559 394.568 139.007 394.76C139.465 394.952 139.844 395.235 140.143 395.608C140.441 395.971 140.649 396.429 140.767 396.984H139.375C139.215 396.515 138.959 396.184 138.607 395.992C138.265 395.789 137.86 395.688 137.391 395.688C136.751 395.688 136.239 395.837 135.855 396.136C135.471 396.435 135.188 396.824 135.007 397.304C134.836 397.773 134.751 398.275 134.751 398.808C134.751 399.363 134.841 399.875 135.023 400.344C135.204 400.813 135.487 401.192 135.871 401.48C136.255 401.757 136.751 401.896 137.359 401.896C137.807 401.896 138.228 401.8 138.623 401.608C139.028 401.416 139.295 401.075 139.423 400.584H140.831C140.724 401.16 140.495 401.635 140.143 402.008C139.801 402.381 139.38 402.659 138.879 402.84C138.388 403.011 137.865 403.096 137.311 403.096ZM146.043 403.096C145.147 403.096 144.405 402.915 143.819 402.552C143.232 402.179 142.795 401.667 142.507 401.016C142.219 400.365 142.075 399.624 142.075 398.792C142.075 397.949 142.224 397.208 142.523 396.568C142.832 395.917 143.28 395.405 143.867 395.032C144.453 394.659 145.173 394.472 146.027 394.472C146.688 394.472 147.253 394.6 147.723 394.856C148.203 395.101 148.597 395.432 148.907 395.848C149.216 396.264 149.44 396.723 149.579 397.224C149.717 397.715 149.776 398.211 149.755 398.712C149.744 398.808 149.733 398.904 149.723 399C149.723 399.096 149.717 399.192 149.707 399.288H143.451C143.493 399.779 143.616 400.221 143.819 400.616C144.021 401.011 144.309 401.325 144.683 401.56C145.056 401.784 145.52 401.896 146.075 401.896C146.352 401.896 146.629 401.864 146.907 401.8C147.195 401.725 147.451 401.603 147.675 401.432C147.909 401.261 148.075 401.032 148.171 400.744H149.563C149.435 401.288 149.195 401.736 148.843 402.088C148.491 402.429 148.069 402.685 147.579 402.856C147.088 403.016 146.576 403.096 146.043 403.096ZM143.483 398.104H148.363C148.352 397.624 148.245 397.203 148.043 396.84C147.84 396.477 147.563 396.195 147.211 395.992C146.869 395.789 146.459 395.688 145.979 395.688C145.456 395.688 145.013 395.8 144.651 396.024C144.299 396.248 144.027 396.541 143.835 396.904C143.643 397.267 143.525 397.667 143.483 398.104ZM152.366 403.128C152.089 403.128 151.86 403.037 151.678 402.856C151.497 402.675 151.406 402.445 151.406 402.168C151.406 401.891 151.497 401.661 151.678 401.48C151.86 401.299 152.089 401.208 152.366 401.208C152.644 401.208 152.873 401.299 153.054 401.48C153.236 401.661 153.326 401.891 153.326 402.168C153.326 402.445 153.236 402.675 153.054 402.856C152.873 403.037 152.644 403.128 152.366 403.128Z" fill="#646464"/>
<defs>
<radialGradient id="paint0_radial_2303_2704" cx="0" cy="0" r="1" gradientUnits="userSpaceOnUse" gradientTransform="translate(266.063 23.6047) rotate(-2.26679) scale(17.7866)">
<stop stop-color="#EF4BCB"/>
<stop offset="1" stop-color="#34897B"/>
</radialGradient>
<radialGradient id="paint1_radial_2303_2704" cx="0" cy="0" r="1" gradientUnits="userSpaceOnUse" gradientTransform="translate(103.263 206.592) rotate(0.0240914) scale(92.9487 0.988886)">
<stop stop-color="#EF4BCB"/>
<stop offset="1" stop-color="#34897B"/>
</radialGradient>
<radialGradient id="paint2_radial_2303_2704" cx="0" cy="0" r="1" gradientUnits="userSpaceOnUse" gradientTransform="translate(109.026 195.867) rotate(4.52651) scale(11.6066 23.1047)">
<stop stop-color="#EF4BCB"/>
<stop offset="1" stop-color="#34897B"/>
</radialGradient>
<radialGradient id="paint3_radial_2303_2704" cx="0" cy="0" r="1" gradientUnits="userSpaceOnUse" gradientTransform="translate(132.463 192.506) rotate(5.87605) scale(11.6315 29.9718)">
<stop stop-color="#EF4BCB"/>
<stop offset="1" stop-color="#34897B"/>
</radialGradient>
<radialGradient id="paint4_radial_2303_2704" cx="0" cy="0" r="1" gradientUnits="userSpaceOnUse" gradientTransform="translate(155.901 187.371) rotate(7.92479) scale(11.6819 40.3637)">
<stop stop-color="#EF4BCB"/>
<stop offset="1" stop-color="#34897B"/>
</radialGradient>
<radialGradient id="paint5_radial_2303_2704" cx="0" cy="0" r="1" gradientUnits="userSpaceOnUse" gradientTransform="translate(179.338 178.034) rotate(11.5948) scale(11.8114 58.8413)">
<stop stop-color="#EF4BCB"/>
<stop offset="1" stop-color="#34897B"/>
</radialGradient>
<radialGradient id="paint6_radial_2303_2704" cx="0" cy="0" r="1" gradientUnits="userSpaceOnUse" gradientTransform="translate(103.246 142.73) rotate(1.44892) scale(88.24 56.4373)">
<stop stop-color="#EF4BCB"/>
<stop offset="1" stop-color="#34897B"/>
</radialGradient>
<radialGradient id="paint7_radial_2303_2704" cx="0" cy="0" r="1" gradientUnits="userSpaceOnUse" gradientTransform="translate(174.449 122.275) rotate(1.78811) scale(22.4252 17.6967)">
<stop stop-color="#EF4BCB"/>
<stop offset="1" stop-color="#34897B"/>
</radialGradient>
<radialGradient id="paint8_radial_2303_2704" cx="0" cy="0" r="1" gradientUnits="userSpaceOnUse" gradientTransform="translate(25.8877 291.725) rotate(-0.52406) scale(247.832 57.353)">
<stop stop-color="#EF4BCB"/>
<stop offset="1" stop-color="#34897B"/>
</radialGradient>
<clipPath id="clip0_2303_2704">
<rect width="100" height="100" fill="white" transform="translate(100 110)"/>
</clipPath>
</defs>
</svg>
