<svg width="300" height="434" viewBox="0 0 300 434" fill="none" xmlns="http://www.w3.org/2000/svg">
<rect x="251" width="48" height="48" rx="24" fill="white"/>
<path d="M284 16V29C284 29.2652 283.895 29.5196 283.707 29.7071C283.52 29.8946 283.265 30 283 30C282.735 30 282.48 29.8946 282.293 29.7071C282.105 29.5196 282 29.2652 282 29V18.4137L267.708 32.7075C267.52 32.8951 267.265 33.0006 267 33.0006C266.735 33.0006 266.48 32.8951 266.293 32.7075C266.105 32.5199 265.999 32.2654 265.999 32C265.999 31.7346 266.105 31.4801 266.293 31.2925L280.586 17H270C269.735 17 269.48 16.8946 269.293 16.7071C269.105 16.5196 269 16.2652 269 16C269 15.7348 269.105 15.4804 269.293 15.2929C269.48 15.1054 269.735 15 270 15H283C283.265 15 283.52 15.1054 283.707 15.2929C283.895 15.4804 284 15.7348 284 16Z" fill="url(#paint0_radial_2303_2751)"/>
<mask id="mask0_2303_2751" style="mask-type:alpha" maskUnits="userSpaceOnUse" x="1" y="0" width="299" height="434">
<path d="M215.5 0C226.546 0 235.5 8.9543 235.5 20V24.5C235.5 45.4868 252.513 62.5 273.5 62.5H279.445C290.491 62.5 299.445 71.4543 299.445 82.5V414C299.445 425.046 290.491 434 279.445 434H21C9.95431 434 1 425.046 1 414V20C1.00001 8.95431 9.95431 0 21 0H215.5Z" fill="#D9D9D9"/>
</mask>
<g mask="url(#mask0_2303_2751)">
<rect width="298" height="434" transform="translate(1.33331)" fill="white"/>
<path fill-rule="evenodd" clip-rule="evenodd" d="M148.104 111.207L100.248 206.778C99.2372 208.797 101.519 210.869 103.383 209.623L120.91 197.902L175.17 162.147C176.102 161.533 176.428 160.305 175.927 159.298L151.983 111.212C151.18 109.598 148.911 109.596 148.104 111.207ZM159.867 181.546L177.755 169.117C178.832 168.369 180.311 168.746 180.913 169.922L199.743 206.729C200.774 208.745 198.496 210.838 196.623 209.595L159.905 185.216C158.609 184.356 158.589 182.434 159.867 181.546ZM150.049 138.725L135.909 164.694L141.038 165.997L146.168 167.299L159.563 156.237L150.049 138.725Z" fill="url(#paint1_radial_2303_2751)"/>
</g>
<path d="M25.48 288L30.76 270.72H35.632L40.912 288H37.552L32.848 272.76H33.472L28.84 288H25.48ZM28.648 284.4V281.352H37.768V284.4H28.648ZM48.7748 288.36C47.4308 288.36 46.2788 288.06 45.3188 287.46C44.3588 286.86 43.6228 286.044 43.1108 285.012C42.5988 283.98 42.3428 282.816 42.3428 281.52C42.3428 280.208 42.6068 279.036 43.1348 278.004C43.6708 276.972 44.4228 276.16 45.3908 275.568C46.3588 274.976 47.5028 274.68 48.8228 274.68C50.3508 274.68 51.6308 275.068 52.6628 275.844C53.7028 276.612 54.3668 277.664 54.6548 279L51.3908 279.864C51.1988 279.192 50.8628 278.668 50.3828 278.292C49.9108 277.916 49.3748 277.728 48.7748 277.728C48.0868 277.728 47.5228 277.896 47.0828 278.232C46.6428 278.56 46.3188 279.012 46.1108 279.588C45.9028 280.156 45.7988 280.8 45.7988 281.52C45.7988 282.648 46.0468 283.564 46.5428 284.268C47.0468 284.964 47.7908 285.312 48.7748 285.312C49.5108 285.312 50.0708 285.144 50.4548 284.808C50.8388 284.472 51.1268 283.992 51.3188 283.368L54.6548 284.064C54.2868 285.44 53.5908 286.5 52.5668 287.244C51.5428 287.988 50.2788 288.36 48.7748 288.36ZM62.4154 288.36C61.0714 288.36 59.9194 288.06 58.9594 287.46C57.9994 286.86 57.2634 286.044 56.7514 285.012C56.2394 283.98 55.9834 282.816 55.9834 281.52C55.9834 280.208 56.2474 279.036 56.7754 278.004C57.3114 276.972 58.0634 276.16 59.0314 275.568C59.9994 274.976 61.1434 274.68 62.4634 274.68C63.9914 274.68 65.2714 275.068 66.3034 275.844C67.3434 276.612 68.0074 277.664 68.2954 279L65.0314 279.864C64.8394 279.192 64.5034 278.668 64.0234 278.292C63.5514 277.916 63.0154 277.728 62.4154 277.728C61.7274 277.728 61.1634 277.896 60.7234 278.232C60.2834 278.56 59.9594 279.012 59.7514 279.588C59.5434 280.156 59.4394 280.8 59.4394 281.52C59.4394 282.648 59.6874 283.564 60.1834 284.268C60.6874 284.964 61.4314 285.312 62.4154 285.312C63.1514 285.312 63.7114 285.144 64.0954 284.808C64.4794 284.472 64.7674 283.992 64.9594 283.368L68.2954 284.064C67.9274 285.44 67.2314 286.5 66.2074 287.244C65.1834 287.988 63.9194 288.36 62.4154 288.36ZM76.1761 288.36C74.8721 288.36 73.7281 288.068 72.7441 287.484C71.7601 286.9 70.9921 286.096 70.4401 285.072C69.8961 284.04 69.6241 282.856 69.6241 281.52C69.6241 280.168 69.9041 278.98 70.4641 277.956C71.0241 276.924 71.7961 276.12 72.7801 275.544C73.7641 274.968 74.8961 274.68 76.1761 274.68C77.4801 274.68 78.6241 274.972 79.6081 275.556C80.6001 276.14 81.3721 276.948 81.9241 277.98C82.4761 279.004 82.7521 280.184 82.7521 281.52C82.7521 282.864 82.4721 284.052 81.9121 285.084C81.3601 286.108 80.5881 286.912 79.5961 287.496C78.6121 288.072 77.4721 288.36 76.1761 288.36ZM76.1761 285.312C77.2241 285.312 78.0041 284.96 78.5161 284.256C79.0361 283.544 79.2961 282.632 79.2961 281.52C79.2961 280.368 79.0321 279.448 78.5041 278.76C77.9841 278.072 77.2081 277.728 76.1761 277.728C75.4641 277.728 74.8801 277.888 74.4241 278.208C73.9681 278.528 73.6281 278.972 73.4041 279.54C73.1881 280.108 73.0801 280.768 73.0801 281.52C73.0801 282.68 73.3401 283.604 73.8601 284.292C74.3881 284.972 75.1601 285.312 76.1761 285.312ZM90.2149 288.384C89.1989 288.384 88.3709 288.212 87.7309 287.868C87.0909 287.524 86.5909 287.088 86.2309 286.56C85.8789 286.032 85.6269 285.484 85.4749 284.916C85.3229 284.34 85.2309 283.816 85.1989 283.344C85.1669 282.872 85.1509 282.528 85.1509 282.312V275.04H88.4629V281.16C88.4629 281.456 88.4789 281.836 88.5109 282.3C88.5429 282.756 88.6429 283.216 88.8109 283.68C88.9789 284.144 89.2509 284.532 89.6269 284.844C90.0109 285.156 90.5509 285.312 91.2469 285.312C91.5269 285.312 91.8269 285.268 92.1469 285.18C92.4669 285.092 92.7669 284.924 93.0469 284.676C93.3269 284.42 93.5549 284.048 93.7309 283.56C93.9149 283.064 94.0069 282.416 94.0069 281.616L95.8789 282.504C95.8789 283.528 95.6709 284.488 95.2549 285.384C94.8389 286.28 94.2109 287.004 93.3709 287.556C92.5389 288.108 91.4869 288.384 90.2149 288.384ZM94.4149 288V283.704H94.0069V275.04H97.2949V288H94.4149ZM109.481 288V281.88C109.481 281.584 109.465 281.208 109.433 280.752C109.401 280.288 109.301 279.824 109.133 279.36C108.965 278.896 108.689 278.508 108.305 278.196C107.929 277.884 107.393 277.728 106.697 277.728C106.417 277.728 106.117 277.772 105.797 277.86C105.477 277.948 105.177 278.12 104.897 278.376C104.617 278.624 104.385 278.992 104.201 279.48C104.025 279.968 103.937 280.616 103.937 281.424L102.065 280.536C102.065 279.512 102.273 278.552 102.689 277.656C103.105 276.76 103.729 276.036 104.561 275.484C105.401 274.932 106.457 274.656 107.729 274.656C108.745 274.656 109.573 274.828 110.213 275.172C110.853 275.516 111.349 275.952 111.701 276.48C112.061 277.008 112.317 277.56 112.469 278.136C112.621 278.704 112.713 279.224 112.745 279.696C112.777 280.168 112.793 280.512 112.793 280.728V288H109.481ZM100.625 288V275.04H103.529V279.336H103.937V288H100.625ZM123.683 288C122.787 288.168 121.907 288.24 121.043 288.216C120.187 288.2 119.419 288.052 118.739 287.772C118.067 287.484 117.555 287.024 117.203 286.392C116.883 285.8 116.715 285.2 116.699 284.592C116.683 283.976 116.675 283.28 116.675 282.504V271.44H119.939V282.312C119.939 282.816 119.943 283.272 119.951 283.68C119.967 284.08 120.051 284.4 120.203 284.64C120.491 285.096 120.951 285.344 121.583 285.384C122.215 285.424 122.915 285.392 123.683 285.288V288ZM114.467 277.56V275.04H123.683V277.56H114.467ZM131.375 288V270.72H134.639V277.824H142.367V270.72H145.631V288H142.367V280.872H134.639V288H131.375ZM155.024 288.36C153.696 288.36 152.524 288.076 151.508 287.508C150.5 286.932 149.708 286.144 149.132 285.144C148.564 284.136 148.28 282.984 148.28 281.688C148.28 280.272 148.56 279.04 149.12 277.992C149.68 276.944 150.452 276.132 151.436 275.556C152.42 274.972 153.552 274.68 154.832 274.68C156.192 274.68 157.348 275 158.3 275.64C159.252 276.28 159.956 277.18 160.412 278.34C160.868 279.5 161.028 280.864 160.892 282.432H157.664V281.232C157.664 279.912 157.452 278.964 157.028 278.388C156.612 277.804 155.928 277.512 154.976 277.512C153.864 277.512 153.044 277.852 152.516 278.532C151.996 279.204 151.736 280.2 151.736 281.52C151.736 282.728 151.996 283.664 152.516 284.328C153.044 284.984 153.816 285.312 154.832 285.312C155.472 285.312 156.02 285.172 156.476 284.892C156.932 284.612 157.28 284.208 157.52 283.68L160.784 284.616C160.296 285.8 159.524 286.72 158.468 287.376C157.42 288.032 156.272 288.36 155.024 288.36ZM150.728 282.432V280.008H159.32V282.432H150.728ZM163.842 288V270.36H167.106V288H163.842ZM177.063 288.36C175.775 288.36 174.699 288.06 173.835 287.46C172.971 286.86 172.319 286.044 171.879 285.012C171.447 283.98 171.231 282.816 171.231 281.52C171.231 280.224 171.447 279.06 171.879 278.028C172.311 276.996 172.947 276.18 173.787 275.58C174.627 274.98 175.663 274.68 176.895 274.68C178.135 274.68 179.215 274.976 180.135 275.568C181.055 276.16 181.767 276.972 182.271 278.004C182.783 279.028 183.039 280.2 183.039 281.52C183.039 282.816 182.787 283.98 182.283 285.012C181.787 286.044 181.091 286.86 180.195 287.46C179.299 288.06 178.255 288.36 177.063 288.36ZM170.679 293.76V275.04H173.559V283.92H173.967V293.76H170.679ZM176.535 285.456C177.239 285.456 177.815 285.28 178.263 284.928C178.711 284.576 179.043 284.104 179.259 283.512C179.475 282.912 179.583 282.248 179.583 281.52C179.583 280.8 179.471 280.144 179.247 279.552C179.023 278.952 178.675 278.476 178.203 278.124C177.739 277.764 177.143 277.584 176.415 277.584C175.735 277.584 175.183 277.748 174.759 278.076C174.343 278.404 174.039 278.864 173.847 279.456C173.655 280.048 173.559 280.736 173.559 281.52C173.559 282.304 173.655 282.992 173.847 283.584C174.039 284.176 174.351 284.636 174.783 284.964C175.223 285.292 175.807 285.456 176.535 285.456ZM33.208 317.36C31.928 317.36 30.772 317.136 29.74 316.688C28.716 316.232 27.872 315.584 27.208 314.744C26.552 313.896 26.136 312.888 25.96 311.72L29.368 311.216C29.608 312.208 30.104 312.972 30.856 313.508C31.608 314.044 32.464 314.312 33.424 314.312C33.96 314.312 34.48 314.228 34.984 314.06C35.488 313.892 35.9 313.644 36.22 313.316C36.548 312.988 36.712 312.584 36.712 312.104C36.712 311.928 36.684 311.76 36.628 311.6C36.58 311.432 36.496 311.276 36.376 311.132C36.256 310.988 36.084 310.852 35.86 310.724C35.644 310.596 35.368 310.48 35.032 310.376L30.544 309.056C30.208 308.96 29.816 308.824 29.368 308.648C28.928 308.472 28.5 308.22 28.084 307.892C27.668 307.564 27.32 307.132 27.04 306.596C26.768 306.052 26.632 305.368 26.632 304.544C26.632 303.384 26.924 302.42 27.508 301.652C28.092 300.884 28.872 300.312 29.848 299.936C30.824 299.56 31.904 299.376 33.088 299.384C34.28 299.4 35.344 299.604 36.28 299.996C37.216 300.388 38 300.96 38.632 301.712C39.264 302.456 39.72 303.368 40 304.448L36.472 305.048C36.344 304.488 36.108 304.016 35.764 303.632C35.42 303.248 35.008 302.956 34.528 302.756C34.056 302.556 33.56 302.448 33.04 302.432C32.528 302.416 32.044 302.488 31.588 302.648C31.14 302.8 30.772 303.024 30.484 303.32C30.204 303.616 30.064 303.968 30.064 304.376C30.064 304.752 30.18 305.06 30.412 305.3C30.644 305.532 30.936 305.72 31.288 305.864C31.64 306.008 32 306.128 32.368 306.224L35.368 307.04C35.816 307.16 36.312 307.32 36.856 307.52C37.4 307.712 37.92 307.984 38.416 308.336C38.92 308.68 39.332 309.136 39.652 309.704C39.98 310.272 40.144 310.992 40.144 311.864C40.144 312.792 39.948 313.604 39.556 314.3C39.172 314.988 38.652 315.56 37.996 316.016C37.34 316.464 36.596 316.8 35.764 317.024C34.94 317.248 34.088 317.36 33.208 317.36ZM48.0376 317.36C46.8456 317.36 45.8016 317.06 44.9056 316.46C44.0096 315.86 43.3096 315.044 42.8056 314.012C42.3096 312.98 42.0616 311.816 42.0616 310.52C42.0616 309.2 42.3136 308.028 42.8176 307.004C43.3296 305.972 44.0456 305.16 44.9656 304.568C45.8856 303.976 46.9656 303.68 48.2056 303.68C49.4376 303.68 50.4736 303.98 51.3136 304.58C52.1536 305.18 52.7896 305.996 53.2216 307.028C53.6536 308.06 53.8696 309.224 53.8696 310.52C53.8696 311.816 53.6496 312.98 53.2096 314.012C52.7776 315.044 52.1296 315.86 51.2656 316.46C50.4016 317.06 49.3256 317.36 48.0376 317.36ZM48.5656 314.456C49.2936 314.456 49.8736 314.292 50.3056 313.964C50.7456 313.636 51.0616 313.176 51.2536 312.584C51.4456 311.992 51.5416 311.304 51.5416 310.52C51.5416 309.736 51.4456 309.048 51.2536 308.456C51.0616 307.864 50.7536 307.404 50.3296 307.076C49.9136 306.748 49.3656 306.584 48.6856 306.584C47.9576 306.584 47.3576 306.764 46.8856 307.124C46.4216 307.476 46.0776 307.952 45.8536 308.552C45.6296 309.144 45.5176 309.8 45.5176 310.52C45.5176 311.248 45.6256 311.912 45.8416 312.512C46.0576 313.104 46.3896 313.576 46.8376 313.928C47.2856 314.28 47.8616 314.456 48.5656 314.456ZM51.1336 322.76V312.92H51.5416V304.04H54.4216V322.76H51.1336ZM62.6056 317.384C61.5896 317.384 60.7616 317.212 60.1216 316.868C59.4816 316.524 58.9816 316.088 58.6216 315.56C58.2696 315.032 58.0176 314.484 57.8656 313.916C57.7136 313.34 57.6216 312.816 57.5896 312.344C57.5576 311.872 57.5416 311.528 57.5416 311.312V304.04H60.8536V310.16C60.8536 310.456 60.8696 310.836 60.9016 311.3C60.9336 311.756 61.0336 312.216 61.2016 312.68C61.3696 313.144 61.6416 313.532 62.0176 313.844C62.4016 314.156 62.9416 314.312 63.6376 314.312C63.9176 314.312 64.2176 314.268 64.5376 314.18C64.8576 314.092 65.1576 313.924 65.4376 313.676C65.7176 313.42 65.9456 313.048 66.1216 312.56C66.3056 312.064 66.3976 311.416 66.3976 310.616L68.2696 311.504C68.2696 312.528 68.0616 313.488 67.6456 314.384C67.2296 315.28 66.6016 316.004 65.7616 316.556C64.9296 317.108 63.8776 317.384 62.6056 317.384ZM66.8056 317V312.704H66.3976V304.04H69.6856V317H66.8056ZM76.6394 317.36C75.7114 317.36 74.9234 317.184 74.2754 316.832C73.6354 316.472 73.1474 315.996 72.8114 315.404C72.4834 314.804 72.3194 314.144 72.3194 313.424C72.3194 312.824 72.4114 312.276 72.5954 311.78C72.7794 311.284 73.0754 310.848 73.4834 310.472C73.8994 310.088 74.4554 309.768 75.1514 309.512C75.6314 309.336 76.2034 309.18 76.8674 309.044C77.5314 308.908 78.2834 308.78 79.1234 308.66C79.9634 308.532 80.8874 308.392 81.8954 308.24L80.7194 308.888C80.7194 308.12 80.5354 307.556 80.1674 307.196C79.7994 306.836 79.1834 306.656 78.3194 306.656C77.8394 306.656 77.3394 306.772 76.8194 307.004C76.2994 307.236 75.9354 307.648 75.7274 308.24L72.7754 307.304C73.1034 306.232 73.7194 305.36 74.6234 304.688C75.5274 304.016 76.7594 303.68 78.3194 303.68C79.4634 303.68 80.4794 303.856 81.3674 304.208C82.2554 304.56 82.9274 305.168 83.3834 306.032C83.6394 306.512 83.7914 306.992 83.8394 307.472C83.8874 307.952 83.9114 308.488 83.9114 309.08V317H81.0554V314.336L81.4634 314.888C80.8314 315.76 80.1474 316.392 79.4114 316.784C78.6834 317.168 77.7594 317.36 76.6394 317.36ZM77.3354 314.792C77.9354 314.792 78.4394 314.688 78.8474 314.48C79.2634 314.264 79.5914 314.02 79.8314 313.748C80.0794 313.476 80.2474 313.248 80.3354 313.064C80.5034 312.712 80.5994 312.304 80.6234 311.84C80.6554 311.368 80.6714 310.976 80.6714 310.664L81.6314 310.904C80.6634 311.064 79.8794 311.2 79.2794 311.312C78.6794 311.416 78.1954 311.512 77.8274 311.6C77.4594 311.688 77.1354 311.784 76.8554 311.888C76.5354 312.016 76.2754 312.156 76.0754 312.308C75.8834 312.452 75.7394 312.612 75.6434 312.788C75.5554 312.964 75.5114 313.16 75.5114 313.376C75.5114 313.672 75.5834 313.928 75.7274 314.144C75.8794 314.352 76.0914 314.512 76.3634 314.624C76.6354 314.736 76.9594 314.792 77.3354 314.792ZM92.2876 317.36C91.0956 317.36 90.0516 317.06 89.1556 316.46C88.2596 315.86 87.5596 315.044 87.0556 314.012C86.5596 312.98 86.3116 311.816 86.3116 310.52C86.3116 309.2 86.5636 308.028 87.0676 307.004C87.5796 305.972 88.2956 305.16 89.2156 304.568C90.1356 303.976 91.2156 303.68 92.4556 303.68C93.6876 303.68 94.7236 303.98 95.5636 304.58C96.4036 305.18 97.0396 305.996 97.4716 307.028C97.9036 308.06 98.1196 309.224 98.1196 310.52C98.1196 311.816 97.8996 312.98 97.4596 314.012C97.0276 315.044 96.3796 315.86 95.5156 316.46C94.6516 317.06 93.5756 317.36 92.2876 317.36ZM92.8156 314.456C93.5436 314.456 94.1236 314.292 94.5556 313.964C94.9956 313.636 95.3116 313.176 95.5036 312.584C95.6956 311.992 95.7916 311.304 95.7916 310.52C95.7916 309.736 95.6956 309.048 95.5036 308.456C95.3116 307.864 95.0036 307.404 94.5796 307.076C94.1636 306.748 93.6156 306.584 92.9356 306.584C92.2076 306.584 91.6076 306.764 91.1356 307.124C90.6716 307.476 90.3276 307.952 90.1036 308.552C89.8796 309.144 89.7676 309.8 89.7676 310.52C89.7676 311.248 89.8756 311.912 90.0916 312.512C90.3076 313.104 90.6396 313.576 91.0876 313.928C91.5356 314.28 92.1116 314.456 92.8156 314.456ZM95.7916 317V308.12H95.3836V299.72H98.6716V317H95.7916Z" fill="url(#paint2_radial_2303_2751)"/>
<path d="M26.12 356V344.48H30.568C30.68 344.48 30.8053 344.485 30.944 344.496C31.088 344.501 31.232 344.517 31.376 344.544C31.9787 344.635 32.488 344.845 32.904 345.176C33.3253 345.501 33.6427 345.912 33.856 346.408C34.0747 346.904 34.184 347.453 34.184 348.056C34.184 348.653 34.0747 349.2 33.856 349.696C33.6373 350.192 33.3173 350.605 32.896 350.936C32.48 351.261 31.9733 351.469 31.376 351.56C31.232 351.581 31.088 351.597 30.944 351.608C30.8053 351.619 30.68 351.624 30.568 351.624H27.296V356H26.12ZM27.296 350.504H30.536C30.632 350.504 30.744 350.499 30.872 350.488C31 350.477 31.1253 350.459 31.248 350.432C31.6427 350.347 31.9653 350.184 32.216 349.944C32.472 349.704 32.6613 349.419 32.784 349.088C32.912 348.757 32.976 348.413 32.976 348.056C32.976 347.699 32.912 347.355 32.784 347.024C32.6613 346.688 32.472 346.4 32.216 346.16C31.9653 345.92 31.6427 345.757 31.248 345.672C31.1253 345.645 31 345.629 30.872 345.624C30.744 345.613 30.632 345.608 30.536 345.608H27.296V350.504ZM39.3374 356.24C38.4787 356.24 37.7454 356.045 37.1374 355.656C36.5294 355.267 36.0627 354.728 35.7374 354.04C35.412 353.352 35.2494 352.563 35.2494 351.672C35.2494 350.765 35.4147 349.971 35.7454 349.288C36.076 348.605 36.5454 348.075 37.1534 347.696C37.7667 347.312 38.4947 347.12 39.3374 347.12C40.2014 347.12 40.9374 347.315 41.5454 347.704C42.1587 348.088 42.6254 348.624 42.9454 349.312C43.2707 349.995 43.4334 350.781 43.4334 351.672C43.4334 352.579 43.2707 353.376 42.9454 354.064C42.62 354.747 42.1507 355.28 41.5374 355.664C40.924 356.048 40.1907 356.24 39.3374 356.24ZM39.3374 355.112C40.2974 355.112 41.012 354.795 41.4814 354.16C41.9507 353.52 42.1854 352.691 42.1854 351.672C42.1854 350.627 41.948 349.795 41.4734 349.176C41.004 348.557 40.292 348.248 39.3374 348.248C38.692 348.248 38.1587 348.395 37.7374 348.688C37.3214 348.976 37.0094 349.379 36.8014 349.896C36.5987 350.408 36.4974 351 36.4974 351.672C36.4974 352.712 36.7374 353.547 37.2174 354.176C37.6974 354.8 38.404 355.112 39.3374 355.112ZM46.7256 356L44.0856 347.352L45.2616 347.36L47.3096 354.072L49.3656 347.36H50.4376L52.4936 354.072L54.5576 347.36H55.7256L53.0856 356H52.0616L49.9016 349.12L47.7496 356H46.7256ZM60.5104 356.24C59.6677 356.24 58.937 356.053 58.3184 355.68C57.705 355.307 57.2277 354.781 56.8864 354.104C56.545 353.427 56.3744 352.632 56.3744 351.72C56.3744 350.776 56.5424 349.96 56.8784 349.272C57.2144 348.584 57.6864 348.053 58.2944 347.68C58.9077 347.307 59.6304 347.12 60.4624 347.12C61.3157 347.12 62.0437 347.317 62.6464 347.712C63.249 348.101 63.705 348.661 64.0144 349.392C64.3237 350.123 64.465 350.995 64.4384 352.008H63.2384V351.592C63.217 350.472 62.9744 349.627 62.5104 349.056C62.0517 348.485 61.3797 348.2 60.4944 348.2C59.5664 348.2 58.8544 348.501 58.3584 349.104C57.8677 349.707 57.6224 350.565 57.6224 351.68C57.6224 352.768 57.8677 353.613 58.3584 354.216C58.8544 354.813 59.5557 355.112 60.4624 355.112C61.081 355.112 61.6197 354.971 62.0784 354.688C62.5424 354.4 62.9077 353.987 63.1744 353.448L64.2704 353.872C63.929 354.624 63.425 355.208 62.7584 355.624C62.097 356.035 61.3477 356.24 60.5104 356.24ZM57.2064 352.008V351.024H63.8064V352.008H57.2064ZM66.2138 356V347.36H67.2698V349.44L67.0618 349.168C67.1578 348.912 67.2831 348.677 67.4378 348.464C67.5924 348.245 67.7604 348.067 67.9418 347.928C68.1658 347.731 68.4271 347.581 68.7258 347.48C69.0244 347.373 69.3258 347.312 69.6298 347.296C69.9338 347.275 70.2111 347.296 70.4618 347.36V348.464C70.1471 348.384 69.8031 348.365 69.4298 348.408C69.0564 348.451 68.7124 348.6 68.3978 348.856C68.1098 349.08 67.8938 349.349 67.7498 349.664C67.6058 349.973 67.5098 350.304 67.4618 350.656C67.4138 351.003 67.3898 351.347 67.3898 351.688V356H66.2138ZM78.4065 356.232C77.3932 356.232 76.5585 356.013 75.9025 355.576C75.2518 355.139 74.8518 354.531 74.7025 353.752L75.9025 353.552C76.0305 354.043 76.3212 354.435 76.7745 354.728C77.2332 355.016 77.7985 355.16 78.4705 355.16C79.1265 355.16 79.6438 355.024 80.0225 354.752C80.4012 354.475 80.5905 354.099 80.5905 353.624C80.5905 353.357 80.5292 353.141 80.4065 352.976C80.2892 352.805 80.0465 352.648 79.6785 352.504C79.3105 352.36 78.7612 352.189 78.0305 351.992C77.2465 351.779 76.6332 351.565 76.1905 351.352C75.7478 351.139 75.4332 350.893 75.2465 350.616C75.0598 350.333 74.9665 349.989 74.9665 349.584C74.9665 349.093 75.1052 348.664 75.3825 348.296C75.6598 347.923 76.0438 347.635 76.5345 347.432C77.0252 347.224 77.5958 347.12 78.2465 347.12C78.8972 347.12 79.4785 347.227 79.9905 347.44C80.5078 347.648 80.9238 347.941 81.2385 348.32C81.5532 348.699 81.7398 349.139 81.7985 349.64L80.5985 349.856C80.5185 349.349 80.2652 348.949 79.8385 348.656C79.4172 348.357 78.8812 348.203 78.2305 348.192C77.6172 348.176 77.1185 348.293 76.7345 348.544C76.3505 348.789 76.1585 349.117 76.1585 349.528C76.1585 349.757 76.2278 349.955 76.3665 350.12C76.5052 350.28 76.7558 350.432 77.1185 350.576C77.4865 350.72 78.0092 350.877 78.6865 351.048C79.4812 351.251 80.1052 351.464 80.5585 351.688C81.0118 351.912 81.3345 352.176 81.5265 352.48C81.7185 352.784 81.8145 353.16 81.8145 353.608C81.8145 354.424 81.5105 355.067 80.9025 355.536C80.2998 356 79.4678 356.232 78.4065 356.232ZM93.8928 356L93.9008 350.328C93.9008 349.661 93.7141 349.139 93.3408 348.76C92.9728 348.376 92.5034 348.184 91.9328 348.184C91.6074 348.184 91.2901 348.259 90.9808 348.408C90.6714 348.557 90.4154 348.797 90.2128 349.128C90.0154 349.459 89.9168 349.891 89.9168 350.424L89.2208 350.224C89.2048 349.605 89.3248 349.064 89.5808 348.6C89.8421 348.136 90.1994 347.776 90.6528 347.52C91.1114 347.259 91.6288 347.128 92.2048 347.128C93.0741 347.128 93.7701 347.397 94.2928 347.936C94.8154 348.469 95.0768 349.192 95.0768 350.104L95.0688 356H93.8928ZM83.5808 356V347.36H84.6368V349.488H84.7648V356H83.5808ZM88.7488 356L88.7568 350.408C88.7568 349.72 88.5728 349.179 88.2048 348.784C87.8421 348.384 87.3621 348.184 86.7648 348.184C86.1674 348.184 85.6848 348.389 85.3168 348.8C84.9488 349.205 84.7648 349.747 84.7648 350.424L84.0608 350.04C84.0608 349.485 84.1914 348.989 84.4528 348.552C84.7141 348.109 85.0714 347.763 85.5248 347.512C85.9781 347.256 86.4928 347.128 87.0688 347.128C87.6181 347.128 88.1061 347.245 88.5328 347.48C88.9648 347.715 89.3034 348.056 89.5488 348.504C89.7941 348.952 89.9168 349.496 89.9168 350.136L89.9088 356H88.7488ZM99.6233 356.24C98.9726 356.24 98.4259 356.123 97.9833 355.888C97.5459 355.653 97.2179 355.341 96.9993 354.952C96.7806 354.563 96.6713 354.139 96.6713 353.68C96.6713 353.211 96.7646 352.811 96.9513 352.48C97.1433 352.144 97.4019 351.869 97.7273 351.656C98.0579 351.443 98.4393 351.28 98.8713 351.168C99.3086 351.061 99.7913 350.968 100.319 350.888C100.853 350.803 101.373 350.731 101.879 350.672C102.391 350.608 102.839 350.547 103.223 350.488L102.807 350.744C102.823 349.891 102.658 349.259 102.311 348.848C101.965 348.437 101.362 348.232 100.503 348.232C99.9113 348.232 99.4099 348.365 98.9993 348.632C98.5939 348.899 98.3086 349.32 98.1432 349.896L96.9993 349.56C97.1966 348.787 97.5939 348.187 98.1913 347.76C98.7886 347.333 99.5646 347.12 100.519 347.12C101.309 347.12 101.978 347.269 102.527 347.568C103.082 347.861 103.474 348.288 103.703 348.848C103.81 349.099 103.879 349.379 103.911 349.688C103.943 349.997 103.959 350.312 103.959 350.632V356H102.911V353.832L103.215 353.96C102.922 354.701 102.466 355.267 101.847 355.656C101.229 356.045 100.487 356.24 99.6233 356.24ZM99.7593 355.224C100.309 355.224 100.789 355.125 101.199 354.928C101.61 354.731 101.941 354.461 102.191 354.12C102.442 353.773 102.605 353.384 102.679 352.952C102.743 352.675 102.778 352.371 102.783 352.04C102.789 351.704 102.791 351.453 102.791 351.288L103.239 351.52C102.839 351.573 102.405 351.627 101.935 351.68C101.471 351.733 101.013 351.795 100.559 351.864C100.111 351.933 99.7059 352.016 99.3433 352.112C99.0979 352.181 98.8606 352.28 98.6313 352.408C98.4019 352.531 98.2126 352.696 98.0633 352.904C97.9193 353.112 97.8473 353.371 97.8473 353.68C97.8473 353.931 97.9086 354.173 98.0312 354.408C98.1593 354.643 98.3619 354.837 98.6393 354.992C98.9219 355.147 99.2953 355.224 99.7593 355.224ZM106.042 356V347.36H107.098V349.44L106.89 349.168C106.986 348.912 107.111 348.677 107.266 348.464C107.421 348.245 107.589 348.067 107.77 347.928C107.994 347.731 108.255 347.581 108.554 347.48C108.853 347.373 109.154 347.312 109.458 347.296C109.762 347.275 110.039 347.296 110.29 347.36V348.464C109.975 348.384 109.631 348.365 109.258 348.408C108.885 348.451 108.541 348.6 108.226 348.856C107.938 349.08 107.722 349.349 107.578 349.664C107.434 349.973 107.338 350.304 107.29 350.656C107.242 351.003 107.218 351.347 107.218 351.688V356H106.042ZM116.512 356C116.026 356.101 115.546 356.141 115.072 356.12C114.602 356.099 114.181 355.997 113.808 355.816C113.44 355.635 113.16 355.352 112.968 354.968C112.813 354.648 112.728 354.325 112.712 354C112.701 353.669 112.696 353.293 112.696 352.872V344.96H113.864V352.824C113.864 353.187 113.866 353.491 113.872 353.736C113.882 353.976 113.938 354.189 114.04 354.376C114.232 354.733 114.536 354.947 114.952 355.016C115.373 355.085 115.893 355.069 116.512 354.968V356ZM110.848 348.368V347.36H116.512V348.368H110.848ZM122.273 356V346.72C122.273 346.496 122.284 346.275 122.305 346.056C122.332 345.837 122.382 345.629 122.457 345.432C122.532 345.229 122.649 345.043 122.809 344.872C122.985 344.68 123.177 344.541 123.385 344.456C123.593 344.365 123.809 344.307 124.033 344.28C124.262 344.253 124.486 344.24 124.705 344.24H125.809V345.232H124.785C124.337 345.232 124.001 345.341 123.777 345.56C123.558 345.779 123.449 346.123 123.449 346.592V356H122.273ZM120.777 348.368V347.36H125.809V348.368H120.777ZM127.489 345.72V344.4H128.665V345.72H127.489ZM127.489 356V347.36H128.665V356H127.489ZM137.298 356V351.592C137.298 351.112 137.252 350.672 137.162 350.272C137.071 349.867 136.924 349.515 136.722 349.216C136.524 348.912 136.266 348.677 135.946 348.512C135.631 348.347 135.247 348.264 134.794 348.264C134.378 348.264 134.01 348.336 133.69 348.48C133.375 348.624 133.108 348.832 132.89 349.104C132.676 349.371 132.514 349.696 132.402 350.08C132.29 350.464 132.234 350.901 132.234 351.392L131.402 351.208C131.402 350.323 131.556 349.579 131.866 348.976C132.175 348.373 132.602 347.917 133.146 347.608C133.69 347.299 134.314 347.144 135.018 347.144C135.535 347.144 135.986 347.224 136.37 347.384C136.759 347.544 137.087 347.76 137.354 348.032C137.626 348.304 137.844 348.616 138.01 348.968C138.175 349.315 138.295 349.685 138.37 350.08C138.444 350.469 138.482 350.859 138.482 351.248V356H137.298ZM131.05 356V347.36H132.114V349.488H132.234V356H131.05ZM143.03 356.24C142.379 356.24 141.832 356.123 141.39 355.888C140.952 355.653 140.624 355.341 140.406 354.952C140.187 354.563 140.078 354.139 140.078 353.68C140.078 353.211 140.171 352.811 140.358 352.48C140.55 352.144 140.808 351.869 141.134 351.656C141.464 351.443 141.846 351.28 142.278 351.168C142.715 351.061 143.198 350.968 143.726 350.888C144.259 350.803 144.779 350.731 145.286 350.672C145.798 350.608 146.246 350.547 146.63 350.488L146.214 350.744C146.23 349.891 146.064 349.259 145.718 348.848C145.371 348.437 144.768 348.232 143.91 348.232C143.318 348.232 142.816 348.365 142.406 348.632C142 348.899 141.715 349.32 141.549 349.896L140.406 349.56C140.603 348.787 141 348.187 141.598 347.76C142.195 347.333 142.971 347.12 143.926 347.12C144.715 347.12 145.384 347.269 145.934 347.568C146.488 347.861 146.88 348.288 147.11 348.848C147.216 349.099 147.286 349.379 147.318 349.688C147.35 349.997 147.366 350.312 147.366 350.632V356H146.318V353.832L146.622 353.96C146.328 354.701 145.872 355.267 145.254 355.656C144.635 356.045 143.894 356.24 143.03 356.24ZM143.166 355.224C143.715 355.224 144.195 355.125 144.606 354.928C145.016 354.731 145.347 354.461 145.598 354.12C145.848 353.773 146.011 353.384 146.086 352.952C146.15 352.675 146.184 352.371 146.19 352.04C146.195 351.704 146.198 351.453 146.198 351.288L146.646 351.52C146.246 351.573 145.811 351.627 145.342 351.68C144.878 351.733 144.419 351.795 143.966 351.864C143.518 351.933 143.112 352.016 142.75 352.112C142.504 352.181 142.267 352.28 142.038 352.408C141.808 352.531 141.619 352.696 141.47 352.904C141.326 353.112 141.254 353.371 141.254 353.68C141.254 353.931 141.315 354.173 141.438 354.408C141.566 354.643 141.768 354.837 142.046 354.992C142.328 355.147 142.702 355.224 143.166 355.224ZM155.688 356V351.592C155.688 351.112 155.643 350.672 155.552 350.272C155.461 349.867 155.315 349.515 155.112 349.216C154.915 348.912 154.656 348.677 154.336 348.512C154.021 348.347 153.637 348.264 153.184 348.264C152.768 348.264 152.4 348.336 152.08 348.48C151.765 348.624 151.499 348.832 151.28 349.104C151.067 349.371 150.904 349.696 150.792 350.08C150.68 350.464 150.624 350.901 150.624 351.392L149.792 351.208C149.792 350.323 149.947 349.579 150.256 348.976C150.565 348.373 150.992 347.917 151.536 347.608C152.08 347.299 152.704 347.144 153.408 347.144C153.925 347.144 154.376 347.224 154.76 347.384C155.149 347.544 155.477 347.76 155.744 348.032C156.016 348.304 156.235 348.616 156.4 348.968C156.565 349.315 156.685 349.685 156.76 350.08C156.835 350.469 156.872 350.859 156.872 351.248V356H155.688ZM149.44 356V347.36H150.504V349.488H150.624V356H149.44ZM162.485 356.24C161.616 356.24 160.88 356.045 160.277 355.656C159.675 355.267 159.216 354.731 158.901 354.048C158.592 353.36 158.432 352.571 158.421 351.68C158.432 350.773 158.597 349.979 158.917 349.296C159.237 348.608 159.699 348.075 160.301 347.696C160.904 347.312 161.635 347.12 162.493 347.12C163.368 347.12 164.128 347.333 164.773 347.76C165.424 348.187 165.869 348.771 166.109 349.512L164.957 349.88C164.755 349.363 164.432 348.963 163.989 348.68C163.552 348.392 163.051 348.248 162.485 348.248C161.851 348.248 161.325 348.395 160.909 348.688C160.493 348.976 160.184 349.379 159.981 349.896C159.779 350.413 159.675 351.008 159.669 351.68C159.68 352.715 159.92 353.547 160.389 354.176C160.859 354.8 161.557 355.112 162.485 355.112C163.072 355.112 163.571 354.979 163.981 354.712C164.397 354.44 164.712 354.045 164.925 353.528L166.109 353.88C165.789 354.648 165.32 355.235 164.701 355.64C164.083 356.04 163.344 356.24 162.485 356.24ZM167.686 345.72V344.4H168.862V345.72H167.686ZM167.686 356V347.36H168.862V356H167.686ZM173.733 356.24C173.082 356.24 172.535 356.123 172.093 355.888C171.655 355.653 171.327 355.341 171.109 354.952C170.89 354.563 170.781 354.139 170.781 353.68C170.781 353.211 170.874 352.811 171.061 352.48C171.253 352.144 171.511 351.869 171.837 351.656C172.167 351.443 172.549 351.28 172.981 351.168C173.418 351.061 173.901 350.968 174.429 350.888C174.962 350.803 175.482 350.731 175.989 350.672C176.501 350.608 176.949 350.547 177.333 350.488L176.917 350.744C176.933 349.891 176.767 349.259 176.421 348.848C176.074 348.437 175.471 348.232 174.613 348.232C174.021 348.232 173.519 348.365 173.109 348.632C172.703 348.899 172.418 349.32 172.253 349.896L171.109 349.56C171.306 348.787 171.703 348.187 172.301 347.76C172.898 347.333 173.674 347.12 174.629 347.12C175.418 347.12 176.087 347.269 176.637 347.568C177.191 347.861 177.583 348.288 177.813 348.848C177.919 349.099 177.989 349.379 178.021 349.688C178.053 349.997 178.069 350.312 178.069 350.632V356H177.021V353.832L177.325 353.96C177.031 354.701 176.575 355.267 175.957 355.656C175.338 356.045 174.597 356.24 173.733 356.24ZM173.869 355.224C174.418 355.224 174.898 355.125 175.309 354.928C175.719 354.731 176.05 354.461 176.301 354.12C176.551 353.773 176.714 353.384 176.789 352.952C176.853 352.675 176.887 352.371 176.893 352.04C176.898 351.704 176.901 351.453 176.901 351.288L177.349 351.52C176.949 351.573 176.514 351.627 176.045 351.68C175.581 351.733 175.122 351.795 174.669 351.864C174.221 351.933 173.815 352.016 173.453 352.112C173.207 352.181 172.97 352.28 172.741 352.408C172.511 352.531 172.322 352.696 172.173 352.904C172.029 353.112 171.957 353.371 171.957 353.68C171.957 353.931 172.018 354.173 172.141 354.408C172.269 354.643 172.471 354.837 172.749 354.992C173.031 355.147 173.405 355.224 173.869 355.224ZM180.311 356V344.24H181.487V356H180.311ZM190.697 356.24C189.838 356.24 189.105 356.045 188.497 355.656C187.889 355.267 187.422 354.728 187.097 354.04C186.771 353.352 186.609 352.563 186.609 351.672C186.609 350.765 186.774 349.971 187.105 349.288C187.435 348.605 187.905 348.075 188.513 347.696C189.126 347.312 189.854 347.12 190.697 347.12C191.561 347.12 192.297 347.315 192.905 347.704C193.518 348.088 193.985 348.624 194.305 349.312C194.63 349.995 194.793 350.781 194.793 351.672C194.793 352.579 194.63 353.376 194.305 354.064C193.979 354.747 193.51 355.28 192.897 355.664C192.283 356.048 191.55 356.24 190.697 356.24ZM190.697 355.112C191.657 355.112 192.371 354.795 192.841 354.16C193.31 353.52 193.545 352.691 193.545 351.672C193.545 350.627 193.307 349.795 192.833 349.176C192.363 348.557 191.651 348.248 190.697 348.248C190.051 348.248 189.518 348.395 189.097 348.688C188.681 348.976 188.369 349.379 188.161 349.896C187.958 350.408 187.857 351 187.857 351.672C187.857 352.712 188.097 353.547 188.577 354.176C189.057 354.8 189.763 355.112 190.697 355.112ZM200.438 356.24C199.643 356.24 198.971 356.04 198.422 355.64C197.872 355.235 197.456 354.688 197.174 354C196.891 353.307 196.75 352.531 196.75 351.672C196.75 350.797 196.891 350.019 197.174 349.336C197.462 348.648 197.883 348.107 198.438 347.712C198.992 347.317 199.675 347.12 200.486 347.12C201.275 347.12 201.952 347.32 202.518 347.72C203.083 348.12 203.515 348.664 203.814 349.352C204.118 350.04 204.27 350.813 204.27 351.672C204.27 352.536 204.118 353.312 203.814 354C203.51 354.688 203.072 355.235 202.502 355.64C201.931 356.04 201.243 356.24 200.438 356.24ZM196.55 359.84V347.36H197.606V353.864H197.734V359.84H196.55ZM200.318 355.144C200.92 355.144 201.422 354.992 201.822 354.688C202.222 354.384 202.52 353.971 202.718 353.448C202.92 352.92 203.022 352.328 203.022 351.672C203.022 351.021 202.923 350.435 202.726 349.912C202.528 349.389 202.227 348.976 201.822 348.672C201.422 348.368 200.912 348.216 200.294 348.216C199.691 348.216 199.19 348.363 198.79 348.656C198.395 348.949 198.099 349.357 197.902 349.88C197.704 350.397 197.606 350.995 197.606 351.672C197.606 352.339 197.704 352.936 197.902 353.464C198.099 353.987 198.398 354.397 198.798 354.696C199.198 354.995 199.704 355.144 200.318 355.144ZM209.682 356.24C208.84 356.24 208.109 356.053 207.49 355.68C206.877 355.307 206.4 354.781 206.058 354.104C205.717 353.427 205.546 352.632 205.546 351.72C205.546 350.776 205.714 349.96 206.05 349.272C206.386 348.584 206.858 348.053 207.466 347.68C208.08 347.307 208.802 347.12 209.634 347.12C210.488 347.12 211.216 347.317 211.818 347.712C212.421 348.101 212.877 348.661 213.186 349.392C213.496 350.123 213.637 350.995 213.61 352.008H212.41V351.592C212.389 350.472 212.146 349.627 211.682 349.056C211.224 348.485 210.552 348.2 209.666 348.2C208.738 348.2 208.026 348.501 207.53 349.104C207.04 349.707 206.794 350.565 206.794 351.68C206.794 352.768 207.04 353.613 207.53 354.216C208.026 354.813 208.728 355.112 209.634 355.112C210.253 355.112 210.792 354.971 211.25 354.688C211.714 354.4 212.08 353.987 212.346 353.448L213.442 353.872C213.101 354.624 212.597 355.208 211.93 355.624C211.269 356.035 210.52 356.24 209.682 356.24ZM206.378 352.008V351.024H212.978V352.008H206.378ZM215.386 356V347.36H216.442V349.44L216.234 349.168C216.33 348.912 216.455 348.677 216.61 348.464C216.764 348.245 216.932 348.067 217.114 347.928C217.338 347.731 217.599 347.581 217.898 347.48C218.196 347.373 218.498 347.312 218.802 347.296C219.106 347.275 219.383 347.296 219.634 347.36V348.464C219.319 348.384 218.975 348.365 218.602 348.408C218.228 348.451 217.884 348.6 217.57 348.856C217.282 349.08 217.066 349.349 216.922 349.664C216.778 349.973 216.682 350.304 216.634 350.656C216.586 351.003 216.562 351.347 216.562 351.688V356H215.386ZM223.295 356.24C222.644 356.24 222.098 356.123 221.655 355.888C221.218 355.653 220.89 355.341 220.671 354.952C220.452 354.563 220.343 354.139 220.343 353.68C220.343 353.211 220.436 352.811 220.623 352.48C220.815 352.144 221.074 351.869 221.399 351.656C221.73 351.443 222.111 351.28 222.543 351.168C222.98 351.061 223.463 350.968 223.991 350.888C224.524 350.803 225.044 350.731 225.551 350.672C226.063 350.608 226.511 350.547 226.895 350.488L226.479 350.744C226.495 349.891 226.33 349.259 225.983 348.848C225.636 348.437 225.034 348.232 224.175 348.232C223.583 348.232 223.082 348.365 222.671 348.632C222.266 348.899 221.98 349.32 221.815 349.896L220.671 349.56C220.868 348.787 221.266 348.187 221.863 347.76C222.46 347.333 223.236 347.12 224.191 347.12C224.98 347.12 225.65 347.269 226.199 347.568C226.754 347.861 227.146 348.288 227.375 348.848C227.482 349.099 227.551 349.379 227.583 349.688C227.615 349.997 227.631 350.312 227.631 350.632V356H226.583V353.832L226.887 353.96C226.594 354.701 226.138 355.267 225.519 355.656C224.9 356.045 224.159 356.24 223.295 356.24ZM223.431 355.224C223.98 355.224 224.46 355.125 224.871 354.928C225.282 354.731 225.612 354.461 225.863 354.12C226.114 353.773 226.276 353.384 226.351 352.952C226.415 352.675 226.45 352.371 226.455 352.04C226.46 351.704 226.463 351.453 226.463 351.288L226.911 351.52C226.511 351.573 226.076 351.627 225.607 351.68C225.143 351.733 224.684 351.795 224.231 351.864C223.783 351.933 223.378 352.016 223.015 352.112C222.77 352.181 222.532 352.28 222.303 352.408C222.074 352.531 221.884 352.696 221.735 352.904C221.591 353.112 221.519 353.371 221.519 353.68C221.519 353.931 221.58 354.173 221.703 354.408C221.831 354.643 222.034 354.837 222.311 354.992C222.594 355.147 222.967 355.224 223.431 355.224ZM234.418 356C233.932 356.101 233.452 356.141 232.978 356.12C232.508 356.099 232.087 355.997 231.714 355.816C231.346 355.635 231.066 355.352 230.874 354.968C230.719 354.648 230.634 354.325 230.618 354C230.607 353.669 230.602 353.293 230.602 352.872V344.96H231.77V352.824C231.77 353.187 231.772 353.491 231.778 353.736C231.788 353.976 231.844 354.189 231.946 354.376C232.138 354.733 232.442 354.947 232.858 355.016C233.279 355.085 233.799 355.069 234.418 354.968V356ZM228.754 348.368V347.36H234.418V348.368H228.754ZM236.28 345.72V344.4H237.456V345.72H236.28ZM236.28 356V347.36H237.456V356H236.28ZM243.462 356.24C242.604 356.24 241.87 356.045 241.262 355.656C240.654 355.267 240.188 354.728 239.862 354.04C239.537 353.352 239.374 352.563 239.374 351.672C239.374 350.765 239.54 349.971 239.87 349.288C240.201 348.605 240.67 348.075 241.278 347.696C241.892 347.312 242.62 347.12 243.462 347.12C244.326 347.12 245.062 347.315 245.67 347.704C246.284 348.088 246.75 348.624 247.07 349.312C247.396 349.995 247.558 350.781 247.558 351.672C247.558 352.579 247.396 353.376 247.07 354.064C246.745 354.747 246.276 355.28 245.662 355.664C245.049 356.048 244.316 356.24 243.462 356.24ZM243.462 355.112C244.422 355.112 245.137 354.795 245.606 354.16C246.076 353.52 246.31 352.691 246.31 351.672C246.31 350.627 246.073 349.795 245.598 349.176C245.129 348.557 244.417 348.248 243.462 348.248C242.817 348.248 242.284 348.395 241.862 348.688C241.446 348.976 241.134 349.379 240.926 349.896C240.724 350.408 240.622 351 240.622 351.672C240.622 352.712 240.862 353.547 241.342 354.176C241.822 354.8 242.529 355.112 243.462 355.112ZM255.563 356V351.592C255.563 351.112 255.518 350.672 255.427 350.272C255.336 349.867 255.19 349.515 254.987 349.216C254.79 348.912 254.531 348.677 254.211 348.512C253.896 348.347 253.512 348.264 253.059 348.264C252.643 348.264 252.275 348.336 251.955 348.48C251.64 348.624 251.374 348.832 251.155 349.104C250.942 349.371 250.779 349.696 250.667 350.08C250.555 350.464 250.499 350.901 250.499 351.392L249.667 351.208C249.667 350.323 249.822 349.579 250.131 348.976C250.44 348.373 250.867 347.917 251.411 347.608C251.955 347.299 252.579 347.144 253.283 347.144C253.8 347.144 254.251 347.224 254.635 347.384C255.024 347.544 255.352 347.76 255.619 348.032C255.891 348.304 256.11 348.616 256.275 348.968C256.44 349.315 256.56 349.685 256.635 350.08C256.71 350.469 256.747 350.859 256.747 351.248V356H255.563ZM249.315 356V347.36H250.379V349.488H250.499V356H249.315ZM262.047 356.232C261.034 356.232 260.199 356.013 259.543 355.576C258.892 355.139 258.492 354.531 258.343 353.752L259.543 353.552C259.671 354.043 259.962 354.435 260.415 354.728C260.874 355.016 261.439 355.16 262.111 355.16C262.767 355.16 263.284 355.024 263.663 354.752C264.042 354.475 264.231 354.099 264.231 353.624C264.231 353.357 264.17 353.141 264.047 352.976C263.93 352.805 263.687 352.648 263.319 352.504C262.951 352.36 262.402 352.189 261.671 351.992C260.887 351.779 260.274 351.565 259.831 351.352C259.388 351.139 259.074 350.893 258.887 350.616C258.7 350.333 258.607 349.989 258.607 349.584C258.607 349.093 258.746 348.664 259.023 348.296C259.3 347.923 259.684 347.635 260.175 347.432C260.666 347.224 261.236 347.12 261.887 347.12C262.538 347.12 263.119 347.227 263.631 347.44C264.148 347.648 264.564 347.941 264.879 348.32C265.194 348.699 265.38 349.139 265.439 349.64L264.239 349.856C264.159 349.349 263.906 348.949 263.479 348.656C263.058 348.357 262.522 348.203 261.871 348.192C261.258 348.176 260.759 348.293 260.375 348.544C259.991 348.789 259.799 349.117 259.799 349.528C259.799 349.757 259.868 349.955 260.007 350.12C260.146 350.28 260.396 350.432 260.759 350.576C261.127 350.72 261.65 350.877 262.327 351.048C263.122 351.251 263.746 351.464 264.199 351.688C264.652 351.912 264.975 352.176 265.167 352.48C265.359 352.784 265.455 353.16 265.455 353.608C265.455 354.424 265.151 355.067 264.543 355.536C263.94 356 263.108 356.232 262.047 356.232ZM27.96 380L25.32 371.352L26.496 371.36L28.544 378.072L30.6 371.36H31.672L33.728 378.072L35.792 371.36H36.96L34.32 380H33.296L31.136 373.12L28.984 380H27.96ZM38.5613 369.72V368.4H39.7373V369.72H38.5613ZM38.5613 380V371.36H39.7373V380H38.5613ZM46.8396 380C46.3543 380.101 45.8743 380.141 45.3996 380.12C44.9303 380.099 44.509 379.997 44.1356 379.816C43.7676 379.635 43.4876 379.352 43.2956 378.968C43.141 378.648 43.0556 378.325 43.0396 378C43.029 377.669 43.0236 377.293 43.0236 376.872V368.96H44.1916V376.824C44.1916 377.187 44.1943 377.491 44.1996 377.736C44.2103 377.976 44.2663 378.189 44.3676 378.376C44.5596 378.733 44.8636 378.947 45.2796 379.016C45.701 379.085 46.221 379.069 46.8396 378.968V380ZM41.1756 372.368V371.36H46.8396V372.368H41.1756ZM54.7819 380V375.592C54.7819 375.112 54.7365 374.672 54.6459 374.272C54.5552 373.867 54.4085 373.515 54.2059 373.216C54.0085 372.912 53.7499 372.677 53.4299 372.512C53.1152 372.347 52.7312 372.264 52.2779 372.264C51.8619 372.264 51.4939 372.336 51.1739 372.48C50.8592 372.624 50.5925 372.832 50.3739 373.104C50.1605 373.371 49.9979 373.696 49.8859 374.08C49.7739 374.464 49.7179 374.901 49.7179 375.392L48.8859 375.208C48.8859 374.323 49.0405 373.579 49.3499 372.976C49.6592 372.373 50.0859 371.917 50.6299 371.608C51.1739 371.299 51.7979 371.144 52.5019 371.144C53.0192 371.144 53.4699 371.224 53.8539 371.384C54.2432 371.544 54.5712 371.76 54.8379 372.032C55.1099 372.304 55.3285 372.616 55.4939 372.968C55.6592 373.315 55.7792 373.685 55.8539 374.08C55.9285 374.469 55.9659 374.859 55.9659 375.248V380H54.7819ZM48.5339 380V368.48H49.5979V374.984H49.7179V380H48.5339ZM63.717 380.24C63.0663 380.24 62.5197 380.123 62.077 379.888C61.6397 379.653 61.3117 379.341 61.093 378.952C60.8743 378.563 60.765 378.139 60.765 377.68C60.765 377.211 60.8583 376.811 61.045 376.48C61.237 376.144 61.4957 375.869 61.821 375.656C62.1517 375.443 62.533 375.28 62.965 375.168C63.4023 375.061 63.885 374.968 64.413 374.888C64.9463 374.803 65.4663 374.731 65.973 374.672C66.485 374.608 66.933 374.547 67.317 374.488L66.901 374.744C66.917 373.891 66.7517 373.259 66.405 372.848C66.0583 372.437 65.4557 372.232 64.597 372.232C64.005 372.232 63.5037 372.365 63.093 372.632C62.6877 372.899 62.4023 373.32 62.237 373.896L61.093 373.56C61.2903 372.787 61.6877 372.187 62.285 371.76C62.8823 371.333 63.6583 371.12 64.613 371.12C65.4023 371.12 66.0717 371.269 66.621 371.568C67.1757 371.861 67.5677 372.288 67.797 372.848C67.9037 373.099 67.973 373.379 68.005 373.688C68.037 373.997 68.053 374.312 68.053 374.632V380H67.005V377.832L67.309 377.96C67.0157 378.701 66.5597 379.267 65.941 379.656C65.3223 380.045 64.581 380.24 63.717 380.24ZM63.853 379.224C64.4023 379.224 64.8823 379.125 65.293 378.928C65.7037 378.731 66.0343 378.461 66.285 378.12C66.5357 377.773 66.6983 377.384 66.773 376.952C66.837 376.675 66.8717 376.371 66.877 376.04C66.8823 375.704 66.885 375.453 66.885 375.288L67.333 375.52C66.933 375.573 66.4983 375.627 66.029 375.68C65.565 375.733 65.1063 375.795 64.653 375.864C64.205 375.933 63.7997 376.016 63.437 376.112C63.1917 376.181 62.9543 376.28 62.725 376.408C62.4957 376.531 62.3063 376.696 62.157 376.904C62.013 377.112 61.941 377.371 61.941 377.68C61.941 377.931 62.0023 378.173 62.125 378.408C62.253 378.643 62.4557 378.837 62.733 378.992C63.0157 379.147 63.389 379.224 63.853 379.224ZM73.4396 380.216C72.9223 380.216 72.469 380.136 72.0796 379.976C71.6956 379.816 71.3676 379.6 71.0956 379.328C70.829 379.056 70.613 378.747 70.4476 378.4C70.2823 378.048 70.1623 377.677 70.0876 377.288C70.013 376.893 69.9756 376.501 69.9756 376.112V371.36H71.1596V375.768C71.1596 376.243 71.205 376.683 71.2956 377.088C71.3863 377.493 71.5303 377.848 71.7276 378.152C71.9303 378.451 72.189 378.683 72.5036 378.848C72.8236 379.013 73.2103 379.096 73.6636 379.096C74.0796 379.096 74.445 379.024 74.7596 378.88C75.0796 378.736 75.3463 378.531 75.5596 378.264C75.7783 377.992 75.9436 377.664 76.0556 377.28C76.1676 376.891 76.2236 376.453 76.2236 375.968L77.0556 376.152C77.0556 377.037 76.901 377.781 76.5916 378.384C76.2823 378.987 75.8556 379.443 75.3116 379.752C74.7676 380.061 74.1436 380.216 73.4396 380.216ZM76.3436 380V377.872H76.2236V371.36H77.3996V380H76.3436ZM84.3396 380C83.8543 380.101 83.3743 380.141 82.8996 380.12C82.4303 380.099 82.009 379.997 81.6356 379.816C81.2676 379.635 80.9876 379.352 80.7956 378.968C80.641 378.648 80.5556 378.325 80.5396 378C80.529 377.669 80.5236 377.293 80.5236 376.872V368.96H81.6916V376.824C81.6916 377.187 81.6943 377.491 81.6996 377.736C81.7103 377.976 81.7663 378.189 81.8676 378.376C82.0596 378.733 82.3636 378.947 82.7796 379.016C83.201 379.085 83.721 379.069 84.3396 378.968V380ZM78.6756 372.368V371.36H84.3396V372.368H78.6756ZM89.3374 380.24C88.4787 380.24 87.7454 380.045 87.1374 379.656C86.5294 379.267 86.0627 378.728 85.7374 378.04C85.412 377.352 85.2494 376.563 85.2494 375.672C85.2494 374.765 85.4147 373.971 85.7454 373.288C86.076 372.605 86.5454 372.075 87.1534 371.696C87.7667 371.312 88.4947 371.12 89.3374 371.12C90.2014 371.12 90.9374 371.315 91.5454 371.704C92.1587 372.088 92.6254 372.624 92.9454 373.312C93.2707 373.995 93.4334 374.781 93.4334 375.672C93.4334 376.579 93.2707 377.376 92.9454 378.064C92.62 378.747 92.1507 379.28 91.5374 379.664C90.924 380.048 90.1907 380.24 89.3374 380.24ZM89.3374 379.112C90.2974 379.112 91.012 378.795 91.4814 378.16C91.9507 377.52 92.1854 376.691 92.1854 375.672C92.1854 374.627 91.948 373.795 91.4734 373.176C91.004 372.557 90.292 372.248 89.3374 372.248C88.692 372.248 88.1587 372.395 87.7374 372.688C87.3214 372.976 87.0094 373.379 86.8014 373.896C86.5987 374.408 86.4974 375 86.4974 375.672C86.4974 376.712 86.7374 377.547 87.2174 378.176C87.6974 378.8 88.404 379.112 89.3374 379.112ZM105.502 380L105.51 374.328C105.51 373.661 105.323 373.139 104.95 372.76C104.582 372.376 104.113 372.184 103.542 372.184C103.217 372.184 102.899 372.259 102.59 372.408C102.281 372.557 102.025 372.797 101.822 373.128C101.625 373.459 101.526 373.891 101.526 374.424L100.83 374.224C100.814 373.605 100.934 373.064 101.19 372.6C101.451 372.136 101.809 371.776 102.262 371.52C102.721 371.259 103.238 371.128 103.814 371.128C104.683 371.128 105.379 371.397 105.902 371.936C106.425 372.469 106.686 373.192 106.686 374.104L106.678 380H105.502ZM95.1901 380V371.36H96.2461V373.488H96.3741V380H95.1901ZM100.358 380L100.366 374.408C100.366 373.72 100.182 373.179 99.8141 372.784C99.4515 372.384 98.9715 372.184 98.3741 372.184C97.7768 372.184 97.2941 372.389 96.9261 372.8C96.5581 373.205 96.3741 373.747 96.3741 374.424L95.6701 374.04C95.6701 373.485 95.8008 372.989 96.0621 372.552C96.3235 372.109 96.6808 371.763 97.1341 371.512C97.5875 371.256 98.1021 371.128 98.6781 371.128C99.2275 371.128 99.7155 371.245 100.142 371.48C100.574 371.715 100.913 372.056 101.158 372.504C101.403 372.952 101.526 373.496 101.526 374.136L101.518 380H100.358ZM111.233 380.24C110.582 380.24 110.035 380.123 109.593 379.888C109.155 379.653 108.827 379.341 108.609 378.952C108.39 378.563 108.281 378.139 108.281 377.68C108.281 377.211 108.374 376.811 108.561 376.48C108.753 376.144 109.011 375.869 109.337 375.656C109.667 375.443 110.049 375.28 110.481 375.168C110.918 375.061 111.401 374.968 111.929 374.888C112.462 374.803 112.982 374.731 113.489 374.672C114.001 374.608 114.449 374.547 114.833 374.488L114.417 374.744C114.433 373.891 114.267 373.259 113.921 372.848C113.574 372.437 112.971 372.232 112.113 372.232C111.521 372.232 111.019 372.365 110.609 372.632C110.203 372.899 109.918 373.32 109.753 373.896L108.609 373.56C108.806 372.787 109.203 372.187 109.801 371.76C110.398 371.333 111.174 371.12 112.129 371.12C112.918 371.12 113.587 371.269 114.137 371.568C114.691 371.861 115.083 372.288 115.313 372.848C115.419 373.099 115.489 373.379 115.521 373.688C115.553 373.997 115.569 374.312 115.569 374.632V380H114.521V377.832L114.825 377.96C114.531 378.701 114.075 379.267 113.457 379.656C112.838 380.045 112.097 380.24 111.233 380.24ZM111.369 379.224C111.918 379.224 112.398 379.125 112.809 378.928C113.219 378.731 113.55 378.461 113.801 378.12C114.051 377.773 114.214 377.384 114.289 376.952C114.353 376.675 114.387 376.371 114.393 376.04C114.398 375.704 114.401 375.453 114.401 375.288L114.849 375.52C114.449 375.573 114.014 375.627 113.545 375.68C113.081 375.733 112.622 375.795 112.169 375.864C111.721 375.933 111.315 376.016 110.953 376.112C110.707 376.181 110.47 376.28 110.241 376.408C110.011 376.531 109.822 376.696 109.673 376.904C109.529 377.112 109.457 377.371 109.457 377.68C109.457 377.931 109.518 378.173 109.641 378.408C109.769 378.643 109.971 378.837 110.249 378.992C110.531 379.147 110.905 379.224 111.369 379.224ZM122.355 380C121.87 380.101 121.39 380.141 120.915 380.12C120.446 380.099 120.025 379.997 119.651 379.816C119.283 379.635 119.003 379.352 118.811 378.968C118.657 378.648 118.571 378.325 118.555 378C118.545 377.669 118.539 377.293 118.539 376.872V368.96H119.707V376.824C119.707 377.187 119.71 377.491 119.715 377.736C119.726 377.976 119.782 378.189 119.883 378.376C120.075 378.733 120.379 378.947 120.795 379.016C121.217 379.085 121.737 379.069 122.355 378.968V380ZM116.691 372.368V371.36H122.355V372.368H116.691ZM124.218 369.72V368.4H125.394V369.72H124.218ZM124.218 380V371.36H125.394V380H124.218ZM131.4 380.24C130.541 380.24 129.808 380.045 129.2 379.656C128.592 379.267 128.125 378.728 127.8 378.04C127.475 377.352 127.312 376.563 127.312 375.672C127.312 374.765 127.477 373.971 127.808 373.288C128.139 372.605 128.608 372.075 129.216 371.696C129.829 371.312 130.557 371.12 131.4 371.12C132.264 371.12 133 371.315 133.608 371.704C134.221 372.088 134.688 372.624 135.008 373.312C135.333 373.995 135.496 374.781 135.496 375.672C135.496 376.579 135.333 377.376 135.008 378.064C134.683 378.747 134.213 379.28 133.6 379.664C132.987 380.048 132.253 380.24 131.4 380.24ZM131.4 379.112C132.36 379.112 133.075 378.795 133.544 378.16C134.013 377.52 134.248 376.691 134.248 375.672C134.248 374.627 134.011 373.795 133.536 373.176C133.067 372.557 132.355 372.248 131.4 372.248C130.755 372.248 130.221 372.395 129.8 372.688C129.384 372.976 129.072 373.379 128.864 373.896C128.661 374.408 128.56 375 128.56 375.672C128.56 376.712 128.8 377.547 129.28 378.176C129.76 378.8 130.467 379.112 131.4 379.112ZM143.501 380V375.592C143.501 375.112 143.455 374.672 143.365 374.272C143.274 373.867 143.127 373.515 142.925 373.216C142.727 372.912 142.469 372.677 142.149 372.512C141.834 372.347 141.45 372.264 140.997 372.264C140.581 372.264 140.213 372.336 139.893 372.48C139.578 372.624 139.311 372.832 139.093 373.104C138.879 373.371 138.717 373.696 138.605 374.08C138.493 374.464 138.437 374.901 138.437 375.392L137.605 375.208C137.605 374.323 137.759 373.579 138.069 372.976C138.378 372.373 138.805 371.917 139.349 371.608C139.893 371.299 140.517 371.144 141.221 371.144C141.738 371.144 142.189 371.224 142.573 371.384C142.962 371.544 143.29 371.76 143.557 372.032C143.829 372.304 144.047 372.616 144.213 372.968C144.378 373.315 144.498 373.685 144.573 374.08C144.647 374.469 144.685 374.859 144.685 375.248V380H143.501ZM137.253 380V371.36H138.317V373.488H138.437V380H137.253ZM154.668 380C154.182 380.101 153.702 380.141 153.228 380.12C152.758 380.099 152.337 379.997 151.964 379.816C151.596 379.635 151.316 379.352 151.124 378.968C150.969 378.648 150.884 378.325 150.868 378C150.857 377.669 150.852 377.293 150.852 376.872V368.96H152.02V376.824C152.02 377.187 152.022 377.491 152.028 377.736C152.038 377.976 152.094 378.189 152.196 378.376C152.388 378.733 152.692 378.947 153.108 379.016C153.529 379.085 154.049 379.069 154.668 378.968V380ZM149.004 372.368V371.36H154.668V372.368H149.004ZM159.666 380.24C158.807 380.24 158.074 380.045 157.466 379.656C156.858 379.267 156.391 378.728 156.066 378.04C155.74 377.352 155.578 376.563 155.578 375.672C155.578 374.765 155.743 373.971 156.074 373.288C156.404 372.605 156.874 372.075 157.482 371.696C158.095 371.312 158.823 371.12 159.666 371.12C160.53 371.12 161.266 371.315 161.874 371.704C162.487 372.088 162.954 372.624 163.274 373.312C163.599 373.995 163.762 374.781 163.762 375.672C163.762 376.579 163.599 377.376 163.274 378.064C162.948 378.747 162.479 379.28 161.866 379.664C161.252 380.048 160.519 380.24 159.666 380.24ZM159.666 379.112C160.626 379.112 161.34 378.795 161.81 378.16C162.279 377.52 162.514 376.691 162.514 375.672C162.514 374.627 162.276 373.795 161.802 373.176C161.332 372.557 160.62 372.248 159.666 372.248C159.02 372.248 158.487 372.395 158.066 372.688C157.65 372.976 157.338 373.379 157.13 373.896C156.927 374.408 156.826 375 156.826 375.672C156.826 376.712 157.066 377.547 157.546 378.176C158.026 378.8 158.732 379.112 159.666 379.112ZM169.134 380.24C168.276 380.24 167.542 380.045 166.934 379.656C166.326 379.267 165.86 378.728 165.534 378.04C165.209 377.352 165.046 376.563 165.046 375.672C165.046 374.765 165.212 373.971 165.542 373.288C165.873 372.605 166.342 372.075 166.95 371.696C167.564 371.312 168.292 371.12 169.134 371.12C169.998 371.12 170.734 371.315 171.342 371.704C171.956 372.088 172.422 372.624 172.742 373.312C173.068 373.995 173.23 374.781 173.23 375.672C173.23 376.579 173.068 377.376 172.742 378.064C172.417 378.747 171.948 379.28 171.334 379.664C170.721 380.048 169.988 380.24 169.134 380.24ZM169.134 379.112C170.094 379.112 170.809 378.795 171.278 378.16C171.748 377.52 171.982 376.691 171.982 375.672C171.982 374.627 171.745 373.795 171.27 373.176C170.801 372.557 170.089 372.248 169.134 372.248C168.489 372.248 167.956 372.395 167.534 372.688C167.118 372.976 166.806 373.379 166.598 373.896C166.396 374.408 166.294 375 166.294 375.672C166.294 376.712 166.534 377.547 167.014 378.176C167.494 378.8 168.201 379.112 169.134 379.112ZM175.155 380V368.24H176.331V380H175.155ZM181.953 380.232C180.94 380.232 180.105 380.013 179.449 379.576C178.799 379.139 178.399 378.531 178.249 377.752L179.449 377.552C179.577 378.043 179.868 378.435 180.321 378.728C180.78 379.016 181.345 379.16 182.017 379.16C182.673 379.16 183.191 379.024 183.569 378.752C183.948 378.475 184.137 378.099 184.137 377.624C184.137 377.357 184.076 377.141 183.953 376.976C183.836 376.805 183.593 376.648 183.225 376.504C182.857 376.36 182.308 376.189 181.577 375.992C180.793 375.779 180.18 375.565 179.737 375.352C179.295 375.139 178.98 374.893 178.793 374.616C178.607 374.333 178.513 373.989 178.513 373.584C178.513 373.093 178.652 372.664 178.929 372.296C179.207 371.923 179.591 371.635 180.081 371.432C180.572 371.224 181.143 371.12 181.793 371.12C182.444 371.12 183.025 371.227 183.537 371.44C184.055 371.648 184.471 371.941 184.785 372.32C185.1 372.699 185.287 373.139 185.345 373.64L184.145 373.856C184.065 373.349 183.812 372.949 183.385 372.656C182.964 372.357 182.428 372.203 181.777 372.192C181.164 372.176 180.665 372.293 180.281 372.544C179.897 372.789 179.705 373.117 179.705 373.528C179.705 373.757 179.775 373.955 179.913 374.12C180.052 374.28 180.303 374.432 180.665 374.576C181.033 374.72 181.556 374.877 182.233 375.048C183.028 375.251 183.652 375.464 184.105 375.688C184.559 375.912 184.881 376.176 185.073 376.48C185.265 376.784 185.361 377.16 185.361 377.608C185.361 378.424 185.057 379.067 184.449 379.536C183.847 380 183.015 380.232 181.953 380.232ZM195.043 380C194.557 380.101 194.077 380.141 193.603 380.12C193.133 380.099 192.712 379.997 192.339 379.816C191.971 379.635 191.691 379.352 191.499 378.968C191.344 378.648 191.259 378.325 191.243 378C191.232 377.669 191.227 377.293 191.227 376.872V368.96H192.395V376.824C192.395 377.187 192.397 377.491 192.403 377.736C192.413 377.976 192.469 378.189 192.571 378.376C192.763 378.733 193.067 378.947 193.483 379.016C193.904 379.085 194.424 379.069 195.043 378.968V380ZM189.379 372.368V371.36H195.043V372.368H189.379ZM202.985 380V375.592C202.985 375.112 202.94 374.672 202.849 374.272C202.758 373.867 202.612 373.515 202.409 373.216C202.212 372.912 201.953 372.677 201.633 372.512C201.318 372.347 200.934 372.264 200.481 372.264C200.065 372.264 199.697 372.336 199.377 372.48C199.062 372.624 198.796 372.832 198.577 373.104C198.364 373.371 198.201 373.696 198.089 374.08C197.977 374.464 197.921 374.901 197.921 375.392L197.089 375.208C197.089 374.323 197.244 373.579 197.553 372.976C197.862 372.373 198.289 371.917 198.833 371.608C199.377 371.299 200.001 371.144 200.705 371.144C201.222 371.144 201.673 371.224 202.057 371.384C202.446 371.544 202.774 371.76 203.041 372.032C203.313 372.304 203.532 372.616 203.697 372.968C203.862 373.315 203.982 373.685 204.057 374.08C204.132 374.469 204.169 374.859 204.169 375.248V380H202.985ZM196.737 380V368.48H197.801V374.984H197.921V380H196.737ZM208.717 380.24C208.066 380.24 207.52 380.123 207.077 379.888C206.64 379.653 206.312 379.341 206.093 378.952C205.874 378.563 205.765 378.139 205.765 377.68C205.765 377.211 205.858 376.811 206.045 376.48C206.237 376.144 206.496 375.869 206.821 375.656C207.152 375.443 207.533 375.28 207.965 375.168C208.402 375.061 208.885 374.968 209.413 374.888C209.946 374.803 210.466 374.731 210.973 374.672C211.485 374.608 211.933 374.547 212.317 374.488L211.901 374.744C211.917 373.891 211.752 373.259 211.405 372.848C211.058 372.437 210.456 372.232 209.597 372.232C209.005 372.232 208.504 372.365 208.093 372.632C207.688 372.899 207.402 373.32 207.237 373.896L206.093 373.56C206.29 372.787 206.688 372.187 207.285 371.76C207.882 371.333 208.658 371.12 209.613 371.12C210.402 371.12 211.072 371.269 211.621 371.568C212.176 371.861 212.568 372.288 212.797 372.848C212.904 373.099 212.973 373.379 213.005 373.688C213.037 373.997 213.053 374.312 213.053 374.632V380H212.005V377.832L212.309 377.96C212.016 378.701 211.56 379.267 210.941 379.656C210.322 380.045 209.581 380.24 208.717 380.24ZM208.853 379.224C209.402 379.224 209.882 379.125 210.293 378.928C210.704 378.731 211.034 378.461 211.285 378.12C211.536 377.773 211.698 377.384 211.773 376.952C211.837 376.675 211.872 376.371 211.877 376.04C211.882 375.704 211.885 375.453 211.885 375.288L212.333 375.52C211.933 375.573 211.498 375.627 211.029 375.68C210.565 375.733 210.106 375.795 209.653 375.864C209.205 375.933 208.8 376.016 208.437 376.112C208.192 376.181 207.954 376.28 207.725 376.408C207.496 376.531 207.306 376.696 207.157 376.904C207.013 377.112 206.941 377.371 206.941 377.68C206.941 377.931 207.002 378.173 207.125 378.408C207.253 378.643 207.456 378.837 207.733 378.992C208.016 379.147 208.389 379.224 208.853 379.224ZM219.84 380C219.354 380.101 218.874 380.141 218.4 380.12C217.93 380.099 217.509 379.997 217.136 379.816C216.768 379.635 216.488 379.352 216.296 378.968C216.141 378.648 216.056 378.325 216.04 378C216.029 377.669 216.024 377.293 216.024 376.872V368.96H217.192V376.824C217.192 377.187 217.194 377.491 217.2 377.736C217.21 377.976 217.266 378.189 217.368 378.376C217.56 378.733 217.864 378.947 218.28 379.016C218.701 379.085 219.221 379.069 219.84 378.968V380ZM214.176 372.368V371.36H219.84V372.368H214.176ZM29.344 404.232C28.3307 404.232 27.496 404.013 26.84 403.576C26.1893 403.139 25.7893 402.531 25.64 401.752L26.84 401.552C26.968 402.043 27.2587 402.435 27.712 402.728C28.1707 403.016 28.736 403.16 29.408 403.16C30.064 403.16 30.5813 403.024 30.96 402.752C31.3387 402.475 31.528 402.099 31.528 401.624C31.528 401.357 31.4667 401.141 31.344 400.976C31.2267 400.805 30.984 400.648 30.616 400.504C30.248 400.36 29.6987 400.189 28.968 399.992C28.184 399.779 27.5707 399.565 27.128 399.352C26.6853 399.139 26.3707 398.893 26.184 398.616C25.9973 398.333 25.904 397.989 25.904 397.584C25.904 397.093 26.0427 396.664 26.32 396.296C26.5973 395.923 26.9813 395.635 27.472 395.432C27.9627 395.224 28.5333 395.12 29.184 395.12C29.8347 395.12 30.416 395.227 30.928 395.44C31.4453 395.648 31.8613 395.941 32.176 396.32C32.4907 396.699 32.6773 397.139 32.736 397.64L31.536 397.856C31.456 397.349 31.2027 396.949 30.776 396.656C30.3547 396.357 29.8187 396.203 29.168 396.192C28.5547 396.176 28.056 396.293 27.672 396.544C27.288 396.789 27.096 397.117 27.096 397.528C27.096 397.757 27.1653 397.955 27.304 398.12C27.4427 398.28 27.6933 398.432 28.056 398.576C28.424 398.72 28.9467 398.877 29.624 399.048C30.4187 399.251 31.0427 399.464 31.496 399.688C31.9493 399.912 32.272 400.176 32.464 400.48C32.656 400.784 32.752 401.16 32.752 401.608C32.752 402.424 32.448 403.067 31.84 403.536C31.2373 404 30.4053 404.232 29.344 404.232ZM34.6863 393.72V392.4H35.8623V393.72H34.6863ZM34.6863 404V395.36H35.8623V404H34.6863ZM48.5646 404L48.5726 398.328C48.5726 397.661 48.386 397.139 48.0126 396.76C47.6446 396.376 47.1753 396.184 46.6046 396.184C46.2793 396.184 45.962 396.259 45.6526 396.408C45.3433 396.557 45.0873 396.797 44.8846 397.128C44.6873 397.459 44.5886 397.891 44.5886 398.424L43.8926 398.224C43.8766 397.605 43.9966 397.064 44.2526 396.6C44.514 396.136 44.8713 395.776 45.3246 395.52C45.7833 395.259 46.3006 395.128 46.8766 395.128C47.746 395.128 48.442 395.397 48.9646 395.936C49.4873 396.469 49.7486 397.192 49.7486 398.104L49.7406 404H48.5646ZM38.2526 404V395.36H39.3086V397.488H39.4366V404H38.2526ZM43.4206 404L43.4286 398.408C43.4286 397.72 43.2446 397.179 42.8766 396.784C42.514 396.384 42.034 396.184 41.4366 396.184C40.8393 396.184 40.3566 396.389 39.9886 396.8C39.6206 397.205 39.4366 397.747 39.4366 398.424L38.7326 398.04C38.7326 397.485 38.8633 396.989 39.1246 396.552C39.386 396.109 39.7433 395.763 40.1966 395.512C40.65 395.256 41.1646 395.128 41.7406 395.128C42.29 395.128 42.778 395.245 43.2046 395.48C43.6366 395.715 43.9753 396.056 44.2206 396.504C44.466 396.952 44.5886 397.496 44.5886 398.136L44.5806 404H43.4206ZM55.7031 404.24C54.9085 404.24 54.2365 404.04 53.6871 403.64C53.1378 403.235 52.7218 402.688 52.4391 402C52.1565 401.307 52.0151 400.531 52.0151 399.672C52.0151 398.797 52.1565 398.019 52.4391 397.336C52.7271 396.648 53.1485 396.107 53.7031 395.712C54.2578 395.317 54.9405 395.12 55.7511 395.12C56.5405 395.12 57.2178 395.32 57.7831 395.72C58.3485 396.12 58.7805 396.664 59.0791 397.352C59.3831 398.04 59.5351 398.813 59.5351 399.672C59.5351 400.536 59.3831 401.312 59.0791 402C58.7751 402.688 58.3378 403.235 57.7671 403.64C57.1965 404.04 56.5085 404.24 55.7031 404.24ZM51.8151 407.84V395.36H52.8711V401.864H52.9991V407.84H51.8151ZM55.5831 403.144C56.1858 403.144 56.6871 402.992 57.0871 402.688C57.4871 402.384 57.7858 401.971 57.9831 401.448C58.1858 400.92 58.2871 400.328 58.2871 399.672C58.2871 399.021 58.1885 398.435 57.9911 397.912C57.7938 397.389 57.4925 396.976 57.0871 396.672C56.6871 396.368 56.1778 396.216 55.5591 396.216C54.9565 396.216 54.4551 396.363 54.0551 396.656C53.6605 396.949 53.3645 397.357 53.1671 397.88C52.9698 398.397 52.8711 398.995 52.8711 399.672C52.8711 400.339 52.9698 400.936 53.1671 401.464C53.3645 401.987 53.6631 402.397 54.0631 402.696C54.4631 402.995 54.9698 403.144 55.5831 403.144ZM61.4519 404V392.24H62.6279V404H61.4519ZM65.1863 393.72V392.4H66.3623V393.72H65.1863ZM65.1863 404V395.36H66.3623V404H65.1863ZM69.6166 404V394.72C69.6166 394.496 69.6273 394.275 69.6486 394.056C69.6753 393.837 69.726 393.629 69.8006 393.432C69.8753 393.229 69.9926 393.043 70.1526 392.872C70.3286 392.68 70.5206 392.541 70.7286 392.456C70.9366 392.365 71.1526 392.307 71.3766 392.28C71.606 392.253 71.83 392.24 72.0486 392.24H73.1526V393.232H72.1286C71.6806 393.232 71.3446 393.341 71.1206 393.56C70.902 393.779 70.7926 394.123 70.7926 394.592V404H69.6166ZM68.1206 396.368V395.36H73.1526V396.368H68.1206ZM75.6645 407.84L77.3365 403.304L77.3605 404.648L73.5765 395.36H74.8245L77.9285 403.128H77.4165L80.2805 395.36H81.4805L76.8405 407.84H75.6645ZM86.2331 393.72V392.4H87.4091V393.72H86.2331ZM86.2331 404V395.36H87.4091V404H86.2331ZM96.0475 404V399.592C96.0475 399.112 96.0022 398.672 95.9115 398.272C95.8208 397.867 95.6742 397.515 95.4715 397.216C95.2742 396.912 95.0155 396.677 94.6955 396.512C94.3808 396.347 93.9968 396.264 93.5435 396.264C93.1275 396.264 92.7595 396.336 92.4395 396.48C92.1248 396.624 91.8582 396.832 91.6395 397.104C91.4262 397.371 91.2635 397.696 91.1515 398.08C91.0395 398.464 90.9835 398.901 90.9835 399.392L90.1515 399.208C90.1515 398.323 90.3062 397.579 90.6155 396.976C90.9248 396.373 91.3515 395.917 91.8955 395.608C92.4395 395.299 93.0635 395.144 93.7675 395.144C94.2848 395.144 94.7355 395.224 95.1195 395.384C95.5088 395.544 95.8368 395.76 96.1035 396.032C96.3755 396.304 96.5942 396.616 96.7595 396.968C96.9248 397.315 97.0448 397.685 97.1195 398.08C97.1942 398.469 97.2315 398.859 97.2315 399.248V404H96.0475ZM89.7995 404V395.36H90.8635V397.488H90.9835V404H89.7995ZM101.644 404L98.5075 395.36H99.6995L102.252 402.464L104.788 395.36H105.996L102.86 404H101.644ZM110.728 404.24C109.869 404.24 109.136 404.045 108.528 403.656C107.92 403.267 107.453 402.728 107.128 402.04C106.803 401.352 106.64 400.563 106.64 399.672C106.64 398.765 106.805 397.971 107.136 397.288C107.467 396.605 107.936 396.075 108.544 395.696C109.157 395.312 109.885 395.12 110.728 395.12C111.592 395.12 112.328 395.315 112.936 395.704C113.549 396.088 114.016 396.624 114.336 397.312C114.661 397.995 114.824 398.781 114.824 399.672C114.824 400.579 114.661 401.376 114.336 402.064C114.011 402.747 113.541 403.28 112.928 403.664C112.315 404.048 111.581 404.24 110.728 404.24ZM110.728 403.112C111.688 403.112 112.403 402.795 112.872 402.16C113.341 401.52 113.576 400.691 113.576 399.672C113.576 398.627 113.339 397.795 112.864 397.176C112.395 396.557 111.683 396.248 110.728 396.248C110.083 396.248 109.549 396.395 109.128 396.688C108.712 396.976 108.4 397.379 108.192 397.896C107.989 398.408 107.888 399 107.888 399.672C107.888 400.712 108.128 401.547 108.608 402.176C109.088 402.8 109.795 403.112 110.728 403.112ZM116.749 393.72V392.4H117.925V393.72H116.749ZM116.749 404V395.36H117.925V404H116.749ZM123.907 404.24C123.038 404.24 122.302 404.045 121.699 403.656C121.096 403.267 120.638 402.731 120.323 402.048C120.014 401.36 119.854 400.571 119.843 399.68C119.854 398.773 120.019 397.979 120.339 397.296C120.659 396.608 121.12 396.075 121.723 395.696C122.326 395.312 123.056 395.12 123.915 395.12C124.79 395.12 125.55 395.333 126.195 395.76C126.846 396.187 127.291 396.771 127.531 397.512L126.379 397.88C126.176 397.363 125.854 396.963 125.411 396.68C124.974 396.392 124.472 396.248 123.907 396.248C123.272 396.248 122.747 396.395 122.331 396.688C121.915 396.976 121.606 397.379 121.403 397.896C121.2 398.413 121.096 399.008 121.091 399.68C121.102 400.715 121.342 401.547 121.811 402.176C122.28 402.8 122.979 403.112 123.907 403.112C124.494 403.112 124.992 402.979 125.403 402.712C125.819 402.44 126.134 402.045 126.347 401.528L127.531 401.88C127.211 402.648 126.742 403.235 126.123 403.64C125.504 404.04 124.766 404.24 123.907 404.24ZM129.108 393.72V392.4H130.284V393.72H129.108ZM129.108 404V395.36H130.284V404H129.108ZM138.923 404V399.592C138.923 399.112 138.877 398.672 138.787 398.272C138.696 397.867 138.549 397.515 138.347 397.216C138.149 396.912 137.891 396.677 137.571 396.512C137.256 396.347 136.872 396.264 136.419 396.264C136.003 396.264 135.635 396.336 135.315 396.48C135 396.624 134.733 396.832 134.515 397.104C134.301 397.371 134.139 397.696 134.027 398.08C133.915 398.464 133.859 398.901 133.859 399.392L133.027 399.208C133.027 398.323 133.181 397.579 133.491 396.976C133.8 396.373 134.227 395.917 134.771 395.608C135.315 395.299 135.939 395.144 136.643 395.144C137.16 395.144 137.611 395.224 137.995 395.384C138.384 395.544 138.712 395.76 138.979 396.032C139.251 396.304 139.469 396.616 139.635 396.968C139.8 397.315 139.92 397.685 139.995 398.08C140.069 398.469 140.107 398.859 140.107 399.248V404H138.923ZM132.675 404V395.36H133.739V397.488H133.859V404H132.675ZM145.615 408.08C145.172 408.08 144.735 408.013 144.303 407.88C143.876 407.752 143.481 407.547 143.118 407.264C142.756 406.987 142.452 406.624 142.207 406.176L143.271 405.584C143.511 406.064 143.847 406.408 144.279 406.616C144.716 406.829 145.161 406.936 145.615 406.936C146.239 406.936 146.743 406.819 147.127 406.584C147.516 406.355 147.799 406.013 147.975 405.56C148.151 405.107 148.236 404.541 148.231 403.864V401.56H148.367V395.36H149.415V403.88C149.415 404.125 149.407 404.36 149.391 404.584C149.38 404.813 149.356 405.037 149.319 405.256C149.217 405.901 149.007 406.432 148.687 406.848C148.372 407.264 147.956 407.573 147.439 407.776C146.927 407.979 146.319 408.08 145.615 408.08ZM145.535 404.24C144.729 404.24 144.041 404.04 143.471 403.64C142.9 403.235 142.463 402.688 142.159 402C141.855 401.312 141.703 400.536 141.703 399.672C141.703 398.813 141.852 398.04 142.151 397.352C142.455 396.664 142.889 396.12 143.455 395.72C144.02 395.32 144.697 395.12 145.487 395.12C146.297 395.12 146.98 395.317 147.535 395.712C148.089 396.107 148.508 396.648 148.791 397.336C149.079 398.019 149.223 398.797 149.223 399.672C149.223 400.531 149.081 401.307 148.799 402C148.516 402.688 148.1 403.235 147.551 403.64C147.001 404.04 146.329 404.24 145.535 404.24ZM145.655 403.144C146.268 403.144 146.775 402.995 147.175 402.696C147.575 402.397 147.873 401.987 148.071 401.464C148.268 400.936 148.367 400.339 148.367 399.672C148.367 398.995 148.268 398.397 148.071 397.88C147.873 397.357 147.575 396.949 147.175 396.656C146.78 396.363 146.281 396.216 145.679 396.216C145.06 396.216 144.548 396.368 144.143 396.672C143.737 396.976 143.436 397.389 143.239 397.912C143.047 398.435 142.951 399.021 142.951 399.672C142.951 400.328 143.049 400.92 143.247 401.448C143.449 401.971 143.751 402.384 144.151 402.688C144.551 402.992 145.052 403.144 145.655 403.144ZM151.491 405.672L151.563 405.088C151.777 405.104 151.931 405.061 152.027 404.96C152.123 404.859 152.182 404.723 152.203 404.552C152.225 404.381 152.23 404.197 152.219 404H151.491V402.312H152.859V404.32C152.859 404.811 152.734 405.179 152.483 405.424C152.238 405.669 151.907 405.752 151.491 405.672ZM162.688 404.24C161.819 404.24 161.083 404.045 160.48 403.656C159.878 403.267 159.419 402.731 159.104 402.048C158.795 401.36 158.635 400.571 158.624 399.68C158.635 398.773 158.8 397.979 159.12 397.296C159.44 396.608 159.902 396.075 160.504 395.696C161.107 395.312 161.838 395.12 162.696 395.12C163.571 395.12 164.331 395.333 164.976 395.76C165.627 396.187 166.072 396.771 166.312 397.512L165.16 397.88C164.958 397.363 164.635 396.963 164.192 396.68C163.755 396.392 163.254 396.248 162.688 396.248C162.054 396.248 161.528 396.395 161.112 396.688C160.696 396.976 160.387 397.379 160.184 397.896C159.982 398.413 159.878 399.008 159.872 399.68C159.883 400.715 160.123 401.547 160.592 402.176C161.062 402.8 161.76 403.112 162.688 403.112C163.275 403.112 163.774 402.979 164.184 402.712C164.6 402.44 164.915 402.045 165.128 401.528L166.312 401.88C165.992 402.648 165.523 403.235 164.904 403.64C164.286 404.04 163.547 404.24 162.688 404.24ZM170.389 404.24C169.738 404.24 169.192 404.123 168.749 403.888C168.312 403.653 167.984 403.341 167.765 402.952C167.546 402.563 167.437 402.139 167.437 401.68C167.437 401.211 167.53 400.811 167.717 400.48C167.909 400.144 168.168 399.869 168.493 399.656C168.824 399.443 169.205 399.28 169.637 399.168C170.074 399.061 170.557 398.968 171.085 398.888C171.618 398.803 172.138 398.731 172.645 398.672C173.157 398.608 173.605 398.547 173.989 398.488L173.573 398.744C173.589 397.891 173.424 397.259 173.077 396.848C172.73 396.437 172.128 396.232 171.269 396.232C170.677 396.232 170.176 396.365 169.765 396.632C169.36 396.899 169.074 397.32 168.909 397.896L167.765 397.56C167.962 396.787 168.36 396.187 168.957 395.76C169.554 395.333 170.33 395.12 171.285 395.12C172.074 395.12 172.744 395.269 173.293 395.568C173.848 395.861 174.24 396.288 174.469 396.848C174.576 397.099 174.645 397.379 174.677 397.688C174.709 397.997 174.725 398.312 174.725 398.632V404H173.677V401.832L173.981 401.96C173.688 402.701 173.232 403.267 172.613 403.656C171.994 404.045 171.253 404.24 170.389 404.24ZM170.525 403.224C171.074 403.224 171.554 403.125 171.965 402.928C172.376 402.731 172.706 402.461 172.957 402.12C173.208 401.773 173.37 401.384 173.445 400.952C173.509 400.675 173.544 400.371 173.549 400.04C173.554 399.704 173.557 399.453 173.557 399.288L174.005 399.52C173.605 399.573 173.17 399.627 172.701 399.68C172.237 399.733 171.778 399.795 171.325 399.864C170.877 399.933 170.472 400.016 170.109 400.112C169.864 400.181 169.626 400.28 169.397 400.408C169.168 400.531 168.978 400.696 168.829 400.904C168.685 401.112 168.613 401.371 168.613 401.68C168.613 401.931 168.674 402.173 168.797 402.408C168.925 402.643 169.128 402.837 169.405 402.992C169.688 403.147 170.061 403.224 170.525 403.224ZM180.032 404.232C179.018 404.232 178.184 404.013 177.528 403.576C176.877 403.139 176.477 402.531 176.328 401.752L177.528 401.552C177.656 402.043 177.946 402.435 178.4 402.728C178.858 403.016 179.424 403.16 180.095 403.16C180.752 403.16 181.269 403.024 181.648 402.752C182.026 402.475 182.216 402.099 182.216 401.624C182.216 401.357 182.154 401.141 182.032 400.976C181.914 400.805 181.672 400.648 181.304 400.504C180.936 400.36 180.386 400.189 179.656 399.992C178.872 399.779 178.258 399.565 177.816 399.352C177.373 399.139 177.058 398.893 176.872 398.616C176.685 398.333 176.592 397.989 176.592 397.584C176.592 397.093 176.73 396.664 177.008 396.296C177.285 395.923 177.669 395.635 178.16 395.432C178.65 395.224 179.221 395.12 179.872 395.12C180.522 395.12 181.104 395.227 181.616 395.44C182.133 395.648 182.549 395.941 182.864 396.32C183.178 396.699 183.365 397.139 183.424 397.64L182.224 397.856C182.144 397.349 181.89 396.949 181.464 396.656C181.042 396.357 180.506 396.203 179.856 396.192C179.242 396.176 178.744 396.293 178.36 396.544C177.976 396.789 177.784 397.117 177.784 397.528C177.784 397.757 177.853 397.955 177.992 398.12C178.13 398.28 178.381 398.432 178.744 398.576C179.112 398.72 179.634 398.877 180.312 399.048C181.106 399.251 181.73 399.464 182.184 399.688C182.637 399.912 182.96 400.176 183.152 400.48C183.344 400.784 183.44 401.16 183.44 401.608C183.44 402.424 183.136 403.067 182.528 403.536C181.925 404 181.093 404.232 180.032 404.232ZM191.454 404V399.592C191.454 399.112 191.408 398.672 191.318 398.272C191.227 397.867 191.08 397.515 190.878 397.216C190.68 396.912 190.422 396.677 190.102 396.512C189.787 396.347 189.403 396.264 188.95 396.264C188.534 396.264 188.166 396.336 187.846 396.48C187.531 396.624 187.264 396.832 187.046 397.104C186.832 397.371 186.67 397.696 186.558 398.08C186.446 398.464 186.39 398.901 186.39 399.392L185.558 399.208C185.558 398.323 185.712 397.579 186.022 396.976C186.331 396.373 186.758 395.917 187.302 395.608C187.846 395.299 188.47 395.144 189.174 395.144C189.691 395.144 190.142 395.224 190.526 395.384C190.915 395.544 191.243 395.76 191.51 396.032C191.782 396.304 192 396.616 192.166 396.968C192.331 397.315 192.451 397.685 192.526 398.08C192.6 398.469 192.638 398.859 192.638 399.248V404H191.454ZM185.206 404V392.48H186.27V398.984H186.39V404H185.206ZM202.069 396.368V395.36H204.469V396.368H202.069ZM198.773 404V394.72C198.773 394.496 198.784 394.275 198.805 394.056C198.832 393.837 198.882 393.629 198.957 393.432C199.032 393.229 199.149 393.043 199.309 392.872C199.485 392.68 199.677 392.541 199.885 392.456C200.093 392.365 200.309 392.307 200.533 392.28C200.762 392.253 200.986 392.24 201.205 392.24H202.309V393.232H201.285C200.837 393.232 200.501 393.341 200.277 393.56C200.058 393.779 199.949 394.123 199.949 394.592V404H198.773ZM197.277 396.368V395.36H202.309V396.368H197.277ZM204.333 404V392.24H205.509V404H204.333ZM211.509 404.24C210.651 404.24 209.917 404.045 209.309 403.656C208.701 403.267 208.235 402.728 207.909 402.04C207.584 401.352 207.421 400.563 207.421 399.672C207.421 398.765 207.587 397.971 207.917 397.288C208.248 396.605 208.717 396.075 209.325 395.696C209.939 395.312 210.667 395.12 211.509 395.12C212.373 395.12 213.109 395.315 213.717 395.704C214.331 396.088 214.797 396.624 215.117 397.312C215.443 397.995 215.605 398.781 215.605 399.672C215.605 400.579 215.443 401.376 215.117 402.064C214.792 402.747 214.323 403.28 213.709 403.664C213.096 404.048 212.363 404.24 211.509 404.24ZM211.509 403.112C212.469 403.112 213.184 402.795 213.653 402.16C214.123 401.52 214.357 400.691 214.357 399.672C214.357 398.627 214.12 397.795 213.645 397.176C213.176 396.557 212.464 396.248 211.509 396.248C210.864 396.248 210.331 396.395 209.909 396.688C209.493 396.976 209.181 397.379 208.973 397.896C208.771 398.408 208.669 399 208.669 399.672C208.669 400.712 208.909 401.547 209.389 402.176C209.869 402.8 210.576 403.112 211.509 403.112ZM218.898 404L216.258 395.352L217.434 395.36L219.482 402.072L221.538 395.36H222.61L224.666 402.072L226.73 395.36H227.898L225.258 404H224.234L222.074 397.12L219.922 404H218.898ZM227.898 405.672L227.97 405.088C228.183 405.104 228.338 405.061 228.434 404.96C228.53 404.859 228.588 404.723 228.61 404.552C228.631 404.381 228.636 404.197 228.626 404H227.898V402.312H229.266V404.32C229.266 404.811 229.14 405.179 228.89 405.424C228.644 405.669 228.314 405.752 227.898 405.672ZM239.167 404.24C238.324 404.24 237.593 404.053 236.975 403.68C236.361 403.307 235.884 402.781 235.543 402.104C235.201 401.427 235.031 400.632 235.031 399.72C235.031 398.776 235.199 397.96 235.535 397.272C235.871 396.584 236.343 396.053 236.951 395.68C237.564 395.307 238.287 395.12 239.119 395.12C239.972 395.12 240.7 395.317 241.303 395.712C241.905 396.101 242.361 396.661 242.671 397.392C242.98 398.123 243.121 398.995 243.095 400.008H241.895V399.592C241.873 398.472 241.631 397.627 241.167 397.056C240.708 396.485 240.036 396.2 239.151 396.2C238.223 396.2 237.511 396.501 237.015 397.104C236.524 397.707 236.279 398.565 236.279 399.68C236.279 400.768 236.524 401.613 237.015 402.216C237.511 402.813 238.212 403.112 239.119 403.112C239.737 403.112 240.276 402.971 240.735 402.688C241.199 402.4 241.564 401.987 241.831 401.448L242.927 401.872C242.585 402.624 242.081 403.208 241.415 403.624C240.753 404.035 240.004 404.24 239.167 404.24ZM235.863 400.008V399.024H242.463V400.008H235.863ZM249.574 404C249.089 404.101 248.609 404.141 248.134 404.12C247.665 404.099 247.243 403.997 246.87 403.816C246.502 403.635 246.222 403.352 246.03 402.968C245.875 402.648 245.79 402.325 245.774 402C245.763 401.669 245.758 401.293 245.758 400.872V392.96H246.926V400.824C246.926 401.187 246.929 401.491 246.934 401.736C246.945 401.976 247.001 402.189 247.102 402.376C247.294 402.733 247.598 402.947 248.014 403.016C248.435 403.085 248.955 403.069 249.574 402.968V404ZM243.91 396.368V395.36H249.574V396.368H243.91ZM254.548 404.24C253.678 404.24 252.942 404.045 252.34 403.656C251.737 403.267 251.278 402.731 250.964 402.048C250.654 401.36 250.494 400.571 250.484 399.68C250.494 398.773 250.66 397.979 250.98 397.296C251.3 396.608 251.761 396.075 252.364 395.696C252.966 395.312 253.697 395.12 254.556 395.12C255.43 395.12 256.19 395.333 256.836 395.76C257.486 396.187 257.932 396.771 258.172 397.512L257.02 397.88C256.817 397.363 256.494 396.963 256.052 396.68C255.614 396.392 255.113 396.248 254.548 396.248C253.913 396.248 253.388 396.395 252.972 396.688C252.556 396.976 252.246 397.379 252.044 397.896C251.841 398.413 251.737 399.008 251.732 399.68C251.742 400.715 251.982 401.547 252.452 402.176C252.921 402.8 253.62 403.112 254.548 403.112C255.134 403.112 255.633 402.979 256.044 402.712C256.46 402.44 256.774 402.045 256.988 401.528L258.172 401.88C257.852 402.648 257.382 403.235 256.764 403.64C256.145 404.04 255.406 404.24 254.548 404.24ZM259.735 404V402.632H261.103V404H259.735Z" fill="#646464"/>
<defs>
<radialGradient id="paint0_radial_2303_2751" cx="0" cy="0" r="1" gradientUnits="userSpaceOnUse" gradientTransform="translate(266.063 23.6047) rotate(-2.26679) scale(17.7866)">
<stop stop-color="#EF4BCB"/>
<stop offset="1" stop-color="#34897B"/>
</radialGradient>
<radialGradient id="paint1_radial_2303_2751" cx="0" cy="0" r="1" gradientUnits="userSpaceOnUse" gradientTransform="translate(100.354 157.802) rotate(-2.26679) scale(98.8112 98.8112)">
<stop stop-color="#EF4BCB"/>
<stop offset="1" stop-color="#34897B"/>
</radialGradient>
<radialGradient id="paint2_radial_2303_2751" cx="0" cy="0" r="1" gradientUnits="userSpaceOnUse" gradientTransform="translate(25.8841 291.725) rotate(-0.526156) scale(246.845 57.353)">
<stop stop-color="#EF4BCB"/>
<stop offset="1" stop-color="#34897B"/>
</radialGradient>
</defs>
</svg>
