<svg width="300" height="434" viewBox="0 0 300 434" fill="none" xmlns="http://www.w3.org/2000/svg">
<rect x="251" width="48" height="48" rx="24" fill="white"/>
<path d="M284 16V29C284 29.2652 283.895 29.5196 283.707 29.7071C283.52 29.8946 283.265 30 283 30C282.735 30 282.48 29.8946 282.293 29.7071C282.105 29.5196 282 29.2652 282 29V18.4137L267.708 32.7075C267.52 32.8951 267.265 33.0006 267 33.0006C266.735 33.0006 266.48 32.8951 266.293 32.7075C266.105 32.5199 265.999 32.2654 265.999 32C265.999 31.7346 266.105 31.4801 266.293 31.2925L280.586 17H270C269.735 17 269.48 16.8946 269.293 16.7071C269.105 16.5196 269 16.2652 269 16C269 15.7348 269.105 15.4804 269.293 15.2929C269.48 15.1054 269.735 15 270 15H283C283.265 15 283.52 15.1054 283.707 15.2929C283.895 15.4804 284 15.7348 284 16Z" fill="url(#paint0_radial_2303_2736)"/>
<mask id="mask0_2303_2736" style="mask-type:alpha" maskUnits="userSpaceOnUse" x="1" y="0" width="299" height="434">
<path d="M215.5 0C226.546 0 235.5 8.9543 235.5 20V24.5C235.5 45.4868 252.513 62.5 273.5 62.5H279.445C290.491 62.5 299.445 71.4543 299.445 82.5V414C299.445 425.046 290.491 434 279.445 434H21C9.95431 434 1 425.046 1 414V20C1.00001 8.95431 9.95431 0 21 0H215.5Z" fill="#D9D9D9"/>
</mask>
<g mask="url(#mask0_2303_2736)">
<rect width="298" height="434" transform="translate(1)" fill="white"/>
<path d="M198.958 191.667H164.167V180.625H157.708L174.792 164.583C177.5 166.458 180.417 167.292 183.542 167.292C187.292 167.292 191.042 165.833 194.167 163.125C197.083 160.208 198.75 156.458 198.958 152.5C199.167 148.333 197.5 144.583 194.792 141.458C188.958 135.417 179.167 135 173.125 140.833C167.708 145.833 166.875 153.958 170.625 160L153.125 176.667V141.458C160 140 165.417 133.75 165.417 126.458C165.417 117.917 158.542 111.042 150 111.042C141.458 111.042 134.583 117.917 134.583 126.458C134.583 133.75 139.792 140 146.875 141.458V176.458L129.375 159.792C133.125 153.75 132.292 145.625 126.875 140.625C120.833 134.792 111.042 135 105.208 141.042C102.292 143.958 100.833 147.917 101.042 152.083C101.25 156.25 102.917 160 105.833 162.708C108.75 165.417 112.5 166.875 116.458 166.875C119.583 166.875 122.5 166.042 125.208 164.167L142.292 180.208H135.833V191.25H101.042V197.5H135.833V208.542H164.375V197.5H199.167V191.667H198.958ZM177.292 145C178.958 143.333 181.25 142.5 183.542 142.5H183.75C186.25 142.5 188.333 143.542 190 145.417C193.542 148.958 193.333 154.792 189.583 158.333C186.042 161.875 180.208 161.667 176.667 157.917C173.125 154.167 173.75 148.542 177.292 145ZM140.833 126.458C140.833 121.458 145 117.292 150 117.292C155 117.292 159.167 121.458 159.167 126.458C159.167 131.458 155 135.625 150 135.625C145 135.625 140.833 131.458 140.833 126.458ZM110.208 158.333C106.458 154.792 106.25 148.958 109.792 145.417C111.458 143.75 113.75 142.708 116.042 142.5C118.542 142.5 120.833 143.333 122.5 145C126.042 148.542 126.25 154.167 122.917 157.917C119.583 161.667 113.75 161.667 110.208 158.333ZM157.917 202.708H141.875V197.917V191.667V186.875H157.917V191.667V197.917V202.708Z" fill="url(#paint1_radial_2303_2736)"/>
</g>
<path d="M25.48 288L30.76 270.72H35.632L40.912 288H37.552L32.848 272.76H33.472L28.84 288H25.48ZM28.648 284.4V281.352H37.768V284.4H28.648ZM48.7748 288.36C47.4308 288.36 46.2788 288.06 45.3188 287.46C44.3588 286.86 43.6228 286.044 43.1108 285.012C42.5988 283.98 42.3428 282.816 42.3428 281.52C42.3428 280.208 42.6068 279.036 43.1348 278.004C43.6708 276.972 44.4228 276.16 45.3908 275.568C46.3588 274.976 47.5028 274.68 48.8228 274.68C50.3508 274.68 51.6308 275.068 52.6628 275.844C53.7028 276.612 54.3668 277.664 54.6548 279L51.3908 279.864C51.1988 279.192 50.8628 278.668 50.3828 278.292C49.9108 277.916 49.3748 277.728 48.7748 277.728C48.0868 277.728 47.5228 277.896 47.0828 278.232C46.6428 278.56 46.3188 279.012 46.1108 279.588C45.9028 280.156 45.7988 280.8 45.7988 281.52C45.7988 282.648 46.0468 283.564 46.5428 284.268C47.0468 284.964 47.7908 285.312 48.7748 285.312C49.5108 285.312 50.0708 285.144 50.4548 284.808C50.8388 284.472 51.1268 283.992 51.3188 283.368L54.6548 284.064C54.2868 285.44 53.5908 286.5 52.5668 287.244C51.5428 287.988 50.2788 288.36 48.7748 288.36ZM62.4154 288.36C61.0714 288.36 59.9194 288.06 58.9594 287.46C57.9994 286.86 57.2634 286.044 56.7514 285.012C56.2394 283.98 55.9834 282.816 55.9834 281.52C55.9834 280.208 56.2474 279.036 56.7754 278.004C57.3114 276.972 58.0634 276.16 59.0314 275.568C59.9994 274.976 61.1434 274.68 62.4634 274.68C63.9914 274.68 65.2714 275.068 66.3034 275.844C67.3434 276.612 68.0074 277.664 68.2954 279L65.0314 279.864C64.8394 279.192 64.5034 278.668 64.0234 278.292C63.5514 277.916 63.0154 277.728 62.4154 277.728C61.7274 277.728 61.1634 277.896 60.7234 278.232C60.2834 278.56 59.9594 279.012 59.7514 279.588C59.5434 280.156 59.4394 280.8 59.4394 281.52C59.4394 282.648 59.6874 283.564 60.1834 284.268C60.6874 284.964 61.4314 285.312 62.4154 285.312C63.1514 285.312 63.7114 285.144 64.0954 284.808C64.4794 284.472 64.7674 283.992 64.9594 283.368L68.2954 284.064C67.9274 285.44 67.2314 286.5 66.2074 287.244C65.1834 287.988 63.9194 288.36 62.4154 288.36ZM76.1761 288.36C74.8721 288.36 73.7281 288.068 72.7441 287.484C71.7601 286.9 70.9921 286.096 70.4401 285.072C69.8961 284.04 69.6241 282.856 69.6241 281.52C69.6241 280.168 69.9041 278.98 70.4641 277.956C71.0241 276.924 71.7961 276.12 72.7801 275.544C73.7641 274.968 74.8961 274.68 76.1761 274.68C77.4801 274.68 78.6241 274.972 79.6081 275.556C80.6001 276.14 81.3721 276.948 81.9241 277.98C82.4761 279.004 82.7521 280.184 82.7521 281.52C82.7521 282.864 82.4721 284.052 81.9121 285.084C81.3601 286.108 80.5881 286.912 79.5961 287.496C78.6121 288.072 77.4721 288.36 76.1761 288.36ZM76.1761 285.312C77.2241 285.312 78.0041 284.96 78.5161 284.256C79.0361 283.544 79.2961 282.632 79.2961 281.52C79.2961 280.368 79.0321 279.448 78.5041 278.76C77.9841 278.072 77.2081 277.728 76.1761 277.728C75.4641 277.728 74.8801 277.888 74.4241 278.208C73.9681 278.528 73.6281 278.972 73.4041 279.54C73.1881 280.108 73.0801 280.768 73.0801 281.52C73.0801 282.68 73.3401 283.604 73.8601 284.292C74.3881 284.972 75.1601 285.312 76.1761 285.312ZM90.2149 288.384C89.1989 288.384 88.3709 288.212 87.7309 287.868C87.0909 287.524 86.5909 287.088 86.2309 286.56C85.8789 286.032 85.6269 285.484 85.4749 284.916C85.3229 284.34 85.2309 283.816 85.1989 283.344C85.1669 282.872 85.1509 282.528 85.1509 282.312V275.04H88.4629V281.16C88.4629 281.456 88.4789 281.836 88.5109 282.3C88.5429 282.756 88.6429 283.216 88.8109 283.68C88.9789 284.144 89.2509 284.532 89.6269 284.844C90.0109 285.156 90.5509 285.312 91.2469 285.312C91.5269 285.312 91.8269 285.268 92.1469 285.18C92.4669 285.092 92.7669 284.924 93.0469 284.676C93.3269 284.42 93.5549 284.048 93.7309 283.56C93.9149 283.064 94.0069 282.416 94.0069 281.616L95.8789 282.504C95.8789 283.528 95.6709 284.488 95.2549 285.384C94.8389 286.28 94.2109 287.004 93.3709 287.556C92.5389 288.108 91.4869 288.384 90.2149 288.384ZM94.4149 288V283.704H94.0069V275.04H97.2949V288H94.4149ZM109.481 288V281.88C109.481 281.584 109.465 281.208 109.433 280.752C109.401 280.288 109.301 279.824 109.133 279.36C108.965 278.896 108.689 278.508 108.305 278.196C107.929 277.884 107.393 277.728 106.697 277.728C106.417 277.728 106.117 277.772 105.797 277.86C105.477 277.948 105.177 278.12 104.897 278.376C104.617 278.624 104.385 278.992 104.201 279.48C104.025 279.968 103.937 280.616 103.937 281.424L102.065 280.536C102.065 279.512 102.273 278.552 102.689 277.656C103.105 276.76 103.729 276.036 104.561 275.484C105.401 274.932 106.457 274.656 107.729 274.656C108.745 274.656 109.573 274.828 110.213 275.172C110.853 275.516 111.349 275.952 111.701 276.48C112.061 277.008 112.317 277.56 112.469 278.136C112.621 278.704 112.713 279.224 112.745 279.696C112.777 280.168 112.793 280.512 112.793 280.728V288H109.481ZM100.625 288V275.04H103.529V279.336H103.937V288H100.625ZM123.683 288C122.787 288.168 121.907 288.24 121.043 288.216C120.187 288.2 119.419 288.052 118.739 287.772C118.067 287.484 117.555 287.024 117.203 286.392C116.883 285.8 116.715 285.2 116.699 284.592C116.683 283.976 116.675 283.28 116.675 282.504V271.44H119.939V282.312C119.939 282.816 119.943 283.272 119.951 283.68C119.967 284.08 120.051 284.4 120.203 284.64C120.491 285.096 120.951 285.344 121.583 285.384C122.215 285.424 122.915 285.392 123.683 285.288V288ZM114.467 277.56V275.04H123.683V277.56H114.467ZM34.096 317.36C32.368 317.36 30.876 316.984 29.62 316.232C28.372 315.48 27.408 314.428 26.728 313.076C26.056 311.724 25.72 310.152 25.72 308.36C25.72 306.568 26.056 304.996 26.728 303.644C27.408 302.292 28.372 301.24 29.62 300.488C30.876 299.736 32.368 299.36 34.096 299.36C36.08 299.36 37.744 299.852 39.088 300.836C40.44 301.82 41.392 303.152 41.944 304.832L38.656 305.744C38.336 304.696 37.796 303.884 37.036 303.308C36.276 302.724 35.296 302.432 34.096 302.432C33 302.432 32.084 302.676 31.348 303.164C30.62 303.652 30.072 304.34 29.704 305.228C29.336 306.116 29.152 307.16 29.152 308.36C29.152 309.56 29.336 310.604 29.704 311.492C30.072 312.38 30.62 313.068 31.348 313.556C32.084 314.044 33 314.288 34.096 314.288C35.296 314.288 36.276 313.996 37.036 313.412C37.796 312.828 38.336 312.016 38.656 310.976L41.944 311.888C41.392 313.568 40.44 314.9 39.088 315.884C37.744 316.868 36.08 317.36 34.096 317.36ZM50.4183 317.36C49.1143 317.36 47.9703 317.068 46.9863 316.484C46.0023 315.9 45.2343 315.096 44.6823 314.072C44.1383 313.04 43.8663 311.856 43.8663 310.52C43.8663 309.168 44.1463 307.98 44.7063 306.956C45.2663 305.924 46.0383 305.12 47.0223 304.544C48.0063 303.968 49.1383 303.68 50.4183 303.68C51.7223 303.68 52.8663 303.972 53.8503 304.556C54.8423 305.14 55.6143 305.948 56.1663 306.98C56.7183 308.004 56.9943 309.184 56.9943 310.52C56.9943 311.864 56.7143 313.052 56.1543 314.084C55.6023 315.108 54.8303 315.912 53.8383 316.496C52.8543 317.072 51.7143 317.36 50.4183 317.36ZM50.4183 314.312C51.4663 314.312 52.2463 313.96 52.7583 313.256C53.2783 312.544 53.5383 311.632 53.5383 310.52C53.5383 309.368 53.2743 308.448 52.7463 307.76C52.2263 307.072 51.4503 306.728 50.4183 306.728C49.7063 306.728 49.1223 306.888 48.6663 307.208C48.2103 307.528 47.8703 307.972 47.6463 308.54C47.4303 309.108 47.3223 309.768 47.3223 310.52C47.3223 311.68 47.5823 312.604 48.1023 313.292C48.6303 313.972 49.4023 314.312 50.4183 314.312ZM68.4651 317V310.88C68.4651 310.584 68.4491 310.208 68.4171 309.752C68.3851 309.288 68.2851 308.824 68.1171 308.36C67.9491 307.896 67.6731 307.508 67.2891 307.196C66.9131 306.884 66.3771 306.728 65.6811 306.728C65.4011 306.728 65.1011 306.772 64.7811 306.86C64.4611 306.948 64.1611 307.12 63.8811 307.376C63.6011 307.624 63.3691 307.992 63.1851 308.48C63.0091 308.968 62.9211 309.616 62.9211 310.424L61.0491 309.536C61.0491 308.512 61.2571 307.552 61.6731 306.656C62.0891 305.76 62.7131 305.036 63.5451 304.484C64.3851 303.932 65.4411 303.656 66.7131 303.656C67.7291 303.656 68.5571 303.828 69.1971 304.172C69.8371 304.516 70.3331 304.952 70.6851 305.48C71.0451 306.008 71.3011 306.56 71.4531 307.136C71.6051 307.704 71.6971 308.224 71.7291 308.696C71.7611 309.168 71.7771 309.512 71.7771 309.728V317H68.4651ZM59.6091 317V304.04H62.5131V308.336H62.9211V317H59.6091ZM83.7229 317V310.88C83.7229 310.584 83.7069 310.208 83.6749 309.752C83.6429 309.288 83.5429 308.824 83.3749 308.36C83.2069 307.896 82.9309 307.508 82.5469 307.196C82.1709 306.884 81.6349 306.728 80.9389 306.728C80.6589 306.728 80.3589 306.772 80.0389 306.86C79.7189 306.948 79.4189 307.12 79.1389 307.376C78.8589 307.624 78.6269 307.992 78.4429 308.48C78.2669 308.968 78.1789 309.616 78.1789 310.424L76.3069 309.536C76.3069 308.512 76.5149 307.552 76.9309 306.656C77.3469 305.76 77.9709 305.036 78.8029 304.484C79.6429 303.932 80.6989 303.656 81.9709 303.656C82.9869 303.656 83.8149 303.828 84.4549 304.172C85.0949 304.516 85.5909 304.952 85.9429 305.48C86.3029 306.008 86.5589 306.56 86.7109 307.136C86.8629 307.704 86.9549 308.224 86.9869 308.696C87.0189 309.168 87.0349 309.512 87.0349 309.728V317H83.7229ZM74.8669 317V304.04H77.7709V308.336H78.1789V317H74.8669ZM95.9384 317.36C94.6104 317.36 93.4384 317.076 92.4224 316.508C91.4144 315.932 90.6224 315.144 90.0464 314.144C89.4784 313.136 89.1944 311.984 89.1944 310.688C89.1944 309.272 89.4744 308.04 90.0344 306.992C90.5944 305.944 91.3664 305.132 92.3504 304.556C93.3344 303.972 94.4664 303.68 95.7464 303.68C97.1064 303.68 98.2624 304 99.2144 304.64C100.166 305.28 100.87 306.18 101.326 307.34C101.782 308.5 101.942 309.864 101.806 311.432H98.5784V310.232C98.5784 308.912 98.3664 307.964 97.9424 307.388C97.5264 306.804 96.8424 306.512 95.8904 306.512C94.7784 306.512 93.9584 306.852 93.4304 307.532C92.9104 308.204 92.6504 309.2 92.6504 310.52C92.6504 311.728 92.9104 312.664 93.4304 313.328C93.9584 313.984 94.7304 314.312 95.7464 314.312C96.3864 314.312 96.9344 314.172 97.3904 313.892C97.8464 313.612 98.1944 313.208 98.4344 312.68L101.698 313.616C101.21 314.8 100.438 315.72 99.3824 316.376C98.3344 317.032 97.1864 317.36 95.9384 317.36ZM91.6424 311.432V309.008H100.234V311.432H91.6424ZM110.228 317.36C108.884 317.36 107.732 317.06 106.772 316.46C105.812 315.86 105.076 315.044 104.564 314.012C104.052 312.98 103.796 311.816 103.796 310.52C103.796 309.208 104.06 308.036 104.588 307.004C105.124 305.972 105.876 305.16 106.844 304.568C107.812 303.976 108.956 303.68 110.276 303.68C111.804 303.68 113.084 304.068 114.116 304.844C115.156 305.612 115.82 306.664 116.108 308L112.844 308.864C112.652 308.192 112.316 307.668 111.836 307.292C111.364 306.916 110.828 306.728 110.228 306.728C109.54 306.728 108.976 306.896 108.536 307.232C108.096 307.56 107.772 308.012 107.564 308.588C107.356 309.156 107.252 309.8 107.252 310.52C107.252 311.648 107.5 312.564 107.996 313.268C108.5 313.964 109.244 314.312 110.228 314.312C110.964 314.312 111.524 314.144 111.908 313.808C112.292 313.472 112.58 312.992 112.772 312.368L116.108 313.064C115.74 314.44 115.044 315.5 114.02 316.244C112.996 316.988 111.732 317.36 110.228 317.36ZM126.284 317C125.388 317.168 124.508 317.24 123.644 317.216C122.788 317.2 122.02 317.052 121.34 316.772C120.668 316.484 120.156 316.024 119.804 315.392C119.484 314.8 119.316 314.2 119.3 313.592C119.284 312.976 119.276 312.28 119.276 311.504V300.44H122.54V311.312C122.54 311.816 122.544 312.272 122.552 312.68C122.568 313.08 122.652 313.4 122.804 313.64C123.092 314.096 123.552 314.344 124.184 314.384C124.816 314.424 125.516 314.392 126.284 314.288V317ZM117.068 306.56V304.04H126.284V306.56H117.068ZM129.412 302.24V299.36H132.676V302.24H129.412ZM129.412 317V304.04H132.676V317H129.412ZM139.778 317L135.074 304.04H138.338L141.41 313.016L144.482 304.04H147.746L143.042 317H139.778ZM150.154 302.24V299.36H153.418V302.24H150.154ZM150.154 317V304.04H153.418V317H150.154ZM164.792 317C163.896 317.168 163.016 317.24 162.152 317.216C161.296 317.2 160.528 317.052 159.848 316.772C159.176 316.484 158.664 316.024 158.312 315.392C157.992 314.8 157.824 314.2 157.808 313.592C157.792 312.976 157.784 312.28 157.784 311.504V300.44H161.048V311.312C161.048 311.816 161.052 312.272 161.06 312.68C161.076 313.08 161.16 313.4 161.312 313.64C161.6 314.096 162.06 314.344 162.692 314.384C163.324 314.424 164.024 314.392 164.792 314.288V317ZM155.576 306.56V304.04H164.792V306.56H155.576ZM168.984 322.76L171.48 315.896L171.528 317.912L165.888 304.04H169.272L173.064 313.856H172.296L176.064 304.04H179.328L172.008 322.76H168.984Z" fill="url(#paint2_radial_2303_2736)"/>
<path d="M26.12 356V344.48H33.32V345.608H27.296V349.592H32.36V350.72H27.296V354.872H33.32V356H26.12ZM45.549 356L45.557 350.328C45.557 349.661 45.3703 349.139 44.997 348.76C44.629 348.376 44.1597 348.184 43.589 348.184C43.2637 348.184 42.9463 348.259 42.637 348.408C42.3277 348.557 42.0717 348.797 41.869 349.128C41.6717 349.459 41.573 349.891 41.573 350.424L40.877 350.224C40.861 349.605 40.981 349.064 41.237 348.6C41.4983 348.136 41.8557 347.776 42.309 347.52C42.7677 347.259 43.285 347.128 43.861 347.128C44.7303 347.128 45.4263 347.397 45.949 347.936C46.4717 348.469 46.733 349.192 46.733 350.104L46.725 356H45.549ZM35.237 356V347.36H36.293V349.488H36.421V356H35.237ZM40.405 356L40.413 350.408C40.413 349.72 40.229 349.179 39.861 348.784C39.4983 348.384 39.0183 348.184 38.421 348.184C37.8237 348.184 37.341 348.389 36.973 348.8C36.605 349.205 36.421 349.747 36.421 350.424L35.717 350.04C35.717 349.485 35.8477 348.989 36.109 348.552C36.3703 348.109 36.7277 347.763 37.181 347.512C37.6343 347.256 38.149 347.128 38.725 347.128C39.2743 347.128 39.7623 347.245 40.189 347.48C40.621 347.715 40.9597 348.056 41.205 348.504C41.4503 348.952 41.573 349.496 41.573 350.136L41.565 356H40.405ZM52.6875 356.24C51.8928 356.24 51.2208 356.04 50.6715 355.64C50.1222 355.235 49.7062 354.688 49.4235 354C49.1408 353.307 48.9995 352.531 48.9995 351.672C48.9995 350.797 49.1408 350.019 49.4235 349.336C49.7115 348.648 50.1328 348.107 50.6875 347.712C51.2422 347.317 51.9248 347.12 52.7355 347.12C53.5248 347.12 54.2022 347.32 54.7675 347.72C55.3328 348.12 55.7648 348.664 56.0635 349.352C56.3675 350.04 56.5195 350.813 56.5195 351.672C56.5195 352.536 56.3675 353.312 56.0635 354C55.7595 354.688 55.3222 355.235 54.7515 355.64C54.1808 356.04 53.4928 356.24 52.6875 356.24ZM48.7995 356V344.48H49.9835V349.496H49.8555V356H48.7995ZM52.5675 355.144C53.1702 355.144 53.6715 354.992 54.0715 354.688C54.4715 354.384 54.7702 353.971 54.9675 353.448C55.1702 352.92 55.2715 352.328 55.2715 351.672C55.2715 351.021 55.1728 350.435 54.9755 349.912C54.7782 349.389 54.4768 348.976 54.0715 348.672C53.6715 348.368 53.1622 348.216 52.5435 348.216C51.9408 348.216 51.4395 348.363 51.0395 348.656C50.6448 348.949 50.3488 349.357 50.1515 349.88C49.9542 350.397 49.8555 350.995 49.8555 351.672C49.8555 352.339 49.9542 352.936 50.1515 353.464C50.3488 353.987 50.6475 354.397 51.0475 354.696C51.4475 354.995 51.9542 355.144 52.5675 355.144ZM61.9323 356.24C61.0896 356.24 60.3589 356.053 59.7403 355.68C59.1269 355.307 58.6496 354.781 58.3083 354.104C57.9669 353.427 57.7963 352.632 57.7963 351.72C57.7963 350.776 57.9643 349.96 58.3003 349.272C58.6363 348.584 59.1083 348.053 59.7163 347.68C60.3296 347.307 61.0523 347.12 61.8843 347.12C62.7376 347.12 63.4656 347.317 64.0683 347.712C64.6709 348.101 65.1269 348.661 65.4363 349.392C65.7456 350.123 65.8869 350.995 65.8603 352.008H64.6603V351.592C64.6389 350.472 64.3963 349.627 63.9323 349.056C63.4736 348.485 62.8016 348.2 61.9163 348.2C60.9883 348.2 60.2763 348.501 59.7803 349.104C59.2896 349.707 59.0443 350.565 59.0443 351.68C59.0443 352.768 59.2896 353.613 59.7803 354.216C60.2763 354.813 60.9776 355.112 61.8843 355.112C62.5029 355.112 63.0416 354.971 63.5003 354.688C63.9643 354.4 64.3296 353.987 64.5963 353.448L65.6923 353.872C65.3509 354.624 64.8469 355.208 64.1803 355.624C63.5189 356.035 62.7696 356.24 61.9323 356.24ZM58.6283 352.008V351.024H65.2283V352.008H58.6283ZM70.9876 356.24C70.1823 356.24 69.4943 356.04 68.9236 355.64C68.353 355.235 67.9156 354.688 67.6116 354C67.3076 353.312 67.1556 352.536 67.1556 351.672C67.1556 350.813 67.305 350.04 67.6036 349.352C67.9076 348.664 68.3423 348.12 68.9076 347.72C69.473 347.32 70.1503 347.12 70.9396 347.12C71.7503 347.12 72.433 347.317 72.9876 347.712C73.5423 348.107 73.961 348.648 74.2436 349.336C74.5316 350.019 74.6756 350.797 74.6756 351.672C74.6756 352.531 74.5343 353.307 74.2516 354C73.969 354.688 73.553 355.235 73.0036 355.64C72.4543 356.04 71.7823 356.24 70.9876 356.24ZM71.1076 355.144C71.721 355.144 72.2276 354.995 72.6276 354.696C73.0276 354.397 73.3263 353.987 73.5236 353.464C73.721 352.936 73.8196 352.339 73.8196 351.672C73.8196 350.995 73.721 350.397 73.5236 349.88C73.3263 349.357 73.0276 348.949 72.6276 348.656C72.233 348.363 71.7343 348.216 71.1316 348.216C70.513 348.216 70.001 348.368 69.5956 348.672C69.1903 348.976 68.889 349.389 68.6916 349.912C68.4996 350.435 68.4036 351.021 68.4036 351.672C68.4036 352.328 68.5023 352.92 68.6996 353.448C68.9023 353.971 69.2036 354.384 69.6036 354.688C70.0036 354.992 70.505 355.144 71.1076 355.144ZM73.8196 356V349.496H73.6916V344.48H74.8756V356H73.8196ZM83.5471 356.232C82.5338 356.232 81.6991 356.013 81.0431 355.576C80.3925 355.139 79.9925 354.531 79.8431 353.752L81.0431 353.552C81.1711 354.043 81.4618 354.435 81.9151 354.728C82.3738 355.016 82.9391 355.16 83.6111 355.16C84.2671 355.16 84.7845 355.024 85.1631 354.752C85.5418 354.475 85.7311 354.099 85.7311 353.624C85.7311 353.357 85.6698 353.141 85.5471 352.976C85.4298 352.805 85.1871 352.648 84.8191 352.504C84.4511 352.36 83.9018 352.189 83.1711 351.992C82.3871 351.779 81.7738 351.565 81.3311 351.352C80.8885 351.139 80.5738 350.893 80.3871 350.616C80.2005 350.333 80.1071 349.989 80.1071 349.584C80.1071 349.093 80.2458 348.664 80.5231 348.296C80.8005 347.923 81.1845 347.635 81.6751 347.432C82.1658 347.224 82.7365 347.12 83.3871 347.12C84.0378 347.12 84.6191 347.227 85.1311 347.44C85.6485 347.648 86.0645 347.941 86.3791 348.32C86.6938 348.699 86.8805 349.139 86.9391 349.64L85.7391 349.856C85.6591 349.349 85.4058 348.949 84.9791 348.656C84.5578 348.357 84.0218 348.203 83.3711 348.192C82.7578 348.176 82.2591 348.293 81.8751 348.544C81.4911 348.789 81.2991 349.117 81.2991 349.528C81.2991 349.757 81.3685 349.955 81.5071 350.12C81.6458 350.28 81.8965 350.432 82.2591 350.576C82.6271 350.72 83.1498 350.877 83.8271 351.048C84.6218 351.251 85.2458 351.464 85.6991 351.688C86.1525 351.912 86.4751 352.176 86.6671 352.48C86.8591 352.784 86.9551 353.16 86.9551 353.608C86.9551 354.424 86.6511 355.067 86.0431 355.536C85.4405 356 84.6085 356.232 83.5471 356.232ZM92.3854 356.24C91.5427 356.24 90.812 356.053 90.1934 355.68C89.58 355.307 89.1027 354.781 88.7614 354.104C88.42 353.427 88.2494 352.632 88.2494 351.72C88.2494 350.776 88.4174 349.96 88.7534 349.272C89.0894 348.584 89.5614 348.053 90.1694 347.68C90.7827 347.307 91.5054 347.12 92.3374 347.12C93.1907 347.12 93.9187 347.317 94.5214 347.712C95.124 348.101 95.58 348.661 95.8894 349.392C96.1987 350.123 96.34 350.995 96.3134 352.008H95.1134V351.592C95.092 350.472 94.8494 349.627 94.3854 349.056C93.9267 348.485 93.2547 348.2 92.3694 348.2C91.4414 348.2 90.7294 348.501 90.2334 349.104C89.7427 349.707 89.4974 350.565 89.4974 351.68C89.4974 352.768 89.7427 353.613 90.2334 354.216C90.7294 354.813 91.4307 355.112 92.3374 355.112C92.956 355.112 93.4947 354.971 93.9534 354.688C94.4174 354.4 94.7827 353.987 95.0494 353.448L96.1454 353.872C95.804 354.624 95.3 355.208 94.6334 355.624C93.972 356.035 93.2227 356.24 92.3854 356.24ZM89.0814 352.008V351.024H95.6814V352.008H89.0814ZM100.405 356.24C99.7538 356.24 99.2072 356.123 98.7645 355.888C98.3272 355.653 97.9992 355.341 97.7805 354.952C97.5618 354.563 97.4525 354.139 97.4525 353.68C97.4525 353.211 97.5458 352.811 97.7325 352.48C97.9245 352.144 98.1832 351.869 98.5085 351.656C98.8392 351.443 99.2205 351.28 99.6525 351.168C100.09 351.061 100.573 350.968 101.101 350.888C101.634 350.803 102.154 350.731 102.661 350.672C103.173 350.608 103.621 350.547 104.005 350.488L103.589 350.744C103.605 349.891 103.439 349.259 103.093 348.848C102.746 348.437 102.143 348.232 101.285 348.232C100.693 348.232 100.191 348.365 99.7805 348.632C99.3752 348.899 99.0898 349.32 98.9245 349.896L97.7805 349.56C97.9778 348.787 98.3752 348.187 98.9725 347.76C99.5698 347.333 100.346 347.12 101.301 347.12C102.09 347.12 102.759 347.269 103.309 347.568C103.863 347.861 104.255 348.288 104.485 348.848C104.591 349.099 104.661 349.379 104.693 349.688C104.725 349.997 104.741 350.312 104.741 350.632V356H103.693V353.832L103.997 353.96C103.703 354.701 103.247 355.267 102.629 355.656C102.01 356.045 101.269 356.24 100.405 356.24ZM100.541 355.224C101.09 355.224 101.57 355.125 101.981 354.928C102.391 354.731 102.722 354.461 102.973 354.12C103.223 353.773 103.386 353.384 103.461 352.952C103.525 352.675 103.559 352.371 103.565 352.04C103.57 351.704 103.573 351.453 103.573 351.288L104.021 351.52C103.621 351.573 103.186 351.627 102.717 351.68C102.253 351.733 101.794 351.795 101.341 351.864C100.893 351.933 100.487 352.016 100.125 352.112C99.8792 352.181 99.6418 352.28 99.4125 352.408C99.1832 352.531 98.9938 352.696 98.8445 352.904C98.7005 353.112 98.6285 353.371 98.6285 353.68C98.6285 353.931 98.6898 354.173 98.8125 354.408C98.9405 354.643 99.1432 354.837 99.4205 354.992C99.7032 355.147 100.077 355.224 100.541 355.224ZM117.127 356L117.135 350.328C117.135 349.661 116.948 349.139 116.575 348.76C116.207 348.376 115.738 348.184 115.167 348.184C114.842 348.184 114.524 348.259 114.215 348.408C113.906 348.557 113.65 348.797 113.447 349.128C113.25 349.459 113.151 349.891 113.151 350.424L112.455 350.224C112.439 349.605 112.559 349.064 112.815 348.6C113.076 348.136 113.434 347.776 113.887 347.52C114.346 347.259 114.863 347.128 115.439 347.128C116.308 347.128 117.004 347.397 117.527 347.936C118.05 348.469 118.311 349.192 118.311 350.104L118.303 356H117.127ZM106.815 356V347.36H107.871V349.488H107.999V356H106.815ZM111.983 356L111.991 350.408C111.991 349.72 111.807 349.179 111.439 348.784C111.076 348.384 110.596 348.184 109.999 348.184C109.402 348.184 108.919 348.389 108.551 348.8C108.183 349.205 107.999 349.747 107.999 350.424L107.295 350.04C107.295 349.485 107.426 348.989 107.687 348.552C107.948 348.109 108.306 347.763 108.759 347.512C109.212 347.256 109.727 347.128 110.303 347.128C110.852 347.128 111.34 347.245 111.767 347.48C112.199 347.715 112.538 348.056 112.783 348.504C113.028 348.952 113.151 349.496 113.151 350.136L113.143 356H111.983ZM120.546 356V344.24H121.722V356H120.546ZM127.776 356.24C126.933 356.24 126.203 356.053 125.584 355.68C124.971 355.307 124.493 354.781 124.152 354.104C123.811 353.427 123.64 352.632 123.64 351.72C123.64 350.776 123.808 349.96 124.144 349.272C124.48 348.584 124.952 348.053 125.56 347.68C126.173 347.307 126.896 347.12 127.728 347.12C128.581 347.12 129.309 347.317 129.912 347.712C130.515 348.101 130.971 348.661 131.28 349.392C131.589 350.123 131.731 350.995 131.704 352.008H130.504V351.592C130.483 350.472 130.24 349.627 129.776 349.056C129.317 348.485 128.645 348.2 127.76 348.2C126.832 348.2 126.12 348.501 125.624 349.104C125.133 349.707 124.888 350.565 124.888 351.68C124.888 352.768 125.133 353.613 125.624 354.216C126.12 354.813 126.821 355.112 127.728 355.112C128.347 355.112 128.885 354.971 129.344 354.688C129.808 354.4 130.173 353.987 130.44 353.448L131.536 353.872C131.195 354.624 130.691 355.208 130.024 355.624C129.363 356.035 128.613 356.24 127.776 356.24ZM124.472 352.008V351.024H131.072V352.008H124.472ZM136.703 356.232C135.69 356.232 134.855 356.013 134.199 355.576C133.549 355.139 133.149 354.531 132.999 353.752L134.199 353.552C134.327 354.043 134.618 354.435 135.071 354.728C135.53 355.016 136.095 355.16 136.767 355.16C137.423 355.16 137.941 355.024 138.319 354.752C138.698 354.475 138.887 354.099 138.887 353.624C138.887 353.357 138.826 353.141 138.703 352.976C138.586 352.805 138.343 352.648 137.975 352.504C137.607 352.36 137.058 352.189 136.327 351.992C135.543 351.779 134.93 351.565 134.487 351.352C134.045 351.139 133.73 350.893 133.543 350.616C133.357 350.333 133.263 349.989 133.263 349.584C133.263 349.093 133.402 348.664 133.679 348.296C133.957 347.923 134.341 347.635 134.831 347.432C135.322 347.224 135.893 347.12 136.543 347.12C137.194 347.12 137.775 347.227 138.287 347.44C138.805 347.648 139.221 347.941 139.535 348.32C139.85 348.699 140.037 349.139 140.095 349.64L138.895 349.856C138.815 349.349 138.562 348.949 138.135 348.656C137.714 348.357 137.178 348.203 136.527 348.192C135.914 348.176 135.415 348.293 135.031 348.544C134.647 348.789 134.455 349.117 134.455 349.528C134.455 349.757 134.525 349.955 134.663 350.12C134.802 350.28 135.053 350.432 135.415 350.576C135.783 350.72 136.306 350.877 136.983 351.048C137.778 351.251 138.402 351.464 138.855 351.688C139.309 351.912 139.631 352.176 139.823 352.48C140.015 352.784 140.111 353.16 140.111 353.608C140.111 354.424 139.807 355.067 139.199 355.536C138.597 356 137.765 356.232 136.703 356.232ZM145.11 356.232C144.096 356.232 143.262 356.013 142.606 355.576C141.955 355.139 141.555 354.531 141.406 353.752L142.606 353.552C142.734 354.043 143.024 354.435 143.478 354.728C143.936 355.016 144.502 355.16 145.174 355.16C145.83 355.16 146.347 355.024 146.726 354.752C147.104 354.475 147.294 354.099 147.294 353.624C147.294 353.357 147.232 353.141 147.11 352.976C146.992 352.805 146.75 352.648 146.382 352.504C146.014 352.36 145.464 352.189 144.734 351.992C143.95 351.779 143.336 351.565 142.894 351.352C142.451 351.139 142.136 350.893 141.95 350.616C141.763 350.333 141.67 349.989 141.67 349.584C141.67 349.093 141.808 348.664 142.086 348.296C142.363 347.923 142.747 347.635 143.238 347.432C143.728 347.224 144.299 347.12 144.95 347.12C145.6 347.12 146.182 347.227 146.694 347.44C147.211 347.648 147.627 347.941 147.942 348.32C148.256 348.699 148.443 349.139 148.502 349.64L147.302 349.856C147.222 349.349 146.968 348.949 146.542 348.656C146.12 348.357 145.584 348.203 144.934 348.192C144.32 348.176 143.822 348.293 143.438 348.544C143.054 348.789 142.862 349.117 142.862 349.528C142.862 349.757 142.931 349.955 143.07 350.12C143.208 350.28 143.459 350.432 143.822 350.576C144.19 350.72 144.712 350.877 145.39 351.048C146.184 351.251 146.808 351.464 147.262 351.688C147.715 351.912 148.038 352.176 148.23 352.48C148.422 352.784 148.518 353.16 148.518 353.608C148.518 354.424 148.214 355.067 147.606 355.536C147.003 356 146.171 356.232 145.11 356.232ZM157.375 356.24C156.58 356.24 155.908 356.04 155.359 355.64C154.81 355.235 154.394 354.688 154.111 354C153.828 353.307 153.687 352.531 153.687 351.672C153.687 350.797 153.828 350.019 154.111 349.336C154.399 348.648 154.82 348.107 155.375 347.712C155.93 347.317 156.612 347.12 157.423 347.12C158.212 347.12 158.89 347.32 159.455 347.72C160.02 348.12 160.452 348.664 160.751 349.352C161.055 350.04 161.207 350.813 161.207 351.672C161.207 352.536 161.055 353.312 160.751 354C160.447 354.688 160.01 355.235 159.439 355.64C158.868 356.04 158.18 356.24 157.375 356.24ZM153.487 359.84V347.36H154.543V353.864H154.671V359.84H153.487ZM157.255 355.144C157.858 355.144 158.359 354.992 158.759 354.688C159.159 354.384 159.458 353.971 159.655 353.448C159.858 352.92 159.959 352.328 159.959 351.672C159.959 351.021 159.86 350.435 159.663 349.912C159.466 349.389 159.164 348.976 158.759 348.672C158.359 348.368 157.85 348.216 157.231 348.216C156.628 348.216 156.127 348.363 155.727 348.656C155.332 348.949 155.036 349.357 154.839 349.88C154.642 350.397 154.543 350.995 154.543 351.672C154.543 352.339 154.642 352.936 154.839 353.464C155.036 353.987 155.335 354.397 155.735 354.696C156.135 354.995 156.642 355.144 157.255 355.144ZM165.436 356.24C164.785 356.24 164.238 356.123 163.796 355.888C163.358 355.653 163.03 355.341 162.812 354.952C162.593 354.563 162.484 354.139 162.484 353.68C162.484 353.211 162.577 352.811 162.764 352.48C162.956 352.144 163.214 351.869 163.54 351.656C163.87 351.443 164.252 351.28 164.684 351.168C165.121 351.061 165.604 350.968 166.132 350.888C166.665 350.803 167.185 350.731 167.692 350.672C168.204 350.608 168.652 350.547 169.036 350.488L168.62 350.744C168.636 349.891 168.47 349.259 168.124 348.848C167.777 348.437 167.174 348.232 166.316 348.232C165.724 348.232 165.222 348.365 164.812 348.632C164.406 348.899 164.121 349.32 163.956 349.896L162.812 349.56C163.009 348.787 163.406 348.187 164.004 347.76C164.601 347.333 165.377 347.12 166.332 347.12C167.121 347.12 167.79 347.269 168.34 347.568C168.894 347.861 169.286 348.288 169.516 348.848C169.622 349.099 169.692 349.379 169.724 349.688C169.756 349.997 169.772 350.312 169.772 350.632V356H168.724V353.832L169.028 353.96C168.734 354.701 168.278 355.267 167.66 355.656C167.041 356.045 166.3 356.24 165.436 356.24ZM165.572 355.224C166.121 355.224 166.601 355.125 167.012 354.928C167.422 354.731 167.753 354.461 168.004 354.12C168.254 353.773 168.417 353.384 168.492 352.952C168.556 352.675 168.59 352.371 168.596 352.04C168.601 351.704 168.604 351.453 168.604 351.288L169.052 351.52C168.652 351.573 168.217 351.627 167.748 351.68C167.284 351.733 166.825 351.795 166.372 351.864C165.924 351.933 165.518 352.016 165.156 352.112C164.91 352.181 164.673 352.28 164.444 352.408C164.214 352.531 164.025 352.696 163.876 352.904C163.732 353.112 163.66 353.371 163.66 353.68C163.66 353.931 163.721 354.173 163.844 354.408C163.972 354.643 164.174 354.837 164.452 354.992C164.734 355.147 165.108 355.224 165.572 355.224ZM172.602 359.84L174.274 355.304L174.298 356.648L170.514 347.36H171.762L174.866 355.128H174.354L177.218 347.36H178.418L173.778 359.84H172.602ZM190.112 356L190.12 350.328C190.12 349.661 189.933 349.139 189.56 348.76C189.192 348.376 188.722 348.184 188.152 348.184C187.826 348.184 187.509 348.259 187.2 348.408C186.89 348.557 186.634 348.797 186.432 349.128C186.234 349.459 186.136 349.891 186.136 350.424L185.44 350.224C185.424 349.605 185.544 349.064 185.8 348.6C186.061 348.136 186.418 347.776 186.872 347.52C187.33 347.259 187.848 347.128 188.424 347.128C189.293 347.128 189.989 347.397 190.512 347.936C191.034 348.469 191.296 349.192 191.296 350.104L191.288 356H190.112ZM179.8 356V347.36H180.856V349.488H180.984V356H179.8ZM184.968 356L184.976 350.408C184.976 349.72 184.792 349.179 184.424 348.784C184.061 348.384 183.581 348.184 182.984 348.184C182.386 348.184 181.904 348.389 181.536 348.8C181.168 349.205 180.984 349.747 180.984 350.424L180.28 350.04C180.28 349.485 180.41 348.989 180.672 348.552C180.933 348.109 181.29 347.763 181.744 347.512C182.197 347.256 182.712 347.128 183.288 347.128C183.837 347.128 184.325 347.245 184.752 347.48C185.184 347.715 185.522 348.056 185.768 348.504C186.013 348.952 186.136 349.496 186.136 350.136L186.128 356H184.968ZM196.979 356.24C196.136 356.24 195.406 356.053 194.787 355.68C194.174 355.307 193.696 354.781 193.355 354.104C193.014 353.427 192.843 352.632 192.843 351.72C192.843 350.776 193.011 349.96 193.347 349.272C193.683 348.584 194.155 348.053 194.763 347.68C195.376 347.307 196.099 347.12 196.931 347.12C197.784 347.12 198.512 347.317 199.115 347.712C199.718 348.101 200.174 348.661 200.483 349.392C200.792 350.123 200.934 350.995 200.907 352.008H199.707V351.592C199.686 350.472 199.443 349.627 198.979 349.056C198.52 348.485 197.848 348.2 196.963 348.2C196.035 348.2 195.323 348.501 194.827 349.104C194.336 349.707 194.091 350.565 194.091 351.68C194.091 352.768 194.336 353.613 194.827 354.216C195.323 354.813 196.024 355.112 196.931 355.112C197.55 355.112 198.088 354.971 198.547 354.688C199.011 354.4 199.376 353.987 199.643 353.448L200.739 353.872C200.398 354.624 199.894 355.208 199.227 355.624C198.566 356.035 197.816 356.24 196.979 356.24ZM193.675 352.008V351.024H200.275V352.008H193.675ZM208.688 356V351.592C208.688 351.112 208.643 350.672 208.552 350.272C208.461 349.867 208.315 349.515 208.112 349.216C207.915 348.912 207.656 348.677 207.336 348.512C207.021 348.347 206.637 348.264 206.184 348.264C205.768 348.264 205.4 348.336 205.08 348.48C204.765 348.624 204.499 348.832 204.28 349.104C204.067 349.371 203.904 349.696 203.792 350.08C203.68 350.464 203.624 350.901 203.624 351.392L202.792 351.208C202.792 350.323 202.947 349.579 203.256 348.976C203.565 348.373 203.992 347.917 204.536 347.608C205.08 347.299 205.704 347.144 206.408 347.144C206.925 347.144 207.376 347.224 207.76 347.384C208.149 347.544 208.477 347.76 208.744 348.032C209.016 348.304 209.235 348.616 209.4 348.968C209.565 349.315 209.685 349.685 209.76 350.08C209.835 350.469 209.872 350.859 209.872 351.248V356H208.688ZM202.44 356V347.36H203.504V349.488H203.624V356H202.44ZM216.652 356C216.167 356.101 215.687 356.141 215.212 356.12C214.743 356.099 214.321 355.997 213.948 355.816C213.58 355.635 213.3 355.352 213.108 354.968C212.953 354.648 212.868 354.325 212.852 354C212.841 353.669 212.836 353.293 212.836 352.872V344.96H214.004V352.824C214.004 353.187 214.007 353.491 214.012 353.736C214.023 353.976 214.079 354.189 214.18 354.376C214.372 354.733 214.676 354.947 215.092 355.016C215.513 355.085 216.033 355.069 216.652 354.968V356ZM210.988 348.368V347.36H216.652V348.368H210.988ZM221.578 356.232C220.565 356.232 219.73 356.013 219.074 355.576C218.424 355.139 218.024 354.531 217.874 353.752L219.074 353.552C219.202 354.043 219.493 354.435 219.946 354.728C220.405 355.016 220.97 355.16 221.642 355.16C222.298 355.16 222.816 355.024 223.194 354.752C223.573 354.475 223.762 354.099 223.762 353.624C223.762 353.357 223.701 353.141 223.578 352.976C223.461 352.805 223.218 352.648 222.85 352.504C222.482 352.36 221.933 352.189 221.202 351.992C220.418 351.779 219.805 351.565 219.362 351.352C218.92 351.139 218.605 350.893 218.418 350.616C218.232 350.333 218.138 349.989 218.138 349.584C218.138 349.093 218.277 348.664 218.554 348.296C218.832 347.923 219.216 347.635 219.706 347.432C220.197 347.224 220.768 347.12 221.418 347.12C222.069 347.12 222.65 347.227 223.162 347.44C223.68 347.648 224.096 347.941 224.41 348.32C224.725 348.699 224.912 349.139 224.97 349.64L223.77 349.856C223.69 349.349 223.437 348.949 223.01 348.656C222.589 348.357 222.053 348.203 221.402 348.192C220.789 348.176 220.29 348.293 219.906 348.544C219.522 348.789 219.33 349.117 219.33 349.528C219.33 349.757 219.4 349.955 219.538 350.12C219.677 350.28 219.928 350.432 220.29 350.576C220.658 350.72 221.181 350.877 221.858 351.048C222.653 351.251 223.277 351.464 223.73 351.688C224.184 351.912 224.506 352.176 224.698 352.48C224.89 352.784 224.986 353.16 224.986 353.608C224.986 354.424 224.682 355.067 224.074 355.536C223.472 356 222.64 356.232 221.578 356.232ZM232.436 356.24C231.785 356.24 231.238 356.123 230.796 355.888C230.358 355.653 230.03 355.341 229.812 354.952C229.593 354.563 229.484 354.139 229.484 353.68C229.484 353.211 229.577 352.811 229.764 352.48C229.956 352.144 230.214 351.869 230.54 351.656C230.87 351.443 231.252 351.28 231.684 351.168C232.121 351.061 232.604 350.968 233.132 350.888C233.665 350.803 234.185 350.731 234.692 350.672C235.204 350.608 235.652 350.547 236.036 350.488L235.62 350.744C235.636 349.891 235.47 349.259 235.124 348.848C234.777 348.437 234.174 348.232 233.316 348.232C232.724 348.232 232.222 348.365 231.812 348.632C231.406 348.899 231.121 349.32 230.956 349.896L229.812 349.56C230.009 348.787 230.406 348.187 231.004 347.76C231.601 347.333 232.377 347.12 233.332 347.12C234.121 347.12 234.79 347.269 235.34 347.568C235.894 347.861 236.286 348.288 236.516 348.848C236.622 349.099 236.692 349.379 236.724 349.688C236.756 349.997 236.772 350.312 236.772 350.632V356H235.724V353.832L236.028 353.96C235.734 354.701 235.278 355.267 234.66 355.656C234.041 356.045 233.3 356.24 232.436 356.24ZM232.572 355.224C233.121 355.224 233.601 355.125 234.012 354.928C234.422 354.731 234.753 354.461 235.004 354.12C235.254 353.773 235.417 353.384 235.492 352.952C235.556 352.675 235.59 352.371 235.596 352.04C235.601 351.704 235.604 351.453 235.604 351.288L236.052 351.52C235.652 351.573 235.217 351.627 234.748 351.68C234.284 351.733 233.825 351.795 233.372 351.864C232.924 351.933 232.518 352.016 232.156 352.112C231.91 352.181 231.673 352.28 231.444 352.408C231.214 352.531 231.025 352.696 230.876 352.904C230.732 353.112 230.66 353.371 230.66 353.68C230.66 353.931 230.721 354.173 230.844 354.408C230.972 354.643 231.174 354.837 231.452 354.992C231.734 355.147 232.108 355.224 232.572 355.224ZM245.094 356V351.592C245.094 351.112 245.049 350.672 244.958 350.272C244.868 349.867 244.721 349.515 244.518 349.216C244.321 348.912 244.062 348.677 243.742 348.512C243.428 348.347 243.044 348.264 242.59 348.264C242.174 348.264 241.806 348.336 241.486 348.48C241.172 348.624 240.905 348.832 240.686 349.104C240.473 349.371 240.31 349.696 240.198 350.08C240.086 350.464 240.03 350.901 240.03 351.392L239.198 351.208C239.198 350.323 239.353 349.579 239.662 348.976C239.972 348.373 240.398 347.917 240.942 347.608C241.486 347.299 242.11 347.144 242.814 347.144C243.332 347.144 243.782 347.224 244.166 347.384C244.556 347.544 244.884 347.76 245.15 348.032C245.422 348.304 245.641 348.616 245.806 348.968C245.972 349.315 246.092 349.685 246.166 350.08C246.241 350.469 246.278 350.859 246.278 351.248V356H245.094ZM238.846 356V347.36H239.91V349.488H240.03V356H238.846ZM251.66 356.24C250.854 356.24 250.166 356.04 249.596 355.64C249.025 355.235 248.588 354.688 248.284 354C247.98 353.312 247.828 352.536 247.828 351.672C247.828 350.813 247.977 350.04 248.276 349.352C248.58 348.664 249.014 348.12 249.58 347.72C250.145 347.32 250.822 347.12 251.612 347.12C252.422 347.12 253.105 347.317 253.66 347.712C254.214 348.107 254.633 348.648 254.916 349.336C255.204 350.019 255.348 350.797 255.348 351.672C255.348 352.531 255.206 353.307 254.924 354C254.641 354.688 254.225 355.235 253.676 355.64C253.126 356.04 252.454 356.24 251.66 356.24ZM251.78 355.144C252.393 355.144 252.9 354.995 253.3 354.696C253.7 354.397 253.998 353.987 254.196 353.464C254.393 352.936 254.492 352.339 254.492 351.672C254.492 350.995 254.393 350.397 254.196 349.88C253.998 349.357 253.7 348.949 253.3 348.656C252.905 348.363 252.406 348.216 251.804 348.216C251.185 348.216 250.673 348.368 250.268 348.672C249.862 348.976 249.561 349.389 249.364 349.912C249.172 350.435 249.076 351.021 249.076 351.672C249.076 352.328 249.174 352.92 249.372 353.448C249.574 353.971 249.876 354.384 250.276 354.688C250.676 354.992 251.177 355.144 251.78 355.144ZM254.492 356V349.496H254.364V344.48H255.548V356H254.492ZM29.704 380.24C28.8347 380.24 28.0987 380.045 27.496 379.656C26.8933 379.267 26.4347 378.731 26.12 378.048C25.8107 377.36 25.6507 376.571 25.64 375.68C25.6507 374.773 25.816 373.979 26.136 373.296C26.456 372.608 26.9173 372.075 27.52 371.696C28.1227 371.312 28.8533 371.12 29.712 371.12C30.5867 371.12 31.3467 371.333 31.992 371.76C32.6427 372.187 33.088 372.771 33.328 373.512L32.176 373.88C31.9733 373.363 31.6507 372.963 31.208 372.68C30.7707 372.392 30.2693 372.248 29.704 372.248C29.0693 372.248 28.544 372.395 28.128 372.688C27.712 372.976 27.4027 373.379 27.2 373.896C26.9973 374.413 26.8933 375.008 26.888 375.68C26.8987 376.715 27.1387 377.547 27.608 378.176C28.0773 378.8 28.776 379.112 29.704 379.112C30.2907 379.112 30.7893 378.979 31.2 378.712C31.616 378.44 31.9307 378.045 32.144 377.528L33.328 377.88C33.008 378.648 32.5387 379.235 31.92 379.64C31.3013 380.04 30.5627 380.24 29.704 380.24ZM38.353 380.24C37.4943 380.24 36.761 380.045 36.153 379.656C35.545 379.267 35.0783 378.728 34.753 378.04C34.4277 377.352 34.265 376.563 34.265 375.672C34.265 374.765 34.4303 373.971 34.761 373.288C35.0917 372.605 35.561 372.075 36.169 371.696C36.7823 371.312 37.5103 371.12 38.353 371.12C39.217 371.12 39.953 371.315 40.561 371.704C41.1743 372.088 41.641 372.624 41.961 373.312C42.2863 373.995 42.449 374.781 42.449 375.672C42.449 376.579 42.2863 377.376 41.961 378.064C41.6357 378.747 41.1663 379.28 40.553 379.664C39.9397 380.048 39.2063 380.24 38.353 380.24ZM38.353 379.112C39.313 379.112 40.0277 378.795 40.497 378.16C40.9663 377.52 41.201 376.691 41.201 375.672C41.201 374.627 40.9637 373.795 40.489 373.176C40.0197 372.557 39.3077 372.248 38.353 372.248C37.7077 372.248 37.1743 372.395 36.753 372.688C36.337 372.976 36.025 373.379 35.817 373.896C35.6143 374.408 35.513 375 35.513 375.672C35.513 376.712 35.753 377.547 36.233 378.176C36.713 378.8 37.4197 379.112 38.353 379.112ZM50.4538 380V375.592C50.4538 375.112 50.4084 374.672 50.3178 374.272C50.2271 373.867 50.0804 373.515 49.8778 373.216C49.6804 372.912 49.4218 372.677 49.1018 372.512C48.7871 372.347 48.4031 372.264 47.9498 372.264C47.5338 372.264 47.1658 372.336 46.8458 372.48C46.5311 372.624 46.2644 372.832 46.0458 373.104C45.8324 373.371 45.6698 373.696 45.5578 374.08C45.4458 374.464 45.3898 374.901 45.3898 375.392L44.5578 375.208C44.5578 374.323 44.7124 373.579 45.0218 372.976C45.3311 372.373 45.7578 371.917 46.3018 371.608C46.8458 371.299 47.4698 371.144 48.1738 371.144C48.6911 371.144 49.1418 371.224 49.5258 371.384C49.9151 371.544 50.2431 371.76 50.5098 372.032C50.7818 372.304 51.0004 372.616 51.1658 372.968C51.3311 373.315 51.4511 373.685 51.5258 374.08C51.6004 374.469 51.6378 374.859 51.6378 375.248V380H50.4538ZM44.2058 380V371.36H45.2698V373.488H45.3898V380H44.2058ZM59.9538 380V375.592C59.9538 375.112 59.9084 374.672 59.8178 374.272C59.7271 373.867 59.5804 373.515 59.3778 373.216C59.1804 372.912 58.9218 372.677 58.6018 372.512C58.2871 372.347 57.9031 372.264 57.4498 372.264C57.0338 372.264 56.6658 372.336 56.3458 372.48C56.0311 372.624 55.7644 372.832 55.5458 373.104C55.3324 373.371 55.1698 373.696 55.0578 374.08C54.9458 374.464 54.8898 374.901 54.8898 375.392L54.0578 375.208C54.0578 374.323 54.2124 373.579 54.5218 372.976C54.8311 372.373 55.2578 371.917 55.8018 371.608C56.3458 371.299 56.9698 371.144 57.6738 371.144C58.1911 371.144 58.6418 371.224 59.0258 371.384C59.4151 371.544 59.7431 371.76 60.0098 372.032C60.2818 372.304 60.5004 372.616 60.6658 372.968C60.8311 373.315 60.9511 373.685 61.0258 374.08C61.1004 374.469 61.1378 374.859 61.1378 375.248V380H59.9538ZM53.7058 380V371.36H54.7698V373.488H54.8898V380H53.7058ZM66.8229 380.24C65.9802 380.24 65.2495 380.053 64.6309 379.68C64.0175 379.307 63.5402 378.781 63.1989 378.104C62.8575 377.427 62.6869 376.632 62.6869 375.72C62.6869 374.776 62.8549 373.96 63.1909 373.272C63.5269 372.584 63.9989 372.053 64.6069 371.68C65.2202 371.307 65.9429 371.12 66.7749 371.12C67.6282 371.12 68.3562 371.317 68.9589 371.712C69.5615 372.101 70.0175 372.661 70.3269 373.392C70.6362 374.123 70.7775 374.995 70.7509 376.008H69.5509V375.592C69.5295 374.472 69.2869 373.627 68.8229 373.056C68.3642 372.485 67.6922 372.2 66.8069 372.2C65.8789 372.2 65.1669 372.501 64.6709 373.104C64.1802 373.707 63.9349 374.565 63.9349 375.68C63.9349 376.768 64.1802 377.613 64.6709 378.216C65.1669 378.813 65.8682 379.112 66.7749 379.112C67.3935 379.112 67.9322 378.971 68.3909 378.688C68.8549 378.4 69.2202 377.987 69.4869 377.448L70.5829 377.872C70.2415 378.624 69.7375 379.208 69.0709 379.624C68.4095 380.035 67.6602 380.24 66.8229 380.24ZM63.5189 376.008V375.024H70.1189V376.008H63.5189ZM76.1102 380.24C75.2409 380.24 74.5049 380.045 73.9023 379.656C73.2996 379.267 72.8409 378.731 72.5263 378.048C72.2169 377.36 72.0569 376.571 72.0463 375.68C72.0569 374.773 72.2223 373.979 72.5423 373.296C72.8623 372.608 73.3236 372.075 73.9263 371.696C74.5289 371.312 75.2596 371.12 76.1183 371.12C76.9929 371.12 77.7529 371.333 78.3983 371.76C79.0489 372.187 79.4943 372.771 79.7343 373.512L78.5823 373.88C78.3796 373.363 78.0569 372.963 77.6143 372.68C77.1769 372.392 76.6756 372.248 76.1102 372.248C75.4756 372.248 74.9503 372.395 74.5343 372.688C74.1183 372.976 73.8089 373.379 73.6063 373.896C73.4036 374.413 73.2996 375.008 73.2943 375.68C73.3049 376.715 73.5449 377.547 74.0143 378.176C74.4836 378.8 75.1823 379.112 76.1102 379.112C76.6969 379.112 77.1956 378.979 77.6063 378.712C78.0223 378.44 78.3369 378.045 78.5503 377.528L79.7343 377.88C79.4143 378.648 78.9449 379.235 78.3263 379.64C77.7076 380.04 76.9689 380.24 76.1102 380.24ZM86.0896 380C85.6043 380.101 85.1243 380.141 84.6496 380.12C84.1803 380.099 83.759 379.997 83.3856 379.816C83.0176 379.635 82.7376 379.352 82.5456 378.968C82.391 378.648 82.3056 378.325 82.2896 378C82.279 377.669 82.2736 377.293 82.2736 376.872V368.96H83.4416V376.824C83.4416 377.187 83.4443 377.491 83.4496 377.736C83.4603 377.976 83.5163 378.189 83.6176 378.376C83.8096 378.733 84.1136 378.947 84.5296 379.016C84.951 379.085 85.471 379.069 86.0896 378.968V380ZM80.4256 372.368V371.36H86.0896V372.368H80.4256ZM87.9519 369.72V368.4H89.1279V369.72H87.9519ZM87.9519 380V371.36H89.1279V380H87.9519ZM93.8623 380L90.7263 371.36H91.9183L94.4703 378.464L97.0063 371.36H98.2143L95.0783 380H93.8623ZM99.8113 369.72V368.4H100.987V369.72H99.8113ZM99.8113 380V371.36H100.987V380H99.8113ZM108.09 380C107.604 380.101 107.124 380.141 106.65 380.12C106.18 380.099 105.759 379.997 105.386 379.816C105.018 379.635 104.738 379.352 104.546 378.968C104.391 378.648 104.306 378.325 104.29 378C104.279 377.669 104.274 377.293 104.274 376.872V368.96H105.442V376.824C105.442 377.187 105.444 377.491 105.45 377.736C105.46 377.976 105.516 378.189 105.618 378.376C105.81 378.733 106.114 378.947 106.53 379.016C106.951 379.085 107.471 379.069 108.09 378.968V380ZM102.426 372.368V371.36H108.09V372.368H102.426ZM110.789 383.84L112.462 379.304L112.486 380.648L108.701 371.36H109.95L113.054 379.128H112.542L115.406 371.36H116.606L111.966 383.84H110.789ZM125.902 380C125.417 380.101 124.937 380.141 124.462 380.12C123.993 380.099 123.571 379.997 123.198 379.816C122.83 379.635 122.55 379.352 122.358 378.968C122.203 378.648 122.118 378.325 122.102 378C122.091 377.669 122.086 377.293 122.086 376.872V368.96H123.254V376.824C123.254 377.187 123.257 377.491 123.262 377.736C123.273 377.976 123.329 378.189 123.43 378.376C123.622 378.733 123.926 378.947 124.342 379.016C124.763 379.085 125.283 379.069 125.902 378.968V380ZM120.238 372.368V371.36H125.902V372.368H120.238ZM130.9 380.24C130.041 380.24 129.308 380.045 128.7 379.656C128.092 379.267 127.625 378.728 127.3 378.04C126.975 377.352 126.812 376.563 126.812 375.672C126.812 374.765 126.977 373.971 127.308 373.288C127.639 372.605 128.108 372.075 128.716 371.696C129.329 371.312 130.057 371.12 130.9 371.12C131.764 371.12 132.5 371.315 133.108 371.704C133.721 372.088 134.188 372.624 134.508 373.312C134.833 373.995 134.996 374.781 134.996 375.672C134.996 376.579 134.833 377.376 134.508 378.064C134.183 378.747 133.713 379.28 133.1 379.664C132.487 380.048 131.753 380.24 130.9 380.24ZM130.9 379.112C131.86 379.112 132.575 378.795 133.044 378.16C133.513 377.52 133.748 376.691 133.748 375.672C133.748 374.627 133.511 373.795 133.036 373.176C132.567 372.557 131.855 372.248 130.9 372.248C130.255 372.248 129.721 372.395 129.3 372.688C128.884 372.976 128.572 373.379 128.364 373.896C128.161 374.408 128.06 375 128.06 375.672C128.06 376.712 128.3 377.547 128.78 378.176C129.26 378.8 129.967 379.112 130.9 379.112ZM143.316 380.24C142.51 380.24 141.822 380.04 141.252 379.64C140.681 379.235 140.244 378.688 139.94 378C139.636 377.312 139.484 376.536 139.484 375.672C139.484 374.813 139.633 374.04 139.932 373.352C140.236 372.664 140.67 372.12 141.236 371.72C141.801 371.32 142.478 371.12 143.268 371.12C144.078 371.12 144.761 371.317 145.316 371.712C145.87 372.107 146.289 372.648 146.572 373.336C146.86 374.019 147.004 374.797 147.004 375.672C147.004 376.531 146.862 377.307 146.58 378C146.297 378.688 145.881 379.235 145.332 379.64C144.782 380.04 144.11 380.24 143.316 380.24ZM143.436 379.144C144.049 379.144 144.556 378.995 144.956 378.696C145.356 378.397 145.654 377.987 145.852 377.464C146.049 376.936 146.148 376.339 146.148 375.672C146.148 374.995 146.049 374.397 145.852 373.88C145.654 373.357 145.356 372.949 144.956 372.656C144.561 372.363 144.062 372.216 143.46 372.216C142.841 372.216 142.329 372.368 141.924 372.672C141.518 372.976 141.217 373.389 141.02 373.912C140.828 374.435 140.732 375.021 140.732 375.672C140.732 376.328 140.83 376.92 141.028 377.448C141.23 377.971 141.532 378.384 141.932 378.688C142.332 378.992 142.833 379.144 143.436 379.144ZM146.148 380V373.496H146.02V368.48H147.204V380H146.148ZM149.448 380V371.36H150.504V373.44L150.296 373.168C150.392 372.912 150.517 372.677 150.672 372.464C150.827 372.245 150.995 372.067 151.176 371.928C151.4 371.731 151.661 371.581 151.96 371.48C152.259 371.373 152.56 371.312 152.864 371.296C153.168 371.275 153.445 371.296 153.696 371.36V372.464C153.381 372.384 153.037 372.365 152.664 372.408C152.291 372.451 151.947 372.6 151.632 372.856C151.344 373.08 151.128 373.349 150.984 373.664C150.84 373.973 150.744 374.304 150.696 374.656C150.648 375.003 150.624 375.347 150.624 375.688V380H149.448ZM155.374 369.72V368.4H156.55V369.72H155.374ZM155.374 380V371.36H156.55V380H155.374ZM161.284 380L158.148 371.36H159.34L161.892 378.464L164.428 371.36H165.636L162.5 380H161.284ZM170.417 380.24C169.574 380.24 168.843 380.053 168.225 379.68C167.611 379.307 167.134 378.781 166.793 378.104C166.451 377.427 166.281 376.632 166.281 375.72C166.281 374.776 166.449 373.96 166.785 373.272C167.121 372.584 167.593 372.053 168.201 371.68C168.814 371.307 169.537 371.12 170.369 371.12C171.222 371.12 171.95 371.317 172.553 371.712C173.155 372.101 173.611 372.661 173.921 373.392C174.23 374.123 174.371 374.995 174.345 376.008H173.145V375.592C173.123 374.472 172.881 373.627 172.417 373.056C171.958 372.485 171.286 372.2 170.401 372.2C169.473 372.2 168.761 372.501 168.265 373.104C167.774 373.707 167.529 374.565 167.529 375.68C167.529 376.768 167.774 377.613 168.265 378.216C168.761 378.813 169.462 379.112 170.369 379.112C170.987 379.112 171.526 378.971 171.985 378.688C172.449 378.4 172.814 377.987 173.081 377.448L174.177 377.872C173.835 378.624 173.331 379.208 172.665 379.624C172.003 380.035 171.254 380.24 170.417 380.24ZM167.113 376.008V375.024H173.713V376.008H167.113ZM182.907 380.24C182.038 380.24 181.302 380.045 180.699 379.656C180.096 379.267 179.638 378.731 179.323 378.048C179.014 377.36 178.854 376.571 178.843 375.68C178.854 374.773 179.019 373.979 179.339 373.296C179.659 372.608 180.12 372.075 180.723 371.696C181.326 371.312 182.056 371.12 182.915 371.12C183.79 371.12 184.55 371.333 185.195 371.76C185.846 372.187 186.291 372.771 186.531 373.512L185.379 373.88C185.176 373.363 184.854 372.963 184.411 372.68C183.974 372.392 183.472 372.248 182.907 372.248C182.272 372.248 181.747 372.395 181.331 372.688C180.915 372.976 180.606 373.379 180.403 373.896C180.2 374.413 180.096 375.008 180.091 375.68C180.102 376.715 180.342 377.547 180.811 378.176C181.28 378.8 181.979 379.112 182.907 379.112C183.494 379.112 183.992 378.979 184.403 378.712C184.819 378.44 185.134 378.045 185.347 377.528L186.531 377.88C186.211 378.648 185.742 379.235 185.123 379.64C184.504 380.04 183.766 380.24 182.907 380.24ZM191.556 380.24C190.697 380.24 189.964 380.045 189.356 379.656C188.748 379.267 188.281 378.728 187.956 378.04C187.631 377.352 187.468 376.563 187.468 375.672C187.468 374.765 187.633 373.971 187.964 373.288C188.295 372.605 188.764 372.075 189.372 371.696C189.985 371.312 190.713 371.12 191.556 371.12C192.42 371.12 193.156 371.315 193.764 371.704C194.377 372.088 194.844 372.624 195.164 373.312C195.489 373.995 195.652 374.781 195.652 375.672C195.652 376.579 195.489 377.376 195.164 378.064C194.839 378.747 194.369 379.28 193.756 379.664C193.143 380.048 192.409 380.24 191.556 380.24ZM191.556 379.112C192.516 379.112 193.231 378.795 193.7 378.16C194.169 377.52 194.404 376.691 194.404 375.672C194.404 374.627 194.167 373.795 193.692 373.176C193.223 372.557 192.511 372.248 191.556 372.248C190.911 372.248 190.377 372.395 189.956 372.688C189.54 372.976 189.228 373.379 189.02 373.896C188.817 374.408 188.716 375 188.716 375.672C188.716 376.712 188.956 377.547 189.436 378.176C189.916 378.8 190.623 379.112 191.556 379.112ZM207.721 380L207.729 374.328C207.729 373.661 207.542 373.139 207.169 372.76C206.801 372.376 206.332 372.184 205.761 372.184C205.436 372.184 205.118 372.259 204.809 372.408C204.5 372.557 204.244 372.797 204.041 373.128C203.844 373.459 203.745 373.891 203.745 374.424L203.049 374.224C203.033 373.605 203.153 373.064 203.409 372.6C203.67 372.136 204.028 371.776 204.481 371.52C204.94 371.259 205.457 371.128 206.033 371.128C206.902 371.128 207.598 371.397 208.121 371.936C208.644 372.469 208.905 373.192 208.905 374.104L208.897 380H207.721ZM197.409 380V371.36H198.465V373.488H198.593V380H197.409ZM202.577 380L202.585 374.408C202.585 373.72 202.401 373.179 202.033 372.784C201.67 372.384 201.19 372.184 200.593 372.184C199.996 372.184 199.513 372.389 199.145 372.8C198.777 373.205 198.593 373.747 198.593 374.424L197.889 374.04C197.889 373.485 198.02 372.989 198.281 372.552C198.542 372.109 198.9 371.763 199.353 371.512C199.806 371.256 200.321 371.128 200.897 371.128C201.446 371.128 201.934 371.245 202.361 371.48C202.793 371.715 203.132 372.056 203.377 372.504C203.622 372.952 203.745 373.496 203.745 374.136L203.737 380H202.577ZM214.859 380.24C214.065 380.24 213.393 380.04 212.843 379.64C212.294 379.235 211.878 378.688 211.595 378C211.313 377.307 211.171 376.531 211.171 375.672C211.171 374.797 211.313 374.019 211.595 373.336C211.883 372.648 212.305 372.107 212.859 371.712C213.414 371.317 214.097 371.12 214.907 371.12C215.697 371.12 216.374 371.32 216.939 371.72C217.505 372.12 217.937 372.664 218.235 373.352C218.539 374.04 218.691 374.813 218.691 375.672C218.691 376.536 218.539 377.312 218.235 378C217.931 378.688 217.494 379.235 216.923 379.64C216.353 380.04 215.665 380.24 214.859 380.24ZM210.971 383.84V371.36H212.027V377.864H212.155V383.84H210.971ZM214.739 379.144C215.342 379.144 215.843 378.992 216.243 378.688C216.643 378.384 216.942 377.971 217.139 377.448C217.342 376.92 217.443 376.328 217.443 375.672C217.443 375.021 217.345 374.435 217.147 373.912C216.95 373.389 216.649 372.976 216.243 372.672C215.843 372.368 215.334 372.216 214.715 372.216C214.113 372.216 213.611 372.363 213.211 372.656C212.817 372.949 212.521 373.357 212.323 373.88C212.126 374.397 212.027 374.995 212.027 375.672C212.027 376.339 212.126 376.936 212.323 377.464C212.521 377.987 212.819 378.397 213.219 378.696C213.619 378.995 214.126 379.144 214.739 379.144ZM220.608 380V368.24H221.784V380H220.608ZM224.343 369.72V368.4H225.519V369.72H224.343ZM224.343 380V371.36H225.519V380H224.343ZM230.389 380.24C229.738 380.24 229.192 380.123 228.749 379.888C228.312 379.653 227.984 379.341 227.765 378.952C227.546 378.563 227.437 378.139 227.437 377.68C227.437 377.211 227.53 376.811 227.717 376.48C227.909 376.144 228.168 375.869 228.493 375.656C228.824 375.443 229.205 375.28 229.637 375.168C230.074 375.061 230.557 374.968 231.085 374.888C231.618 374.803 232.138 374.731 232.645 374.672C233.157 374.608 233.605 374.547 233.989 374.488L233.573 374.744C233.589 373.891 233.424 373.259 233.077 372.848C232.73 372.437 232.128 372.232 231.269 372.232C230.677 372.232 230.176 372.365 229.765 372.632C229.36 372.899 229.074 373.32 228.909 373.896L227.765 373.56C227.962 372.787 228.36 372.187 228.957 371.76C229.554 371.333 230.33 371.12 231.285 371.12C232.074 371.12 232.744 371.269 233.293 371.568C233.848 371.861 234.24 372.288 234.469 372.848C234.576 373.099 234.645 373.379 234.677 373.688C234.709 373.997 234.725 374.312 234.725 374.632V380H233.677V377.832L233.981 377.96C233.688 378.701 233.232 379.267 232.613 379.656C231.994 380.045 231.253 380.24 230.389 380.24ZM230.525 379.224C231.074 379.224 231.554 379.125 231.965 378.928C232.376 378.731 232.706 378.461 232.957 378.12C233.208 377.773 233.37 377.384 233.445 376.952C233.509 376.675 233.544 376.371 233.549 376.04C233.554 375.704 233.557 375.453 233.557 375.288L234.005 375.52C233.605 375.573 233.17 375.627 232.701 375.68C232.237 375.733 231.778 375.795 231.325 375.864C230.877 375.933 230.472 376.016 230.109 376.112C229.864 376.181 229.626 376.28 229.397 376.408C229.168 376.531 228.978 376.696 228.829 376.904C228.685 377.112 228.613 377.371 228.613 377.68C228.613 377.931 228.674 378.173 228.797 378.408C228.925 378.643 229.128 378.837 229.405 378.992C229.688 379.147 230.061 379.224 230.525 379.224ZM243.048 380V375.592C243.048 375.112 243.002 374.672 242.912 374.272C242.821 373.867 242.674 373.515 242.472 373.216C242.274 372.912 242.016 372.677 241.696 372.512C241.381 372.347 240.997 372.264 240.544 372.264C240.128 372.264 239.76 372.336 239.44 372.48C239.125 372.624 238.858 372.832 238.64 373.104C238.426 373.371 238.264 373.696 238.152 374.08C238.04 374.464 237.984 374.901 237.984 375.392L237.152 375.208C237.152 374.323 237.306 373.579 237.616 372.976C237.925 372.373 238.352 371.917 238.896 371.608C239.44 371.299 240.064 371.144 240.768 371.144C241.285 371.144 241.736 371.224 242.12 371.384C242.509 371.544 242.837 371.76 243.104 372.032C243.376 372.304 243.594 372.616 243.76 372.968C243.925 373.315 244.045 373.685 244.12 374.08C244.194 374.469 244.232 374.859 244.232 375.248V380H243.048ZM236.8 380V371.36H237.864V373.488H237.984V380H236.8ZM249.845 380.24C248.975 380.24 248.239 380.045 247.637 379.656C247.034 379.267 246.575 378.731 246.261 378.048C245.951 377.36 245.791 376.571 245.781 375.68C245.791 374.773 245.957 373.979 246.277 373.296C246.597 372.608 247.058 372.075 247.661 371.696C248.263 371.312 248.994 371.12 249.853 371.12C250.727 371.12 251.487 371.333 252.133 371.76C252.783 372.187 253.229 372.771 253.469 373.512L252.317 373.88C252.114 373.363 251.791 372.963 251.349 372.68C250.911 372.392 250.41 372.248 249.845 372.248C249.21 372.248 248.685 372.395 248.269 372.688C247.853 372.976 247.543 373.379 247.341 373.896C247.138 374.413 247.034 375.008 247.029 375.68C247.039 376.715 247.279 377.547 247.749 378.176C248.218 378.8 248.917 379.112 249.845 379.112C250.431 379.112 250.93 378.979 251.341 378.712C251.757 378.44 252.071 378.045 252.285 377.528L253.469 377.88C253.149 378.648 252.679 379.235 252.061 379.64C251.442 380.04 250.703 380.24 249.845 380.24ZM258.542 380.24C257.699 380.24 256.968 380.053 256.35 379.68C255.736 379.307 255.259 378.781 254.918 378.104C254.576 377.427 254.406 376.632 254.406 375.72C254.406 374.776 254.574 373.96 254.91 373.272C255.246 372.584 255.718 372.053 256.326 371.68C256.939 371.307 257.662 371.12 258.494 371.12C259.347 371.12 260.075 371.317 260.678 371.712C261.28 372.101 261.736 372.661 262.046 373.392C262.355 374.123 262.496 374.995 262.47 376.008H261.27V375.592C261.248 374.472 261.006 373.627 260.542 373.056C260.083 372.485 259.411 372.2 258.526 372.2C257.598 372.2 256.886 372.501 256.39 373.104C255.899 373.707 255.654 374.565 255.654 375.68C255.654 376.768 255.899 377.613 256.39 378.216C256.886 378.813 257.587 379.112 258.494 379.112C259.112 379.112 259.651 378.971 260.11 378.688C260.574 378.4 260.939 377.987 261.206 377.448L262.302 377.872C261.96 378.624 261.456 379.208 260.79 379.624C260.128 380.035 259.379 380.24 258.542 380.24ZM255.238 376.008V375.024H261.838V376.008H255.238ZM263.773 381.672L263.845 381.088C264.058 381.104 264.213 381.061 264.309 380.96C264.405 380.859 264.463 380.723 264.485 380.552C264.506 380.381 264.511 380.197 264.501 380H263.773V378.312H265.141V380.32C265.141 380.811 265.015 381.179 264.765 381.424C264.519 381.669 264.189 381.752 263.773 381.672ZM29.344 404.232C28.3307 404.232 27.496 404.013 26.84 403.576C26.1893 403.139 25.7893 402.531 25.64 401.752L26.84 401.552C26.968 402.043 27.2587 402.435 27.712 402.728C28.1707 403.016 28.736 403.16 29.408 403.16C30.064 403.16 30.5813 403.024 30.96 402.752C31.3387 402.475 31.528 402.099 31.528 401.624C31.528 401.357 31.4667 401.141 31.344 400.976C31.2267 400.805 30.984 400.648 30.616 400.504C30.248 400.36 29.6987 400.189 28.968 399.992C28.184 399.779 27.5707 399.565 27.128 399.352C26.6853 399.139 26.3707 398.893 26.184 398.616C25.9973 398.333 25.904 397.989 25.904 397.584C25.904 397.093 26.0427 396.664 26.32 396.296C26.5973 395.923 26.9813 395.635 27.472 395.432C27.9627 395.224 28.5333 395.12 29.184 395.12C29.8347 395.12 30.416 395.227 30.928 395.44C31.4453 395.648 31.8613 395.941 32.176 396.32C32.4907 396.699 32.6773 397.139 32.736 397.64L31.536 397.856C31.456 397.349 31.2027 396.949 30.776 396.656C30.3547 396.357 29.8187 396.203 29.168 396.192C28.5547 396.176 28.056 396.293 27.672 396.544C27.288 396.789 27.096 397.117 27.096 397.528C27.096 397.757 27.1653 397.955 27.304 398.12C27.4427 398.28 27.6933 398.432 28.056 398.576C28.424 398.72 28.9467 398.877 29.624 399.048C30.4187 399.251 31.0427 399.464 31.496 399.688C31.9493 399.912 32.272 400.176 32.464 400.48C32.656 400.784 32.752 401.16 32.752 401.608C32.752 402.424 32.448 403.067 31.84 403.536C31.2373 404 30.4053 404.232 29.344 404.232ZM38.1102 404.24C37.2409 404.24 36.5049 404.045 35.9023 403.656C35.2996 403.267 34.8409 402.731 34.5263 402.048C34.2169 401.36 34.0569 400.571 34.0463 399.68C34.0569 398.773 34.2223 397.979 34.5423 397.296C34.8623 396.608 35.3236 396.075 35.9263 395.696C36.5289 395.312 37.2596 395.12 38.1183 395.12C38.9929 395.12 39.7529 395.333 40.3983 395.76C41.0489 396.187 41.4943 396.771 41.7343 397.512L40.5823 397.88C40.3796 397.363 40.0569 396.963 39.6143 396.68C39.1769 396.392 38.6756 396.248 38.1102 396.248C37.4756 396.248 36.9503 396.395 36.5343 396.688C36.1183 396.976 35.8089 397.379 35.6063 397.896C35.4036 398.413 35.2996 399.008 35.2943 399.68C35.3049 400.715 35.5449 401.547 36.0143 402.176C36.4836 402.8 37.1823 403.112 38.1102 403.112C38.6969 403.112 39.1956 402.979 39.6063 402.712C40.0223 402.44 40.3369 402.045 40.5503 401.528L41.7343 401.88C41.4143 402.648 40.9449 403.235 40.3263 403.64C39.7076 404.04 38.9689 404.24 38.1102 404.24ZM45.8108 404.24C45.1601 404.24 44.6134 404.123 44.1708 403.888C43.7334 403.653 43.4054 403.341 43.1868 402.952C42.9681 402.563 42.8588 402.139 42.8588 401.68C42.8588 401.211 42.9521 400.811 43.1388 400.48C43.3308 400.144 43.5894 399.869 43.9148 399.656C44.2454 399.443 44.6268 399.28 45.0588 399.168C45.4961 399.061 45.9788 398.968 46.5068 398.888C47.0401 398.803 47.5601 398.731 48.0668 398.672C48.5788 398.608 49.0268 398.547 49.4108 398.488L48.9948 398.744C49.0108 397.891 48.8454 397.259 48.4988 396.848C48.1521 396.437 47.5494 396.232 46.6908 396.232C46.0988 396.232 45.5974 396.365 45.1868 396.632C44.7814 396.899 44.4961 397.32 44.3307 397.896L43.1868 397.56C43.3841 396.787 43.7814 396.187 44.3788 395.76C44.9761 395.333 45.7521 395.12 46.7068 395.12C47.4961 395.12 48.1654 395.269 48.7148 395.568C49.2694 395.861 49.6614 396.288 49.8908 396.848C49.9974 397.099 50.0668 397.379 50.0988 397.688C50.1308 397.997 50.1468 398.312 50.1468 398.632V404H49.0988V401.832L49.4028 401.96C49.1094 402.701 48.6534 403.267 48.0348 403.656C47.4161 404.045 46.6748 404.24 45.8108 404.24ZM45.9468 403.224C46.4961 403.224 46.9761 403.125 47.3868 402.928C47.7974 402.731 48.1281 402.461 48.3788 402.12C48.6294 401.773 48.7921 401.384 48.8668 400.952C48.9308 400.675 48.9654 400.371 48.9708 400.04C48.9761 399.704 48.9788 399.453 48.9788 399.288L49.4268 399.52C49.0268 399.573 48.5921 399.627 48.1228 399.68C47.6588 399.733 47.2001 399.795 46.7468 399.864C46.2988 399.933 45.8934 400.016 45.5308 400.112C45.2854 400.181 45.0481 400.28 44.8188 400.408C44.5894 400.531 44.4001 400.696 44.2508 400.904C44.1068 401.112 44.0348 401.371 44.0348 401.68C44.0348 401.931 44.0961 402.173 44.2188 402.408C44.3468 402.643 44.5494 402.837 44.8268 402.992C45.1094 403.147 45.4828 403.224 45.9468 403.224ZM52.3894 404V392.24H53.5654V404H52.3894ZM59.6198 404.24C58.7771 404.24 58.0464 404.053 57.4278 403.68C56.8144 403.307 56.3371 402.781 55.9958 402.104C55.6544 401.427 55.4838 400.632 55.4838 399.72C55.4838 398.776 55.6518 397.96 55.9878 397.272C56.3238 396.584 56.7958 396.053 57.4038 395.68C58.0171 395.307 58.7398 395.12 59.5718 395.12C60.4251 395.12 61.1531 395.317 61.7558 395.712C62.3584 396.101 62.8144 396.661 63.1238 397.392C63.4331 398.123 63.5744 398.995 63.5478 400.008H62.3478V399.592C62.3264 398.472 62.0838 397.627 61.6198 397.056C61.1611 396.485 60.4891 396.2 59.6038 396.2C58.6758 396.2 57.9638 396.501 57.4678 397.104C56.9771 397.707 56.7318 398.565 56.7318 399.68C56.7318 400.768 56.9771 401.613 57.4678 402.216C57.9638 402.813 58.6651 403.112 59.5718 403.112C60.1904 403.112 60.7291 402.971 61.1878 402.688C61.6518 402.4 62.0171 401.987 62.2838 401.448L63.3798 401.872C63.0384 402.624 62.5344 403.208 61.8678 403.624C61.2064 404.035 60.4571 404.24 59.6198 404.24ZM56.3158 400.008V399.024H62.9158V400.008H56.3158ZM64.8506 405.672L64.9226 405.088C65.136 405.104 65.2906 405.061 65.3866 404.96C65.4826 404.859 65.5413 404.723 65.5626 404.552C65.584 404.381 65.5893 404.197 65.5786 404H64.8506V402.312H66.2186V404.32C66.2186 404.811 66.0933 405.179 65.8426 405.424C65.5973 405.669 65.2666 405.752 64.8506 405.672ZM74.9358 404.24C74.2851 404.24 73.7384 404.123 73.2958 403.888C72.8584 403.653 72.5304 403.341 72.3118 402.952C72.0931 402.563 71.9838 402.139 71.9838 401.68C71.9838 401.211 72.0771 400.811 72.2638 400.48C72.4558 400.144 72.7144 399.869 73.0398 399.656C73.3704 399.443 73.7518 399.28 74.1838 399.168C74.6211 399.061 75.1038 398.968 75.6318 398.888C76.1651 398.803 76.6851 398.731 77.1918 398.672C77.7038 398.608 78.1518 398.547 78.5358 398.488L78.1198 398.744C78.1358 397.891 77.9704 397.259 77.6238 396.848C77.2771 396.437 76.6744 396.232 75.8158 396.232C75.2238 396.232 74.7224 396.365 74.3118 396.632C73.9064 396.899 73.6211 397.32 73.4557 397.896L72.3118 397.56C72.5091 396.787 72.9064 396.187 73.5038 395.76C74.1011 395.333 74.8771 395.12 75.8318 395.12C76.6211 395.12 77.2904 395.269 77.8398 395.568C78.3944 395.861 78.7864 396.288 79.0158 396.848C79.1224 397.099 79.1918 397.379 79.2238 397.688C79.2558 397.997 79.2718 398.312 79.2718 398.632V404H78.2238V401.832L78.5278 401.96C78.2344 402.701 77.7784 403.267 77.1598 403.656C76.5411 404.045 75.7998 404.24 74.9358 404.24ZM75.0718 403.224C75.6211 403.224 76.1011 403.125 76.5118 402.928C76.9224 402.731 77.2531 402.461 77.5038 402.12C77.7544 401.773 77.9171 401.384 77.9918 400.952C78.0558 400.675 78.0904 400.371 78.0958 400.04C78.1011 399.704 78.1038 399.453 78.1038 399.288L78.5518 399.52C78.1518 399.573 77.7171 399.627 77.2478 399.68C76.7838 399.733 76.3251 399.795 75.8718 399.864C75.4238 399.933 75.0184 400.016 74.6558 400.112C74.4104 400.181 74.1731 400.28 73.9438 400.408C73.7144 400.531 73.5251 400.696 73.3758 400.904C73.2318 401.112 73.1598 401.371 73.1598 401.68C73.1598 401.931 73.2211 402.173 73.3438 402.408C73.4718 402.643 73.6744 402.837 73.9518 402.992C74.2344 403.147 74.6078 403.224 75.0718 403.224ZM87.5944 404V399.592C87.5944 399.112 87.549 398.672 87.4584 398.272C87.3677 397.867 87.221 397.515 87.0184 397.216C86.821 396.912 86.5624 396.677 86.2424 396.512C85.9277 396.347 85.5437 396.264 85.0904 396.264C84.6744 396.264 84.3064 396.336 83.9864 396.48C83.6717 396.624 83.405 396.832 83.1864 397.104C82.973 397.371 82.8104 397.696 82.6984 398.08C82.5864 398.464 82.5304 398.901 82.5304 399.392L81.6984 399.208C81.6984 398.323 81.853 397.579 82.1624 396.976C82.4717 396.373 82.8984 395.917 83.4424 395.608C83.9864 395.299 84.6104 395.144 85.3144 395.144C85.8317 395.144 86.2824 395.224 86.6664 395.384C87.0557 395.544 87.3837 395.76 87.6504 396.032C87.9224 396.304 88.141 396.616 88.3064 396.968C88.4717 397.315 88.5917 397.685 88.6664 398.08C88.741 398.469 88.7784 398.859 88.7784 399.248V404H87.5944ZM81.3464 404V395.36H82.4104V397.488H82.5304V404H81.3464ZM94.1595 404.24C93.3542 404.24 92.6662 404.04 92.0955 403.64C91.5248 403.235 91.0875 402.688 90.7835 402C90.4795 401.312 90.3275 400.536 90.3275 399.672C90.3275 398.813 90.4768 398.04 90.7755 397.352C91.0795 396.664 91.5142 396.12 92.0795 395.72C92.6448 395.32 93.3222 395.12 94.1115 395.12C94.9222 395.12 95.6048 395.317 96.1595 395.712C96.7142 396.107 97.1328 396.648 97.4155 397.336C97.7035 398.019 97.8475 398.797 97.8475 399.672C97.8475 400.531 97.7062 401.307 97.4235 402C97.1408 402.688 96.7248 403.235 96.1755 403.64C95.6262 404.04 94.9542 404.24 94.1595 404.24ZM94.2795 403.144C94.8928 403.144 95.3995 402.995 95.7995 402.696C96.1995 402.397 96.4982 401.987 96.6955 401.464C96.8928 400.936 96.9915 400.339 96.9915 399.672C96.9915 398.995 96.8928 398.397 96.6955 397.88C96.4982 397.357 96.1995 396.949 95.7995 396.656C95.4048 396.363 94.9062 396.216 94.3035 396.216C93.6848 396.216 93.1728 396.368 92.7675 396.672C92.3622 396.976 92.0608 397.389 91.8635 397.912C91.6715 398.435 91.5755 399.021 91.5755 399.672C91.5755 400.328 91.6742 400.92 91.8715 401.448C92.0742 401.971 92.3755 402.384 92.7755 402.688C93.1755 402.992 93.6768 403.144 94.2795 403.144ZM96.9915 404V397.496H96.8635V392.48H98.0475V404H96.9915ZM106.799 404.216C106.282 404.216 105.828 404.136 105.439 403.976C105.055 403.816 104.727 403.6 104.455 403.328C104.188 403.056 103.972 402.747 103.807 402.4C103.642 402.048 103.522 401.677 103.447 401.288C103.372 400.893 103.335 400.501 103.335 400.112V395.36H104.519V399.768C104.519 400.243 104.564 400.683 104.655 401.088C104.746 401.493 104.89 401.848 105.087 402.152C105.29 402.451 105.548 402.683 105.863 402.848C106.183 403.013 106.57 403.096 107.023 403.096C107.439 403.096 107.804 403.024 108.119 402.88C108.439 402.736 108.706 402.531 108.919 402.264C109.138 401.992 109.303 401.664 109.415 401.28C109.527 400.891 109.583 400.453 109.583 399.968L110.415 400.152C110.415 401.037 110.26 401.781 109.951 402.384C109.642 402.987 109.215 403.443 108.671 403.752C108.127 404.061 107.503 404.216 106.799 404.216ZM109.703 404V401.872H109.583V395.36H110.759V404H109.703ZM116.219 404.232C115.206 404.232 114.371 404.013 113.715 403.576C113.064 403.139 112.664 402.531 112.515 401.752L113.715 401.552C113.843 402.043 114.134 402.435 114.587 402.728C115.046 403.016 115.611 403.16 116.283 403.16C116.939 403.16 117.456 403.024 117.835 402.752C118.214 402.475 118.403 402.099 118.403 401.624C118.403 401.357 118.342 401.141 118.219 400.976C118.102 400.805 117.859 400.648 117.491 400.504C117.123 400.36 116.574 400.189 115.843 399.992C115.059 399.779 114.446 399.565 114.003 399.352C113.56 399.139 113.246 398.893 113.059 398.616C112.872 398.333 112.779 397.989 112.779 397.584C112.779 397.093 112.918 396.664 113.195 396.296C113.472 395.923 113.856 395.635 114.347 395.432C114.838 395.224 115.408 395.12 116.059 395.12C116.71 395.12 117.291 395.227 117.803 395.44C118.32 395.648 118.736 395.941 119.051 396.32C119.366 396.699 119.552 397.139 119.611 397.64L118.411 397.856C118.331 397.349 118.078 396.949 117.651 396.656C117.23 396.357 116.694 396.203 116.043 396.192C115.43 396.176 114.931 396.293 114.547 396.544C114.163 396.789 113.971 397.117 113.971 397.528C113.971 397.757 114.04 397.955 114.179 398.12C114.318 398.28 114.568 398.432 114.931 398.576C115.299 398.72 115.822 398.877 116.499 399.048C117.294 399.251 117.918 399.464 118.371 399.688C118.824 399.912 119.147 400.176 119.339 400.48C119.531 400.784 119.627 401.16 119.627 401.608C119.627 402.424 119.323 403.067 118.715 403.536C118.112 404 117.28 404.232 116.219 404.232ZM125.057 404.24C124.215 404.24 123.484 404.053 122.865 403.68C122.252 403.307 121.775 402.781 121.433 402.104C121.092 401.427 120.921 400.632 120.921 399.72C120.921 398.776 121.089 397.96 121.425 397.272C121.761 396.584 122.233 396.053 122.841 395.68C123.455 395.307 124.177 395.12 125.009 395.12C125.863 395.12 126.591 395.317 127.193 395.712C127.796 396.101 128.252 396.661 128.561 397.392C128.871 398.123 129.012 398.995 128.985 400.008H127.785V399.592C127.764 398.472 127.521 397.627 127.057 397.056C126.599 396.485 125.927 396.2 125.041 396.2C124.113 396.2 123.401 396.501 122.905 397.104C122.415 397.707 122.169 398.565 122.169 399.68C122.169 400.768 122.415 401.613 122.905 402.216C123.401 402.813 124.103 403.112 125.009 403.112C125.628 403.112 126.167 402.971 126.625 402.688C127.089 402.4 127.455 401.987 127.721 401.448L128.817 401.872C128.476 402.624 127.972 403.208 127.305 403.624C126.644 404.035 125.895 404.24 125.057 404.24ZM121.753 400.008V399.024H128.353V400.008H121.753ZM130.761 404V395.36H131.817V397.44L131.609 397.168C131.705 396.912 131.83 396.677 131.985 396.464C132.139 396.245 132.307 396.067 132.489 395.928C132.713 395.731 132.974 395.581 133.273 395.48C133.571 395.373 133.873 395.312 134.177 395.296C134.481 395.275 134.758 395.296 135.009 395.36V396.464C134.694 396.384 134.35 396.365 133.977 396.408C133.603 396.451 133.259 396.6 132.945 396.856C132.657 397.08 132.441 397.349 132.297 397.664C132.153 397.973 132.057 398.304 132.009 398.656C131.961 399.003 131.937 399.347 131.937 399.688V404H130.761ZM143.385 404.24C142.543 404.24 141.812 404.053 141.193 403.68C140.58 403.307 140.103 402.781 139.761 402.104C139.42 401.427 139.249 400.632 139.249 399.72C139.249 398.776 139.417 397.96 139.753 397.272C140.089 396.584 140.561 396.053 141.169 395.68C141.783 395.307 142.505 395.12 143.337 395.12C144.191 395.12 144.919 395.317 145.521 395.712C146.124 396.101 146.58 396.661 146.889 397.392C147.199 398.123 147.34 398.995 147.313 400.008H146.113V399.592C146.092 398.472 145.849 397.627 145.385 397.056C144.927 396.485 144.255 396.2 143.369 396.2C142.441 396.2 141.729 396.501 141.233 397.104C140.743 397.707 140.497 398.565 140.497 399.68C140.497 400.768 140.743 401.613 141.233 402.216C141.729 402.813 142.431 403.112 143.337 403.112C143.956 403.112 144.495 402.971 144.953 402.688C145.417 402.4 145.783 401.987 146.049 401.448L147.145 401.872C146.804 402.624 146.3 403.208 145.633 403.624C144.972 404.035 144.223 404.24 143.385 404.24ZM140.081 400.008V399.024H146.681V400.008H140.081ZM147.816 404L151.192 399.632L147.888 395.36H149.296L151.88 398.728L154.44 395.36H155.848L152.544 399.632L155.928 404H154.512L151.88 400.536L149.232 404H147.816ZM161.094 404.24C160.299 404.24 159.627 404.04 159.078 403.64C158.528 403.235 158.112 402.688 157.83 402C157.547 401.307 157.406 400.531 157.406 399.672C157.406 398.797 157.547 398.019 157.83 397.336C158.118 396.648 158.539 396.107 159.094 395.712C159.648 395.317 160.331 395.12 161.142 395.12C161.931 395.12 162.608 395.32 163.174 395.72C163.739 396.12 164.171 396.664 164.47 397.352C164.774 398.04 164.926 398.813 164.926 399.672C164.926 400.536 164.774 401.312 164.47 402C164.166 402.688 163.728 403.235 163.158 403.64C162.587 404.04 161.899 404.24 161.094 404.24ZM157.206 407.84V395.36H158.262V401.864H158.39V407.84H157.206ZM160.974 403.144C161.576 403.144 162.078 402.992 162.478 402.688C162.878 402.384 163.176 401.971 163.374 401.448C163.576 400.92 163.678 400.328 163.678 399.672C163.678 399.021 163.579 398.435 163.382 397.912C163.184 397.389 162.883 396.976 162.478 396.672C162.078 396.368 161.568 396.216 160.95 396.216C160.347 396.216 159.846 396.363 159.446 396.656C159.051 396.949 158.755 397.357 158.558 397.88C158.36 398.397 158.262 398.995 158.262 399.672C158.262 400.339 158.36 400.936 158.558 401.464C158.755 401.987 159.054 402.397 159.454 402.696C159.854 402.995 160.36 403.144 160.974 403.144ZM170.339 404.24C169.496 404.24 168.765 404.053 168.147 403.68C167.533 403.307 167.056 402.781 166.715 402.104C166.373 401.427 166.203 400.632 166.203 399.72C166.203 398.776 166.371 397.96 166.707 397.272C167.043 396.584 167.515 396.053 168.123 395.68C168.736 395.307 169.459 395.12 170.291 395.12C171.144 395.12 171.872 395.317 172.475 395.712C173.077 396.101 173.533 396.661 173.843 397.392C174.152 398.123 174.293 398.995 174.267 400.008H173.067V399.592C173.045 398.472 172.803 397.627 172.339 397.056C171.88 396.485 171.208 396.2 170.323 396.2C169.395 396.2 168.683 396.501 168.187 397.104C167.696 397.707 167.451 398.565 167.451 399.68C167.451 400.768 167.696 401.613 168.187 402.216C168.683 402.813 169.384 403.112 170.291 403.112C170.909 403.112 171.448 402.971 171.907 402.688C172.371 402.4 172.736 401.987 173.003 401.448L174.099 401.872C173.757 402.624 173.253 403.208 172.587 403.624C171.925 404.035 171.176 404.24 170.339 404.24ZM167.035 400.008V399.024H173.635V400.008H167.035ZM176.042 404V395.36H177.098V397.44L176.89 397.168C176.986 396.912 177.111 396.677 177.266 396.464C177.421 396.245 177.589 396.067 177.77 395.928C177.994 395.731 178.255 395.581 178.554 395.48C178.853 395.373 179.154 395.312 179.458 395.296C179.762 395.275 180.039 395.296 180.29 395.36V396.464C179.975 396.384 179.631 396.365 179.258 396.408C178.885 396.451 178.541 396.6 178.226 396.856C177.938 397.08 177.722 397.349 177.578 397.664C177.434 397.973 177.338 398.304 177.29 398.656C177.242 399.003 177.218 399.347 177.218 399.688V404H176.042ZM181.968 393.72V392.4H183.144V393.72H181.968ZM181.968 404V395.36H183.144V404H181.968ZM189.198 404.24C188.355 404.24 187.625 404.053 187.006 403.68C186.393 403.307 185.915 402.781 185.574 402.104C185.233 401.427 185.062 400.632 185.062 399.72C185.062 398.776 185.23 397.96 185.566 397.272C185.902 396.584 186.374 396.053 186.982 395.68C187.595 395.307 188.318 395.12 189.15 395.12C190.003 395.12 190.731 395.317 191.334 395.712C191.937 396.101 192.393 396.661 192.702 397.392C193.011 398.123 193.153 398.995 193.126 400.008H191.926V399.592C191.905 398.472 191.662 397.627 191.198 397.056C190.739 396.485 190.067 396.2 189.182 396.2C188.254 396.2 187.542 396.501 187.046 397.104C186.555 397.707 186.31 398.565 186.31 399.68C186.31 400.768 186.555 401.613 187.046 402.216C187.542 402.813 188.243 403.112 189.15 403.112C189.769 403.112 190.307 402.971 190.766 402.688C191.23 402.4 191.595 401.987 191.862 401.448L192.958 401.872C192.617 402.624 192.113 403.208 191.446 403.624C190.785 404.035 190.035 404.24 189.198 404.24ZM185.894 400.008V399.024H192.494V400.008H185.894ZM200.907 404V399.592C200.907 399.112 200.862 398.672 200.771 398.272C200.68 397.867 200.534 397.515 200.331 397.216C200.134 396.912 199.875 396.677 199.555 396.512C199.24 396.347 198.856 396.264 198.403 396.264C197.987 396.264 197.619 396.336 197.299 396.48C196.984 396.624 196.718 396.832 196.499 397.104C196.286 397.371 196.123 397.696 196.011 398.08C195.899 398.464 195.843 398.901 195.843 399.392L195.011 399.208C195.011 398.323 195.166 397.579 195.475 396.976C195.784 396.373 196.211 395.917 196.755 395.608C197.299 395.299 197.923 395.144 198.627 395.144C199.144 395.144 199.595 395.224 199.979 395.384C200.368 395.544 200.696 395.76 200.963 396.032C201.235 396.304 201.454 396.616 201.619 396.968C201.784 397.315 201.904 397.685 201.979 398.08C202.054 398.469 202.091 398.859 202.091 399.248V404H200.907ZM194.659 404V395.36H195.723V397.488H195.843V404H194.659ZM207.704 404.24C206.835 404.24 206.099 404.045 205.496 403.656C204.893 403.267 204.435 402.731 204.12 402.048C203.811 401.36 203.651 400.571 203.64 399.68C203.651 398.773 203.816 397.979 204.136 397.296C204.456 396.608 204.917 396.075 205.52 395.696C206.123 395.312 206.853 395.12 207.712 395.12C208.587 395.12 209.347 395.333 209.992 395.76C210.643 396.187 211.088 396.771 211.328 397.512L210.176 397.88C209.973 397.363 209.651 396.963 209.208 396.68C208.771 396.392 208.269 396.248 207.704 396.248C207.069 396.248 206.544 396.395 206.128 396.688C205.712 396.976 205.403 397.379 205.2 397.896C204.997 398.413 204.893 399.008 204.888 399.68C204.899 400.715 205.139 401.547 205.608 402.176C206.077 402.8 206.776 403.112 207.704 403.112C208.291 403.112 208.789 402.979 209.2 402.712C209.616 402.44 209.931 402.045 210.144 401.528L211.328 401.88C211.008 402.648 210.539 403.235 209.92 403.64C209.301 404.04 208.563 404.24 207.704 404.24ZM216.401 404.24C215.558 404.24 214.828 404.053 214.209 403.68C213.596 403.307 213.118 402.781 212.777 402.104C212.436 401.427 212.265 400.632 212.265 399.72C212.265 398.776 212.433 397.96 212.769 397.272C213.105 396.584 213.577 396.053 214.185 395.68C214.798 395.307 215.521 395.12 216.353 395.12C217.206 395.12 217.934 395.317 218.537 395.712C219.14 396.101 219.596 396.661 219.905 397.392C220.214 398.123 220.356 398.995 220.329 400.008H219.129V399.592C219.108 398.472 218.865 397.627 218.401 397.056C217.942 396.485 217.27 396.2 216.385 396.2C215.457 396.2 214.745 396.501 214.249 397.104C213.758 397.707 213.513 398.565 213.513 399.68C213.513 400.768 213.758 401.613 214.249 402.216C214.745 402.813 215.446 403.112 216.353 403.112C216.972 403.112 217.51 402.971 217.969 402.688C218.433 402.4 218.798 401.987 219.065 401.448L220.161 401.872C219.82 402.624 219.316 403.208 218.649 403.624C217.988 404.035 217.238 404.24 216.401 404.24ZM213.097 400.008V399.024H219.697V400.008H213.097ZM222.016 404V402.632H223.384V404H222.016Z" fill="#646464"/>
<defs>
<radialGradient id="paint0_radial_2303_2736" cx="0" cy="0" r="1" gradientUnits="userSpaceOnUse" gradientTransform="translate(266.063 23.6047) rotate(-2.26679) scale(17.7866)">
<stop stop-color="#EF4BCB"/>
<stop offset="1" stop-color="#34897B"/>
</radialGradient>
<radialGradient id="paint1_radial_2303_2736" cx="0" cy="0" r="1" gradientUnits="userSpaceOnUse" gradientTransform="translate(101.369 157.649) rotate(-2.25192) scale(96.9768 96.3419)">
<stop stop-color="#EF4BCB"/>
<stop offset="1" stop-color="#34897B"/>
</radialGradient>
<radialGradient id="paint2_radial_2303_2736" cx="0" cy="0" r="1" gradientUnits="userSpaceOnUse" gradientTransform="translate(25.8841 291.725) rotate(-0.526156) scale(246.845 57.353)">
<stop stop-color="#EF4BCB"/>
<stop offset="1" stop-color="#34897B"/>
</radialGradient>
</defs>
</svg>
