<svg width="300" height="434" viewBox="0 0 300 434" fill="none" xmlns="http://www.w3.org/2000/svg">
<rect x="251" width="48" height="48" rx="24" fill="white"/>
<path d="M284 16V29C284 29.2652 283.895 29.5196 283.707 29.7071C283.52 29.8946 283.265 30 283 30C282.735 30 282.48 29.8946 282.293 29.7071C282.105 29.5196 282 29.2652 282 29V18.4137L267.707 32.7075C267.52 32.8951 267.265 33.0006 267 33.0006C266.735 33.0006 266.48 32.8951 266.292 32.7075C266.105 32.5199 265.999 32.2654 265.999 32C265.999 31.7346 266.105 31.4801 266.292 31.2925L280.586 17H270C269.735 17 269.48 16.8946 269.293 16.7071C269.105 16.5196 269 16.2652 269 16C269 15.7348 269.105 15.4804 269.293 15.2929C269.48 15.1054 269.735 15 270 15H283C283.265 15 283.52 15.1054 283.707 15.2929C283.895 15.4804 284 15.7348 284 16Z" fill="url(#paint0_radial_2303_2763)"/>
<mask id="mask0_2303_2763" style="mask-type:alpha" maskUnits="userSpaceOnUse" x="1" y="0" width="299" height="434">
<path d="M215.5 0C226.546 0 235.5 8.9543 235.5 20V24.5C235.5 45.4868 252.513 62.5 273.5 62.5H279.445C290.491 62.5 299.445 71.4543 299.445 82.5V414C299.445 425.046 290.491 434 279.445 434H21C9.95431 434 1 425.046 1 414V20C1.00001 8.95431 9.95431 0 21 0H215.5Z" fill="#D9D9D9"/>
</mask>
<g mask="url(#mask0_2303_2763)">
<rect width="298" height="434" transform="translate(1.33325)" fill="white"/>
</g>
<path d="M34.096 317.36C32.368 317.36 30.876 316.984 29.62 316.232C28.372 315.48 27.408 314.428 26.728 313.076C26.056 311.724 25.72 310.152 25.72 308.36C25.72 306.568 26.056 304.996 26.728 303.644C27.408 302.292 28.372 301.24 29.62 300.488C30.876 299.736 32.368 299.36 34.096 299.36C36.08 299.36 37.744 299.852 39.088 300.836C40.44 301.82 41.392 303.152 41.944 304.832L38.656 305.744C38.336 304.696 37.796 303.884 37.036 303.308C36.276 302.724 35.296 302.432 34.096 302.432C33 302.432 32.084 302.676 31.348 303.164C30.62 303.652 30.072 304.34 29.704 305.228C29.336 306.116 29.152 307.16 29.152 308.36C29.152 309.56 29.336 310.604 29.704 311.492C30.072 312.38 30.62 313.068 31.348 313.556C32.084 314.044 33 314.288 34.096 314.288C35.296 314.288 36.276 313.996 37.036 313.412C37.796 312.828 38.336 312.016 38.656 310.976L41.944 311.888C41.392 313.568 40.44 314.9 39.088 315.884C37.744 316.868 36.08 317.36 34.096 317.36ZM50.6103 317.36C49.2823 317.36 48.1103 317.076 47.0943 316.508C46.0863 315.932 45.2943 315.144 44.7183 314.144C44.1503 313.136 43.8663 311.984 43.8663 310.688C43.8663 309.272 44.1463 308.04 44.7063 306.992C45.2663 305.944 46.0383 305.132 47.0223 304.556C48.0063 303.972 49.1383 303.68 50.4183 303.68C51.7783 303.68 52.9343 304 53.8863 304.64C54.8383 305.28 55.5423 306.18 55.9983 307.34C56.4543 308.5 56.6143 309.864 56.4783 311.432H53.2503V310.232C53.2503 308.912 53.0383 307.964 52.6143 307.388C52.1983 306.804 51.5143 306.512 50.5623 306.512C49.4503 306.512 48.6303 306.852 48.1023 307.532C47.5823 308.204 47.3223 309.2 47.3223 310.52C47.3223 311.728 47.5823 312.664 48.1023 313.328C48.6303 313.984 49.4023 314.312 50.4183 314.312C51.0583 314.312 51.6063 314.172 52.0623 313.892C52.5183 313.612 52.8663 313.208 53.1063 312.68L56.3703 313.616C55.8823 314.8 55.1103 315.72 54.0543 316.376C53.0063 317.032 51.8583 317.36 50.6103 317.36ZM46.3143 311.432V309.008H54.9062V311.432H46.3143ZM67.6683 317V310.88C67.6683 310.584 67.6523 310.208 67.6203 309.752C67.5883 309.288 67.4883 308.824 67.3203 308.36C67.1523 307.896 66.8763 307.508 66.4923 307.196C66.1163 306.884 65.5803 306.728 64.8843 306.728C64.6043 306.728 64.3043 306.772 63.9843 306.86C63.6643 306.948 63.3643 307.12 63.0843 307.376C62.8043 307.624 62.5723 307.992 62.3883 308.48C62.2123 308.968 62.1243 309.616 62.1243 310.424L60.2523 309.536C60.2523 308.512 60.4603 307.552 60.8763 306.656C61.2923 305.76 61.9163 305.036 62.7483 304.484C63.5883 303.932 64.6443 303.656 65.9163 303.656C66.9323 303.656 67.7603 303.828 68.4003 304.172C69.0403 304.516 69.5363 304.952 69.8883 305.48C70.2483 306.008 70.5043 306.56 70.6562 307.136C70.8083 307.704 70.9003 308.224 70.9323 308.696C70.9643 309.168 70.9803 309.512 70.9803 309.728V317H67.6683ZM58.8123 317V304.04H61.7163V308.336H62.1243V317H58.8123ZM81.8701 317C80.9741 317.168 80.0941 317.24 79.2301 317.216C78.3741 317.2 77.6061 317.052 76.9261 316.772C76.2541 316.484 75.7421 316.024 75.3901 315.392C75.0701 314.8 74.9021 314.2 74.8861 313.592C74.8701 312.976 74.8621 312.28 74.8621 311.504V300.44H78.1261V311.312C78.1261 311.816 78.1301 312.272 78.1381 312.68C78.1541 313.08 78.2381 313.4 78.3901 313.64C78.6781 314.096 79.1381 314.344 79.7701 314.384C80.4021 314.424 81.1021 314.392 81.8701 314.288V317ZM72.6541 306.56V304.04H81.8701V306.56H72.6541ZM89.8221 317.36C88.1901 317.36 86.8701 316.992 85.8621 316.256C84.8621 315.512 84.2541 314.464 84.0381 313.112L87.3741 312.608C87.5101 313.216 87.8101 313.692 88.2741 314.036C88.7461 314.38 89.3421 314.552 90.0621 314.552C90.6541 314.552 91.1101 314.44 91.4301 314.216C91.7501 313.984 91.9101 313.664 91.9101 313.256C91.9101 313 91.8461 312.796 91.7181 312.644C91.5901 312.484 91.3021 312.328 90.8541 312.176C90.4141 312.024 89.7261 311.824 88.7901 311.576C87.7341 311.304 86.8901 311 86.2581 310.664C85.6261 310.328 85.1701 309.928 84.8901 309.464C84.6101 308.992 84.4701 308.424 84.4701 307.76C84.4701 306.928 84.6821 306.208 85.1061 305.6C85.5301 304.984 86.1261 304.512 86.8941 304.184C87.6701 303.848 88.5821 303.68 89.6301 303.68C90.6461 303.68 91.5461 303.836 92.3301 304.148C93.1141 304.46 93.7461 304.904 94.2261 305.48C94.7141 306.056 95.0141 306.736 95.1261 307.52L91.7901 308.12C91.7341 307.64 91.5261 307.26 91.1661 306.98C90.8061 306.7 90.3181 306.536 89.7021 306.488C89.1021 306.448 88.6181 306.528 88.2501 306.728C87.8901 306.928 87.7101 307.216 87.7101 307.592C87.7101 307.816 87.7861 308.004 87.9381 308.156C88.0981 308.308 88.4221 308.464 88.9101 308.624C89.4061 308.784 90.1581 308.992 91.1661 309.248C92.1501 309.504 92.9381 309.804 93.5301 310.148C94.1301 310.484 94.5661 310.892 94.8381 311.372C95.1101 311.844 95.2461 312.416 95.2461 313.088C95.2461 314.416 94.7661 315.46 93.8061 316.22C92.8461 316.98 91.5181 317.36 89.8221 317.36ZM104.243 317.36C102.955 317.36 101.879 317.06 101.015 316.46C100.151 315.86 99.4991 315.044 99.0591 314.012C98.6271 312.98 98.4111 311.816 98.4111 310.52C98.4111 309.224 98.6271 308.06 99.0591 307.028C99.4911 305.996 100.127 305.18 100.967 304.58C101.807 303.98 102.843 303.68 104.075 303.68C105.315 303.68 106.395 303.976 107.315 304.568C108.235 305.16 108.947 305.972 109.451 307.004C109.963 308.028 110.219 309.2 110.219 310.52C110.219 311.816 109.967 312.98 109.463 314.012C108.967 315.044 108.271 315.86 107.375 316.46C106.479 317.06 105.435 317.36 104.243 317.36ZM97.8591 322.76V304.04H100.739V312.92H101.147V322.76H97.8591ZM103.715 314.456C104.419 314.456 104.995 314.28 105.443 313.928C105.891 313.576 106.223 313.104 106.439 312.512C106.655 311.912 106.763 311.248 106.763 310.52C106.763 309.8 106.651 309.144 106.427 308.552C106.203 307.952 105.855 307.476 105.383 307.124C104.919 306.764 104.323 306.584 103.595 306.584C102.915 306.584 102.363 306.748 101.939 307.076C101.523 307.404 101.219 307.864 101.027 308.456C100.835 309.048 100.739 309.736 100.739 310.52C100.739 311.304 100.835 311.992 101.027 312.584C101.219 313.176 101.531 313.636 101.963 313.964C102.403 314.292 102.987 314.456 103.715 314.456ZM116.46 317.36C115.532 317.36 114.744 317.184 114.096 316.832C113.456 316.472 112.968 315.996 112.632 315.404C112.304 314.804 112.14 314.144 112.14 313.424C112.14 312.824 112.232 312.276 112.416 311.78C112.6 311.284 112.896 310.848 113.304 310.472C113.72 310.088 114.276 309.768 114.972 309.512C115.452 309.336 116.024 309.18 116.688 309.044C117.352 308.908 118.104 308.78 118.944 308.66C119.784 308.532 120.708 308.392 121.716 308.24L120.54 308.888C120.54 308.12 120.356 307.556 119.988 307.196C119.62 306.836 119.004 306.656 118.14 306.656C117.66 306.656 117.16 306.772 116.64 307.004C116.12 307.236 115.756 307.648 115.548 308.24L112.596 307.304C112.924 306.232 113.54 305.36 114.444 304.688C115.348 304.016 116.58 303.68 118.14 303.68C119.284 303.68 120.3 303.856 121.188 304.208C122.076 304.56 122.748 305.168 123.204 306.032C123.46 306.512 123.612 306.992 123.66 307.472C123.708 307.952 123.732 308.488 123.732 309.08V317H120.876V314.336L121.284 314.888C120.652 315.76 119.968 316.392 119.232 316.784C118.504 317.168 117.58 317.36 116.46 317.36ZM117.156 314.792C117.756 314.792 118.26 314.688 118.668 314.48C119.084 314.264 119.412 314.02 119.652 313.748C119.9 313.476 120.068 313.248 120.156 313.064C120.324 312.712 120.42 312.304 120.444 311.84C120.476 311.368 120.492 310.976 120.492 310.664L121.452 310.904C120.484 311.064 119.7 311.2 119.1 311.312C118.5 311.416 118.016 311.512 117.648 311.6C117.28 311.688 116.956 311.784 116.676 311.888C116.356 312.016 116.096 312.156 115.896 312.308C115.704 312.452 115.56 312.612 115.464 312.788C115.376 312.964 115.332 313.16 115.332 313.376C115.332 313.672 115.404 313.928 115.548 314.144C115.7 314.352 115.912 314.512 116.184 314.624C116.456 314.736 116.78 314.792 117.156 314.792ZM127.781 322.76L130.277 315.896L130.325 317.912L124.685 304.04H128.069L131.861 313.856H131.093L134.861 304.04H138.125L130.805 322.76H127.781Z" fill="url(#paint1_radial_2303_2763)"/>
<path d="M26.12 356V344.48H29.616C29.7387 344.48 29.9467 344.483 30.24 344.488C30.5387 344.493 30.824 344.515 31.096 344.552C31.9707 344.675 32.7013 345 33.288 345.528C33.8747 346.056 34.3147 346.728 34.608 347.544C34.9013 348.36 35.048 349.259 35.048 350.24C35.048 351.221 34.9013 352.12 34.608 352.936C34.3147 353.752 33.8747 354.424 33.288 354.952C32.7013 355.48 31.9707 355.805 31.096 355.928C30.8293 355.96 30.544 355.981 30.24 355.992C29.936 355.997 29.728 356 29.616 356H26.12ZM27.336 354.872H29.616C29.8347 354.872 30.0693 354.867 30.32 354.856C30.576 354.84 30.7947 354.813 30.976 354.776C31.648 354.659 32.1893 354.387 32.6 353.96C33.016 353.533 33.32 353 33.512 352.36C33.704 351.715 33.8 351.008 33.8 350.24C33.8 349.467 33.704 348.757 33.512 348.112C33.32 347.467 33.016 346.933 32.6 346.512C32.184 346.091 31.6427 345.821 30.976 345.704C30.7947 345.667 30.5733 345.643 30.312 345.632C30.056 345.616 29.824 345.608 29.616 345.608H27.336V354.872ZM40.526 356.24C39.6833 356.24 38.9527 356.053 38.334 355.68C37.7207 355.307 37.2433 354.781 36.902 354.104C36.5607 353.427 36.39 352.632 36.39 351.72C36.39 350.776 36.558 349.96 36.894 349.272C37.23 348.584 37.702 348.053 38.31 347.68C38.9233 347.307 39.646 347.12 40.478 347.12C41.3313 347.12 42.0593 347.317 42.662 347.712C43.2647 348.101 43.7207 348.661 44.03 349.392C44.3393 350.123 44.4807 350.995 44.454 352.008H43.254V351.592C43.2327 350.472 42.99 349.627 42.526 349.056C42.0673 348.485 41.3953 348.2 40.51 348.2C39.582 348.2 38.87 348.501 38.374 349.104C37.8833 349.707 37.638 350.565 37.638 351.68C37.638 352.768 37.8833 353.613 38.374 354.216C38.87 354.813 39.5713 355.112 40.478 355.112C41.0967 355.112 41.6353 354.971 42.094 354.688C42.558 354.4 42.9233 353.987 43.19 353.448L44.286 353.872C43.9447 354.624 43.4407 355.208 42.774 355.624C42.1127 356.035 41.3633 356.24 40.526 356.24ZM37.222 352.008V351.024H43.822V352.008H37.222ZM46.3894 356V344.24H47.5654V356H46.3894ZM50.1238 345.72V344.4H51.2998V345.72H50.1238ZM50.1238 356V347.36H51.2998V356H50.1238ZM56.0341 356L52.8981 347.36H54.0901L56.6421 354.464L59.1781 347.36H60.3861L57.2501 356H56.0341ZM65.1666 356.24C64.324 356.24 63.5933 356.053 62.9746 355.68C62.3613 355.307 61.884 354.781 61.5426 354.104C61.2013 353.427 61.0306 352.632 61.0306 351.72C61.0306 350.776 61.1986 349.96 61.5346 349.272C61.8706 348.584 62.3426 348.053 62.9506 347.68C63.564 347.307 64.2866 347.12 65.1186 347.12C65.972 347.12 66.7 347.317 67.3026 347.712C67.9053 348.101 68.3613 348.661 68.6706 349.392C68.98 350.123 69.1213 350.995 69.0946 352.008H67.8946V351.592C67.8733 350.472 67.6306 349.627 67.1666 349.056C66.708 348.485 66.036 348.2 65.1506 348.2C64.2226 348.2 63.5106 348.501 63.0146 349.104C62.524 349.707 62.2786 350.565 62.2786 351.68C62.2786 352.768 62.524 353.613 63.0146 354.216C63.5106 354.813 64.212 355.112 65.1186 355.112C65.7373 355.112 66.276 354.971 66.7346 354.688C67.1986 354.4 67.564 353.987 67.8306 353.448L68.9266 353.872C68.5853 354.624 68.0813 355.208 67.4146 355.624C66.7533 356.035 66.004 356.24 65.1666 356.24ZM61.8626 352.008V351.024H68.4626V352.008H61.8626ZM70.87 356V347.36H71.926V349.44L71.718 349.168C71.814 348.912 71.9393 348.677 72.094 348.464C72.2487 348.245 72.4167 348.067 72.598 347.928C72.822 347.731 73.0833 347.581 73.382 347.48C73.6807 347.373 73.982 347.312 74.286 347.296C74.59 347.275 74.8673 347.296 75.118 347.36V348.464C74.8033 348.384 74.4593 348.365 74.086 348.408C73.7127 348.451 73.3687 348.6 73.054 348.856C72.766 349.08 72.55 349.349 72.406 349.664C72.262 349.973 72.166 350.304 72.118 350.656C72.07 351.003 72.046 351.347 72.046 351.688V356H70.87ZM83.0628 356.232C82.0494 356.232 81.2148 356.013 80.5588 355.576C79.9081 355.139 79.5081 354.531 79.3588 353.752L80.5588 353.552C80.6868 354.043 80.9774 354.435 81.4308 354.728C81.8894 355.016 82.4548 355.16 83.1267 355.16C83.7828 355.16 84.3001 355.024 84.6788 354.752C85.0574 354.475 85.2468 354.099 85.2468 353.624C85.2468 353.357 85.1854 353.141 85.0628 352.976C84.9454 352.805 84.7028 352.648 84.3348 352.504C83.9668 352.36 83.4174 352.189 82.6868 351.992C81.9028 351.779 81.2894 351.565 80.8468 351.352C80.4041 351.139 80.0894 350.893 79.9028 350.616C79.7161 350.333 79.6228 349.989 79.6228 349.584C79.6228 349.093 79.7614 348.664 80.0388 348.296C80.3161 347.923 80.7001 347.635 81.1908 347.432C81.6814 347.224 82.2521 347.12 82.9028 347.12C83.5534 347.12 84.1348 347.227 84.6468 347.44C85.1641 347.648 85.5801 347.941 85.8948 348.32C86.2094 348.699 86.3961 349.139 86.4548 349.64L85.2548 349.856C85.1748 349.349 84.9214 348.949 84.4948 348.656C84.0734 348.357 83.5374 348.203 82.8868 348.192C82.2734 348.176 81.7748 348.293 81.3908 348.544C81.0068 348.789 80.8148 349.117 80.8148 349.528C80.8148 349.757 80.8841 349.955 81.0228 350.12C81.1614 350.28 81.4121 350.432 81.7748 350.576C82.1428 350.72 82.6654 350.877 83.3428 351.048C84.1374 351.251 84.7614 351.464 85.2148 351.688C85.6681 351.912 85.9908 352.176 86.1828 352.48C86.3748 352.784 86.4708 353.16 86.4708 353.608C86.4708 354.424 86.1668 355.067 85.5588 355.536C84.9561 356 84.1241 356.232 83.0628 356.232ZM98.549 356L98.557 350.328C98.557 349.661 98.3703 349.139 97.997 348.76C97.629 348.376 97.1597 348.184 96.589 348.184C96.2637 348.184 95.9463 348.259 95.637 348.408C95.3277 348.557 95.0717 348.797 94.869 349.128C94.6717 349.459 94.573 349.891 94.573 350.424L93.877 350.224C93.861 349.605 93.981 349.064 94.237 348.6C94.4983 348.136 94.8557 347.776 95.309 347.52C95.7677 347.259 96.285 347.128 96.861 347.128C97.7303 347.128 98.4263 347.397 98.949 347.936C99.4717 348.469 99.733 349.192 99.733 350.104L99.725 356H98.549ZM88.237 356V347.36H89.293V349.488H89.421V356H88.237ZM93.405 356L93.413 350.408C93.413 349.72 93.229 349.179 92.861 348.784C92.4983 348.384 92.0183 348.184 91.421 348.184C90.8237 348.184 90.341 348.389 89.973 348.8C89.605 349.205 89.421 349.747 89.421 350.424L88.717 350.04C88.717 349.485 88.8477 348.989 89.109 348.552C89.3703 348.109 89.7277 347.763 90.181 347.512C90.6343 347.256 91.149 347.128 91.725 347.128C92.2743 347.128 92.7623 347.245 93.189 347.48C93.621 347.715 93.9597 348.056 94.205 348.504C94.4503 348.952 94.573 349.496 94.573 350.136L94.565 356H93.405ZM104.28 356.24C103.629 356.24 103.082 356.123 102.64 355.888C102.202 355.653 101.874 355.341 101.656 354.952C101.437 354.563 101.328 354.139 101.328 353.68C101.328 353.211 101.421 352.811 101.608 352.48C101.8 352.144 102.058 351.869 102.384 351.656C102.714 351.443 103.096 351.28 103.528 351.168C103.965 351.061 104.448 350.968 104.976 350.888C105.509 350.803 106.029 350.731 106.536 350.672C107.048 350.608 107.496 350.547 107.88 350.488L107.464 350.744C107.48 349.891 107.314 349.259 106.968 348.848C106.621 348.437 106.018 348.232 105.16 348.232C104.568 348.232 104.066 348.365 103.656 348.632C103.25 348.899 102.965 349.32 102.799 349.896L101.656 349.56C101.853 348.787 102.25 348.187 102.848 347.76C103.445 347.333 104.221 347.12 105.176 347.12C105.965 347.12 106.634 347.269 107.184 347.568C107.738 347.861 108.13 348.288 108.36 348.848C108.466 349.099 108.536 349.379 108.568 349.688C108.6 349.997 108.616 350.312 108.616 350.632V356H107.568V353.832L107.872 353.96C107.578 354.701 107.122 355.267 106.504 355.656C105.885 356.045 105.144 356.24 104.28 356.24ZM104.416 355.224C104.965 355.224 105.445 355.125 105.856 354.928C106.266 354.731 106.597 354.461 106.848 354.12C107.098 353.773 107.261 353.384 107.336 352.952C107.4 352.675 107.434 352.371 107.44 352.04C107.445 351.704 107.448 351.453 107.448 351.288L107.896 351.52C107.496 351.573 107.061 351.627 106.592 351.68C106.128 351.733 105.669 351.795 105.216 351.864C104.768 351.933 104.362 352.016 104 352.112C103.754 352.181 103.517 352.28 103.288 352.408C103.058 352.531 102.869 352.696 102.72 352.904C102.576 353.112 102.504 353.371 102.504 353.68C102.504 353.931 102.565 354.173 102.688 354.408C102.816 354.643 103.018 354.837 103.296 354.992C103.578 355.147 103.952 355.224 104.416 355.224ZM110.698 356V347.36H111.754V349.44L111.546 349.168C111.642 348.912 111.767 348.677 111.922 348.464C112.077 348.245 112.245 348.067 112.426 347.928C112.65 347.731 112.911 347.581 113.21 347.48C113.509 347.373 113.81 347.312 114.114 347.296C114.418 347.275 114.695 347.296 114.946 347.36V348.464C114.631 348.384 114.287 348.365 113.914 348.408C113.541 348.451 113.197 348.6 112.882 348.856C112.594 349.08 112.378 349.349 112.234 349.664C112.09 349.973 111.994 350.304 111.946 350.656C111.898 351.003 111.874 351.347 111.874 351.688V356H110.698ZM121.168 356C120.682 356.101 120.202 356.141 119.728 356.12C119.258 356.099 118.837 355.997 118.464 355.816C118.096 355.635 117.816 355.352 117.624 354.968C117.469 354.648 117.384 354.325 117.368 354C117.357 353.669 117.352 353.293 117.352 352.872V344.96H118.52V352.824C118.52 353.187 118.522 353.491 118.528 353.736C118.538 353.976 118.594 354.189 118.696 354.376C118.888 354.733 119.192 354.947 119.608 355.016C120.029 355.085 120.549 355.069 121.168 354.968V356ZM115.504 348.368V347.36H121.168V348.368H115.504ZM122.71 357.672L122.782 357.088C122.995 357.104 123.15 357.061 123.246 356.96C123.342 356.859 123.401 356.723 123.422 356.552C123.443 356.381 123.449 356.197 123.438 356H122.71V354.312H124.078V356.32C124.078 356.811 123.953 357.179 123.702 357.424C123.457 357.669 123.126 357.752 122.71 357.672ZM133.675 356.24C132.87 356.24 132.182 356.04 131.611 355.64C131.04 355.235 130.603 354.688 130.299 354C129.995 353.312 129.843 352.536 129.843 351.672C129.843 350.813 129.992 350.04 130.291 349.352C130.595 348.664 131.03 348.12 131.595 347.72C132.16 347.32 132.838 347.12 133.627 347.12C134.438 347.12 135.12 347.317 135.675 347.712C136.23 348.107 136.648 348.648 136.931 349.336C137.219 350.019 137.363 350.797 137.363 351.672C137.363 352.531 137.222 353.307 136.939 354C136.656 354.688 136.24 355.235 135.691 355.64C135.142 356.04 134.47 356.24 133.675 356.24ZM133.795 355.144C134.408 355.144 134.915 354.995 135.315 354.696C135.715 354.397 136.014 353.987 136.211 353.464C136.408 352.936 136.507 352.339 136.507 351.672C136.507 350.995 136.408 350.397 136.211 349.88C136.014 349.357 135.715 348.949 135.315 348.656C134.92 348.363 134.422 348.216 133.819 348.216C133.2 348.216 132.688 348.368 132.283 348.672C131.878 348.976 131.576 349.389 131.379 349.912C131.187 350.435 131.091 351.021 131.091 351.672C131.091 352.328 131.19 352.92 131.387 353.448C131.59 353.971 131.891 354.384 132.291 354.688C132.691 354.992 133.192 355.144 133.795 355.144ZM136.507 356V349.496H136.379V344.48H137.563V356H136.507ZM141.039 359.84L142.712 355.304L142.736 356.648L138.951 347.36H140.2L143.304 355.128H142.792L145.656 347.36H146.856L142.216 359.84H141.039ZM154.485 356V351.592C154.485 351.112 154.44 350.672 154.349 350.272C154.258 349.867 154.112 349.515 153.909 349.216C153.712 348.912 153.453 348.677 153.133 348.512C152.818 348.347 152.434 348.264 151.981 348.264C151.565 348.264 151.197 348.336 150.877 348.48C150.562 348.624 150.296 348.832 150.077 349.104C149.864 349.371 149.701 349.696 149.589 350.08C149.477 350.464 149.421 350.901 149.421 351.392L148.589 351.208C148.589 350.323 148.744 349.579 149.053 348.976C149.362 348.373 149.789 347.917 150.333 347.608C150.877 347.299 151.501 347.144 152.205 347.144C152.722 347.144 153.173 347.224 153.557 347.384C153.946 347.544 154.274 347.76 154.541 348.032C154.813 348.304 155.032 348.616 155.197 348.968C155.362 349.315 155.482 349.685 155.557 350.08C155.632 350.469 155.669 350.859 155.669 351.248V356H154.485ZM148.237 356V347.36H149.301V349.488H149.421V356H148.237ZM160.217 356.24C159.566 356.24 159.02 356.123 158.577 355.888C158.14 355.653 157.812 355.341 157.593 354.952C157.374 354.563 157.265 354.139 157.265 353.68C157.265 353.211 157.358 352.811 157.545 352.48C157.737 352.144 157.996 351.869 158.321 351.656C158.652 351.443 159.033 351.28 159.465 351.168C159.902 351.061 160.385 350.968 160.913 350.888C161.446 350.803 161.966 350.731 162.473 350.672C162.985 350.608 163.433 350.547 163.817 350.488L163.401 350.744C163.417 349.891 163.252 349.259 162.905 348.848C162.558 348.437 161.956 348.232 161.097 348.232C160.505 348.232 160.004 348.365 159.593 348.632C159.188 348.899 158.902 349.32 158.737 349.896L157.593 349.56C157.79 348.787 158.188 348.187 158.785 347.76C159.382 347.333 160.158 347.12 161.113 347.12C161.902 347.12 162.572 347.269 163.121 347.568C163.676 347.861 164.068 348.288 164.297 348.848C164.404 349.099 164.473 349.379 164.505 349.688C164.537 349.997 164.553 350.312 164.553 350.632V356H163.505V353.832L163.809 353.96C163.516 354.701 163.06 355.267 162.441 355.656C161.822 356.045 161.081 356.24 160.217 356.24ZM160.353 355.224C160.902 355.224 161.382 355.125 161.793 354.928C162.204 354.731 162.534 354.461 162.785 354.12C163.036 353.773 163.198 353.384 163.273 352.952C163.337 352.675 163.372 352.371 163.377 352.04C163.382 351.704 163.385 351.453 163.385 351.288L163.833 351.52C163.433 351.573 162.998 351.627 162.529 351.68C162.065 351.733 161.606 351.795 161.153 351.864C160.705 351.933 160.3 352.016 159.937 352.112C159.692 352.181 159.454 352.28 159.225 352.408C158.996 352.531 158.806 352.696 158.657 352.904C158.513 353.112 158.441 353.371 158.441 353.68C158.441 353.931 158.502 354.173 158.625 354.408C158.753 354.643 158.956 354.837 159.233 354.992C159.516 355.147 159.889 355.224 160.353 355.224ZM176.94 356L176.948 350.328C176.948 349.661 176.761 349.139 176.388 348.76C176.02 348.376 175.55 348.184 174.98 348.184C174.654 348.184 174.337 348.259 174.028 348.408C173.718 348.557 173.462 348.797 173.26 349.128C173.062 349.459 172.964 349.891 172.964 350.424L172.268 350.224C172.252 349.605 172.372 349.064 172.628 348.6C172.889 348.136 173.246 347.776 173.7 347.52C174.158 347.259 174.676 347.128 175.252 347.128C176.121 347.128 176.817 347.397 177.34 347.936C177.862 348.469 178.124 349.192 178.124 350.104L178.116 356H176.94ZM166.628 356V347.36H167.684V349.488H167.812V356H166.628ZM171.796 356L171.804 350.408C171.804 349.72 171.62 349.179 171.252 348.784C170.889 348.384 170.409 348.184 169.812 348.184C169.214 348.184 168.732 348.389 168.364 348.8C167.996 349.205 167.812 349.747 167.812 350.424L167.108 350.04C167.108 349.485 167.238 348.989 167.5 348.552C167.761 348.109 168.118 347.763 168.572 347.512C169.025 347.256 169.54 347.128 170.116 347.128C170.665 347.128 171.153 347.245 171.58 347.48C172.012 347.715 172.35 348.056 172.596 348.504C172.841 348.952 172.964 349.496 172.964 350.136L172.956 356H171.796ZM180.358 345.72V344.4H181.534V345.72H180.358ZM180.358 356V347.36H181.534V356H180.358ZM187.516 356.24C186.647 356.24 185.911 356.045 185.309 355.656C184.706 355.267 184.247 354.731 183.933 354.048C183.623 353.36 183.463 352.571 183.453 351.68C183.463 350.773 183.629 349.979 183.949 349.296C184.269 348.608 184.73 348.075 185.333 347.696C185.935 347.312 186.666 347.12 187.525 347.12C188.399 347.12 189.159 347.333 189.805 347.76C190.455 348.187 190.901 348.771 191.141 349.512L189.989 349.88C189.786 349.363 189.463 348.963 189.021 348.68C188.583 348.392 188.082 348.248 187.516 348.248C186.882 348.248 186.357 348.395 185.941 348.688C185.525 348.976 185.215 349.379 185.013 349.896C184.81 350.413 184.706 351.008 184.701 351.68C184.711 352.715 184.951 353.547 185.421 354.176C185.89 354.8 186.589 355.112 187.516 355.112C188.103 355.112 188.602 354.979 189.013 354.712C189.429 354.44 189.743 354.045 189.957 353.528L191.141 353.88C190.821 354.648 190.351 355.235 189.733 355.64C189.114 356.04 188.375 356.24 187.516 356.24ZM199.347 356.24C198.542 356.24 197.854 356.04 197.283 355.64C196.712 355.235 196.275 354.688 195.971 354C195.667 353.312 195.515 352.536 195.515 351.672C195.515 350.813 195.664 350.04 195.963 349.352C196.267 348.664 196.702 348.12 197.267 347.72C197.832 347.32 198.51 347.12 199.299 347.12C200.11 347.12 200.792 347.317 201.347 347.712C201.902 348.107 202.32 348.648 202.603 349.336C202.891 350.019 203.035 350.797 203.035 351.672C203.035 352.531 202.894 353.307 202.611 354C202.328 354.688 201.912 355.235 201.363 355.64C200.814 356.04 200.142 356.24 199.347 356.24ZM199.467 355.144C200.08 355.144 200.587 354.995 200.987 354.696C201.387 354.397 201.686 353.987 201.883 353.464C202.08 352.936 202.179 352.339 202.179 351.672C202.179 350.995 202.08 350.397 201.883 349.88C201.686 349.357 201.387 348.949 200.987 348.656C200.592 348.363 200.094 348.216 199.491 348.216C198.872 348.216 198.36 348.368 197.955 348.672C197.55 348.976 197.248 349.389 197.051 349.912C196.859 350.435 196.763 351.021 196.763 351.672C196.763 352.328 196.862 352.92 197.059 353.448C197.262 353.971 197.563 354.384 197.963 354.688C198.363 354.992 198.864 355.144 199.467 355.144ZM202.179 356V349.496H202.051V344.48H203.235V356H202.179ZM205.639 345.72V344.4H206.815V345.72H205.639ZM205.639 356V347.36H206.815V356H205.639ZM212.646 360.08C212.203 360.08 211.766 360.013 211.334 359.88C210.907 359.752 210.512 359.547 210.15 359.264C209.787 358.987 209.483 358.624 209.238 358.176L210.302 357.584C210.542 358.064 210.878 358.408 211.31 358.616C211.747 358.829 212.192 358.936 212.646 358.936C213.27 358.936 213.774 358.819 214.158 358.584C214.547 358.355 214.83 358.013 215.006 357.56C215.182 357.107 215.267 356.541 215.262 355.864V353.56H215.398V347.36H216.446V355.88C216.446 356.125 216.438 356.36 216.422 356.584C216.411 356.813 216.387 357.037 216.35 357.256C216.248 357.901 216.038 358.432 215.718 358.848C215.403 359.264 214.987 359.573 214.47 359.776C213.958 359.979 213.35 360.08 212.646 360.08ZM212.566 356.24C211.76 356.24 211.072 356.04 210.502 355.64C209.931 355.235 209.494 354.688 209.19 354C208.886 353.312 208.734 352.536 208.734 351.672C208.734 350.813 208.883 350.04 209.182 349.352C209.486 348.664 209.92 348.12 210.486 347.72C211.051 347.32 211.728 347.12 212.518 347.12C213.328 347.12 214.011 347.317 214.566 347.712C215.12 348.107 215.539 348.648 215.822 349.336C216.11 350.019 216.254 350.797 216.254 351.672C216.254 352.531 216.112 353.307 215.83 354C215.547 354.688 215.131 355.235 214.582 355.64C214.032 356.04 213.36 356.24 212.566 356.24ZM212.686 355.144C213.299 355.144 213.806 354.995 214.206 354.696C214.606 354.397 214.904 353.987 215.102 353.464C215.299 352.936 215.398 352.339 215.398 351.672C215.398 350.995 215.299 350.397 215.102 349.88C214.904 349.357 214.606 348.949 214.206 348.656C213.811 348.363 213.312 348.216 212.71 348.216C212.091 348.216 211.579 348.368 211.174 348.672C210.768 348.976 210.467 349.389 210.27 349.912C210.078 350.435 209.982 351.021 209.982 351.672C209.982 352.328 210.08 352.92 210.278 353.448C210.48 353.971 210.782 354.384 211.182 354.688C211.582 354.992 212.083 355.144 212.686 355.144ZM218.843 345.72V344.4H220.019V345.72H218.843ZM218.843 356V347.36H220.019V356H218.843ZM227.121 356C226.636 356.101 226.156 356.141 225.681 356.12C225.212 356.099 224.79 355.997 224.417 355.816C224.049 355.635 223.769 355.352 223.577 354.968C223.422 354.648 223.337 354.325 223.321 354C223.31 353.669 223.305 353.293 223.305 352.872V344.96H224.473V352.824C224.473 353.187 224.476 353.491 224.481 353.736C224.492 353.976 224.548 354.189 224.649 354.376C224.841 354.733 225.145 354.947 225.561 355.016C225.982 355.085 226.502 355.069 227.121 354.968V356ZM221.457 348.368V347.36H227.121V348.368H221.457ZM231.295 356.24C230.644 356.24 230.098 356.123 229.655 355.888C229.218 355.653 228.89 355.341 228.671 354.952C228.452 354.563 228.343 354.139 228.343 353.68C228.343 353.211 228.436 352.811 228.623 352.48C228.815 352.144 229.074 351.869 229.399 351.656C229.73 351.443 230.111 351.28 230.543 351.168C230.98 351.061 231.463 350.968 231.991 350.888C232.524 350.803 233.044 350.731 233.551 350.672C234.063 350.608 234.511 350.547 234.895 350.488L234.479 350.744C234.495 349.891 234.33 349.259 233.983 348.848C233.636 348.437 233.034 348.232 232.175 348.232C231.583 348.232 231.082 348.365 230.671 348.632C230.266 348.899 229.98 349.32 229.815 349.896L228.671 349.56C228.868 348.787 229.266 348.187 229.863 347.76C230.46 347.333 231.236 347.12 232.191 347.12C232.98 347.12 233.65 347.269 234.199 347.568C234.754 347.861 235.146 348.288 235.375 348.848C235.482 349.099 235.551 349.379 235.583 349.688C235.615 349.997 235.631 350.312 235.631 350.632V356H234.583V353.832L234.887 353.96C234.594 354.701 234.138 355.267 233.519 355.656C232.9 356.045 232.159 356.24 231.295 356.24ZM231.431 355.224C231.98 355.224 232.46 355.125 232.871 354.928C233.282 354.731 233.612 354.461 233.863 354.12C234.114 353.773 234.276 353.384 234.351 352.952C234.415 352.675 234.45 352.371 234.455 352.04C234.46 351.704 234.463 351.453 234.463 351.288L234.911 351.52C234.511 351.573 234.076 351.627 233.607 351.68C233.143 351.733 232.684 351.795 232.231 351.864C231.783 351.933 231.378 352.016 231.015 352.112C230.77 352.181 230.532 352.28 230.303 352.408C230.074 352.531 229.884 352.696 229.735 352.904C229.591 353.112 229.519 353.371 229.519 353.68C229.519 353.931 229.58 354.173 229.703 354.408C229.831 354.643 230.034 354.837 230.311 354.992C230.594 355.147 230.967 355.224 231.431 355.224ZM237.874 356V344.24H239.05V356H237.874ZM27.96 380L25.32 371.352L26.496 371.36L28.544 378.072L30.6 371.36H31.672L33.728 378.072L35.792 371.36H36.96L34.32 380H33.296L31.136 373.12L28.984 380H27.96ZM40.3889 380.24C39.7382 380.24 39.1915 380.123 38.7489 379.888C38.3115 379.653 37.9835 379.341 37.7649 378.952C37.5462 378.563 37.4369 378.139 37.4369 377.68C37.4369 377.211 37.5302 376.811 37.7169 376.48C37.9089 376.144 38.1675 375.869 38.4929 375.656C38.8235 375.443 39.2049 375.28 39.6369 375.168C40.0742 375.061 40.5569 374.968 41.0849 374.888C41.6182 374.803 42.1382 374.731 42.6449 374.672C43.1569 374.608 43.6049 374.547 43.9889 374.488L43.5729 374.744C43.5889 373.891 43.4235 373.259 43.0769 372.848C42.7302 372.437 42.1275 372.232 41.2689 372.232C40.6769 372.232 40.1755 372.365 39.7649 372.632C39.3595 372.899 39.0742 373.32 38.9089 373.896L37.7649 373.56C37.9622 372.787 38.3595 372.187 38.9569 371.76C39.5542 371.333 40.3302 371.12 41.2849 371.12C42.0742 371.12 42.7435 371.269 43.2929 371.568C43.8475 371.861 44.2395 372.288 44.4689 372.848C44.5755 373.099 44.6449 373.379 44.6769 373.688C44.7089 373.997 44.7249 374.312 44.7249 374.632V380H43.6769V377.832L43.9809 377.96C43.6875 378.701 43.2315 379.267 42.6129 379.656C41.9942 380.045 41.2529 380.24 40.3889 380.24ZM40.5249 379.224C41.0742 379.224 41.5542 379.125 41.9649 378.928C42.3755 378.731 42.7062 378.461 42.9569 378.12C43.2075 377.773 43.3702 377.384 43.4449 376.952C43.5089 376.675 43.5435 376.371 43.5489 376.04C43.5542 375.704 43.5569 375.453 43.5569 375.288L44.0049 375.52C43.6049 375.573 43.1702 375.627 42.7009 375.68C42.2369 375.733 41.7782 375.795 41.3249 375.864C40.8769 375.933 40.4715 376.016 40.1089 376.112C39.8635 376.181 39.6262 376.28 39.3969 376.408C39.1675 376.531 38.9782 376.696 38.8289 376.904C38.6849 377.112 38.6129 377.371 38.6129 377.68C38.6129 377.931 38.6742 378.173 38.7969 378.408C38.9249 378.643 39.1275 378.837 39.4049 378.992C39.6875 379.147 40.0609 379.224 40.5249 379.224ZM46.9675 380V368.24H48.1435V380H46.9675ZM50.7019 380V368.24H51.8779V380H50.7019ZM57.9323 380.24C57.0896 380.24 56.3589 380.053 55.7403 379.68C55.1269 379.307 54.6496 378.781 54.3083 378.104C53.9669 377.427 53.7963 376.632 53.7963 375.72C53.7963 374.776 53.9643 373.96 54.3003 373.272C54.6363 372.584 55.1083 372.053 55.7163 371.68C56.3296 371.307 57.0523 371.12 57.8843 371.12C58.7376 371.12 59.4656 371.317 60.0683 371.712C60.6709 372.101 61.1269 372.661 61.4363 373.392C61.7456 374.123 61.8869 374.995 61.8603 376.008H60.6603V375.592C60.6389 374.472 60.3963 373.627 59.9323 373.056C59.4736 372.485 58.8016 372.2 57.9163 372.2C56.9883 372.2 56.2763 372.501 55.7803 373.104C55.2896 373.707 55.0443 374.565 55.0443 375.68C55.0443 376.768 55.2896 377.613 55.7803 378.216C56.2763 378.813 56.9776 379.112 57.8843 379.112C58.5029 379.112 59.0416 378.971 59.5003 378.688C59.9643 378.4 60.3296 377.987 60.5963 377.448L61.6923 377.872C61.3509 378.624 60.8469 379.208 60.1803 379.624C59.5189 380.035 58.7696 380.24 57.9323 380.24ZM54.6283 376.008V375.024H61.2283V376.008H54.6283ZM68.3396 380C67.8543 380.101 67.3743 380.141 66.8996 380.12C66.4303 380.099 66.009 379.997 65.6356 379.816C65.2676 379.635 64.9876 379.352 64.7956 378.968C64.641 378.648 64.5556 378.325 64.5396 378C64.529 377.669 64.5236 377.293 64.5236 376.872V368.96H65.6916V376.824C65.6916 377.187 65.6943 377.491 65.6996 377.736C65.7103 377.976 65.7663 378.189 65.8676 378.376C66.0596 378.733 66.3636 378.947 66.7796 379.016C67.201 379.085 67.721 379.069 68.3396 378.968V380ZM62.6756 372.368V371.36H68.3396V372.368H62.6756ZM76.901 380.24C76.0583 380.24 75.3277 380.053 74.709 379.68C74.0957 379.307 73.6183 378.781 73.277 378.104C72.9357 377.427 72.765 376.632 72.765 375.72C72.765 374.776 72.933 373.96 73.269 373.272C73.605 372.584 74.077 372.053 74.685 371.68C75.2983 371.307 76.021 371.12 76.853 371.12C77.7063 371.12 78.4343 371.317 79.037 371.712C79.6397 372.101 80.0957 372.661 80.405 373.392C80.7143 374.123 80.8557 374.995 80.829 376.008H79.629V375.592C79.6077 374.472 79.365 373.627 78.901 373.056C78.4423 372.485 77.7703 372.2 76.885 372.2C75.957 372.2 75.245 372.501 74.749 373.104C74.2583 373.707 74.013 374.565 74.013 375.68C74.013 376.768 74.2583 377.613 74.749 378.216C75.245 378.813 75.9463 379.112 76.853 379.112C77.4717 379.112 78.0103 378.971 78.469 378.688C78.933 378.4 79.2983 377.987 79.565 377.448L80.661 377.872C80.3197 378.624 79.8157 379.208 79.149 379.624C78.4877 380.035 77.7383 380.24 76.901 380.24ZM73.597 376.008V375.024H80.197V376.008H73.597ZM81.3319 380L84.7079 375.632L81.4039 371.36H82.8119L85.3959 374.728L87.9559 371.36H89.3639L86.0599 375.632L89.4439 380H88.0279L85.3959 376.536L82.7479 380H81.3319ZM94.6094 380.24C93.8147 380.24 93.1427 380.04 92.5934 379.64C92.044 379.235 91.628 378.688 91.3454 378C91.0627 377.307 90.9214 376.531 90.9214 375.672C90.9214 374.797 91.0627 374.019 91.3454 373.336C91.6334 372.648 92.0547 372.107 92.6094 371.712C93.164 371.317 93.8467 371.12 94.6574 371.12C95.4467 371.12 96.124 371.32 96.6894 371.72C97.2547 372.12 97.6867 372.664 97.9854 373.352C98.2894 374.04 98.4414 374.813 98.4414 375.672C98.4414 376.536 98.2894 377.312 97.9854 378C97.6814 378.688 97.244 379.235 96.6734 379.64C96.1027 380.04 95.4147 380.24 94.6094 380.24ZM90.7214 383.84V371.36H91.7774V377.864H91.9054V383.84H90.7214ZM94.4894 379.144C95.092 379.144 95.5934 378.992 95.9934 378.688C96.3934 378.384 96.692 377.971 96.8894 377.448C97.092 376.92 97.1934 376.328 97.1934 375.672C97.1934 375.021 97.0947 374.435 96.8974 373.912C96.7 373.389 96.3987 372.976 95.9934 372.672C95.5934 372.368 95.084 372.216 94.4654 372.216C93.8627 372.216 93.3614 372.363 92.9614 372.656C92.5667 372.949 92.2707 373.357 92.0734 373.88C91.876 374.397 91.7774 374.995 91.7774 375.672C91.7774 376.339 91.876 376.936 92.0734 377.464C92.2707 377.987 92.5694 378.397 92.9694 378.696C93.3694 378.995 93.876 379.144 94.4894 379.144ZM103.854 380.24C103.011 380.24 102.281 380.053 101.662 379.68C101.049 379.307 100.571 378.781 100.23 378.104C99.8888 377.427 99.7181 376.632 99.7181 375.72C99.7181 374.776 99.8861 373.96 100.222 373.272C100.558 372.584 101.03 372.053 101.638 371.68C102.251 371.307 102.974 371.12 103.806 371.12C104.659 371.12 105.387 371.317 105.99 371.712C106.593 372.101 107.049 372.661 107.358 373.392C107.667 374.123 107.809 374.995 107.782 376.008H106.582V375.592C106.561 374.472 106.318 373.627 105.854 373.056C105.395 372.485 104.723 372.2 103.838 372.2C102.91 372.2 102.198 372.501 101.702 373.104C101.211 373.707 100.966 374.565 100.966 375.68C100.966 376.768 101.211 377.613 101.702 378.216C102.198 378.813 102.899 379.112 103.806 379.112C104.425 379.112 104.963 378.971 105.422 378.688C105.886 378.4 106.251 377.987 106.518 377.448L107.614 377.872C107.273 378.624 106.769 379.208 106.102 379.624C105.441 380.035 104.691 380.24 103.854 380.24ZM100.55 376.008V375.024H107.15V376.008H100.55ZM109.558 380V371.36H110.614V373.44L110.406 373.168C110.502 372.912 110.627 372.677 110.782 372.464C110.936 372.245 111.104 372.067 111.286 371.928C111.51 371.731 111.771 371.581 112.07 371.48C112.368 371.373 112.67 371.312 112.974 371.296C113.278 371.275 113.555 371.296 113.806 371.36V372.464C113.491 372.384 113.147 372.365 112.774 372.408C112.4 372.451 112.056 372.6 111.742 372.856C111.454 373.08 111.238 373.349 111.094 373.664C110.95 373.973 110.854 374.304 110.806 374.656C110.758 375.003 110.734 375.347 110.734 375.688V380H109.558ZM115.483 369.72V368.4H116.659V369.72H115.483ZM115.483 380V371.36H116.659V380H115.483ZM122.714 380.24C121.871 380.24 121.14 380.053 120.522 379.68C119.908 379.307 119.431 378.781 119.09 378.104C118.748 377.427 118.578 376.632 118.578 375.72C118.578 374.776 118.746 373.96 119.082 373.272C119.418 372.584 119.89 372.053 120.498 371.68C121.111 371.307 121.834 371.12 122.666 371.12C123.519 371.12 124.247 371.317 124.85 371.712C125.452 372.101 125.908 372.661 126.218 373.392C126.527 374.123 126.668 374.995 126.642 376.008H125.442V375.592C125.42 374.472 125.178 373.627 124.714 373.056C124.255 372.485 123.583 372.2 122.698 372.2C121.77 372.2 121.058 372.501 120.562 373.104C120.071 373.707 119.826 374.565 119.826 375.68C119.826 376.768 120.071 377.613 120.562 378.216C121.058 378.813 121.759 379.112 122.666 379.112C123.284 379.112 123.823 378.971 124.282 378.688C124.746 378.4 125.111 377.987 125.378 377.448L126.474 377.872C126.132 378.624 125.628 379.208 124.962 379.624C124.3 380.035 123.551 380.24 122.714 380.24ZM119.41 376.008V375.024H126.01V376.008H119.41ZM134.423 380V375.592C134.423 375.112 134.377 374.672 134.287 374.272C134.196 373.867 134.049 373.515 133.847 373.216C133.649 372.912 133.391 372.677 133.071 372.512C132.756 372.347 132.372 372.264 131.919 372.264C131.503 372.264 131.135 372.336 130.815 372.48C130.5 372.624 130.233 372.832 130.015 373.104C129.801 373.371 129.639 373.696 129.527 374.08C129.415 374.464 129.359 374.901 129.359 375.392L128.527 375.208C128.527 374.323 128.681 373.579 128.991 372.976C129.3 372.373 129.727 371.917 130.271 371.608C130.815 371.299 131.439 371.144 132.143 371.144C132.66 371.144 133.111 371.224 133.495 371.384C133.884 371.544 134.212 371.76 134.479 372.032C134.751 372.304 134.969 372.616 135.135 372.968C135.3 373.315 135.42 373.685 135.495 374.08C135.569 374.469 135.607 374.859 135.607 375.248V380H134.423ZM128.175 380V371.36H129.239V373.488H129.359V380H128.175ZM141.22 380.24C140.35 380.24 139.614 380.045 139.012 379.656C138.409 379.267 137.95 378.731 137.636 378.048C137.326 377.36 137.166 376.571 137.156 375.68C137.166 374.773 137.332 373.979 137.652 373.296C137.972 372.608 138.433 372.075 139.036 371.696C139.638 371.312 140.369 371.12 141.228 371.12C142.102 371.12 142.862 371.333 143.508 371.76C144.158 372.187 144.604 372.771 144.844 373.512L143.692 373.88C143.489 373.363 143.166 372.963 142.724 372.68C142.286 372.392 141.785 372.248 141.22 372.248C140.585 372.248 140.06 372.395 139.644 372.688C139.228 372.976 138.918 373.379 138.716 373.896C138.513 374.413 138.409 375.008 138.404 375.68C138.414 376.715 138.654 377.547 139.124 378.176C139.593 378.8 140.292 379.112 141.22 379.112C141.806 379.112 142.305 378.979 142.716 378.712C143.132 378.44 143.446 378.045 143.66 377.528L144.844 377.88C144.524 378.648 144.054 379.235 143.436 379.64C142.817 380.04 142.078 380.24 141.22 380.24ZM149.917 380.24C149.074 380.24 148.343 380.053 147.725 379.68C147.111 379.307 146.634 378.781 146.293 378.104C145.951 377.427 145.781 376.632 145.781 375.72C145.781 374.776 145.949 373.96 146.285 373.272C146.621 372.584 147.093 372.053 147.701 371.68C148.314 371.307 149.037 371.12 149.869 371.12C150.722 371.12 151.45 371.317 152.053 371.712C152.655 372.101 153.111 372.661 153.421 373.392C153.73 374.123 153.871 374.995 153.845 376.008H152.645V375.592C152.623 374.472 152.381 373.627 151.917 373.056C151.458 372.485 150.786 372.2 149.901 372.2C148.973 372.2 148.261 372.501 147.765 373.104C147.274 373.707 147.029 374.565 147.029 375.68C147.029 376.768 147.274 377.613 147.765 378.216C148.261 378.813 148.962 379.112 149.869 379.112C150.487 379.112 151.026 378.971 151.485 378.688C151.949 378.4 152.314 377.987 152.581 377.448L153.677 377.872C153.335 378.624 152.831 379.208 152.165 379.624C151.503 380.035 150.754 380.24 149.917 380.24ZM146.613 376.008V375.024H153.213V376.008H146.613ZM158.844 380.232C157.831 380.232 156.996 380.013 156.34 379.576C155.689 379.139 155.289 378.531 155.14 377.752L156.34 377.552C156.468 378.043 156.759 378.435 157.212 378.728C157.671 379.016 158.236 379.16 158.908 379.16C159.564 379.16 160.081 379.024 160.46 378.752C160.839 378.475 161.028 378.099 161.028 377.624C161.028 377.357 160.967 377.141 160.844 376.976C160.727 376.805 160.484 376.648 160.116 376.504C159.748 376.36 159.199 376.189 158.468 375.992C157.684 375.779 157.071 375.565 156.628 375.352C156.185 375.139 155.871 374.893 155.684 374.616C155.497 374.333 155.404 373.989 155.404 373.584C155.404 373.093 155.543 372.664 155.82 372.296C156.097 371.923 156.481 371.635 156.972 371.432C157.463 371.224 158.033 371.12 158.684 371.12C159.335 371.12 159.916 371.227 160.428 371.44C160.945 371.648 161.361 371.941 161.676 372.32C161.991 372.699 162.177 373.139 162.236 373.64L161.036 373.856C160.956 373.349 160.703 372.949 160.276 372.656C159.855 372.357 159.319 372.203 158.668 372.192C158.055 372.176 157.556 372.293 157.172 372.544C156.788 372.789 156.596 373.117 156.596 373.528C156.596 373.757 156.665 373.955 156.804 374.12C156.943 374.28 157.193 374.432 157.556 374.576C157.924 374.72 158.447 374.877 159.124 375.048C159.919 375.251 160.543 375.464 160.996 375.688C161.449 375.912 161.772 376.176 161.964 376.48C162.156 376.784 162.252 377.16 162.252 377.608C162.252 378.424 161.948 379.067 161.34 379.536C160.737 380 159.905 380.232 158.844 380.232ZM169.069 380L166.429 371.352L167.605 371.36L169.653 378.072L171.709 371.36H172.781L174.837 378.072L176.901 371.36H178.069L175.429 380H174.405L172.245 373.12L170.093 380H169.069ZM179.671 369.72V368.4H180.847V369.72H179.671ZM179.671 380V371.36H180.847V380H179.671ZM187.949 380C187.464 380.101 186.984 380.141 186.509 380.12C186.04 380.099 185.618 379.997 185.245 379.816C184.877 379.635 184.597 379.352 184.405 378.968C184.25 378.648 184.165 378.325 184.149 378C184.138 377.669 184.133 377.293 184.133 376.872V368.96H185.301V376.824C185.301 377.187 185.304 377.491 185.309 377.736C185.32 377.976 185.376 378.189 185.477 378.376C185.669 378.733 185.973 378.947 186.389 379.016C186.81 379.085 187.33 379.069 187.949 378.968V380ZM182.285 372.368V371.36H187.949V372.368H182.285ZM195.891 380V375.592C195.891 375.112 195.846 374.672 195.755 374.272C195.665 373.867 195.518 373.515 195.315 373.216C195.118 372.912 194.859 372.677 194.539 372.512C194.225 372.347 193.841 372.264 193.387 372.264C192.971 372.264 192.603 372.336 192.283 372.48C191.969 372.624 191.702 372.832 191.483 373.104C191.27 373.371 191.107 373.696 190.995 374.08C190.883 374.464 190.827 374.901 190.827 375.392L189.995 375.208C189.995 374.323 190.15 373.579 190.459 372.976C190.769 372.373 191.195 371.917 191.739 371.608C192.283 371.299 192.907 371.144 193.611 371.144C194.129 371.144 194.579 371.224 194.963 371.384C195.353 371.544 195.681 371.76 195.947 372.032C196.219 372.304 196.438 372.616 196.603 372.968C196.769 373.315 196.889 373.685 196.963 374.08C197.038 374.469 197.075 374.859 197.075 375.248V380H195.891ZM189.643 380V368.48H190.707V374.984H190.827V380H189.643ZM202.354 380V371.36H203.41V373.44L203.202 373.168C203.298 372.912 203.424 372.677 203.578 372.464C203.733 372.245 203.901 372.067 204.082 371.928C204.306 371.731 204.568 371.581 204.866 371.48C205.165 371.373 205.466 371.312 205.77 371.296C206.074 371.275 206.352 371.296 206.602 371.36V372.464C206.288 372.384 205.944 372.365 205.57 372.408C205.197 372.451 204.853 372.6 204.538 372.856C204.25 373.08 204.034 373.349 203.89 373.664C203.746 373.973 203.65 374.304 203.602 374.656C203.554 375.003 203.53 375.347 203.53 375.688V380H202.354ZM211.62 380.24C210.777 380.24 210.046 380.053 209.428 379.68C208.814 379.307 208.337 378.781 207.996 378.104C207.654 377.427 207.484 376.632 207.484 375.72C207.484 374.776 207.652 373.96 207.988 373.272C208.324 372.584 208.796 372.053 209.404 371.68C210.017 371.307 210.74 371.12 211.572 371.12C212.425 371.12 213.153 371.317 213.756 371.712C214.358 372.101 214.814 372.661 215.124 373.392C215.433 374.123 215.574 374.995 215.548 376.008H214.348V375.592C214.326 374.472 214.084 373.627 213.62 373.056C213.161 372.485 212.489 372.2 211.604 372.2C210.676 372.2 209.964 372.501 209.468 373.104C208.977 373.707 208.732 374.565 208.732 375.68C208.732 376.768 208.977 377.613 209.468 378.216C209.964 378.813 210.665 379.112 211.572 379.112C212.19 379.112 212.729 378.971 213.188 378.688C213.652 378.4 214.017 377.987 214.284 377.448L215.38 377.872C215.038 378.624 214.534 379.208 213.868 379.624C213.206 380.035 212.457 380.24 211.62 380.24ZM208.316 376.008V375.024H214.916V376.008H208.316ZM219.639 380.24C218.988 380.24 218.442 380.123 217.999 379.888C217.562 379.653 217.234 379.341 217.015 378.952C216.796 378.563 216.687 378.139 216.687 377.68C216.687 377.211 216.78 376.811 216.967 376.48C217.159 376.144 217.418 375.869 217.743 375.656C218.074 375.443 218.455 375.28 218.887 375.168C219.324 375.061 219.807 374.968 220.335 374.888C220.868 374.803 221.388 374.731 221.895 374.672C222.407 374.608 222.855 374.547 223.239 374.488L222.823 374.744C222.839 373.891 222.674 373.259 222.327 372.848C221.98 372.437 221.378 372.232 220.519 372.232C219.927 372.232 219.426 372.365 219.015 372.632C218.61 372.899 218.324 373.32 218.159 373.896L217.015 373.56C217.212 372.787 217.61 372.187 218.207 371.76C218.804 371.333 219.58 371.12 220.535 371.12C221.324 371.12 221.994 371.269 222.543 371.568C223.098 371.861 223.49 372.288 223.719 372.848C223.826 373.099 223.895 373.379 223.927 373.688C223.959 373.997 223.975 374.312 223.975 374.632V380H222.927V377.832L223.231 377.96C222.938 378.701 222.482 379.267 221.863 379.656C221.244 380.045 220.503 380.24 219.639 380.24ZM219.775 379.224C220.324 379.224 220.804 379.125 221.215 378.928C221.626 378.731 221.956 378.461 222.207 378.12C222.458 377.773 222.62 377.384 222.695 376.952C222.759 376.675 222.794 376.371 222.799 376.04C222.804 375.704 222.807 375.453 222.807 375.288L223.255 375.52C222.855 375.573 222.42 375.627 221.951 375.68C221.487 375.733 221.028 375.795 220.575 375.864C220.127 375.933 219.722 376.016 219.359 376.112C219.114 376.181 218.876 376.28 218.647 376.408C218.418 376.531 218.228 376.696 218.079 376.904C217.935 377.112 217.863 377.371 217.863 377.68C217.863 377.931 217.924 378.173 218.047 378.408C218.175 378.643 218.378 378.837 218.655 378.992C218.938 379.147 219.311 379.224 219.775 379.224ZM226.218 380V368.24H227.394V380H226.218ZM229.632 375.464V374.456H234.432V375.464H229.632ZM241.215 380C240.729 380.101 240.249 380.141 239.775 380.12C239.305 380.099 238.884 379.997 238.511 379.816C238.143 379.635 237.863 379.352 237.671 378.968C237.516 378.648 237.431 378.325 237.415 378C237.404 377.669 237.399 377.293 237.399 376.872V368.96H238.567V376.824C238.567 377.187 238.569 377.491 238.575 377.736C238.585 377.976 238.641 378.189 238.743 378.376C238.935 378.733 239.239 378.947 239.655 379.016C240.076 379.085 240.596 379.069 241.215 378.968V380ZM235.551 372.368V371.36H241.215V372.368H235.551ZM243.077 369.72V368.4H244.253V369.72H243.077ZM243.077 380V371.36H244.253V380H243.077ZM256.955 380L256.963 374.328C256.963 373.661 256.777 373.139 256.403 372.76C256.035 372.376 255.566 372.184 254.995 372.184C254.67 372.184 254.353 372.259 254.043 372.408C253.734 372.557 253.478 372.797 253.275 373.128C253.078 373.459 252.979 373.891 252.979 374.424L252.283 374.224C252.267 373.605 252.387 373.064 252.643 372.6C252.905 372.136 253.262 371.776 253.715 371.52C254.174 371.259 254.691 371.128 255.267 371.128C256.137 371.128 256.833 371.397 257.355 371.936C257.878 372.469 258.139 373.192 258.139 374.104L258.131 380H256.955ZM246.643 380V371.36H247.699V373.488H247.827V380H246.643ZM251.811 380L251.819 374.408C251.819 373.72 251.635 373.179 251.267 372.784C250.905 372.384 250.425 372.184 249.827 372.184C249.23 372.184 248.747 372.389 248.379 372.8C248.011 373.205 247.827 373.747 247.827 374.424L247.123 374.04C247.123 373.485 247.254 372.989 247.515 372.552C247.777 372.109 248.134 371.763 248.587 371.512C249.041 371.256 249.555 371.128 250.131 371.128C250.681 371.128 251.169 371.245 251.595 371.48C252.027 371.715 252.366 372.056 252.611 372.504C252.857 372.952 252.979 373.496 252.979 374.136L252.971 380H251.811ZM263.823 380.24C262.98 380.24 262.25 380.053 261.631 379.68C261.018 379.307 260.54 378.781 260.199 378.104C259.858 377.427 259.687 376.632 259.687 375.72C259.687 374.776 259.855 373.96 260.191 373.272C260.527 372.584 260.999 372.053 261.607 371.68C262.22 371.307 262.943 371.12 263.775 371.12C264.628 371.12 265.356 371.317 265.959 371.712C266.562 372.101 267.018 372.661 267.327 373.392C267.636 374.123 267.778 374.995 267.751 376.008H266.551V375.592C266.53 374.472 266.287 373.627 265.823 373.056C265.364 372.485 264.692 372.2 263.807 372.2C262.879 372.2 262.167 372.501 261.671 373.104C261.18 373.707 260.935 374.565 260.935 375.68C260.935 376.768 261.18 377.613 261.671 378.216C262.167 378.813 262.868 379.112 263.775 379.112C264.394 379.112 264.932 378.971 265.391 378.688C265.855 378.4 266.22 377.987 266.487 377.448L267.583 377.872C267.242 378.624 266.738 379.208 266.071 379.624C265.41 380.035 264.66 380.24 263.823 380.24ZM260.519 376.008V375.024H267.119V376.008H260.519ZM30 404.24C29.2053 404.24 28.5333 404.04 27.984 403.64C27.4347 403.235 27.0187 402.688 26.736 402C26.4533 401.307 26.312 400.531 26.312 399.672C26.312 398.797 26.4533 398.019 26.736 397.336C27.024 396.648 27.4453 396.107 28 395.712C28.5547 395.317 29.2373 395.12 30.048 395.12C30.8373 395.12 31.5147 395.32 32.08 395.72C32.6453 396.12 33.0773 396.664 33.376 397.352C33.68 398.04 33.832 398.813 33.832 399.672C33.832 400.536 33.68 401.312 33.376 402C33.072 402.688 32.6347 403.235 32.064 403.64C31.4933 404.04 30.8053 404.24 30 404.24ZM26.112 407.84V395.36H27.168V401.864H27.296V407.84H26.112ZM29.88 403.144C30.4827 403.144 30.984 402.992 31.384 402.688C31.784 402.384 32.0827 401.971 32.28 401.448C32.4827 400.92 32.584 400.328 32.584 399.672C32.584 399.021 32.4853 398.435 32.288 397.912C32.0907 397.389 31.7893 396.976 31.384 396.672C30.984 396.368 30.4747 396.216 29.856 396.216C29.2533 396.216 28.752 396.363 28.352 396.656C27.9573 396.949 27.6613 397.357 27.464 397.88C27.2667 398.397 27.168 398.995 27.168 399.672C27.168 400.339 27.2667 400.936 27.464 401.464C27.6613 401.987 27.96 402.397 28.36 402.696C28.76 402.995 29.2667 403.144 29.88 403.144ZM38.0608 404.24C37.4101 404.24 36.8634 404.123 36.4208 403.888C35.9834 403.653 35.6554 403.341 35.4368 402.952C35.2181 402.563 35.1088 402.139 35.1088 401.68C35.1088 401.211 35.2021 400.811 35.3888 400.48C35.5808 400.144 35.8394 399.869 36.1648 399.656C36.4954 399.443 36.8768 399.28 37.3088 399.168C37.7461 399.061 38.2288 398.968 38.7568 398.888C39.2901 398.803 39.8101 398.731 40.3168 398.672C40.8288 398.608 41.2768 398.547 41.6608 398.488L41.2448 398.744C41.2608 397.891 41.0954 397.259 40.7488 396.848C40.4021 396.437 39.7994 396.232 38.9408 396.232C38.3488 396.232 37.8474 396.365 37.4368 396.632C37.0314 396.899 36.7461 397.32 36.5807 397.896L35.4368 397.56C35.6341 396.787 36.0314 396.187 36.6288 395.76C37.2261 395.333 38.0021 395.12 38.9568 395.12C39.7461 395.12 40.4154 395.269 40.9648 395.568C41.5194 395.861 41.9114 396.288 42.1408 396.848C42.2474 397.099 42.3168 397.379 42.3488 397.688C42.3808 397.997 42.3968 398.312 42.3968 398.632V404H41.3488V401.832L41.6528 401.96C41.3594 402.701 40.9034 403.267 40.2848 403.656C39.6661 404.045 38.9248 404.24 38.0608 404.24ZM38.1968 403.224C38.7461 403.224 39.2261 403.125 39.6368 402.928C40.0474 402.731 40.3781 402.461 40.6288 402.12C40.8794 401.773 41.0421 401.384 41.1168 400.952C41.1808 400.675 41.2154 400.371 41.2208 400.04C41.2261 399.704 41.2288 399.453 41.2288 399.288L41.6768 399.52C41.2768 399.573 40.8421 399.627 40.3728 399.68C39.9088 399.733 39.4501 399.795 38.9968 399.864C38.5488 399.933 38.1434 400.016 37.7808 400.112C37.5354 400.181 37.2981 400.28 37.0688 400.408C36.8394 400.531 36.6501 400.696 36.5008 400.904C36.3568 401.112 36.2848 401.371 36.2848 401.68C36.2848 401.931 36.3461 402.173 36.4688 402.408C36.5968 402.643 36.7994 402.837 37.0768 402.992C37.3594 403.147 37.7328 403.224 38.1968 403.224ZM45.227 407.84L46.899 403.304L46.923 404.648L43.139 395.36H44.387L47.491 403.128H46.979L49.843 395.36H51.043L46.403 407.84H45.227ZM62.7365 404L62.7445 398.328C62.7445 397.661 62.5578 397.139 62.1845 396.76C61.8165 396.376 61.3472 396.184 60.7765 396.184C60.4512 396.184 60.1338 396.259 59.8245 396.408C59.5152 396.557 59.2592 396.797 59.0565 397.128C58.8592 397.459 58.7605 397.891 58.7605 398.424L58.0645 398.224C58.0485 397.605 58.1685 397.064 58.4245 396.6C58.6858 396.136 59.0432 395.776 59.4965 395.52C59.9552 395.259 60.4725 395.128 61.0485 395.128C61.9178 395.128 62.6138 395.397 63.1365 395.936C63.6592 396.469 63.9205 397.192 63.9205 398.104L63.9125 404H62.7365ZM52.4245 404V395.36H53.4805V397.488H53.6085V404H52.4245ZM57.5925 404L57.6005 398.408C57.6005 397.72 57.4165 397.179 57.0485 396.784C56.6858 396.384 56.2058 396.184 55.6085 396.184C55.0112 396.184 54.5285 396.389 54.1605 396.8C53.7925 397.205 53.6085 397.747 53.6085 398.424L52.9045 398.04C52.9045 397.485 53.0352 396.989 53.2965 396.552C53.5578 396.109 53.9152 395.763 54.3685 395.512C54.8218 395.256 55.3365 395.128 55.9125 395.128C56.4618 395.128 56.9498 395.245 57.3765 395.48C57.8085 395.715 58.1472 396.056 58.3925 396.504C58.6378 396.952 58.7605 397.496 58.7605 398.136L58.7525 404H57.5925ZM69.6041 404.24C68.7615 404.24 68.0308 404.053 67.4121 403.68C66.7988 403.307 66.3215 402.781 65.9801 402.104C65.6388 401.427 65.4681 400.632 65.4681 399.72C65.4681 398.776 65.6361 397.96 65.9721 397.272C66.3081 396.584 66.7801 396.053 67.3881 395.68C68.0015 395.307 68.7241 395.12 69.5561 395.12C70.4095 395.12 71.1375 395.317 71.7401 395.712C72.3428 396.101 72.7988 396.661 73.1081 397.392C73.4175 398.123 73.5588 398.995 73.5321 400.008H72.3321V399.592C72.3108 398.472 72.0681 397.627 71.6041 397.056C71.1455 396.485 70.4735 396.2 69.5881 396.2C68.6601 396.2 67.9481 396.501 67.4521 397.104C66.9615 397.707 66.7161 398.565 66.7161 399.68C66.7161 400.768 66.9615 401.613 67.4521 402.216C67.9481 402.813 68.6495 403.112 69.5561 403.112C70.1748 403.112 70.7135 402.971 71.1721 402.688C71.6361 402.4 72.0015 401.987 72.2681 401.448L73.3641 401.872C73.0228 402.624 72.5188 403.208 71.8521 403.624C71.1908 404.035 70.4415 404.24 69.6041 404.24ZM66.3001 400.008V399.024H72.9001V400.008H66.3001ZM81.3131 404V399.592C81.3131 399.112 81.2678 398.672 81.1771 398.272C81.0865 397.867 80.9398 397.515 80.7371 397.216C80.5398 396.912 80.2811 396.677 79.9611 396.512C79.6465 396.347 79.2625 396.264 78.8091 396.264C78.3931 396.264 78.0251 396.336 77.7051 396.48C77.3905 396.624 77.1238 396.832 76.9051 397.104C76.6918 397.371 76.5291 397.696 76.4171 398.08C76.3051 398.464 76.2491 398.901 76.2491 399.392L75.4171 399.208C75.4171 398.323 75.5718 397.579 75.8811 396.976C76.1905 396.373 76.6171 395.917 77.1611 395.608C77.7051 395.299 78.3291 395.144 79.0331 395.144C79.5505 395.144 80.0011 395.224 80.3851 395.384C80.7745 395.544 81.1025 395.76 81.3691 396.032C81.6411 396.304 81.8598 396.616 82.0251 396.968C82.1905 397.315 82.3105 397.685 82.3851 398.08C82.4598 398.469 82.4971 398.859 82.4971 399.248V404H81.3131ZM75.0651 404V395.36H76.1291V397.488H76.2491V404H75.0651ZM89.2771 404C88.7918 404.101 88.3118 404.141 87.8371 404.12C87.3678 404.099 86.9465 403.997 86.5731 403.816C86.2051 403.635 85.9251 403.352 85.7331 402.968C85.5785 402.648 85.4931 402.325 85.4771 402C85.4665 401.669 85.4611 401.293 85.4611 400.872V392.96H86.6291V400.824C86.6291 401.187 86.6318 401.491 86.6371 401.736C86.6478 401.976 86.7038 402.189 86.8051 402.376C86.9971 402.733 87.3011 402.947 87.7171 403.016C88.1385 403.085 88.6585 403.069 89.2771 402.968V404ZM83.6131 396.368V395.36H89.2771V396.368H83.6131ZM94.2034 404.232C93.19 404.232 92.3554 404.013 91.6994 403.576C91.0487 403.139 90.6487 402.531 90.4994 401.752L91.6994 401.552C91.8274 402.043 92.118 402.435 92.5714 402.728C93.03 403.016 93.5954 403.16 94.2674 403.16C94.9234 403.16 95.4407 403.024 95.8194 402.752C96.198 402.475 96.3874 402.099 96.3874 401.624C96.3874 401.357 96.326 401.141 96.2034 400.976C96.086 400.805 95.8434 400.648 95.4754 400.504C95.1074 400.36 94.558 400.189 93.8274 399.992C93.0434 399.779 92.43 399.565 91.9874 399.352C91.5447 399.139 91.23 398.893 91.0434 398.616C90.8567 398.333 90.7634 397.989 90.7634 397.584C90.7634 397.093 90.902 396.664 91.1794 396.296C91.4567 395.923 91.8407 395.635 92.3314 395.432C92.822 395.224 93.3927 395.12 94.0434 395.12C94.694 395.12 95.2754 395.227 95.7874 395.44C96.3047 395.648 96.7207 395.941 97.0354 396.32C97.35 396.699 97.5367 397.139 97.5954 397.64L96.3954 397.856C96.3154 397.349 96.062 396.949 95.6354 396.656C95.214 396.357 94.678 396.203 94.0274 396.192C93.414 396.176 92.9154 396.293 92.5314 396.544C92.1474 396.789 91.9554 397.117 91.9554 397.528C91.9554 397.757 92.0247 397.955 92.1634 398.12C92.302 398.28 92.5527 398.432 92.9154 398.576C93.2834 398.72 93.806 398.877 94.4834 399.048C95.278 399.251 95.902 399.464 96.3554 399.688C96.8087 399.912 97.1314 400.176 97.3234 400.48C97.5154 400.784 97.6114 401.16 97.6114 401.608C97.6114 402.424 97.3074 403.067 96.6994 403.536C96.0967 404 95.2647 404.232 94.2034 404.232ZM99.2256 405.672L99.2976 405.088C99.511 405.104 99.6656 405.061 99.7616 404.96C99.8576 404.859 99.9163 404.723 99.9376 404.552C99.959 404.381 99.9643 404.197 99.9536 404H99.2256V402.312H100.594V404.32C100.594 404.811 100.468 405.179 100.218 405.424C99.9723 405.669 99.6416 405.752 99.2256 405.672ZM110.063 404.232C109.049 404.232 108.215 404.013 107.559 403.576C106.908 403.139 106.508 402.531 106.359 401.752L107.559 401.552C107.687 402.043 107.977 402.435 108.431 402.728C108.889 403.016 109.455 403.16 110.127 403.16C110.783 403.16 111.3 403.024 111.679 402.752C112.057 402.475 112.247 402.099 112.247 401.624C112.247 401.357 112.185 401.141 112.063 400.976C111.945 400.805 111.703 400.648 111.335 400.504C110.967 400.36 110.417 400.189 109.687 399.992C108.903 399.779 108.289 399.565 107.847 399.352C107.404 399.139 107.089 398.893 106.903 398.616C106.716 398.333 106.623 397.989 106.623 397.584C106.623 397.093 106.761 396.664 107.039 396.296C107.316 395.923 107.7 395.635 108.191 395.432C108.681 395.224 109.252 395.12 109.903 395.12C110.553 395.12 111.135 395.227 111.647 395.44C112.164 395.648 112.58 395.941 112.895 396.32C113.209 396.699 113.396 397.139 113.455 397.64L112.255 397.856C112.175 397.349 111.921 396.949 111.495 396.656C111.073 396.357 110.537 396.203 109.887 396.192C109.273 396.176 108.775 396.293 108.391 396.544C108.007 396.789 107.815 397.117 107.815 397.528C107.815 397.757 107.884 397.955 108.023 398.12C108.161 398.28 108.412 398.432 108.775 398.576C109.143 398.72 109.665 398.877 110.343 399.048C111.137 399.251 111.761 399.464 112.215 399.688C112.668 399.912 112.991 400.176 113.183 400.48C113.375 400.784 113.471 401.16 113.471 401.608C113.471 402.424 113.167 403.067 112.559 403.536C111.956 404 111.124 404.232 110.063 404.232ZM117.717 404.24C117.066 404.24 116.52 404.123 116.077 403.888C115.64 403.653 115.312 403.341 115.093 402.952C114.874 402.563 114.765 402.139 114.765 401.68C114.765 401.211 114.858 400.811 115.045 400.48C115.237 400.144 115.496 399.869 115.821 399.656C116.152 399.443 116.533 399.28 116.965 399.168C117.402 399.061 117.885 398.968 118.413 398.888C118.946 398.803 119.466 398.731 119.973 398.672C120.485 398.608 120.933 398.547 121.317 398.488L120.901 398.744C120.917 397.891 120.752 397.259 120.405 396.848C120.058 396.437 119.456 396.232 118.597 396.232C118.005 396.232 117.504 396.365 117.093 396.632C116.688 396.899 116.402 397.32 116.237 397.896L115.093 397.56C115.29 396.787 115.688 396.187 116.285 395.76C116.882 395.333 117.658 395.12 118.613 395.12C119.402 395.12 120.072 395.269 120.621 395.568C121.176 395.861 121.568 396.288 121.797 396.848C121.904 397.099 121.973 397.379 122.005 397.688C122.037 397.997 122.053 398.312 122.053 398.632V404H121.005V401.832L121.309 401.96C121.016 402.701 120.56 403.267 119.941 403.656C119.322 404.045 118.581 404.24 117.717 404.24ZM117.853 403.224C118.402 403.224 118.882 403.125 119.293 402.928C119.704 402.731 120.034 402.461 120.285 402.12C120.536 401.773 120.698 401.384 120.773 400.952C120.837 400.675 120.872 400.371 120.877 400.04C120.882 399.704 120.885 399.453 120.885 399.288L121.333 399.52C120.933 399.573 120.498 399.627 120.029 399.68C119.565 399.733 119.106 399.795 118.653 399.864C118.205 399.933 117.8 400.016 117.437 400.112C117.192 400.181 116.954 400.28 116.725 400.408C116.496 400.531 116.306 400.696 116.157 400.904C116.013 401.112 115.941 401.371 115.941 401.68C115.941 401.931 116.002 402.173 116.125 402.408C116.253 402.643 116.456 402.837 116.733 402.992C117.016 403.147 117.389 403.224 117.853 403.224ZM126.159 404L123.023 395.36H124.215L126.767 402.464L129.303 395.36H130.511L127.375 404H126.159ZM132.108 393.72V392.4H133.284V393.72H132.108ZM132.108 404V395.36H133.284V404H132.108ZM141.923 404V399.592C141.923 399.112 141.877 398.672 141.787 398.272C141.696 397.867 141.549 397.515 141.347 397.216C141.149 396.912 140.891 396.677 140.571 396.512C140.256 396.347 139.872 396.264 139.419 396.264C139.003 396.264 138.635 396.336 138.315 396.48C138 396.624 137.733 396.832 137.515 397.104C137.301 397.371 137.139 397.696 137.027 398.08C136.915 398.464 136.859 398.901 136.859 399.392L136.027 399.208C136.027 398.323 136.181 397.579 136.491 396.976C136.8 396.373 137.227 395.917 137.771 395.608C138.315 395.299 138.939 395.144 139.643 395.144C140.16 395.144 140.611 395.224 140.995 395.384C141.384 395.544 141.712 395.76 141.979 396.032C142.251 396.304 142.469 396.616 142.635 396.968C142.8 397.315 142.92 397.685 142.995 398.08C143.069 398.469 143.107 398.859 143.107 399.248V404H141.923ZM135.675 404V395.36H136.739V397.488H136.859V404H135.675ZM148.615 408.08C148.172 408.08 147.735 408.013 147.303 407.88C146.876 407.752 146.481 407.547 146.118 407.264C145.756 406.987 145.452 406.624 145.207 406.176L146.271 405.584C146.511 406.064 146.847 406.408 147.279 406.616C147.716 406.829 148.161 406.936 148.615 406.936C149.239 406.936 149.743 406.819 150.127 406.584C150.516 406.355 150.799 406.013 150.975 405.56C151.151 405.107 151.236 404.541 151.231 403.864V401.56H151.367V395.36H152.415V403.88C152.415 404.125 152.407 404.36 152.391 404.584C152.38 404.813 152.356 405.037 152.319 405.256C152.217 405.901 152.007 406.432 151.687 406.848C151.372 407.264 150.956 407.573 150.439 407.776C149.927 407.979 149.319 408.08 148.615 408.08ZM148.535 404.24C147.729 404.24 147.041 404.04 146.471 403.64C145.9 403.235 145.463 402.688 145.159 402C144.855 401.312 144.703 400.536 144.703 399.672C144.703 398.813 144.852 398.04 145.151 397.352C145.455 396.664 145.889 396.12 146.455 395.72C147.02 395.32 147.697 395.12 148.487 395.12C149.297 395.12 149.98 395.317 150.535 395.712C151.089 396.107 151.508 396.648 151.791 397.336C152.079 398.019 152.223 398.797 152.223 399.672C152.223 400.531 152.081 401.307 151.799 402C151.516 402.688 151.1 403.235 150.551 403.64C150.001 404.04 149.329 404.24 148.535 404.24ZM148.655 403.144C149.268 403.144 149.775 402.995 150.175 402.696C150.575 402.397 150.873 401.987 151.071 401.464C151.268 400.936 151.367 400.339 151.367 399.672C151.367 398.995 151.268 398.397 151.071 397.88C150.873 397.357 150.575 396.949 150.175 396.656C149.78 396.363 149.281 396.216 148.679 396.216C148.06 396.216 147.548 396.368 147.143 396.672C146.737 396.976 146.436 397.389 146.239 397.912C146.047 398.435 145.951 399.021 145.951 399.672C145.951 400.328 146.049 400.92 146.247 401.448C146.449 401.971 146.751 402.384 147.151 402.688C147.551 402.992 148.052 403.144 148.655 403.144ZM157.875 404.232C156.862 404.232 156.027 404.013 155.371 403.576C154.721 403.139 154.321 402.531 154.171 401.752L155.371 401.552C155.499 402.043 155.79 402.435 156.243 402.728C156.702 403.016 157.267 403.16 157.939 403.16C158.595 403.16 159.113 403.024 159.491 402.752C159.87 402.475 160.059 402.099 160.059 401.624C160.059 401.357 159.998 401.141 159.875 400.976C159.758 400.805 159.515 400.648 159.147 400.504C158.779 400.36 158.23 400.189 157.499 399.992C156.715 399.779 156.102 399.565 155.659 399.352C155.217 399.139 154.902 398.893 154.715 398.616C154.529 398.333 154.435 397.989 154.435 397.584C154.435 397.093 154.574 396.664 154.851 396.296C155.129 395.923 155.513 395.635 156.003 395.432C156.494 395.224 157.065 395.12 157.715 395.12C158.366 395.12 158.947 395.227 159.459 395.44C159.977 395.648 160.393 395.941 160.707 396.32C161.022 396.699 161.209 397.139 161.267 397.64L160.067 397.856C159.987 397.349 159.734 396.949 159.307 396.656C158.886 396.357 158.35 396.203 157.699 396.192C157.086 396.176 156.587 396.293 156.203 396.544C155.819 396.789 155.627 397.117 155.627 397.528C155.627 397.757 155.697 397.955 155.835 398.12C155.974 398.28 156.225 398.432 156.587 398.576C156.955 398.72 157.478 398.877 158.155 399.048C158.95 399.251 159.574 399.464 160.027 399.688C160.481 399.912 160.803 400.176 160.995 400.48C161.187 400.784 161.283 401.16 161.283 401.608C161.283 402.424 160.979 403.067 160.371 403.536C159.769 404 158.937 404.232 157.875 404.232ZM162.898 405.672L162.97 405.088C163.183 405.104 163.338 405.061 163.434 404.96C163.53 404.859 163.588 404.723 163.61 404.552C163.631 404.381 163.636 404.197 163.626 404H162.898V402.312H164.266V404.32C164.266 404.811 164.14 405.179 163.89 405.424C163.644 405.669 163.314 405.752 162.898 405.672ZM174.167 404.24C173.324 404.24 172.593 404.053 171.975 403.68C171.361 403.307 170.884 402.781 170.543 402.104C170.201 401.427 170.031 400.632 170.031 399.72C170.031 398.776 170.199 397.96 170.535 397.272C170.871 396.584 171.343 396.053 171.951 395.68C172.564 395.307 173.287 395.12 174.119 395.12C174.972 395.12 175.7 395.317 176.303 395.712C176.905 396.101 177.361 396.661 177.671 397.392C177.98 398.123 178.121 398.995 178.095 400.008H176.895V399.592C176.873 398.472 176.631 397.627 176.167 397.056C175.708 396.485 175.036 396.2 174.151 396.2C173.223 396.2 172.511 396.501 172.015 397.104C171.524 397.707 171.279 398.565 171.279 399.68C171.279 400.768 171.524 401.613 172.015 402.216C172.511 402.813 173.212 403.112 174.119 403.112C174.737 403.112 175.276 402.971 175.735 402.688C176.199 402.4 176.564 401.987 176.831 401.448L177.927 401.872C177.585 402.624 177.081 403.208 176.415 403.624C175.753 404.035 175.004 404.24 174.167 404.24ZM170.863 400.008V399.024H177.463V400.008H170.863ZM184.574 404C184.089 404.101 183.609 404.141 183.134 404.12C182.665 404.099 182.243 403.997 181.87 403.816C181.502 403.635 181.222 403.352 181.03 402.968C180.875 402.648 180.79 402.325 180.774 402C180.763 401.669 180.758 401.293 180.758 400.872V392.96H181.926V400.824C181.926 401.187 181.929 401.491 181.934 401.736C181.945 401.976 182.001 402.189 182.102 402.376C182.294 402.733 182.598 402.947 183.014 403.016C183.435 403.085 183.955 403.069 184.574 402.968V404ZM178.91 396.368V395.36H184.574V396.368H178.91ZM189.548 404.24C188.678 404.24 187.942 404.045 187.34 403.656C186.737 403.267 186.278 402.731 185.964 402.048C185.654 401.36 185.494 400.571 185.484 399.68C185.494 398.773 185.66 397.979 185.98 397.296C186.3 396.608 186.761 396.075 187.364 395.696C187.966 395.312 188.697 395.12 189.556 395.12C190.43 395.12 191.19 395.333 191.836 395.76C192.486 396.187 192.932 396.771 193.172 397.512L192.02 397.88C191.817 397.363 191.494 396.963 191.052 396.68C190.614 396.392 190.113 396.248 189.548 396.248C188.913 396.248 188.388 396.395 187.972 396.688C187.556 396.976 187.246 397.379 187.044 397.896C186.841 398.413 186.737 399.008 186.732 399.68C186.742 400.715 186.982 401.547 187.452 402.176C187.921 402.8 188.62 403.112 189.548 403.112C190.134 403.112 190.633 402.979 191.044 402.712C191.46 402.44 191.774 402.045 191.988 401.528L193.172 401.88C192.852 402.648 192.382 403.235 191.764 403.64C191.145 404.04 190.406 404.24 189.548 404.24ZM194.735 404V402.632H196.103V404H194.735Z" fill="#646464"/>
<g clip-path="url(#clip0_2303_2763)">
<path d="M188.046 110.107C178.964 118.252 169.893 126.408 160.811 134.552C159.47 134.707 148.013 136.262 142.362 146.377C139.192 152.04 139.405 157.596 139.655 159.971C139.655 159.971 137.565 178.753 157.249 183.157C167.412 185.425 179.296 182.291 188.485 188.096C196.036 192.869 199.515 201.073 199.36 209.834C199.36 209.87 163.554 209.953 160.301 209.989C148.642 210.095 138.907 206.296 129.73 199.066C116.824 188.88 109.713 171.962 110.259 155.661C110.805 139.61 120.908 124.33 134.692 116.198C147.443 108.671 161.713 110.107 175.913 110.107H188.046Z" fill="url(#paint2_radial_2303_2763)"/>
<path d="M153.261 209.465C144.95 208.385 137.625 203.494 132.579 196.928C127.32 190.066 125.349 182.575 125.23 174.039C125.076 162.653 128.483 151.232 137.4 143.681C143.407 138.6 152.893 134.896 160.8 134.552C153.475 136.546 145.295 140.974 141.531 147.765C137.981 154.188 138.421 161.751 140.605 168.554C143.241 176.746 150.091 182.575 158.651 183.821C165.525 184.819 172.446 183.536 179.332 184.866C182.3 185.436 185.268 186.279 187.952 187.692C196.262 192.073 199.301 201.024 199.337 209.833C190.279 209.774 181.22 209.727 172.15 209.667C166 209.632 159.458 210.261 153.237 209.454L153.261 209.465Z" fill="url(#paint3_radial_2303_2763)"/>
<path d="M199.764 110.13V135.62H172.316L199.764 110.13Z" fill="url(#paint4_radial_2303_2763)"/>
</g>
<defs>
<radialGradient id="paint0_radial_2303_2763" cx="0" cy="0" r="1" gradientUnits="userSpaceOnUse" gradientTransform="translate(266.063 23.6047) rotate(-2.26679) scale(17.7866)">
<stop stop-color="#EF4BCB"/>
<stop offset="1" stop-color="#34897B"/>
</radialGradient>
<radialGradient id="paint1_radial_2303_2763" cx="0" cy="0" r="1" gradientUnits="userSpaceOnUse" gradientTransform="translate(25.8841 306.863) rotate(-0.263083) scale(246.837 28.6774)">
<stop stop-color="#EF4BCB"/>
<stop offset="1" stop-color="#34897B"/>
</radialGradient>
<radialGradient id="paint2_radial_2303_2763" cx="0" cy="0" r="1" gradientUnits="userSpaceOnUse" gradientTransform="translate(110.545 157.797) rotate(-2.54257) scale(88.0936 98.7844)">
<stop stop-color="#EF4BCB"/>
<stop offset="1" stop-color="#34897B"/>
</radialGradient>
<radialGradient id="paint3_radial_2303_2763" cx="0" cy="0" r="1" gradientUnits="userSpaceOnUse" gradientTransform="translate(125.488 170.554) rotate(-2.30359) scale(73.2325 74.4186)">
<stop stop-color="#EF4BCB"/>
<stop offset="1" stop-color="#34897B"/>
</radialGradient>
<radialGradient id="paint4_radial_2303_2763" cx="0" cy="0" r="1" gradientUnits="userSpaceOnUse" gradientTransform="translate(172.413 122.315) rotate(-2.10517) scale(27.1194 25.1894)">
<stop stop-color="#EF4BCB"/>
<stop offset="1" stop-color="#34897B"/>
</radialGradient>
<clipPath id="clip0_2303_2763">
<rect width="100" height="100" fill="white" transform="translate(100 110)"/>
</clipPath>
</defs>
</svg>
