<svg width="100" height="100" viewBox="0 0 100 100" fill="none" xmlns="http://www.w3.org/2000/svg">
<g clip-path="url(#clip0_2303_2774)">
<path d="M88.046 0.107314C78.9638 8.25168 69.8934 16.4079 60.8111 24.5523C59.4695 24.7066 48.0128 26.2619 42.3616 36.3771C39.1917 42.0401 39.4054 47.5963 39.6547 49.9708C39.6547 49.9708 37.5652 68.7527 57.2494 73.1573C67.4121 75.4249 79.2962 72.2906 88.4853 78.0962C96.0361 82.8688 99.5146 91.0725 99.3603 99.8342C99.3603 99.8699 63.5536 99.953 60.3006 99.9886C48.642 100.095 38.9068 96.2963 29.7295 89.0661C16.8244 78.8797 9.71291 61.9618 10.259 45.6612C10.8052 29.6099 20.9084 14.3303 34.6921 6.19778C47.4429 -1.32923 61.7134 0.107314 75.9126 0.107314H88.046Z" fill="url(#paint0_radial_2303_2774)"/>
<path d="M53.2609 99.4654C44.9503 98.3851 37.6251 93.4937 32.5794 86.9283C27.32 80.0662 25.3492 72.5748 25.2305 64.0386C25.0761 52.6531 28.4835 41.232 37.3995 33.6813C43.4069 28.6 52.8928 24.8958 60.7997 24.5515C53.4746 26.5461 45.2946 30.9744 41.5311 37.7653C37.9813 44.1882 38.4205 51.7508 40.605 58.5536C43.2407 66.7455 50.091 72.5748 58.6509 73.8214C65.5249 74.8186 72.4464 73.5364 79.3323 74.8661C82.3004 75.436 85.2684 76.2789 87.9516 77.6917C96.2622 82.0726 99.3015 91.0243 99.3371 99.8335C90.2785 99.7741 81.22 99.7266 72.1496 99.6673C65.9998 99.6316 59.4582 100.261 53.2371 99.4536L53.2609 99.4654Z" fill="url(#paint1_radial_2303_2774)"/>
<path d="M99.7642 0.129883V25.6196H72.3156L99.7642 0.129883Z" fill="url(#paint2_radial_2303_2774)"/>
</g>
<defs>
<radialGradient id="paint0_radial_2303_2774" cx="0" cy="0" r="1" gradientUnits="userSpaceOnUse" gradientTransform="translate(10.545 47.7966) rotate(-2.54257) scale(88.0936 98.7844)">
<stop stop-color="#EF4BCB"/>
<stop offset="1" stop-color="#34897B"/>
</radialGradient>
<radialGradient id="paint1_radial_2303_2774" cx="0" cy="0" r="1" gradientUnits="userSpaceOnUse" gradientTransform="translate(25.4876 60.5542) rotate(-2.30359) scale(73.2325 74.4186)">
<stop stop-color="#EF4BCB"/>
<stop offset="1" stop-color="#34897B"/>
</radialGradient>
<radialGradient id="paint2_radial_2303_2774" cx="0" cy="0" r="1" gradientUnits="userSpaceOnUse" gradientTransform="translate(72.4126 12.3146) rotate(-2.10517) scale(27.1194 25.1894)">
<stop stop-color="#EF4BCB"/>
<stop offset="1" stop-color="#34897B"/>
</radialGradient>
<clipPath id="clip0_2303_2774">
<rect width="100" height="100" fill="white"/>
</clipPath>
</defs>
</svg>
