<svg width="300" height="434" viewBox="0 0 300 434" fill="none" xmlns="http://www.w3.org/2000/svg">
<rect x="251" width="48" height="48" rx="24" fill="white"/>
<path d="M284 16V29C284 29.2652 283.895 29.5196 283.707 29.7071C283.52 29.8946 283.265 30 283 30C282.735 30 282.48 29.8946 282.293 29.7071C282.105 29.5196 282 29.2652 282 29V18.4137L267.708 32.7075C267.52 32.8951 267.265 33.0006 267 33.0006C266.735 33.0006 266.48 32.8951 266.293 32.7075C266.105 32.5199 265.999 32.2654 265.999 32C265.999 31.7346 266.105 31.4801 266.293 31.2925L280.586 17H270C269.735 17 269.48 16.8946 269.293 16.7071C269.105 16.5196 269 16.2652 269 16C269 15.7348 269.105 15.4804 269.293 15.2929C269.48 15.1054 269.735 15 270 15H283C283.265 15 283.52 15.1054 283.707 15.2929C283.895 15.4804 284 15.7348 284 16Z" fill="url(#paint0_radial_2303_2705)"/>
<mask id="mask0_2303_2705" style="mask-type:alpha" maskUnits="userSpaceOnUse" x="1" y="0" width="299" height="434">
<path d="M215.5 0C226.546 0 235.5 8.9543 235.5 20V24.5C235.5 45.4868 252.513 62.5 273.5 62.5H279.445C290.491 62.5 299.445 71.4543 299.445 82.5V414C299.445 425.046 290.491 434 279.445 434H21C9.95431 434 1 425.046 1 414V20C1.00001 8.95431 9.95431 0 21 0H215.5Z" fill="#D9D9D9"/>
</mask>
<g mask="url(#mask0_2303_2705)">
<rect width="298" height="434" transform="translate(1)" fill="white"/>
</g>
<defs>
<radialGradient id="paint0_radial_2303_2705" cx="0" cy="0" r="1" gradientUnits="userSpaceOnUse" gradientTransform="translate(266.063 23.6047) rotate(-2.26679) scale(17.7866)">
<stop stop-color="#EF4BCB"/>
<stop offset="1" stop-color="#34897B"/>
</radialGradient>
</defs>
</svg>
